M48
; DRILL file {KiCad (5.1.5)-3} date 26/08/2020 12:48:40
; FORMAT={-:-/ absolute / inch / decimal}
; #@! TF.CreationDate,2020-08-26T12:48:40-04:00
; #@! TF.GenerationSoftware,Kicad,Pcbnew,(5.1.5)-3
; #@! TF.FileFunction,NonPlated,1,4,NPTH
FMAT,2
INCH
T1C0.0500
T2C0.1063
T3C0.1181
T4C0.1252
T5C0.1260
T6C0.1693
T7C0.1732
%
G90
G05
T1
X6.1726Y-5.1019
X6.1731Y-4.7708
X6.7636Y-4.7708
X5.0391Y-2.922
X5.6296Y-2.922
X7.5897Y-8.5828
X7.944Y-8.5828
X6.7631Y-5.1019
T2
X13.2171Y-4.17
X13.2179Y-4.585
X12.0829Y-8.945
X13.2179Y-5.0
T3
X13.37Y-3.4974
X13.37Y-3.8674
X13.3701Y-2.7903
X13.3701Y-3.3257
T4
X13.234Y-2.6138
T5
X9.45Y-4.273
X10.563Y-4.4
X8.72Y-6.825
X8.72Y-8.825
X10.613Y-6.8272
X10.613Y-8.8272
X9.055Y-4.94
X10.17Y-5.94
X11.252Y-4.94
T6
X7.73Y-3.73
X7.74Y-1.76
X9.97Y-1.76
X9.97Y-3.72
X12.85Y-1.75
X12.85Y-3.73
T7
X12.115Y-6.6825
X12.115Y-7.3715
X12.115Y-8.0605
X13.5717Y-6.6825
X13.5717Y-7.3715
X13.5717Y-8.0605
T0
M30
