G04 #@! TF.GenerationSoftware,KiCad,Pcbnew,(5.1.5)-3*
G04 #@! TF.CreationDate,2020-07-17T00:05:11-04:00*
G04 #@! TF.ProjectId,Power Transducer,506f7765-7220-4547-9261-6e7364756365,rev?*
G04 #@! TF.SameCoordinates,Original*
G04 #@! TF.FileFunction,Legend,Top*
G04 #@! TF.FilePolarity,Positive*
%FSLAX46Y46*%
G04 Gerber Fmt 4.6, Leading zero omitted, Abs format (unit mm)*
G04 Created by KiCad (PCBNEW (5.1.5)-3) date 2020-07-17 00:05:11*
%MOMM*%
%LPD*%
G04 APERTURE LIST*
%ADD10C,0.250000*%
%ADD11C,0.150000*%
%ADD12C,0.120000*%
%ADD13C,0.200000*%
%ADD14C,0.254000*%
G04 APERTURE END LIST*
D10*
X93424571Y-86685380D02*
X93424571Y-85685380D01*
X93900761Y-86685380D02*
X93900761Y-85685380D01*
X94472190Y-86685380D01*
X94472190Y-85685380D01*
X94805523Y-85685380D02*
X95138857Y-86685380D01*
X95472190Y-85685380D01*
X95805523Y-86304428D02*
X96567428Y-86304428D01*
X93424571Y-74620380D02*
X93424571Y-73620380D01*
X93900761Y-74620380D02*
X93900761Y-73620380D01*
X94472190Y-74620380D01*
X94472190Y-73620380D01*
X94805523Y-73620380D02*
X95138857Y-74620380D01*
X95472190Y-73620380D01*
X95805523Y-74239428D02*
X96567428Y-74239428D01*
X96186476Y-74620380D02*
X96186476Y-73858476D01*
D11*
X110284023Y-81875379D02*
X110093547Y-81875379D01*
X109998309Y-81922999D01*
X109950690Y-81970618D01*
X109855452Y-82113475D01*
X109807833Y-82303951D01*
X109807833Y-82684903D01*
X109855452Y-82780141D01*
X109903071Y-82827760D01*
X109998309Y-82875379D01*
X110188785Y-82875379D01*
X110284023Y-82827760D01*
X110331642Y-82780141D01*
X110379261Y-82684903D01*
X110379261Y-82446808D01*
X110331642Y-82351570D01*
X110284023Y-82303951D01*
X110188785Y-82256332D01*
X109998309Y-82256332D01*
X109903071Y-82303951D01*
X109855452Y-82351570D01*
X109807833Y-82446808D01*
X110807833Y-82780141D02*
X110855452Y-82827760D01*
X110807833Y-82875379D01*
X110760214Y-82827760D01*
X110807833Y-82780141D01*
X110807833Y-82875379D01*
X111188785Y-81875379D02*
X111855452Y-81875379D01*
X111426880Y-82875379D01*
X112141166Y-81875379D02*
X112760214Y-81875379D01*
X112426880Y-82256332D01*
X112569738Y-82256332D01*
X112664976Y-82303951D01*
X112712595Y-82351570D01*
X112760214Y-82446808D01*
X112760214Y-82684903D01*
X112712595Y-82780141D01*
X112664976Y-82827760D01*
X112569738Y-82875379D01*
X112284023Y-82875379D01*
X112188785Y-82827760D01*
X112141166Y-82780141D01*
X113712595Y-82875379D02*
X113141166Y-82875379D01*
X113426880Y-82875379D02*
X113426880Y-81875379D01*
X113331642Y-82018237D01*
X113236404Y-82113475D01*
X113141166Y-82161094D01*
X114903071Y-82875379D02*
X114903071Y-82208713D01*
X114903071Y-82303951D02*
X114950690Y-82256332D01*
X115045928Y-82208713D01*
X115188785Y-82208713D01*
X115284023Y-82256332D01*
X115331642Y-82351570D01*
X115331642Y-82875379D01*
X115331642Y-82351570D02*
X115379261Y-82256332D01*
X115474500Y-82208713D01*
X115617357Y-82208713D01*
X115712595Y-82256332D01*
X115760214Y-82351570D01*
X115760214Y-82875379D01*
X116236404Y-82875379D02*
X116236404Y-82208713D01*
X116236404Y-82303951D02*
X116284023Y-82256332D01*
X116379261Y-82208713D01*
X116522119Y-82208713D01*
X116617357Y-82256332D01*
X116664976Y-82351570D01*
X116664976Y-82875379D01*
X116664976Y-82351570D02*
X116712595Y-82256332D01*
X116807833Y-82208713D01*
X116950690Y-82208713D01*
X117045928Y-82256332D01*
X117093547Y-82351570D01*
X117093547Y-82875379D01*
D12*
X110109000Y-81152999D02*
X116840000Y-81152999D01*
X110109000Y-81026000D02*
X110109000Y-81739420D01*
X116840000Y-81026000D02*
X116840000Y-81739420D01*
X116840000Y-81152999D02*
X115713496Y-81739420D01*
X116840000Y-81152999D02*
X115713496Y-80566578D01*
X110109000Y-81152999D02*
X111235504Y-81739420D01*
X110109000Y-81152999D02*
X111235504Y-80566578D01*
X110109000Y-90424000D02*
X110109000Y-69596000D01*
X116840000Y-69596000D02*
X116840000Y-90424000D01*
X130819000Y-76040000D02*
X127579000Y-76040000D01*
X130273000Y-70999000D02*
X128124000Y-70999000D01*
X127579000Y-72357000D02*
X127579000Y-76040000D01*
X130819000Y-72357000D02*
X130819000Y-76040000D01*
X130273000Y-70999000D02*
X128124000Y-70999000D01*
X134220000Y-70999000D02*
X133125000Y-70999000D01*
X125274000Y-70999000D02*
X124179000Y-70999000D01*
X134220000Y-76040000D02*
X124179000Y-76040000D01*
X124179000Y-70999000D02*
X124179000Y-76040000D01*
X134220000Y-70999000D02*
X134220000Y-76040000D01*
X101421000Y-87068922D02*
X101421000Y-87586078D01*
X100001000Y-87068922D02*
X100001000Y-87586078D01*
X102795000Y-87068922D02*
X102795000Y-87586078D01*
X104215000Y-87068922D02*
X104215000Y-87586078D01*
X106247000Y-87068922D02*
X106247000Y-87586078D01*
X104827000Y-87068922D02*
X104827000Y-87586078D01*
X125275078Y-78053000D02*
X124757922Y-78053000D01*
X125275078Y-76633000D02*
X124757922Y-76633000D01*
X105082078Y-83491000D02*
X104564922Y-83491000D01*
X105082078Y-84911000D02*
X104564922Y-84911000D01*
X121337000Y-87449922D02*
X121337000Y-87967078D01*
X122757000Y-87449922D02*
X122757000Y-87967078D01*
X124789000Y-87449922D02*
X124789000Y-87967078D01*
X123369000Y-87449922D02*
X123369000Y-87967078D01*
X117696500Y-82875000D02*
X120381500Y-82875000D01*
X120381500Y-82875000D02*
X120381500Y-80955000D01*
X120381500Y-80955000D02*
X117696500Y-80955000D01*
X103138500Y-83002000D02*
X105823500Y-83002000D01*
X103138500Y-81082000D02*
X103138500Y-83002000D01*
X105823500Y-81082000D02*
X103138500Y-81082000D01*
D13*
X109869000Y-83435000D02*
X117969000Y-83435000D01*
X117969000Y-83435000D02*
X117969000Y-89285000D01*
X117969000Y-89285000D02*
X109869000Y-89285000D01*
X109869000Y-89285000D02*
X109869000Y-83435000D01*
X107669000Y-83780000D02*
X109519000Y-83780000D01*
X126402000Y-79375000D02*
X134237000Y-79375000D01*
X127637000Y-89535000D02*
X134237000Y-89535000D01*
D12*
X138102000Y-74035000D02*
X147222000Y-74035000D01*
X147222000Y-74035000D02*
X148222000Y-75035000D01*
X148222000Y-75035000D02*
X148222000Y-88905000D01*
X148222000Y-88905000D02*
X147222000Y-89905000D01*
X147222000Y-89905000D02*
X138102000Y-89905000D01*
X138102000Y-74035000D02*
X138102000Y-76460000D01*
X138102000Y-89905000D02*
X138102000Y-87121767D01*
X138102000Y-78480000D02*
X138102000Y-79818233D01*
X138102000Y-81121767D02*
X138102000Y-82818233D01*
X138102000Y-84121767D02*
X138102000Y-85818233D01*
X122668000Y-70217000D02*
X100598000Y-70217000D01*
X100598000Y-70217000D02*
X100598000Y-79637000D01*
X100598000Y-79637000D02*
X122668000Y-79637000D01*
X122668000Y-79637000D02*
X122668000Y-70217000D01*
X122968000Y-71167000D02*
X122968000Y-69917000D01*
X122968000Y-69917000D02*
X121718000Y-69917000D01*
X99208000Y-72292936D02*
X99208000Y-73497064D01*
X97388000Y-72292936D02*
X97388000Y-73497064D01*
X97388000Y-77118936D02*
X97388000Y-78323064D01*
X99208000Y-77118936D02*
X99208000Y-78323064D01*
X99208000Y-81944936D02*
X99208000Y-83149064D01*
X97388000Y-81944936D02*
X97388000Y-83149064D01*
X97388000Y-86770936D02*
X97388000Y-87975064D01*
X99208000Y-86770936D02*
X99208000Y-87975064D01*
D11*
X135801380Y-71715238D02*
X135325190Y-72048571D01*
X135801380Y-72286666D02*
X134801380Y-72286666D01*
X134801380Y-71905714D01*
X134849000Y-71810476D01*
X134896619Y-71762857D01*
X134991857Y-71715238D01*
X135134714Y-71715238D01*
X135229952Y-71762857D01*
X135277571Y-71810476D01*
X135325190Y-71905714D01*
X135325190Y-72286666D01*
X134801380Y-71429523D02*
X135801380Y-71096190D01*
X134801380Y-70762857D01*
X135801380Y-69905714D02*
X135801380Y-70477142D01*
X135801380Y-70191428D02*
X134801380Y-70191428D01*
X134944238Y-70286666D01*
X135039476Y-70381904D01*
X135087095Y-70477142D01*
X102718142Y-87494166D02*
X102765761Y-87541785D01*
X102813380Y-87684642D01*
X102813380Y-87779880D01*
X102765761Y-87922738D01*
X102670523Y-88017976D01*
X102575285Y-88065595D01*
X102384809Y-88113214D01*
X102241952Y-88113214D01*
X102051476Y-88065595D01*
X101956238Y-88017976D01*
X101861000Y-87922738D01*
X101813380Y-87779880D01*
X101813380Y-87684642D01*
X101861000Y-87541785D01*
X101908619Y-87494166D01*
X102813380Y-86541785D02*
X102813380Y-87113214D01*
X102813380Y-86827500D02*
X101813380Y-86827500D01*
X101956238Y-86922738D01*
X102051476Y-87017976D01*
X102099095Y-87113214D01*
X105512142Y-87494166D02*
X105559761Y-87541785D01*
X105607380Y-87684642D01*
X105607380Y-87779880D01*
X105559761Y-87922738D01*
X105464523Y-88017976D01*
X105369285Y-88065595D01*
X105178809Y-88113214D01*
X105035952Y-88113214D01*
X104845476Y-88065595D01*
X104750238Y-88017976D01*
X104655000Y-87922738D01*
X104607380Y-87779880D01*
X104607380Y-87684642D01*
X104655000Y-87541785D01*
X104702619Y-87494166D01*
X104702619Y-87113214D02*
X104655000Y-87065595D01*
X104607380Y-86970357D01*
X104607380Y-86732261D01*
X104655000Y-86637023D01*
X104702619Y-86589404D01*
X104797857Y-86541785D01*
X104893095Y-86541785D01*
X105035952Y-86589404D01*
X105607380Y-87160833D01*
X105607380Y-86541785D01*
X107544142Y-87494166D02*
X107591761Y-87541785D01*
X107639380Y-87684642D01*
X107639380Y-87779880D01*
X107591761Y-87922738D01*
X107496523Y-88017976D01*
X107401285Y-88065595D01*
X107210809Y-88113214D01*
X107067952Y-88113214D01*
X106877476Y-88065595D01*
X106782238Y-88017976D01*
X106687000Y-87922738D01*
X106639380Y-87779880D01*
X106639380Y-87684642D01*
X106687000Y-87541785D01*
X106734619Y-87494166D01*
X106639380Y-87160833D02*
X106639380Y-86541785D01*
X107020333Y-86875119D01*
X107020333Y-86732261D01*
X107067952Y-86637023D01*
X107115571Y-86589404D01*
X107210809Y-86541785D01*
X107448904Y-86541785D01*
X107544142Y-86589404D01*
X107591761Y-86637023D01*
X107639380Y-86732261D01*
X107639380Y-87017976D01*
X107591761Y-87113214D01*
X107544142Y-87160833D01*
X124849833Y-79350142D02*
X124802214Y-79397761D01*
X124659357Y-79445380D01*
X124564119Y-79445380D01*
X124421261Y-79397761D01*
X124326023Y-79302523D01*
X124278404Y-79207285D01*
X124230785Y-79016809D01*
X124230785Y-78873952D01*
X124278404Y-78683476D01*
X124326023Y-78588238D01*
X124421261Y-78493000D01*
X124564119Y-78445380D01*
X124659357Y-78445380D01*
X124802214Y-78493000D01*
X124849833Y-78540619D01*
X125706976Y-78778714D02*
X125706976Y-79445380D01*
X125468880Y-78397761D02*
X125230785Y-79112047D01*
X125849833Y-79112047D01*
X104656833Y-86208142D02*
X104609214Y-86255761D01*
X104466357Y-86303380D01*
X104371119Y-86303380D01*
X104228261Y-86255761D01*
X104133023Y-86160523D01*
X104085404Y-86065285D01*
X104037785Y-85874809D01*
X104037785Y-85731952D01*
X104085404Y-85541476D01*
X104133023Y-85446238D01*
X104228261Y-85351000D01*
X104371119Y-85303380D01*
X104466357Y-85303380D01*
X104609214Y-85351000D01*
X104656833Y-85398619D01*
X105561595Y-85303380D02*
X105085404Y-85303380D01*
X105037785Y-85779571D01*
X105085404Y-85731952D01*
X105180642Y-85684333D01*
X105418738Y-85684333D01*
X105513976Y-85731952D01*
X105561595Y-85779571D01*
X105609214Y-85874809D01*
X105609214Y-86112904D01*
X105561595Y-86208142D01*
X105513976Y-86255761D01*
X105418738Y-86303380D01*
X105180642Y-86303380D01*
X105085404Y-86255761D01*
X105037785Y-86208142D01*
X124054142Y-87875166D02*
X124101761Y-87922785D01*
X124149380Y-88065642D01*
X124149380Y-88160880D01*
X124101761Y-88303738D01*
X124006523Y-88398976D01*
X123911285Y-88446595D01*
X123720809Y-88494214D01*
X123577952Y-88494214D01*
X123387476Y-88446595D01*
X123292238Y-88398976D01*
X123197000Y-88303738D01*
X123149380Y-88160880D01*
X123149380Y-88065642D01*
X123197000Y-87922785D01*
X123244619Y-87875166D01*
X123149380Y-87018023D02*
X123149380Y-87208500D01*
X123197000Y-87303738D01*
X123244619Y-87351357D01*
X123387476Y-87446595D01*
X123577952Y-87494214D01*
X123958904Y-87494214D01*
X124054142Y-87446595D01*
X124101761Y-87398976D01*
X124149380Y-87303738D01*
X124149380Y-87113261D01*
X124101761Y-87018023D01*
X124054142Y-86970404D01*
X123958904Y-86922785D01*
X123720809Y-86922785D01*
X123625571Y-86970404D01*
X123577952Y-87018023D01*
X123530333Y-87113261D01*
X123530333Y-87303738D01*
X123577952Y-87398976D01*
X123625571Y-87446595D01*
X123720809Y-87494214D01*
X126086142Y-87875166D02*
X126133761Y-87922785D01*
X126181380Y-88065642D01*
X126181380Y-88160880D01*
X126133761Y-88303738D01*
X126038523Y-88398976D01*
X125943285Y-88446595D01*
X125752809Y-88494214D01*
X125609952Y-88494214D01*
X125419476Y-88446595D01*
X125324238Y-88398976D01*
X125229000Y-88303738D01*
X125181380Y-88160880D01*
X125181380Y-88065642D01*
X125229000Y-87922785D01*
X125276619Y-87875166D01*
X125181380Y-87541833D02*
X125181380Y-86875166D01*
X126181380Y-87303738D01*
X117958404Y-84017380D02*
X117958404Y-83017380D01*
X118196500Y-83017380D01*
X118339357Y-83065000D01*
X118434595Y-83160238D01*
X118482214Y-83255476D01*
X118529833Y-83445952D01*
X118529833Y-83588809D01*
X118482214Y-83779285D01*
X118434595Y-83874523D01*
X118339357Y-83969761D01*
X118196500Y-84017380D01*
X117958404Y-84017380D01*
X119482214Y-84017380D02*
X118910785Y-84017380D01*
X119196500Y-84017380D02*
X119196500Y-83017380D01*
X119101261Y-83160238D01*
X119006023Y-83255476D01*
X118910785Y-83303095D01*
X104085404Y-80844380D02*
X104085404Y-79844380D01*
X104323500Y-79844380D01*
X104466357Y-79892000D01*
X104561595Y-79987238D01*
X104609214Y-80082476D01*
X104656833Y-80272952D01*
X104656833Y-80415809D01*
X104609214Y-80606285D01*
X104561595Y-80701523D01*
X104466357Y-80796761D01*
X104323500Y-80844380D01*
X104085404Y-80844380D01*
X105037785Y-79939619D02*
X105085404Y-79892000D01*
X105180642Y-79844380D01*
X105418738Y-79844380D01*
X105513976Y-79892000D01*
X105561595Y-79939619D01*
X105609214Y-80034857D01*
X105609214Y-80130095D01*
X105561595Y-80272952D01*
X104990166Y-80844380D01*
X105609214Y-80844380D01*
D14*
X112679238Y-86934523D02*
X112679238Y-85664523D01*
X114009714Y-86813571D02*
X113949238Y-86874047D01*
X113767809Y-86934523D01*
X113646857Y-86934523D01*
X113465428Y-86874047D01*
X113344476Y-86753095D01*
X113284000Y-86632142D01*
X113223523Y-86390238D01*
X113223523Y-86208809D01*
X113284000Y-85966904D01*
X113344476Y-85845952D01*
X113465428Y-85725000D01*
X113646857Y-85664523D01*
X113767809Y-85664523D01*
X113949238Y-85725000D01*
X114009714Y-85785476D01*
X115219238Y-86934523D02*
X114493523Y-86934523D01*
X114856380Y-86934523D02*
X114856380Y-85664523D01*
X114735428Y-85845952D01*
X114614476Y-85966904D01*
X114493523Y-86027380D01*
X129697238Y-85029523D02*
X129697238Y-83759523D01*
X131027714Y-84908571D02*
X130967238Y-84969047D01*
X130785809Y-85029523D01*
X130664857Y-85029523D01*
X130483428Y-84969047D01*
X130362476Y-84848095D01*
X130302000Y-84727142D01*
X130241523Y-84485238D01*
X130241523Y-84303809D01*
X130302000Y-84061904D01*
X130362476Y-83940952D01*
X130483428Y-83820000D01*
X130664857Y-83759523D01*
X130785809Y-83759523D01*
X130967238Y-83820000D01*
X131027714Y-83880476D01*
X131511523Y-83880476D02*
X131572000Y-83820000D01*
X131692952Y-83759523D01*
X131995333Y-83759523D01*
X132116285Y-83820000D01*
X132176761Y-83880476D01*
X132237238Y-84001428D01*
X132237238Y-84122380D01*
X132176761Y-84303809D01*
X131451047Y-85029523D01*
X132237238Y-85029523D01*
D11*
X148764380Y-82303333D02*
X149478666Y-82303333D01*
X149621523Y-82350952D01*
X149716761Y-82446190D01*
X149764380Y-82589047D01*
X149764380Y-82684285D01*
X148764380Y-81922380D02*
X148764380Y-81303333D01*
X149145333Y-81636666D01*
X149145333Y-81493809D01*
X149192952Y-81398571D01*
X149240571Y-81350952D01*
X149335809Y-81303333D01*
X149573904Y-81303333D01*
X149669142Y-81350952D01*
X149716761Y-81398571D01*
X149764380Y-81493809D01*
X149764380Y-81779523D01*
X149716761Y-81874761D01*
X149669142Y-81922380D01*
X124215380Y-76141285D02*
X123215380Y-76141285D01*
X123215380Y-75760333D01*
X123263000Y-75665095D01*
X123310619Y-75617476D01*
X123405857Y-75569857D01*
X123548714Y-75569857D01*
X123643952Y-75617476D01*
X123691571Y-75665095D01*
X123739190Y-75760333D01*
X123739190Y-76141285D01*
X124167761Y-75188904D02*
X124215380Y-75046047D01*
X124215380Y-74807952D01*
X124167761Y-74712714D01*
X124120142Y-74665095D01*
X124024904Y-74617476D01*
X123929666Y-74617476D01*
X123834428Y-74665095D01*
X123786809Y-74712714D01*
X123739190Y-74807952D01*
X123691571Y-74998428D01*
X123643952Y-75093666D01*
X123596333Y-75141285D01*
X123501095Y-75188904D01*
X123405857Y-75188904D01*
X123310619Y-75141285D01*
X123263000Y-75093666D01*
X123215380Y-74998428D01*
X123215380Y-74760333D01*
X123263000Y-74617476D01*
X124215380Y-73665095D02*
X124215380Y-74236523D01*
X124215380Y-73950809D02*
X123215380Y-73950809D01*
X123358238Y-74046047D01*
X123453476Y-74141285D01*
X123501095Y-74236523D01*
X100570380Y-73061666D02*
X100094190Y-73395000D01*
X100570380Y-73633095D02*
X99570380Y-73633095D01*
X99570380Y-73252142D01*
X99618000Y-73156904D01*
X99665619Y-73109285D01*
X99760857Y-73061666D01*
X99903714Y-73061666D01*
X99998952Y-73109285D01*
X100046571Y-73156904D01*
X100094190Y-73252142D01*
X100094190Y-73633095D01*
X100570380Y-72109285D02*
X100570380Y-72680714D01*
X100570380Y-72395000D02*
X99570380Y-72395000D01*
X99713238Y-72490238D01*
X99808476Y-72585476D01*
X99856095Y-72680714D01*
X100570380Y-77887666D02*
X100094190Y-78221000D01*
X100570380Y-78459095D02*
X99570380Y-78459095D01*
X99570380Y-78078142D01*
X99618000Y-77982904D01*
X99665619Y-77935285D01*
X99760857Y-77887666D01*
X99903714Y-77887666D01*
X99998952Y-77935285D01*
X100046571Y-77982904D01*
X100094190Y-78078142D01*
X100094190Y-78459095D01*
X99665619Y-77506714D02*
X99618000Y-77459095D01*
X99570380Y-77363857D01*
X99570380Y-77125761D01*
X99618000Y-77030523D01*
X99665619Y-76982904D01*
X99760857Y-76935285D01*
X99856095Y-76935285D01*
X99998952Y-76982904D01*
X100570380Y-77554333D01*
X100570380Y-76935285D01*
X100570380Y-82713666D02*
X100094190Y-83047000D01*
X100570380Y-83285095D02*
X99570380Y-83285095D01*
X99570380Y-82904142D01*
X99618000Y-82808904D01*
X99665619Y-82761285D01*
X99760857Y-82713666D01*
X99903714Y-82713666D01*
X99998952Y-82761285D01*
X100046571Y-82808904D01*
X100094190Y-82904142D01*
X100094190Y-83285095D01*
X99570380Y-82380333D02*
X99570380Y-81761285D01*
X99951333Y-82094619D01*
X99951333Y-81951761D01*
X99998952Y-81856523D01*
X100046571Y-81808904D01*
X100141809Y-81761285D01*
X100379904Y-81761285D01*
X100475142Y-81808904D01*
X100522761Y-81856523D01*
X100570380Y-81951761D01*
X100570380Y-82237476D01*
X100522761Y-82332714D01*
X100475142Y-82380333D01*
X100570380Y-87539666D02*
X100094190Y-87873000D01*
X100570380Y-88111095D02*
X99570380Y-88111095D01*
X99570380Y-87730142D01*
X99618000Y-87634904D01*
X99665619Y-87587285D01*
X99760857Y-87539666D01*
X99903714Y-87539666D01*
X99998952Y-87587285D01*
X100046571Y-87634904D01*
X100094190Y-87730142D01*
X100094190Y-88111095D01*
X99903714Y-86682523D02*
X100570380Y-86682523D01*
X99522761Y-86920619D02*
X100237047Y-87158714D01*
X100237047Y-86539666D01*
M02*
