G04 #@! TF.GenerationSoftware,KiCad,Pcbnew,(5.1.5)-3*
G04 #@! TF.CreationDate,2020-07-17T00:05:11-04:00*
G04 #@! TF.ProjectId,Power Transducer,506f7765-7220-4547-9261-6e7364756365,rev?*
G04 #@! TF.SameCoordinates,Original*
G04 #@! TF.FileFunction,Legend,Bot*
G04 #@! TF.FilePolarity,Positive*
%FSLAX46Y46*%
G04 Gerber Fmt 4.6, Leading zero omitted, Abs format (unit mm)*
G04 Created by KiCad (PCBNEW (5.1.5)-3) date 2020-07-17 00:05:11*
%MOMM*%
%LPD*%
G04 APERTURE LIST*
%ADD10C,0.120000*%
%ADD11C,0.150000*%
G04 APERTURE END LIST*
D10*
X95866000Y-71501000D02*
G75*
G03X95866000Y-71501000I-1251000J0D01*
G01*
X95866000Y-88773000D02*
G75*
G03X95866000Y-88773000I-1251000J0D01*
G01*
X135322000Y-70171000D02*
X135322000Y-71501000D01*
X136652000Y-70171000D02*
X135322000Y-70171000D01*
X137922000Y-70171000D02*
X137922000Y-72831000D01*
X137922000Y-72831000D02*
X148142000Y-72831000D01*
X137922000Y-70171000D02*
X148142000Y-70171000D01*
X148142000Y-70171000D02*
X148142000Y-72831000D01*
D11*
X94948333Y-68703380D02*
X94948333Y-69417666D01*
X94995952Y-69560523D01*
X95091190Y-69655761D01*
X95234047Y-69703380D01*
X95329285Y-69703380D01*
X93948333Y-69703380D02*
X94519761Y-69703380D01*
X94234047Y-69703380D02*
X94234047Y-68703380D01*
X94329285Y-68846238D01*
X94424523Y-68941476D01*
X94519761Y-68989095D01*
X94948333Y-85975380D02*
X94948333Y-86689666D01*
X94995952Y-86832523D01*
X95091190Y-86927761D01*
X95234047Y-86975380D01*
X95329285Y-86975380D01*
X94519761Y-86070619D02*
X94472142Y-86023000D01*
X94376904Y-85975380D01*
X94138809Y-85975380D01*
X94043571Y-86023000D01*
X93995952Y-86070619D01*
X93948333Y-86165857D01*
X93948333Y-86261095D01*
X93995952Y-86403952D01*
X94567380Y-86975380D01*
X93948333Y-86975380D01*
X133774380Y-71167666D02*
X134488666Y-71167666D01*
X134631523Y-71120047D01*
X134726761Y-71024809D01*
X134774380Y-70881952D01*
X134774380Y-70786714D01*
X134107714Y-72072428D02*
X134774380Y-72072428D01*
X133726761Y-71834333D02*
X134441047Y-71596238D01*
X134441047Y-72215285D01*
M02*
