G04 #@! TF.GenerationSoftware,KiCad,Pcbnew,(5.1.5)-3*
G04 #@! TF.CreationDate,2020-07-17T00:05:11-04:00*
G04 #@! TF.ProjectId,Power Transducer,506f7765-7220-4547-9261-6e7364756365,rev?*
G04 #@! TF.SameCoordinates,Original*
G04 #@! TF.FileFunction,Paste,Top*
G04 #@! TF.FilePolarity,Positive*
%FSLAX46Y46*%
G04 Gerber Fmt 4.6, Leading zero omitted, Abs format (unit mm)*
G04 Created by KiCad (PCBNEW (5.1.5)-3) date 2020-07-17 00:05:11*
%MOMM*%
%LPD*%
G04 APERTURE LIST*
%ADD10C,0.100000*%
%ADD11R,1.850000X0.650000*%
G04 APERTURE END LIST*
D10*
G36*
X101191142Y-85903674D02*
G01*
X101214803Y-85907184D01*
X101238007Y-85912996D01*
X101260529Y-85921054D01*
X101282153Y-85931282D01*
X101302670Y-85943579D01*
X101321883Y-85957829D01*
X101339607Y-85973893D01*
X101355671Y-85991617D01*
X101369921Y-86010830D01*
X101382218Y-86031347D01*
X101392446Y-86052971D01*
X101400504Y-86075493D01*
X101406316Y-86098697D01*
X101409826Y-86122358D01*
X101411000Y-86146250D01*
X101411000Y-86633750D01*
X101409826Y-86657642D01*
X101406316Y-86681303D01*
X101400504Y-86704507D01*
X101392446Y-86727029D01*
X101382218Y-86748653D01*
X101369921Y-86769170D01*
X101355671Y-86788383D01*
X101339607Y-86806107D01*
X101321883Y-86822171D01*
X101302670Y-86836421D01*
X101282153Y-86848718D01*
X101260529Y-86858946D01*
X101238007Y-86867004D01*
X101214803Y-86872816D01*
X101191142Y-86876326D01*
X101167250Y-86877500D01*
X100254750Y-86877500D01*
X100230858Y-86876326D01*
X100207197Y-86872816D01*
X100183993Y-86867004D01*
X100161471Y-86858946D01*
X100139847Y-86848718D01*
X100119330Y-86836421D01*
X100100117Y-86822171D01*
X100082393Y-86806107D01*
X100066329Y-86788383D01*
X100052079Y-86769170D01*
X100039782Y-86748653D01*
X100029554Y-86727029D01*
X100021496Y-86704507D01*
X100015684Y-86681303D01*
X100012174Y-86657642D01*
X100011000Y-86633750D01*
X100011000Y-86146250D01*
X100012174Y-86122358D01*
X100015684Y-86098697D01*
X100021496Y-86075493D01*
X100029554Y-86052971D01*
X100039782Y-86031347D01*
X100052079Y-86010830D01*
X100066329Y-85991617D01*
X100082393Y-85973893D01*
X100100117Y-85957829D01*
X100119330Y-85943579D01*
X100139847Y-85931282D01*
X100161471Y-85921054D01*
X100183993Y-85912996D01*
X100207197Y-85907184D01*
X100230858Y-85903674D01*
X100254750Y-85902500D01*
X101167250Y-85902500D01*
X101191142Y-85903674D01*
G37*
G36*
X101191142Y-87778674D02*
G01*
X101214803Y-87782184D01*
X101238007Y-87787996D01*
X101260529Y-87796054D01*
X101282153Y-87806282D01*
X101302670Y-87818579D01*
X101321883Y-87832829D01*
X101339607Y-87848893D01*
X101355671Y-87866617D01*
X101369921Y-87885830D01*
X101382218Y-87906347D01*
X101392446Y-87927971D01*
X101400504Y-87950493D01*
X101406316Y-87973697D01*
X101409826Y-87997358D01*
X101411000Y-88021250D01*
X101411000Y-88508750D01*
X101409826Y-88532642D01*
X101406316Y-88556303D01*
X101400504Y-88579507D01*
X101392446Y-88602029D01*
X101382218Y-88623653D01*
X101369921Y-88644170D01*
X101355671Y-88663383D01*
X101339607Y-88681107D01*
X101321883Y-88697171D01*
X101302670Y-88711421D01*
X101282153Y-88723718D01*
X101260529Y-88733946D01*
X101238007Y-88742004D01*
X101214803Y-88747816D01*
X101191142Y-88751326D01*
X101167250Y-88752500D01*
X100254750Y-88752500D01*
X100230858Y-88751326D01*
X100207197Y-88747816D01*
X100183993Y-88742004D01*
X100161471Y-88733946D01*
X100139847Y-88723718D01*
X100119330Y-88711421D01*
X100100117Y-88697171D01*
X100082393Y-88681107D01*
X100066329Y-88663383D01*
X100052079Y-88644170D01*
X100039782Y-88623653D01*
X100029554Y-88602029D01*
X100021496Y-88579507D01*
X100015684Y-88556303D01*
X100012174Y-88532642D01*
X100011000Y-88508750D01*
X100011000Y-88021250D01*
X100012174Y-87997358D01*
X100015684Y-87973697D01*
X100021496Y-87950493D01*
X100029554Y-87927971D01*
X100039782Y-87906347D01*
X100052079Y-87885830D01*
X100066329Y-87866617D01*
X100082393Y-87848893D01*
X100100117Y-87832829D01*
X100119330Y-87818579D01*
X100139847Y-87806282D01*
X100161471Y-87796054D01*
X100183993Y-87787996D01*
X100207197Y-87782184D01*
X100230858Y-87778674D01*
X100254750Y-87777500D01*
X101167250Y-87777500D01*
X101191142Y-87778674D01*
G37*
G36*
X103985142Y-87778674D02*
G01*
X104008803Y-87782184D01*
X104032007Y-87787996D01*
X104054529Y-87796054D01*
X104076153Y-87806282D01*
X104096670Y-87818579D01*
X104115883Y-87832829D01*
X104133607Y-87848893D01*
X104149671Y-87866617D01*
X104163921Y-87885830D01*
X104176218Y-87906347D01*
X104186446Y-87927971D01*
X104194504Y-87950493D01*
X104200316Y-87973697D01*
X104203826Y-87997358D01*
X104205000Y-88021250D01*
X104205000Y-88508750D01*
X104203826Y-88532642D01*
X104200316Y-88556303D01*
X104194504Y-88579507D01*
X104186446Y-88602029D01*
X104176218Y-88623653D01*
X104163921Y-88644170D01*
X104149671Y-88663383D01*
X104133607Y-88681107D01*
X104115883Y-88697171D01*
X104096670Y-88711421D01*
X104076153Y-88723718D01*
X104054529Y-88733946D01*
X104032007Y-88742004D01*
X104008803Y-88747816D01*
X103985142Y-88751326D01*
X103961250Y-88752500D01*
X103048750Y-88752500D01*
X103024858Y-88751326D01*
X103001197Y-88747816D01*
X102977993Y-88742004D01*
X102955471Y-88733946D01*
X102933847Y-88723718D01*
X102913330Y-88711421D01*
X102894117Y-88697171D01*
X102876393Y-88681107D01*
X102860329Y-88663383D01*
X102846079Y-88644170D01*
X102833782Y-88623653D01*
X102823554Y-88602029D01*
X102815496Y-88579507D01*
X102809684Y-88556303D01*
X102806174Y-88532642D01*
X102805000Y-88508750D01*
X102805000Y-88021250D01*
X102806174Y-87997358D01*
X102809684Y-87973697D01*
X102815496Y-87950493D01*
X102823554Y-87927971D01*
X102833782Y-87906347D01*
X102846079Y-87885830D01*
X102860329Y-87866617D01*
X102876393Y-87848893D01*
X102894117Y-87832829D01*
X102913330Y-87818579D01*
X102933847Y-87806282D01*
X102955471Y-87796054D01*
X102977993Y-87787996D01*
X103001197Y-87782184D01*
X103024858Y-87778674D01*
X103048750Y-87777500D01*
X103961250Y-87777500D01*
X103985142Y-87778674D01*
G37*
G36*
X103985142Y-85903674D02*
G01*
X104008803Y-85907184D01*
X104032007Y-85912996D01*
X104054529Y-85921054D01*
X104076153Y-85931282D01*
X104096670Y-85943579D01*
X104115883Y-85957829D01*
X104133607Y-85973893D01*
X104149671Y-85991617D01*
X104163921Y-86010830D01*
X104176218Y-86031347D01*
X104186446Y-86052971D01*
X104194504Y-86075493D01*
X104200316Y-86098697D01*
X104203826Y-86122358D01*
X104205000Y-86146250D01*
X104205000Y-86633750D01*
X104203826Y-86657642D01*
X104200316Y-86681303D01*
X104194504Y-86704507D01*
X104186446Y-86727029D01*
X104176218Y-86748653D01*
X104163921Y-86769170D01*
X104149671Y-86788383D01*
X104133607Y-86806107D01*
X104115883Y-86822171D01*
X104096670Y-86836421D01*
X104076153Y-86848718D01*
X104054529Y-86858946D01*
X104032007Y-86867004D01*
X104008803Y-86872816D01*
X103985142Y-86876326D01*
X103961250Y-86877500D01*
X103048750Y-86877500D01*
X103024858Y-86876326D01*
X103001197Y-86872816D01*
X102977993Y-86867004D01*
X102955471Y-86858946D01*
X102933847Y-86848718D01*
X102913330Y-86836421D01*
X102894117Y-86822171D01*
X102876393Y-86806107D01*
X102860329Y-86788383D01*
X102846079Y-86769170D01*
X102833782Y-86748653D01*
X102823554Y-86727029D01*
X102815496Y-86704507D01*
X102809684Y-86681303D01*
X102806174Y-86657642D01*
X102805000Y-86633750D01*
X102805000Y-86146250D01*
X102806174Y-86122358D01*
X102809684Y-86098697D01*
X102815496Y-86075493D01*
X102823554Y-86052971D01*
X102833782Y-86031347D01*
X102846079Y-86010830D01*
X102860329Y-85991617D01*
X102876393Y-85973893D01*
X102894117Y-85957829D01*
X102913330Y-85943579D01*
X102933847Y-85931282D01*
X102955471Y-85921054D01*
X102977993Y-85912996D01*
X103001197Y-85907184D01*
X103024858Y-85903674D01*
X103048750Y-85902500D01*
X103961250Y-85902500D01*
X103985142Y-85903674D01*
G37*
G36*
X106017142Y-85903674D02*
G01*
X106040803Y-85907184D01*
X106064007Y-85912996D01*
X106086529Y-85921054D01*
X106108153Y-85931282D01*
X106128670Y-85943579D01*
X106147883Y-85957829D01*
X106165607Y-85973893D01*
X106181671Y-85991617D01*
X106195921Y-86010830D01*
X106208218Y-86031347D01*
X106218446Y-86052971D01*
X106226504Y-86075493D01*
X106232316Y-86098697D01*
X106235826Y-86122358D01*
X106237000Y-86146250D01*
X106237000Y-86633750D01*
X106235826Y-86657642D01*
X106232316Y-86681303D01*
X106226504Y-86704507D01*
X106218446Y-86727029D01*
X106208218Y-86748653D01*
X106195921Y-86769170D01*
X106181671Y-86788383D01*
X106165607Y-86806107D01*
X106147883Y-86822171D01*
X106128670Y-86836421D01*
X106108153Y-86848718D01*
X106086529Y-86858946D01*
X106064007Y-86867004D01*
X106040803Y-86872816D01*
X106017142Y-86876326D01*
X105993250Y-86877500D01*
X105080750Y-86877500D01*
X105056858Y-86876326D01*
X105033197Y-86872816D01*
X105009993Y-86867004D01*
X104987471Y-86858946D01*
X104965847Y-86848718D01*
X104945330Y-86836421D01*
X104926117Y-86822171D01*
X104908393Y-86806107D01*
X104892329Y-86788383D01*
X104878079Y-86769170D01*
X104865782Y-86748653D01*
X104855554Y-86727029D01*
X104847496Y-86704507D01*
X104841684Y-86681303D01*
X104838174Y-86657642D01*
X104837000Y-86633750D01*
X104837000Y-86146250D01*
X104838174Y-86122358D01*
X104841684Y-86098697D01*
X104847496Y-86075493D01*
X104855554Y-86052971D01*
X104865782Y-86031347D01*
X104878079Y-86010830D01*
X104892329Y-85991617D01*
X104908393Y-85973893D01*
X104926117Y-85957829D01*
X104945330Y-85943579D01*
X104965847Y-85931282D01*
X104987471Y-85921054D01*
X105009993Y-85912996D01*
X105033197Y-85907184D01*
X105056858Y-85903674D01*
X105080750Y-85902500D01*
X105993250Y-85902500D01*
X106017142Y-85903674D01*
G37*
G36*
X106017142Y-87778674D02*
G01*
X106040803Y-87782184D01*
X106064007Y-87787996D01*
X106086529Y-87796054D01*
X106108153Y-87806282D01*
X106128670Y-87818579D01*
X106147883Y-87832829D01*
X106165607Y-87848893D01*
X106181671Y-87866617D01*
X106195921Y-87885830D01*
X106208218Y-87906347D01*
X106218446Y-87927971D01*
X106226504Y-87950493D01*
X106232316Y-87973697D01*
X106235826Y-87997358D01*
X106237000Y-88021250D01*
X106237000Y-88508750D01*
X106235826Y-88532642D01*
X106232316Y-88556303D01*
X106226504Y-88579507D01*
X106218446Y-88602029D01*
X106208218Y-88623653D01*
X106195921Y-88644170D01*
X106181671Y-88663383D01*
X106165607Y-88681107D01*
X106147883Y-88697171D01*
X106128670Y-88711421D01*
X106108153Y-88723718D01*
X106086529Y-88733946D01*
X106064007Y-88742004D01*
X106040803Y-88747816D01*
X106017142Y-88751326D01*
X105993250Y-88752500D01*
X105080750Y-88752500D01*
X105056858Y-88751326D01*
X105033197Y-88747816D01*
X105009993Y-88742004D01*
X104987471Y-88733946D01*
X104965847Y-88723718D01*
X104945330Y-88711421D01*
X104926117Y-88697171D01*
X104908393Y-88681107D01*
X104892329Y-88663383D01*
X104878079Y-88644170D01*
X104865782Y-88623653D01*
X104855554Y-88602029D01*
X104847496Y-88579507D01*
X104841684Y-88556303D01*
X104838174Y-88532642D01*
X104837000Y-88508750D01*
X104837000Y-88021250D01*
X104838174Y-87997358D01*
X104841684Y-87973697D01*
X104847496Y-87950493D01*
X104855554Y-87927971D01*
X104865782Y-87906347D01*
X104878079Y-87885830D01*
X104892329Y-87866617D01*
X104908393Y-87848893D01*
X104926117Y-87832829D01*
X104945330Y-87818579D01*
X104965847Y-87806282D01*
X104987471Y-87796054D01*
X105009993Y-87787996D01*
X105033197Y-87782184D01*
X105056858Y-87778674D01*
X105080750Y-87777500D01*
X105993250Y-87777500D01*
X106017142Y-87778674D01*
G37*
G36*
X126221642Y-76644174D02*
G01*
X126245303Y-76647684D01*
X126268507Y-76653496D01*
X126291029Y-76661554D01*
X126312653Y-76671782D01*
X126333170Y-76684079D01*
X126352383Y-76698329D01*
X126370107Y-76714393D01*
X126386171Y-76732117D01*
X126400421Y-76751330D01*
X126412718Y-76771847D01*
X126422946Y-76793471D01*
X126431004Y-76815993D01*
X126436816Y-76839197D01*
X126440326Y-76862858D01*
X126441500Y-76886750D01*
X126441500Y-77799250D01*
X126440326Y-77823142D01*
X126436816Y-77846803D01*
X126431004Y-77870007D01*
X126422946Y-77892529D01*
X126412718Y-77914153D01*
X126400421Y-77934670D01*
X126386171Y-77953883D01*
X126370107Y-77971607D01*
X126352383Y-77987671D01*
X126333170Y-78001921D01*
X126312653Y-78014218D01*
X126291029Y-78024446D01*
X126268507Y-78032504D01*
X126245303Y-78038316D01*
X126221642Y-78041826D01*
X126197750Y-78043000D01*
X125710250Y-78043000D01*
X125686358Y-78041826D01*
X125662697Y-78038316D01*
X125639493Y-78032504D01*
X125616971Y-78024446D01*
X125595347Y-78014218D01*
X125574830Y-78001921D01*
X125555617Y-77987671D01*
X125537893Y-77971607D01*
X125521829Y-77953883D01*
X125507579Y-77934670D01*
X125495282Y-77914153D01*
X125485054Y-77892529D01*
X125476996Y-77870007D01*
X125471184Y-77846803D01*
X125467674Y-77823142D01*
X125466500Y-77799250D01*
X125466500Y-76886750D01*
X125467674Y-76862858D01*
X125471184Y-76839197D01*
X125476996Y-76815993D01*
X125485054Y-76793471D01*
X125495282Y-76771847D01*
X125507579Y-76751330D01*
X125521829Y-76732117D01*
X125537893Y-76714393D01*
X125555617Y-76698329D01*
X125574830Y-76684079D01*
X125595347Y-76671782D01*
X125616971Y-76661554D01*
X125639493Y-76653496D01*
X125662697Y-76647684D01*
X125686358Y-76644174D01*
X125710250Y-76643000D01*
X126197750Y-76643000D01*
X126221642Y-76644174D01*
G37*
G36*
X124346642Y-76644174D02*
G01*
X124370303Y-76647684D01*
X124393507Y-76653496D01*
X124416029Y-76661554D01*
X124437653Y-76671782D01*
X124458170Y-76684079D01*
X124477383Y-76698329D01*
X124495107Y-76714393D01*
X124511171Y-76732117D01*
X124525421Y-76751330D01*
X124537718Y-76771847D01*
X124547946Y-76793471D01*
X124556004Y-76815993D01*
X124561816Y-76839197D01*
X124565326Y-76862858D01*
X124566500Y-76886750D01*
X124566500Y-77799250D01*
X124565326Y-77823142D01*
X124561816Y-77846803D01*
X124556004Y-77870007D01*
X124547946Y-77892529D01*
X124537718Y-77914153D01*
X124525421Y-77934670D01*
X124511171Y-77953883D01*
X124495107Y-77971607D01*
X124477383Y-77987671D01*
X124458170Y-78001921D01*
X124437653Y-78014218D01*
X124416029Y-78024446D01*
X124393507Y-78032504D01*
X124370303Y-78038316D01*
X124346642Y-78041826D01*
X124322750Y-78043000D01*
X123835250Y-78043000D01*
X123811358Y-78041826D01*
X123787697Y-78038316D01*
X123764493Y-78032504D01*
X123741971Y-78024446D01*
X123720347Y-78014218D01*
X123699830Y-78001921D01*
X123680617Y-77987671D01*
X123662893Y-77971607D01*
X123646829Y-77953883D01*
X123632579Y-77934670D01*
X123620282Y-77914153D01*
X123610054Y-77892529D01*
X123601996Y-77870007D01*
X123596184Y-77846803D01*
X123592674Y-77823142D01*
X123591500Y-77799250D01*
X123591500Y-76886750D01*
X123592674Y-76862858D01*
X123596184Y-76839197D01*
X123601996Y-76815993D01*
X123610054Y-76793471D01*
X123620282Y-76771847D01*
X123632579Y-76751330D01*
X123646829Y-76732117D01*
X123662893Y-76714393D01*
X123680617Y-76698329D01*
X123699830Y-76684079D01*
X123720347Y-76671782D01*
X123741971Y-76661554D01*
X123764493Y-76653496D01*
X123787697Y-76647684D01*
X123811358Y-76644174D01*
X123835250Y-76643000D01*
X124322750Y-76643000D01*
X124346642Y-76644174D01*
G37*
G36*
X104153642Y-83502174D02*
G01*
X104177303Y-83505684D01*
X104200507Y-83511496D01*
X104223029Y-83519554D01*
X104244653Y-83529782D01*
X104265170Y-83542079D01*
X104284383Y-83556329D01*
X104302107Y-83572393D01*
X104318171Y-83590117D01*
X104332421Y-83609330D01*
X104344718Y-83629847D01*
X104354946Y-83651471D01*
X104363004Y-83673993D01*
X104368816Y-83697197D01*
X104372326Y-83720858D01*
X104373500Y-83744750D01*
X104373500Y-84657250D01*
X104372326Y-84681142D01*
X104368816Y-84704803D01*
X104363004Y-84728007D01*
X104354946Y-84750529D01*
X104344718Y-84772153D01*
X104332421Y-84792670D01*
X104318171Y-84811883D01*
X104302107Y-84829607D01*
X104284383Y-84845671D01*
X104265170Y-84859921D01*
X104244653Y-84872218D01*
X104223029Y-84882446D01*
X104200507Y-84890504D01*
X104177303Y-84896316D01*
X104153642Y-84899826D01*
X104129750Y-84901000D01*
X103642250Y-84901000D01*
X103618358Y-84899826D01*
X103594697Y-84896316D01*
X103571493Y-84890504D01*
X103548971Y-84882446D01*
X103527347Y-84872218D01*
X103506830Y-84859921D01*
X103487617Y-84845671D01*
X103469893Y-84829607D01*
X103453829Y-84811883D01*
X103439579Y-84792670D01*
X103427282Y-84772153D01*
X103417054Y-84750529D01*
X103408996Y-84728007D01*
X103403184Y-84704803D01*
X103399674Y-84681142D01*
X103398500Y-84657250D01*
X103398500Y-83744750D01*
X103399674Y-83720858D01*
X103403184Y-83697197D01*
X103408996Y-83673993D01*
X103417054Y-83651471D01*
X103427282Y-83629847D01*
X103439579Y-83609330D01*
X103453829Y-83590117D01*
X103469893Y-83572393D01*
X103487617Y-83556329D01*
X103506830Y-83542079D01*
X103527347Y-83529782D01*
X103548971Y-83519554D01*
X103571493Y-83511496D01*
X103594697Y-83505684D01*
X103618358Y-83502174D01*
X103642250Y-83501000D01*
X104129750Y-83501000D01*
X104153642Y-83502174D01*
G37*
G36*
X106028642Y-83502174D02*
G01*
X106052303Y-83505684D01*
X106075507Y-83511496D01*
X106098029Y-83519554D01*
X106119653Y-83529782D01*
X106140170Y-83542079D01*
X106159383Y-83556329D01*
X106177107Y-83572393D01*
X106193171Y-83590117D01*
X106207421Y-83609330D01*
X106219718Y-83629847D01*
X106229946Y-83651471D01*
X106238004Y-83673993D01*
X106243816Y-83697197D01*
X106247326Y-83720858D01*
X106248500Y-83744750D01*
X106248500Y-84657250D01*
X106247326Y-84681142D01*
X106243816Y-84704803D01*
X106238004Y-84728007D01*
X106229946Y-84750529D01*
X106219718Y-84772153D01*
X106207421Y-84792670D01*
X106193171Y-84811883D01*
X106177107Y-84829607D01*
X106159383Y-84845671D01*
X106140170Y-84859921D01*
X106119653Y-84872218D01*
X106098029Y-84882446D01*
X106075507Y-84890504D01*
X106052303Y-84896316D01*
X106028642Y-84899826D01*
X106004750Y-84901000D01*
X105517250Y-84901000D01*
X105493358Y-84899826D01*
X105469697Y-84896316D01*
X105446493Y-84890504D01*
X105423971Y-84882446D01*
X105402347Y-84872218D01*
X105381830Y-84859921D01*
X105362617Y-84845671D01*
X105344893Y-84829607D01*
X105328829Y-84811883D01*
X105314579Y-84792670D01*
X105302282Y-84772153D01*
X105292054Y-84750529D01*
X105283996Y-84728007D01*
X105278184Y-84704803D01*
X105274674Y-84681142D01*
X105273500Y-84657250D01*
X105273500Y-83744750D01*
X105274674Y-83720858D01*
X105278184Y-83697197D01*
X105283996Y-83673993D01*
X105292054Y-83651471D01*
X105302282Y-83629847D01*
X105314579Y-83609330D01*
X105328829Y-83590117D01*
X105344893Y-83572393D01*
X105362617Y-83556329D01*
X105381830Y-83542079D01*
X105402347Y-83529782D01*
X105423971Y-83519554D01*
X105446493Y-83511496D01*
X105469697Y-83505684D01*
X105493358Y-83502174D01*
X105517250Y-83501000D01*
X106004750Y-83501000D01*
X106028642Y-83502174D01*
G37*
G36*
X122527142Y-88159674D02*
G01*
X122550803Y-88163184D01*
X122574007Y-88168996D01*
X122596529Y-88177054D01*
X122618153Y-88187282D01*
X122638670Y-88199579D01*
X122657883Y-88213829D01*
X122675607Y-88229893D01*
X122691671Y-88247617D01*
X122705921Y-88266830D01*
X122718218Y-88287347D01*
X122728446Y-88308971D01*
X122736504Y-88331493D01*
X122742316Y-88354697D01*
X122745826Y-88378358D01*
X122747000Y-88402250D01*
X122747000Y-88889750D01*
X122745826Y-88913642D01*
X122742316Y-88937303D01*
X122736504Y-88960507D01*
X122728446Y-88983029D01*
X122718218Y-89004653D01*
X122705921Y-89025170D01*
X122691671Y-89044383D01*
X122675607Y-89062107D01*
X122657883Y-89078171D01*
X122638670Y-89092421D01*
X122618153Y-89104718D01*
X122596529Y-89114946D01*
X122574007Y-89123004D01*
X122550803Y-89128816D01*
X122527142Y-89132326D01*
X122503250Y-89133500D01*
X121590750Y-89133500D01*
X121566858Y-89132326D01*
X121543197Y-89128816D01*
X121519993Y-89123004D01*
X121497471Y-89114946D01*
X121475847Y-89104718D01*
X121455330Y-89092421D01*
X121436117Y-89078171D01*
X121418393Y-89062107D01*
X121402329Y-89044383D01*
X121388079Y-89025170D01*
X121375782Y-89004653D01*
X121365554Y-88983029D01*
X121357496Y-88960507D01*
X121351684Y-88937303D01*
X121348174Y-88913642D01*
X121347000Y-88889750D01*
X121347000Y-88402250D01*
X121348174Y-88378358D01*
X121351684Y-88354697D01*
X121357496Y-88331493D01*
X121365554Y-88308971D01*
X121375782Y-88287347D01*
X121388079Y-88266830D01*
X121402329Y-88247617D01*
X121418393Y-88229893D01*
X121436117Y-88213829D01*
X121455330Y-88199579D01*
X121475847Y-88187282D01*
X121497471Y-88177054D01*
X121519993Y-88168996D01*
X121543197Y-88163184D01*
X121566858Y-88159674D01*
X121590750Y-88158500D01*
X122503250Y-88158500D01*
X122527142Y-88159674D01*
G37*
G36*
X122527142Y-86284674D02*
G01*
X122550803Y-86288184D01*
X122574007Y-86293996D01*
X122596529Y-86302054D01*
X122618153Y-86312282D01*
X122638670Y-86324579D01*
X122657883Y-86338829D01*
X122675607Y-86354893D01*
X122691671Y-86372617D01*
X122705921Y-86391830D01*
X122718218Y-86412347D01*
X122728446Y-86433971D01*
X122736504Y-86456493D01*
X122742316Y-86479697D01*
X122745826Y-86503358D01*
X122747000Y-86527250D01*
X122747000Y-87014750D01*
X122745826Y-87038642D01*
X122742316Y-87062303D01*
X122736504Y-87085507D01*
X122728446Y-87108029D01*
X122718218Y-87129653D01*
X122705921Y-87150170D01*
X122691671Y-87169383D01*
X122675607Y-87187107D01*
X122657883Y-87203171D01*
X122638670Y-87217421D01*
X122618153Y-87229718D01*
X122596529Y-87239946D01*
X122574007Y-87248004D01*
X122550803Y-87253816D01*
X122527142Y-87257326D01*
X122503250Y-87258500D01*
X121590750Y-87258500D01*
X121566858Y-87257326D01*
X121543197Y-87253816D01*
X121519993Y-87248004D01*
X121497471Y-87239946D01*
X121475847Y-87229718D01*
X121455330Y-87217421D01*
X121436117Y-87203171D01*
X121418393Y-87187107D01*
X121402329Y-87169383D01*
X121388079Y-87150170D01*
X121375782Y-87129653D01*
X121365554Y-87108029D01*
X121357496Y-87085507D01*
X121351684Y-87062303D01*
X121348174Y-87038642D01*
X121347000Y-87014750D01*
X121347000Y-86527250D01*
X121348174Y-86503358D01*
X121351684Y-86479697D01*
X121357496Y-86456493D01*
X121365554Y-86433971D01*
X121375782Y-86412347D01*
X121388079Y-86391830D01*
X121402329Y-86372617D01*
X121418393Y-86354893D01*
X121436117Y-86338829D01*
X121455330Y-86324579D01*
X121475847Y-86312282D01*
X121497471Y-86302054D01*
X121519993Y-86293996D01*
X121543197Y-86288184D01*
X121566858Y-86284674D01*
X121590750Y-86283500D01*
X122503250Y-86283500D01*
X122527142Y-86284674D01*
G37*
G36*
X124559142Y-86284674D02*
G01*
X124582803Y-86288184D01*
X124606007Y-86293996D01*
X124628529Y-86302054D01*
X124650153Y-86312282D01*
X124670670Y-86324579D01*
X124689883Y-86338829D01*
X124707607Y-86354893D01*
X124723671Y-86372617D01*
X124737921Y-86391830D01*
X124750218Y-86412347D01*
X124760446Y-86433971D01*
X124768504Y-86456493D01*
X124774316Y-86479697D01*
X124777826Y-86503358D01*
X124779000Y-86527250D01*
X124779000Y-87014750D01*
X124777826Y-87038642D01*
X124774316Y-87062303D01*
X124768504Y-87085507D01*
X124760446Y-87108029D01*
X124750218Y-87129653D01*
X124737921Y-87150170D01*
X124723671Y-87169383D01*
X124707607Y-87187107D01*
X124689883Y-87203171D01*
X124670670Y-87217421D01*
X124650153Y-87229718D01*
X124628529Y-87239946D01*
X124606007Y-87248004D01*
X124582803Y-87253816D01*
X124559142Y-87257326D01*
X124535250Y-87258500D01*
X123622750Y-87258500D01*
X123598858Y-87257326D01*
X123575197Y-87253816D01*
X123551993Y-87248004D01*
X123529471Y-87239946D01*
X123507847Y-87229718D01*
X123487330Y-87217421D01*
X123468117Y-87203171D01*
X123450393Y-87187107D01*
X123434329Y-87169383D01*
X123420079Y-87150170D01*
X123407782Y-87129653D01*
X123397554Y-87108029D01*
X123389496Y-87085507D01*
X123383684Y-87062303D01*
X123380174Y-87038642D01*
X123379000Y-87014750D01*
X123379000Y-86527250D01*
X123380174Y-86503358D01*
X123383684Y-86479697D01*
X123389496Y-86456493D01*
X123397554Y-86433971D01*
X123407782Y-86412347D01*
X123420079Y-86391830D01*
X123434329Y-86372617D01*
X123450393Y-86354893D01*
X123468117Y-86338829D01*
X123487330Y-86324579D01*
X123507847Y-86312282D01*
X123529471Y-86302054D01*
X123551993Y-86293996D01*
X123575197Y-86288184D01*
X123598858Y-86284674D01*
X123622750Y-86283500D01*
X124535250Y-86283500D01*
X124559142Y-86284674D01*
G37*
G36*
X124559142Y-88159674D02*
G01*
X124582803Y-88163184D01*
X124606007Y-88168996D01*
X124628529Y-88177054D01*
X124650153Y-88187282D01*
X124670670Y-88199579D01*
X124689883Y-88213829D01*
X124707607Y-88229893D01*
X124723671Y-88247617D01*
X124737921Y-88266830D01*
X124750218Y-88287347D01*
X124760446Y-88308971D01*
X124768504Y-88331493D01*
X124774316Y-88354697D01*
X124777826Y-88378358D01*
X124779000Y-88402250D01*
X124779000Y-88889750D01*
X124777826Y-88913642D01*
X124774316Y-88937303D01*
X124768504Y-88960507D01*
X124760446Y-88983029D01*
X124750218Y-89004653D01*
X124737921Y-89025170D01*
X124723671Y-89044383D01*
X124707607Y-89062107D01*
X124689883Y-89078171D01*
X124670670Y-89092421D01*
X124650153Y-89104718D01*
X124628529Y-89114946D01*
X124606007Y-89123004D01*
X124582803Y-89128816D01*
X124559142Y-89132326D01*
X124535250Y-89133500D01*
X123622750Y-89133500D01*
X123598858Y-89132326D01*
X123575197Y-89128816D01*
X123551993Y-89123004D01*
X123529471Y-89114946D01*
X123507847Y-89104718D01*
X123487330Y-89092421D01*
X123468117Y-89078171D01*
X123450393Y-89062107D01*
X123434329Y-89044383D01*
X123420079Y-89025170D01*
X123407782Y-89004653D01*
X123397554Y-88983029D01*
X123389496Y-88960507D01*
X123383684Y-88937303D01*
X123380174Y-88913642D01*
X123379000Y-88889750D01*
X123379000Y-88402250D01*
X123380174Y-88378358D01*
X123383684Y-88354697D01*
X123389496Y-88331493D01*
X123397554Y-88308971D01*
X123407782Y-88287347D01*
X123420079Y-88266830D01*
X123434329Y-88247617D01*
X123450393Y-88229893D01*
X123468117Y-88213829D01*
X123487330Y-88199579D01*
X123507847Y-88187282D01*
X123529471Y-88177054D01*
X123551993Y-88168996D01*
X123575197Y-88163184D01*
X123598858Y-88159674D01*
X123622750Y-88158500D01*
X124535250Y-88158500D01*
X124559142Y-88159674D01*
G37*
G36*
X119901642Y-81216174D02*
G01*
X119925303Y-81219684D01*
X119948507Y-81225496D01*
X119971029Y-81233554D01*
X119992653Y-81243782D01*
X120013170Y-81256079D01*
X120032383Y-81270329D01*
X120050107Y-81286393D01*
X120066171Y-81304117D01*
X120080421Y-81323330D01*
X120092718Y-81343847D01*
X120102946Y-81365471D01*
X120111004Y-81387993D01*
X120116816Y-81411197D01*
X120120326Y-81434858D01*
X120121500Y-81458750D01*
X120121500Y-82371250D01*
X120120326Y-82395142D01*
X120116816Y-82418803D01*
X120111004Y-82442007D01*
X120102946Y-82464529D01*
X120092718Y-82486153D01*
X120080421Y-82506670D01*
X120066171Y-82525883D01*
X120050107Y-82543607D01*
X120032383Y-82559671D01*
X120013170Y-82573921D01*
X119992653Y-82586218D01*
X119971029Y-82596446D01*
X119948507Y-82604504D01*
X119925303Y-82610316D01*
X119901642Y-82613826D01*
X119877750Y-82615000D01*
X119390250Y-82615000D01*
X119366358Y-82613826D01*
X119342697Y-82610316D01*
X119319493Y-82604504D01*
X119296971Y-82596446D01*
X119275347Y-82586218D01*
X119254830Y-82573921D01*
X119235617Y-82559671D01*
X119217893Y-82543607D01*
X119201829Y-82525883D01*
X119187579Y-82506670D01*
X119175282Y-82486153D01*
X119165054Y-82464529D01*
X119156996Y-82442007D01*
X119151184Y-82418803D01*
X119147674Y-82395142D01*
X119146500Y-82371250D01*
X119146500Y-81458750D01*
X119147674Y-81434858D01*
X119151184Y-81411197D01*
X119156996Y-81387993D01*
X119165054Y-81365471D01*
X119175282Y-81343847D01*
X119187579Y-81323330D01*
X119201829Y-81304117D01*
X119217893Y-81286393D01*
X119235617Y-81270329D01*
X119254830Y-81256079D01*
X119275347Y-81243782D01*
X119296971Y-81233554D01*
X119319493Y-81225496D01*
X119342697Y-81219684D01*
X119366358Y-81216174D01*
X119390250Y-81215000D01*
X119877750Y-81215000D01*
X119901642Y-81216174D01*
G37*
G36*
X118026642Y-81216174D02*
G01*
X118050303Y-81219684D01*
X118073507Y-81225496D01*
X118096029Y-81233554D01*
X118117653Y-81243782D01*
X118138170Y-81256079D01*
X118157383Y-81270329D01*
X118175107Y-81286393D01*
X118191171Y-81304117D01*
X118205421Y-81323330D01*
X118217718Y-81343847D01*
X118227946Y-81365471D01*
X118236004Y-81387993D01*
X118241816Y-81411197D01*
X118245326Y-81434858D01*
X118246500Y-81458750D01*
X118246500Y-82371250D01*
X118245326Y-82395142D01*
X118241816Y-82418803D01*
X118236004Y-82442007D01*
X118227946Y-82464529D01*
X118217718Y-82486153D01*
X118205421Y-82506670D01*
X118191171Y-82525883D01*
X118175107Y-82543607D01*
X118157383Y-82559671D01*
X118138170Y-82573921D01*
X118117653Y-82586218D01*
X118096029Y-82596446D01*
X118073507Y-82604504D01*
X118050303Y-82610316D01*
X118026642Y-82613826D01*
X118002750Y-82615000D01*
X117515250Y-82615000D01*
X117491358Y-82613826D01*
X117467697Y-82610316D01*
X117444493Y-82604504D01*
X117421971Y-82596446D01*
X117400347Y-82586218D01*
X117379830Y-82573921D01*
X117360617Y-82559671D01*
X117342893Y-82543607D01*
X117326829Y-82525883D01*
X117312579Y-82506670D01*
X117300282Y-82486153D01*
X117290054Y-82464529D01*
X117281996Y-82442007D01*
X117276184Y-82418803D01*
X117272674Y-82395142D01*
X117271500Y-82371250D01*
X117271500Y-81458750D01*
X117272674Y-81434858D01*
X117276184Y-81411197D01*
X117281996Y-81387993D01*
X117290054Y-81365471D01*
X117300282Y-81343847D01*
X117312579Y-81323330D01*
X117326829Y-81304117D01*
X117342893Y-81286393D01*
X117360617Y-81270329D01*
X117379830Y-81256079D01*
X117400347Y-81243782D01*
X117421971Y-81233554D01*
X117444493Y-81225496D01*
X117467697Y-81219684D01*
X117491358Y-81216174D01*
X117515250Y-81215000D01*
X118002750Y-81215000D01*
X118026642Y-81216174D01*
G37*
G36*
X106028642Y-81343174D02*
G01*
X106052303Y-81346684D01*
X106075507Y-81352496D01*
X106098029Y-81360554D01*
X106119653Y-81370782D01*
X106140170Y-81383079D01*
X106159383Y-81397329D01*
X106177107Y-81413393D01*
X106193171Y-81431117D01*
X106207421Y-81450330D01*
X106219718Y-81470847D01*
X106229946Y-81492471D01*
X106238004Y-81514993D01*
X106243816Y-81538197D01*
X106247326Y-81561858D01*
X106248500Y-81585750D01*
X106248500Y-82498250D01*
X106247326Y-82522142D01*
X106243816Y-82545803D01*
X106238004Y-82569007D01*
X106229946Y-82591529D01*
X106219718Y-82613153D01*
X106207421Y-82633670D01*
X106193171Y-82652883D01*
X106177107Y-82670607D01*
X106159383Y-82686671D01*
X106140170Y-82700921D01*
X106119653Y-82713218D01*
X106098029Y-82723446D01*
X106075507Y-82731504D01*
X106052303Y-82737316D01*
X106028642Y-82740826D01*
X106004750Y-82742000D01*
X105517250Y-82742000D01*
X105493358Y-82740826D01*
X105469697Y-82737316D01*
X105446493Y-82731504D01*
X105423971Y-82723446D01*
X105402347Y-82713218D01*
X105381830Y-82700921D01*
X105362617Y-82686671D01*
X105344893Y-82670607D01*
X105328829Y-82652883D01*
X105314579Y-82633670D01*
X105302282Y-82613153D01*
X105292054Y-82591529D01*
X105283996Y-82569007D01*
X105278184Y-82545803D01*
X105274674Y-82522142D01*
X105273500Y-82498250D01*
X105273500Y-81585750D01*
X105274674Y-81561858D01*
X105278184Y-81538197D01*
X105283996Y-81514993D01*
X105292054Y-81492471D01*
X105302282Y-81470847D01*
X105314579Y-81450330D01*
X105328829Y-81431117D01*
X105344893Y-81413393D01*
X105362617Y-81397329D01*
X105381830Y-81383079D01*
X105402347Y-81370782D01*
X105423971Y-81360554D01*
X105446493Y-81352496D01*
X105469697Y-81346684D01*
X105493358Y-81343174D01*
X105517250Y-81342000D01*
X106004750Y-81342000D01*
X106028642Y-81343174D01*
G37*
G36*
X104153642Y-81343174D02*
G01*
X104177303Y-81346684D01*
X104200507Y-81352496D01*
X104223029Y-81360554D01*
X104244653Y-81370782D01*
X104265170Y-81383079D01*
X104284383Y-81397329D01*
X104302107Y-81413393D01*
X104318171Y-81431117D01*
X104332421Y-81450330D01*
X104344718Y-81470847D01*
X104354946Y-81492471D01*
X104363004Y-81514993D01*
X104368816Y-81538197D01*
X104372326Y-81561858D01*
X104373500Y-81585750D01*
X104373500Y-82498250D01*
X104372326Y-82522142D01*
X104368816Y-82545803D01*
X104363004Y-82569007D01*
X104354946Y-82591529D01*
X104344718Y-82613153D01*
X104332421Y-82633670D01*
X104318171Y-82652883D01*
X104302107Y-82670607D01*
X104284383Y-82686671D01*
X104265170Y-82700921D01*
X104244653Y-82713218D01*
X104223029Y-82723446D01*
X104200507Y-82731504D01*
X104177303Y-82737316D01*
X104153642Y-82740826D01*
X104129750Y-82742000D01*
X103642250Y-82742000D01*
X103618358Y-82740826D01*
X103594697Y-82737316D01*
X103571493Y-82731504D01*
X103548971Y-82723446D01*
X103527347Y-82713218D01*
X103506830Y-82700921D01*
X103487617Y-82686671D01*
X103469893Y-82670607D01*
X103453829Y-82652883D01*
X103439579Y-82633670D01*
X103427282Y-82613153D01*
X103417054Y-82591529D01*
X103408996Y-82569007D01*
X103403184Y-82545803D01*
X103399674Y-82522142D01*
X103398500Y-82498250D01*
X103398500Y-81585750D01*
X103399674Y-81561858D01*
X103403184Y-81538197D01*
X103408996Y-81514993D01*
X103417054Y-81492471D01*
X103427282Y-81470847D01*
X103439579Y-81450330D01*
X103453829Y-81431117D01*
X103469893Y-81413393D01*
X103487617Y-81397329D01*
X103506830Y-81383079D01*
X103527347Y-81370782D01*
X103548971Y-81360554D01*
X103571493Y-81352496D01*
X103594697Y-81346684D01*
X103618358Y-81343174D01*
X103642250Y-81342000D01*
X104129750Y-81342000D01*
X104153642Y-81343174D01*
G37*
D11*
X108594000Y-84455000D03*
X108594000Y-85725000D03*
X108594000Y-86995000D03*
X108594000Y-88265000D03*
X119244000Y-88265000D03*
X119244000Y-86995000D03*
X119244000Y-85725000D03*
X119244000Y-84455000D03*
D10*
G36*
X98947504Y-70871204D02*
G01*
X98971773Y-70874804D01*
X98995571Y-70880765D01*
X99018671Y-70889030D01*
X99040849Y-70899520D01*
X99061893Y-70912133D01*
X99081598Y-70926747D01*
X99099777Y-70943223D01*
X99116253Y-70961402D01*
X99130867Y-70981107D01*
X99143480Y-71002151D01*
X99153970Y-71024329D01*
X99162235Y-71047429D01*
X99168196Y-71071227D01*
X99171796Y-71095496D01*
X99173000Y-71120000D01*
X99173000Y-71870000D01*
X99171796Y-71894504D01*
X99168196Y-71918773D01*
X99162235Y-71942571D01*
X99153970Y-71965671D01*
X99143480Y-71987849D01*
X99130867Y-72008893D01*
X99116253Y-72028598D01*
X99099777Y-72046777D01*
X99081598Y-72063253D01*
X99061893Y-72077867D01*
X99040849Y-72090480D01*
X99018671Y-72100970D01*
X98995571Y-72109235D01*
X98971773Y-72115196D01*
X98947504Y-72118796D01*
X98923000Y-72120000D01*
X97673000Y-72120000D01*
X97648496Y-72118796D01*
X97624227Y-72115196D01*
X97600429Y-72109235D01*
X97577329Y-72100970D01*
X97555151Y-72090480D01*
X97534107Y-72077867D01*
X97514402Y-72063253D01*
X97496223Y-72046777D01*
X97479747Y-72028598D01*
X97465133Y-72008893D01*
X97452520Y-71987849D01*
X97442030Y-71965671D01*
X97433765Y-71942571D01*
X97427804Y-71918773D01*
X97424204Y-71894504D01*
X97423000Y-71870000D01*
X97423000Y-71120000D01*
X97424204Y-71095496D01*
X97427804Y-71071227D01*
X97433765Y-71047429D01*
X97442030Y-71024329D01*
X97452520Y-71002151D01*
X97465133Y-70981107D01*
X97479747Y-70961402D01*
X97496223Y-70943223D01*
X97514402Y-70926747D01*
X97534107Y-70912133D01*
X97555151Y-70899520D01*
X97577329Y-70889030D01*
X97600429Y-70880765D01*
X97624227Y-70874804D01*
X97648496Y-70871204D01*
X97673000Y-70870000D01*
X98923000Y-70870000D01*
X98947504Y-70871204D01*
G37*
G36*
X98947504Y-73671204D02*
G01*
X98971773Y-73674804D01*
X98995571Y-73680765D01*
X99018671Y-73689030D01*
X99040849Y-73699520D01*
X99061893Y-73712133D01*
X99081598Y-73726747D01*
X99099777Y-73743223D01*
X99116253Y-73761402D01*
X99130867Y-73781107D01*
X99143480Y-73802151D01*
X99153970Y-73824329D01*
X99162235Y-73847429D01*
X99168196Y-73871227D01*
X99171796Y-73895496D01*
X99173000Y-73920000D01*
X99173000Y-74670000D01*
X99171796Y-74694504D01*
X99168196Y-74718773D01*
X99162235Y-74742571D01*
X99153970Y-74765671D01*
X99143480Y-74787849D01*
X99130867Y-74808893D01*
X99116253Y-74828598D01*
X99099777Y-74846777D01*
X99081598Y-74863253D01*
X99061893Y-74877867D01*
X99040849Y-74890480D01*
X99018671Y-74900970D01*
X98995571Y-74909235D01*
X98971773Y-74915196D01*
X98947504Y-74918796D01*
X98923000Y-74920000D01*
X97673000Y-74920000D01*
X97648496Y-74918796D01*
X97624227Y-74915196D01*
X97600429Y-74909235D01*
X97577329Y-74900970D01*
X97555151Y-74890480D01*
X97534107Y-74877867D01*
X97514402Y-74863253D01*
X97496223Y-74846777D01*
X97479747Y-74828598D01*
X97465133Y-74808893D01*
X97452520Y-74787849D01*
X97442030Y-74765671D01*
X97433765Y-74742571D01*
X97427804Y-74718773D01*
X97424204Y-74694504D01*
X97423000Y-74670000D01*
X97423000Y-73920000D01*
X97424204Y-73895496D01*
X97427804Y-73871227D01*
X97433765Y-73847429D01*
X97442030Y-73824329D01*
X97452520Y-73802151D01*
X97465133Y-73781107D01*
X97479747Y-73761402D01*
X97496223Y-73743223D01*
X97514402Y-73726747D01*
X97534107Y-73712133D01*
X97555151Y-73699520D01*
X97577329Y-73689030D01*
X97600429Y-73680765D01*
X97624227Y-73674804D01*
X97648496Y-73671204D01*
X97673000Y-73670000D01*
X98923000Y-73670000D01*
X98947504Y-73671204D01*
G37*
G36*
X98947504Y-78497204D02*
G01*
X98971773Y-78500804D01*
X98995571Y-78506765D01*
X99018671Y-78515030D01*
X99040849Y-78525520D01*
X99061893Y-78538133D01*
X99081598Y-78552747D01*
X99099777Y-78569223D01*
X99116253Y-78587402D01*
X99130867Y-78607107D01*
X99143480Y-78628151D01*
X99153970Y-78650329D01*
X99162235Y-78673429D01*
X99168196Y-78697227D01*
X99171796Y-78721496D01*
X99173000Y-78746000D01*
X99173000Y-79496000D01*
X99171796Y-79520504D01*
X99168196Y-79544773D01*
X99162235Y-79568571D01*
X99153970Y-79591671D01*
X99143480Y-79613849D01*
X99130867Y-79634893D01*
X99116253Y-79654598D01*
X99099777Y-79672777D01*
X99081598Y-79689253D01*
X99061893Y-79703867D01*
X99040849Y-79716480D01*
X99018671Y-79726970D01*
X98995571Y-79735235D01*
X98971773Y-79741196D01*
X98947504Y-79744796D01*
X98923000Y-79746000D01*
X97673000Y-79746000D01*
X97648496Y-79744796D01*
X97624227Y-79741196D01*
X97600429Y-79735235D01*
X97577329Y-79726970D01*
X97555151Y-79716480D01*
X97534107Y-79703867D01*
X97514402Y-79689253D01*
X97496223Y-79672777D01*
X97479747Y-79654598D01*
X97465133Y-79634893D01*
X97452520Y-79613849D01*
X97442030Y-79591671D01*
X97433765Y-79568571D01*
X97427804Y-79544773D01*
X97424204Y-79520504D01*
X97423000Y-79496000D01*
X97423000Y-78746000D01*
X97424204Y-78721496D01*
X97427804Y-78697227D01*
X97433765Y-78673429D01*
X97442030Y-78650329D01*
X97452520Y-78628151D01*
X97465133Y-78607107D01*
X97479747Y-78587402D01*
X97496223Y-78569223D01*
X97514402Y-78552747D01*
X97534107Y-78538133D01*
X97555151Y-78525520D01*
X97577329Y-78515030D01*
X97600429Y-78506765D01*
X97624227Y-78500804D01*
X97648496Y-78497204D01*
X97673000Y-78496000D01*
X98923000Y-78496000D01*
X98947504Y-78497204D01*
G37*
G36*
X98947504Y-75697204D02*
G01*
X98971773Y-75700804D01*
X98995571Y-75706765D01*
X99018671Y-75715030D01*
X99040849Y-75725520D01*
X99061893Y-75738133D01*
X99081598Y-75752747D01*
X99099777Y-75769223D01*
X99116253Y-75787402D01*
X99130867Y-75807107D01*
X99143480Y-75828151D01*
X99153970Y-75850329D01*
X99162235Y-75873429D01*
X99168196Y-75897227D01*
X99171796Y-75921496D01*
X99173000Y-75946000D01*
X99173000Y-76696000D01*
X99171796Y-76720504D01*
X99168196Y-76744773D01*
X99162235Y-76768571D01*
X99153970Y-76791671D01*
X99143480Y-76813849D01*
X99130867Y-76834893D01*
X99116253Y-76854598D01*
X99099777Y-76872777D01*
X99081598Y-76889253D01*
X99061893Y-76903867D01*
X99040849Y-76916480D01*
X99018671Y-76926970D01*
X98995571Y-76935235D01*
X98971773Y-76941196D01*
X98947504Y-76944796D01*
X98923000Y-76946000D01*
X97673000Y-76946000D01*
X97648496Y-76944796D01*
X97624227Y-76941196D01*
X97600429Y-76935235D01*
X97577329Y-76926970D01*
X97555151Y-76916480D01*
X97534107Y-76903867D01*
X97514402Y-76889253D01*
X97496223Y-76872777D01*
X97479747Y-76854598D01*
X97465133Y-76834893D01*
X97452520Y-76813849D01*
X97442030Y-76791671D01*
X97433765Y-76768571D01*
X97427804Y-76744773D01*
X97424204Y-76720504D01*
X97423000Y-76696000D01*
X97423000Y-75946000D01*
X97424204Y-75921496D01*
X97427804Y-75897227D01*
X97433765Y-75873429D01*
X97442030Y-75850329D01*
X97452520Y-75828151D01*
X97465133Y-75807107D01*
X97479747Y-75787402D01*
X97496223Y-75769223D01*
X97514402Y-75752747D01*
X97534107Y-75738133D01*
X97555151Y-75725520D01*
X97577329Y-75715030D01*
X97600429Y-75706765D01*
X97624227Y-75700804D01*
X97648496Y-75697204D01*
X97673000Y-75696000D01*
X98923000Y-75696000D01*
X98947504Y-75697204D01*
G37*
G36*
X98947504Y-80523204D02*
G01*
X98971773Y-80526804D01*
X98995571Y-80532765D01*
X99018671Y-80541030D01*
X99040849Y-80551520D01*
X99061893Y-80564133D01*
X99081598Y-80578747D01*
X99099777Y-80595223D01*
X99116253Y-80613402D01*
X99130867Y-80633107D01*
X99143480Y-80654151D01*
X99153970Y-80676329D01*
X99162235Y-80699429D01*
X99168196Y-80723227D01*
X99171796Y-80747496D01*
X99173000Y-80772000D01*
X99173000Y-81522000D01*
X99171796Y-81546504D01*
X99168196Y-81570773D01*
X99162235Y-81594571D01*
X99153970Y-81617671D01*
X99143480Y-81639849D01*
X99130867Y-81660893D01*
X99116253Y-81680598D01*
X99099777Y-81698777D01*
X99081598Y-81715253D01*
X99061893Y-81729867D01*
X99040849Y-81742480D01*
X99018671Y-81752970D01*
X98995571Y-81761235D01*
X98971773Y-81767196D01*
X98947504Y-81770796D01*
X98923000Y-81772000D01*
X97673000Y-81772000D01*
X97648496Y-81770796D01*
X97624227Y-81767196D01*
X97600429Y-81761235D01*
X97577329Y-81752970D01*
X97555151Y-81742480D01*
X97534107Y-81729867D01*
X97514402Y-81715253D01*
X97496223Y-81698777D01*
X97479747Y-81680598D01*
X97465133Y-81660893D01*
X97452520Y-81639849D01*
X97442030Y-81617671D01*
X97433765Y-81594571D01*
X97427804Y-81570773D01*
X97424204Y-81546504D01*
X97423000Y-81522000D01*
X97423000Y-80772000D01*
X97424204Y-80747496D01*
X97427804Y-80723227D01*
X97433765Y-80699429D01*
X97442030Y-80676329D01*
X97452520Y-80654151D01*
X97465133Y-80633107D01*
X97479747Y-80613402D01*
X97496223Y-80595223D01*
X97514402Y-80578747D01*
X97534107Y-80564133D01*
X97555151Y-80551520D01*
X97577329Y-80541030D01*
X97600429Y-80532765D01*
X97624227Y-80526804D01*
X97648496Y-80523204D01*
X97673000Y-80522000D01*
X98923000Y-80522000D01*
X98947504Y-80523204D01*
G37*
G36*
X98947504Y-83323204D02*
G01*
X98971773Y-83326804D01*
X98995571Y-83332765D01*
X99018671Y-83341030D01*
X99040849Y-83351520D01*
X99061893Y-83364133D01*
X99081598Y-83378747D01*
X99099777Y-83395223D01*
X99116253Y-83413402D01*
X99130867Y-83433107D01*
X99143480Y-83454151D01*
X99153970Y-83476329D01*
X99162235Y-83499429D01*
X99168196Y-83523227D01*
X99171796Y-83547496D01*
X99173000Y-83572000D01*
X99173000Y-84322000D01*
X99171796Y-84346504D01*
X99168196Y-84370773D01*
X99162235Y-84394571D01*
X99153970Y-84417671D01*
X99143480Y-84439849D01*
X99130867Y-84460893D01*
X99116253Y-84480598D01*
X99099777Y-84498777D01*
X99081598Y-84515253D01*
X99061893Y-84529867D01*
X99040849Y-84542480D01*
X99018671Y-84552970D01*
X98995571Y-84561235D01*
X98971773Y-84567196D01*
X98947504Y-84570796D01*
X98923000Y-84572000D01*
X97673000Y-84572000D01*
X97648496Y-84570796D01*
X97624227Y-84567196D01*
X97600429Y-84561235D01*
X97577329Y-84552970D01*
X97555151Y-84542480D01*
X97534107Y-84529867D01*
X97514402Y-84515253D01*
X97496223Y-84498777D01*
X97479747Y-84480598D01*
X97465133Y-84460893D01*
X97452520Y-84439849D01*
X97442030Y-84417671D01*
X97433765Y-84394571D01*
X97427804Y-84370773D01*
X97424204Y-84346504D01*
X97423000Y-84322000D01*
X97423000Y-83572000D01*
X97424204Y-83547496D01*
X97427804Y-83523227D01*
X97433765Y-83499429D01*
X97442030Y-83476329D01*
X97452520Y-83454151D01*
X97465133Y-83433107D01*
X97479747Y-83413402D01*
X97496223Y-83395223D01*
X97514402Y-83378747D01*
X97534107Y-83364133D01*
X97555151Y-83351520D01*
X97577329Y-83341030D01*
X97600429Y-83332765D01*
X97624227Y-83326804D01*
X97648496Y-83323204D01*
X97673000Y-83322000D01*
X98923000Y-83322000D01*
X98947504Y-83323204D01*
G37*
G36*
X98947504Y-88149204D02*
G01*
X98971773Y-88152804D01*
X98995571Y-88158765D01*
X99018671Y-88167030D01*
X99040849Y-88177520D01*
X99061893Y-88190133D01*
X99081598Y-88204747D01*
X99099777Y-88221223D01*
X99116253Y-88239402D01*
X99130867Y-88259107D01*
X99143480Y-88280151D01*
X99153970Y-88302329D01*
X99162235Y-88325429D01*
X99168196Y-88349227D01*
X99171796Y-88373496D01*
X99173000Y-88398000D01*
X99173000Y-89148000D01*
X99171796Y-89172504D01*
X99168196Y-89196773D01*
X99162235Y-89220571D01*
X99153970Y-89243671D01*
X99143480Y-89265849D01*
X99130867Y-89286893D01*
X99116253Y-89306598D01*
X99099777Y-89324777D01*
X99081598Y-89341253D01*
X99061893Y-89355867D01*
X99040849Y-89368480D01*
X99018671Y-89378970D01*
X98995571Y-89387235D01*
X98971773Y-89393196D01*
X98947504Y-89396796D01*
X98923000Y-89398000D01*
X97673000Y-89398000D01*
X97648496Y-89396796D01*
X97624227Y-89393196D01*
X97600429Y-89387235D01*
X97577329Y-89378970D01*
X97555151Y-89368480D01*
X97534107Y-89355867D01*
X97514402Y-89341253D01*
X97496223Y-89324777D01*
X97479747Y-89306598D01*
X97465133Y-89286893D01*
X97452520Y-89265849D01*
X97442030Y-89243671D01*
X97433765Y-89220571D01*
X97427804Y-89196773D01*
X97424204Y-89172504D01*
X97423000Y-89148000D01*
X97423000Y-88398000D01*
X97424204Y-88373496D01*
X97427804Y-88349227D01*
X97433765Y-88325429D01*
X97442030Y-88302329D01*
X97452520Y-88280151D01*
X97465133Y-88259107D01*
X97479747Y-88239402D01*
X97496223Y-88221223D01*
X97514402Y-88204747D01*
X97534107Y-88190133D01*
X97555151Y-88177520D01*
X97577329Y-88167030D01*
X97600429Y-88158765D01*
X97624227Y-88152804D01*
X97648496Y-88149204D01*
X97673000Y-88148000D01*
X98923000Y-88148000D01*
X98947504Y-88149204D01*
G37*
G36*
X98947504Y-85349204D02*
G01*
X98971773Y-85352804D01*
X98995571Y-85358765D01*
X99018671Y-85367030D01*
X99040849Y-85377520D01*
X99061893Y-85390133D01*
X99081598Y-85404747D01*
X99099777Y-85421223D01*
X99116253Y-85439402D01*
X99130867Y-85459107D01*
X99143480Y-85480151D01*
X99153970Y-85502329D01*
X99162235Y-85525429D01*
X99168196Y-85549227D01*
X99171796Y-85573496D01*
X99173000Y-85598000D01*
X99173000Y-86348000D01*
X99171796Y-86372504D01*
X99168196Y-86396773D01*
X99162235Y-86420571D01*
X99153970Y-86443671D01*
X99143480Y-86465849D01*
X99130867Y-86486893D01*
X99116253Y-86506598D01*
X99099777Y-86524777D01*
X99081598Y-86541253D01*
X99061893Y-86555867D01*
X99040849Y-86568480D01*
X99018671Y-86578970D01*
X98995571Y-86587235D01*
X98971773Y-86593196D01*
X98947504Y-86596796D01*
X98923000Y-86598000D01*
X97673000Y-86598000D01*
X97648496Y-86596796D01*
X97624227Y-86593196D01*
X97600429Y-86587235D01*
X97577329Y-86578970D01*
X97555151Y-86568480D01*
X97534107Y-86555867D01*
X97514402Y-86541253D01*
X97496223Y-86524777D01*
X97479747Y-86506598D01*
X97465133Y-86486893D01*
X97452520Y-86465849D01*
X97442030Y-86443671D01*
X97433765Y-86420571D01*
X97427804Y-86396773D01*
X97424204Y-86372504D01*
X97423000Y-86348000D01*
X97423000Y-85598000D01*
X97424204Y-85573496D01*
X97427804Y-85549227D01*
X97433765Y-85525429D01*
X97442030Y-85502329D01*
X97452520Y-85480151D01*
X97465133Y-85459107D01*
X97479747Y-85439402D01*
X97496223Y-85421223D01*
X97514402Y-85404747D01*
X97534107Y-85390133D01*
X97555151Y-85377520D01*
X97577329Y-85367030D01*
X97600429Y-85358765D01*
X97624227Y-85352804D01*
X97648496Y-85349204D01*
X97673000Y-85348000D01*
X98923000Y-85348000D01*
X98947504Y-85349204D01*
G37*
M02*
