G04 #@! TF.GenerationSoftware,KiCad,Pcbnew,(5.1.5)-3*
G04 #@! TF.CreationDate,2020-07-17T00:05:11-04:00*
G04 #@! TF.ProjectId,Power Transducer,506f7765-7220-4547-9261-6e7364756365,rev?*
G04 #@! TF.SameCoordinates,Original*
G04 #@! TF.FileFunction,Copper,L1,Top*
G04 #@! TF.FilePolarity,Positive*
%FSLAX46Y46*%
G04 Gerber Fmt 4.6, Leading zero omitted, Abs format (unit mm)*
G04 Created by KiCad (PCBNEW (5.1.5)-3) date 2020-07-17 00:05:11*
%MOMM*%
%LPD*%
G04 APERTURE LIST*
%ADD10C,2.340000*%
%ADD11C,0.100000*%
%ADD12R,1.850000X0.650000*%
%ADD13R,1.130000X1.130000*%
%ADD14C,1.130000*%
%ADD15C,2.000000*%
%ADD16O,2.020000X1.500000*%
%ADD17O,1.700000X1.700000*%
%ADD18R,1.700000X1.700000*%
%ADD19R,1.850000X1.850000*%
%ADD20C,1.850000*%
%ADD21C,0.800000*%
%ADD22C,0.250000*%
%ADD23C,0.500000*%
%ADD24C,0.254000*%
G04 APERTURE END LIST*
D10*
X131699000Y-71120000D03*
X129199000Y-73620000D03*
X126699000Y-71120000D03*
G04 #@! TA.AperFunction,SMDPad,CuDef*
D11*
G36*
X101191142Y-85903674D02*
G01*
X101214803Y-85907184D01*
X101238007Y-85912996D01*
X101260529Y-85921054D01*
X101282153Y-85931282D01*
X101302670Y-85943579D01*
X101321883Y-85957829D01*
X101339607Y-85973893D01*
X101355671Y-85991617D01*
X101369921Y-86010830D01*
X101382218Y-86031347D01*
X101392446Y-86052971D01*
X101400504Y-86075493D01*
X101406316Y-86098697D01*
X101409826Y-86122358D01*
X101411000Y-86146250D01*
X101411000Y-86633750D01*
X101409826Y-86657642D01*
X101406316Y-86681303D01*
X101400504Y-86704507D01*
X101392446Y-86727029D01*
X101382218Y-86748653D01*
X101369921Y-86769170D01*
X101355671Y-86788383D01*
X101339607Y-86806107D01*
X101321883Y-86822171D01*
X101302670Y-86836421D01*
X101282153Y-86848718D01*
X101260529Y-86858946D01*
X101238007Y-86867004D01*
X101214803Y-86872816D01*
X101191142Y-86876326D01*
X101167250Y-86877500D01*
X100254750Y-86877500D01*
X100230858Y-86876326D01*
X100207197Y-86872816D01*
X100183993Y-86867004D01*
X100161471Y-86858946D01*
X100139847Y-86848718D01*
X100119330Y-86836421D01*
X100100117Y-86822171D01*
X100082393Y-86806107D01*
X100066329Y-86788383D01*
X100052079Y-86769170D01*
X100039782Y-86748653D01*
X100029554Y-86727029D01*
X100021496Y-86704507D01*
X100015684Y-86681303D01*
X100012174Y-86657642D01*
X100011000Y-86633750D01*
X100011000Y-86146250D01*
X100012174Y-86122358D01*
X100015684Y-86098697D01*
X100021496Y-86075493D01*
X100029554Y-86052971D01*
X100039782Y-86031347D01*
X100052079Y-86010830D01*
X100066329Y-85991617D01*
X100082393Y-85973893D01*
X100100117Y-85957829D01*
X100119330Y-85943579D01*
X100139847Y-85931282D01*
X100161471Y-85921054D01*
X100183993Y-85912996D01*
X100207197Y-85907184D01*
X100230858Y-85903674D01*
X100254750Y-85902500D01*
X101167250Y-85902500D01*
X101191142Y-85903674D01*
G37*
G04 #@! TD.AperFunction*
G04 #@! TA.AperFunction,SMDPad,CuDef*
G36*
X101191142Y-87778674D02*
G01*
X101214803Y-87782184D01*
X101238007Y-87787996D01*
X101260529Y-87796054D01*
X101282153Y-87806282D01*
X101302670Y-87818579D01*
X101321883Y-87832829D01*
X101339607Y-87848893D01*
X101355671Y-87866617D01*
X101369921Y-87885830D01*
X101382218Y-87906347D01*
X101392446Y-87927971D01*
X101400504Y-87950493D01*
X101406316Y-87973697D01*
X101409826Y-87997358D01*
X101411000Y-88021250D01*
X101411000Y-88508750D01*
X101409826Y-88532642D01*
X101406316Y-88556303D01*
X101400504Y-88579507D01*
X101392446Y-88602029D01*
X101382218Y-88623653D01*
X101369921Y-88644170D01*
X101355671Y-88663383D01*
X101339607Y-88681107D01*
X101321883Y-88697171D01*
X101302670Y-88711421D01*
X101282153Y-88723718D01*
X101260529Y-88733946D01*
X101238007Y-88742004D01*
X101214803Y-88747816D01*
X101191142Y-88751326D01*
X101167250Y-88752500D01*
X100254750Y-88752500D01*
X100230858Y-88751326D01*
X100207197Y-88747816D01*
X100183993Y-88742004D01*
X100161471Y-88733946D01*
X100139847Y-88723718D01*
X100119330Y-88711421D01*
X100100117Y-88697171D01*
X100082393Y-88681107D01*
X100066329Y-88663383D01*
X100052079Y-88644170D01*
X100039782Y-88623653D01*
X100029554Y-88602029D01*
X100021496Y-88579507D01*
X100015684Y-88556303D01*
X100012174Y-88532642D01*
X100011000Y-88508750D01*
X100011000Y-88021250D01*
X100012174Y-87997358D01*
X100015684Y-87973697D01*
X100021496Y-87950493D01*
X100029554Y-87927971D01*
X100039782Y-87906347D01*
X100052079Y-87885830D01*
X100066329Y-87866617D01*
X100082393Y-87848893D01*
X100100117Y-87832829D01*
X100119330Y-87818579D01*
X100139847Y-87806282D01*
X100161471Y-87796054D01*
X100183993Y-87787996D01*
X100207197Y-87782184D01*
X100230858Y-87778674D01*
X100254750Y-87777500D01*
X101167250Y-87777500D01*
X101191142Y-87778674D01*
G37*
G04 #@! TD.AperFunction*
G04 #@! TA.AperFunction,SMDPad,CuDef*
G36*
X103985142Y-87778674D02*
G01*
X104008803Y-87782184D01*
X104032007Y-87787996D01*
X104054529Y-87796054D01*
X104076153Y-87806282D01*
X104096670Y-87818579D01*
X104115883Y-87832829D01*
X104133607Y-87848893D01*
X104149671Y-87866617D01*
X104163921Y-87885830D01*
X104176218Y-87906347D01*
X104186446Y-87927971D01*
X104194504Y-87950493D01*
X104200316Y-87973697D01*
X104203826Y-87997358D01*
X104205000Y-88021250D01*
X104205000Y-88508750D01*
X104203826Y-88532642D01*
X104200316Y-88556303D01*
X104194504Y-88579507D01*
X104186446Y-88602029D01*
X104176218Y-88623653D01*
X104163921Y-88644170D01*
X104149671Y-88663383D01*
X104133607Y-88681107D01*
X104115883Y-88697171D01*
X104096670Y-88711421D01*
X104076153Y-88723718D01*
X104054529Y-88733946D01*
X104032007Y-88742004D01*
X104008803Y-88747816D01*
X103985142Y-88751326D01*
X103961250Y-88752500D01*
X103048750Y-88752500D01*
X103024858Y-88751326D01*
X103001197Y-88747816D01*
X102977993Y-88742004D01*
X102955471Y-88733946D01*
X102933847Y-88723718D01*
X102913330Y-88711421D01*
X102894117Y-88697171D01*
X102876393Y-88681107D01*
X102860329Y-88663383D01*
X102846079Y-88644170D01*
X102833782Y-88623653D01*
X102823554Y-88602029D01*
X102815496Y-88579507D01*
X102809684Y-88556303D01*
X102806174Y-88532642D01*
X102805000Y-88508750D01*
X102805000Y-88021250D01*
X102806174Y-87997358D01*
X102809684Y-87973697D01*
X102815496Y-87950493D01*
X102823554Y-87927971D01*
X102833782Y-87906347D01*
X102846079Y-87885830D01*
X102860329Y-87866617D01*
X102876393Y-87848893D01*
X102894117Y-87832829D01*
X102913330Y-87818579D01*
X102933847Y-87806282D01*
X102955471Y-87796054D01*
X102977993Y-87787996D01*
X103001197Y-87782184D01*
X103024858Y-87778674D01*
X103048750Y-87777500D01*
X103961250Y-87777500D01*
X103985142Y-87778674D01*
G37*
G04 #@! TD.AperFunction*
G04 #@! TA.AperFunction,SMDPad,CuDef*
G36*
X103985142Y-85903674D02*
G01*
X104008803Y-85907184D01*
X104032007Y-85912996D01*
X104054529Y-85921054D01*
X104076153Y-85931282D01*
X104096670Y-85943579D01*
X104115883Y-85957829D01*
X104133607Y-85973893D01*
X104149671Y-85991617D01*
X104163921Y-86010830D01*
X104176218Y-86031347D01*
X104186446Y-86052971D01*
X104194504Y-86075493D01*
X104200316Y-86098697D01*
X104203826Y-86122358D01*
X104205000Y-86146250D01*
X104205000Y-86633750D01*
X104203826Y-86657642D01*
X104200316Y-86681303D01*
X104194504Y-86704507D01*
X104186446Y-86727029D01*
X104176218Y-86748653D01*
X104163921Y-86769170D01*
X104149671Y-86788383D01*
X104133607Y-86806107D01*
X104115883Y-86822171D01*
X104096670Y-86836421D01*
X104076153Y-86848718D01*
X104054529Y-86858946D01*
X104032007Y-86867004D01*
X104008803Y-86872816D01*
X103985142Y-86876326D01*
X103961250Y-86877500D01*
X103048750Y-86877500D01*
X103024858Y-86876326D01*
X103001197Y-86872816D01*
X102977993Y-86867004D01*
X102955471Y-86858946D01*
X102933847Y-86848718D01*
X102913330Y-86836421D01*
X102894117Y-86822171D01*
X102876393Y-86806107D01*
X102860329Y-86788383D01*
X102846079Y-86769170D01*
X102833782Y-86748653D01*
X102823554Y-86727029D01*
X102815496Y-86704507D01*
X102809684Y-86681303D01*
X102806174Y-86657642D01*
X102805000Y-86633750D01*
X102805000Y-86146250D01*
X102806174Y-86122358D01*
X102809684Y-86098697D01*
X102815496Y-86075493D01*
X102823554Y-86052971D01*
X102833782Y-86031347D01*
X102846079Y-86010830D01*
X102860329Y-85991617D01*
X102876393Y-85973893D01*
X102894117Y-85957829D01*
X102913330Y-85943579D01*
X102933847Y-85931282D01*
X102955471Y-85921054D01*
X102977993Y-85912996D01*
X103001197Y-85907184D01*
X103024858Y-85903674D01*
X103048750Y-85902500D01*
X103961250Y-85902500D01*
X103985142Y-85903674D01*
G37*
G04 #@! TD.AperFunction*
G04 #@! TA.AperFunction,SMDPad,CuDef*
G36*
X106017142Y-85903674D02*
G01*
X106040803Y-85907184D01*
X106064007Y-85912996D01*
X106086529Y-85921054D01*
X106108153Y-85931282D01*
X106128670Y-85943579D01*
X106147883Y-85957829D01*
X106165607Y-85973893D01*
X106181671Y-85991617D01*
X106195921Y-86010830D01*
X106208218Y-86031347D01*
X106218446Y-86052971D01*
X106226504Y-86075493D01*
X106232316Y-86098697D01*
X106235826Y-86122358D01*
X106237000Y-86146250D01*
X106237000Y-86633750D01*
X106235826Y-86657642D01*
X106232316Y-86681303D01*
X106226504Y-86704507D01*
X106218446Y-86727029D01*
X106208218Y-86748653D01*
X106195921Y-86769170D01*
X106181671Y-86788383D01*
X106165607Y-86806107D01*
X106147883Y-86822171D01*
X106128670Y-86836421D01*
X106108153Y-86848718D01*
X106086529Y-86858946D01*
X106064007Y-86867004D01*
X106040803Y-86872816D01*
X106017142Y-86876326D01*
X105993250Y-86877500D01*
X105080750Y-86877500D01*
X105056858Y-86876326D01*
X105033197Y-86872816D01*
X105009993Y-86867004D01*
X104987471Y-86858946D01*
X104965847Y-86848718D01*
X104945330Y-86836421D01*
X104926117Y-86822171D01*
X104908393Y-86806107D01*
X104892329Y-86788383D01*
X104878079Y-86769170D01*
X104865782Y-86748653D01*
X104855554Y-86727029D01*
X104847496Y-86704507D01*
X104841684Y-86681303D01*
X104838174Y-86657642D01*
X104837000Y-86633750D01*
X104837000Y-86146250D01*
X104838174Y-86122358D01*
X104841684Y-86098697D01*
X104847496Y-86075493D01*
X104855554Y-86052971D01*
X104865782Y-86031347D01*
X104878079Y-86010830D01*
X104892329Y-85991617D01*
X104908393Y-85973893D01*
X104926117Y-85957829D01*
X104945330Y-85943579D01*
X104965847Y-85931282D01*
X104987471Y-85921054D01*
X105009993Y-85912996D01*
X105033197Y-85907184D01*
X105056858Y-85903674D01*
X105080750Y-85902500D01*
X105993250Y-85902500D01*
X106017142Y-85903674D01*
G37*
G04 #@! TD.AperFunction*
G04 #@! TA.AperFunction,SMDPad,CuDef*
G36*
X106017142Y-87778674D02*
G01*
X106040803Y-87782184D01*
X106064007Y-87787996D01*
X106086529Y-87796054D01*
X106108153Y-87806282D01*
X106128670Y-87818579D01*
X106147883Y-87832829D01*
X106165607Y-87848893D01*
X106181671Y-87866617D01*
X106195921Y-87885830D01*
X106208218Y-87906347D01*
X106218446Y-87927971D01*
X106226504Y-87950493D01*
X106232316Y-87973697D01*
X106235826Y-87997358D01*
X106237000Y-88021250D01*
X106237000Y-88508750D01*
X106235826Y-88532642D01*
X106232316Y-88556303D01*
X106226504Y-88579507D01*
X106218446Y-88602029D01*
X106208218Y-88623653D01*
X106195921Y-88644170D01*
X106181671Y-88663383D01*
X106165607Y-88681107D01*
X106147883Y-88697171D01*
X106128670Y-88711421D01*
X106108153Y-88723718D01*
X106086529Y-88733946D01*
X106064007Y-88742004D01*
X106040803Y-88747816D01*
X106017142Y-88751326D01*
X105993250Y-88752500D01*
X105080750Y-88752500D01*
X105056858Y-88751326D01*
X105033197Y-88747816D01*
X105009993Y-88742004D01*
X104987471Y-88733946D01*
X104965847Y-88723718D01*
X104945330Y-88711421D01*
X104926117Y-88697171D01*
X104908393Y-88681107D01*
X104892329Y-88663383D01*
X104878079Y-88644170D01*
X104865782Y-88623653D01*
X104855554Y-88602029D01*
X104847496Y-88579507D01*
X104841684Y-88556303D01*
X104838174Y-88532642D01*
X104837000Y-88508750D01*
X104837000Y-88021250D01*
X104838174Y-87997358D01*
X104841684Y-87973697D01*
X104847496Y-87950493D01*
X104855554Y-87927971D01*
X104865782Y-87906347D01*
X104878079Y-87885830D01*
X104892329Y-87866617D01*
X104908393Y-87848893D01*
X104926117Y-87832829D01*
X104945330Y-87818579D01*
X104965847Y-87806282D01*
X104987471Y-87796054D01*
X105009993Y-87787996D01*
X105033197Y-87782184D01*
X105056858Y-87778674D01*
X105080750Y-87777500D01*
X105993250Y-87777500D01*
X106017142Y-87778674D01*
G37*
G04 #@! TD.AperFunction*
G04 #@! TA.AperFunction,SMDPad,CuDef*
G36*
X126221642Y-76644174D02*
G01*
X126245303Y-76647684D01*
X126268507Y-76653496D01*
X126291029Y-76661554D01*
X126312653Y-76671782D01*
X126333170Y-76684079D01*
X126352383Y-76698329D01*
X126370107Y-76714393D01*
X126386171Y-76732117D01*
X126400421Y-76751330D01*
X126412718Y-76771847D01*
X126422946Y-76793471D01*
X126431004Y-76815993D01*
X126436816Y-76839197D01*
X126440326Y-76862858D01*
X126441500Y-76886750D01*
X126441500Y-77799250D01*
X126440326Y-77823142D01*
X126436816Y-77846803D01*
X126431004Y-77870007D01*
X126422946Y-77892529D01*
X126412718Y-77914153D01*
X126400421Y-77934670D01*
X126386171Y-77953883D01*
X126370107Y-77971607D01*
X126352383Y-77987671D01*
X126333170Y-78001921D01*
X126312653Y-78014218D01*
X126291029Y-78024446D01*
X126268507Y-78032504D01*
X126245303Y-78038316D01*
X126221642Y-78041826D01*
X126197750Y-78043000D01*
X125710250Y-78043000D01*
X125686358Y-78041826D01*
X125662697Y-78038316D01*
X125639493Y-78032504D01*
X125616971Y-78024446D01*
X125595347Y-78014218D01*
X125574830Y-78001921D01*
X125555617Y-77987671D01*
X125537893Y-77971607D01*
X125521829Y-77953883D01*
X125507579Y-77934670D01*
X125495282Y-77914153D01*
X125485054Y-77892529D01*
X125476996Y-77870007D01*
X125471184Y-77846803D01*
X125467674Y-77823142D01*
X125466500Y-77799250D01*
X125466500Y-76886750D01*
X125467674Y-76862858D01*
X125471184Y-76839197D01*
X125476996Y-76815993D01*
X125485054Y-76793471D01*
X125495282Y-76771847D01*
X125507579Y-76751330D01*
X125521829Y-76732117D01*
X125537893Y-76714393D01*
X125555617Y-76698329D01*
X125574830Y-76684079D01*
X125595347Y-76671782D01*
X125616971Y-76661554D01*
X125639493Y-76653496D01*
X125662697Y-76647684D01*
X125686358Y-76644174D01*
X125710250Y-76643000D01*
X126197750Y-76643000D01*
X126221642Y-76644174D01*
G37*
G04 #@! TD.AperFunction*
G04 #@! TA.AperFunction,SMDPad,CuDef*
G36*
X124346642Y-76644174D02*
G01*
X124370303Y-76647684D01*
X124393507Y-76653496D01*
X124416029Y-76661554D01*
X124437653Y-76671782D01*
X124458170Y-76684079D01*
X124477383Y-76698329D01*
X124495107Y-76714393D01*
X124511171Y-76732117D01*
X124525421Y-76751330D01*
X124537718Y-76771847D01*
X124547946Y-76793471D01*
X124556004Y-76815993D01*
X124561816Y-76839197D01*
X124565326Y-76862858D01*
X124566500Y-76886750D01*
X124566500Y-77799250D01*
X124565326Y-77823142D01*
X124561816Y-77846803D01*
X124556004Y-77870007D01*
X124547946Y-77892529D01*
X124537718Y-77914153D01*
X124525421Y-77934670D01*
X124511171Y-77953883D01*
X124495107Y-77971607D01*
X124477383Y-77987671D01*
X124458170Y-78001921D01*
X124437653Y-78014218D01*
X124416029Y-78024446D01*
X124393507Y-78032504D01*
X124370303Y-78038316D01*
X124346642Y-78041826D01*
X124322750Y-78043000D01*
X123835250Y-78043000D01*
X123811358Y-78041826D01*
X123787697Y-78038316D01*
X123764493Y-78032504D01*
X123741971Y-78024446D01*
X123720347Y-78014218D01*
X123699830Y-78001921D01*
X123680617Y-77987671D01*
X123662893Y-77971607D01*
X123646829Y-77953883D01*
X123632579Y-77934670D01*
X123620282Y-77914153D01*
X123610054Y-77892529D01*
X123601996Y-77870007D01*
X123596184Y-77846803D01*
X123592674Y-77823142D01*
X123591500Y-77799250D01*
X123591500Y-76886750D01*
X123592674Y-76862858D01*
X123596184Y-76839197D01*
X123601996Y-76815993D01*
X123610054Y-76793471D01*
X123620282Y-76771847D01*
X123632579Y-76751330D01*
X123646829Y-76732117D01*
X123662893Y-76714393D01*
X123680617Y-76698329D01*
X123699830Y-76684079D01*
X123720347Y-76671782D01*
X123741971Y-76661554D01*
X123764493Y-76653496D01*
X123787697Y-76647684D01*
X123811358Y-76644174D01*
X123835250Y-76643000D01*
X124322750Y-76643000D01*
X124346642Y-76644174D01*
G37*
G04 #@! TD.AperFunction*
G04 #@! TA.AperFunction,SMDPad,CuDef*
G36*
X104153642Y-83502174D02*
G01*
X104177303Y-83505684D01*
X104200507Y-83511496D01*
X104223029Y-83519554D01*
X104244653Y-83529782D01*
X104265170Y-83542079D01*
X104284383Y-83556329D01*
X104302107Y-83572393D01*
X104318171Y-83590117D01*
X104332421Y-83609330D01*
X104344718Y-83629847D01*
X104354946Y-83651471D01*
X104363004Y-83673993D01*
X104368816Y-83697197D01*
X104372326Y-83720858D01*
X104373500Y-83744750D01*
X104373500Y-84657250D01*
X104372326Y-84681142D01*
X104368816Y-84704803D01*
X104363004Y-84728007D01*
X104354946Y-84750529D01*
X104344718Y-84772153D01*
X104332421Y-84792670D01*
X104318171Y-84811883D01*
X104302107Y-84829607D01*
X104284383Y-84845671D01*
X104265170Y-84859921D01*
X104244653Y-84872218D01*
X104223029Y-84882446D01*
X104200507Y-84890504D01*
X104177303Y-84896316D01*
X104153642Y-84899826D01*
X104129750Y-84901000D01*
X103642250Y-84901000D01*
X103618358Y-84899826D01*
X103594697Y-84896316D01*
X103571493Y-84890504D01*
X103548971Y-84882446D01*
X103527347Y-84872218D01*
X103506830Y-84859921D01*
X103487617Y-84845671D01*
X103469893Y-84829607D01*
X103453829Y-84811883D01*
X103439579Y-84792670D01*
X103427282Y-84772153D01*
X103417054Y-84750529D01*
X103408996Y-84728007D01*
X103403184Y-84704803D01*
X103399674Y-84681142D01*
X103398500Y-84657250D01*
X103398500Y-83744750D01*
X103399674Y-83720858D01*
X103403184Y-83697197D01*
X103408996Y-83673993D01*
X103417054Y-83651471D01*
X103427282Y-83629847D01*
X103439579Y-83609330D01*
X103453829Y-83590117D01*
X103469893Y-83572393D01*
X103487617Y-83556329D01*
X103506830Y-83542079D01*
X103527347Y-83529782D01*
X103548971Y-83519554D01*
X103571493Y-83511496D01*
X103594697Y-83505684D01*
X103618358Y-83502174D01*
X103642250Y-83501000D01*
X104129750Y-83501000D01*
X104153642Y-83502174D01*
G37*
G04 #@! TD.AperFunction*
G04 #@! TA.AperFunction,SMDPad,CuDef*
G36*
X106028642Y-83502174D02*
G01*
X106052303Y-83505684D01*
X106075507Y-83511496D01*
X106098029Y-83519554D01*
X106119653Y-83529782D01*
X106140170Y-83542079D01*
X106159383Y-83556329D01*
X106177107Y-83572393D01*
X106193171Y-83590117D01*
X106207421Y-83609330D01*
X106219718Y-83629847D01*
X106229946Y-83651471D01*
X106238004Y-83673993D01*
X106243816Y-83697197D01*
X106247326Y-83720858D01*
X106248500Y-83744750D01*
X106248500Y-84657250D01*
X106247326Y-84681142D01*
X106243816Y-84704803D01*
X106238004Y-84728007D01*
X106229946Y-84750529D01*
X106219718Y-84772153D01*
X106207421Y-84792670D01*
X106193171Y-84811883D01*
X106177107Y-84829607D01*
X106159383Y-84845671D01*
X106140170Y-84859921D01*
X106119653Y-84872218D01*
X106098029Y-84882446D01*
X106075507Y-84890504D01*
X106052303Y-84896316D01*
X106028642Y-84899826D01*
X106004750Y-84901000D01*
X105517250Y-84901000D01*
X105493358Y-84899826D01*
X105469697Y-84896316D01*
X105446493Y-84890504D01*
X105423971Y-84882446D01*
X105402347Y-84872218D01*
X105381830Y-84859921D01*
X105362617Y-84845671D01*
X105344893Y-84829607D01*
X105328829Y-84811883D01*
X105314579Y-84792670D01*
X105302282Y-84772153D01*
X105292054Y-84750529D01*
X105283996Y-84728007D01*
X105278184Y-84704803D01*
X105274674Y-84681142D01*
X105273500Y-84657250D01*
X105273500Y-83744750D01*
X105274674Y-83720858D01*
X105278184Y-83697197D01*
X105283996Y-83673993D01*
X105292054Y-83651471D01*
X105302282Y-83629847D01*
X105314579Y-83609330D01*
X105328829Y-83590117D01*
X105344893Y-83572393D01*
X105362617Y-83556329D01*
X105381830Y-83542079D01*
X105402347Y-83529782D01*
X105423971Y-83519554D01*
X105446493Y-83511496D01*
X105469697Y-83505684D01*
X105493358Y-83502174D01*
X105517250Y-83501000D01*
X106004750Y-83501000D01*
X106028642Y-83502174D01*
G37*
G04 #@! TD.AperFunction*
G04 #@! TA.AperFunction,SMDPad,CuDef*
G36*
X122527142Y-88159674D02*
G01*
X122550803Y-88163184D01*
X122574007Y-88168996D01*
X122596529Y-88177054D01*
X122618153Y-88187282D01*
X122638670Y-88199579D01*
X122657883Y-88213829D01*
X122675607Y-88229893D01*
X122691671Y-88247617D01*
X122705921Y-88266830D01*
X122718218Y-88287347D01*
X122728446Y-88308971D01*
X122736504Y-88331493D01*
X122742316Y-88354697D01*
X122745826Y-88378358D01*
X122747000Y-88402250D01*
X122747000Y-88889750D01*
X122745826Y-88913642D01*
X122742316Y-88937303D01*
X122736504Y-88960507D01*
X122728446Y-88983029D01*
X122718218Y-89004653D01*
X122705921Y-89025170D01*
X122691671Y-89044383D01*
X122675607Y-89062107D01*
X122657883Y-89078171D01*
X122638670Y-89092421D01*
X122618153Y-89104718D01*
X122596529Y-89114946D01*
X122574007Y-89123004D01*
X122550803Y-89128816D01*
X122527142Y-89132326D01*
X122503250Y-89133500D01*
X121590750Y-89133500D01*
X121566858Y-89132326D01*
X121543197Y-89128816D01*
X121519993Y-89123004D01*
X121497471Y-89114946D01*
X121475847Y-89104718D01*
X121455330Y-89092421D01*
X121436117Y-89078171D01*
X121418393Y-89062107D01*
X121402329Y-89044383D01*
X121388079Y-89025170D01*
X121375782Y-89004653D01*
X121365554Y-88983029D01*
X121357496Y-88960507D01*
X121351684Y-88937303D01*
X121348174Y-88913642D01*
X121347000Y-88889750D01*
X121347000Y-88402250D01*
X121348174Y-88378358D01*
X121351684Y-88354697D01*
X121357496Y-88331493D01*
X121365554Y-88308971D01*
X121375782Y-88287347D01*
X121388079Y-88266830D01*
X121402329Y-88247617D01*
X121418393Y-88229893D01*
X121436117Y-88213829D01*
X121455330Y-88199579D01*
X121475847Y-88187282D01*
X121497471Y-88177054D01*
X121519993Y-88168996D01*
X121543197Y-88163184D01*
X121566858Y-88159674D01*
X121590750Y-88158500D01*
X122503250Y-88158500D01*
X122527142Y-88159674D01*
G37*
G04 #@! TD.AperFunction*
G04 #@! TA.AperFunction,SMDPad,CuDef*
G36*
X122527142Y-86284674D02*
G01*
X122550803Y-86288184D01*
X122574007Y-86293996D01*
X122596529Y-86302054D01*
X122618153Y-86312282D01*
X122638670Y-86324579D01*
X122657883Y-86338829D01*
X122675607Y-86354893D01*
X122691671Y-86372617D01*
X122705921Y-86391830D01*
X122718218Y-86412347D01*
X122728446Y-86433971D01*
X122736504Y-86456493D01*
X122742316Y-86479697D01*
X122745826Y-86503358D01*
X122747000Y-86527250D01*
X122747000Y-87014750D01*
X122745826Y-87038642D01*
X122742316Y-87062303D01*
X122736504Y-87085507D01*
X122728446Y-87108029D01*
X122718218Y-87129653D01*
X122705921Y-87150170D01*
X122691671Y-87169383D01*
X122675607Y-87187107D01*
X122657883Y-87203171D01*
X122638670Y-87217421D01*
X122618153Y-87229718D01*
X122596529Y-87239946D01*
X122574007Y-87248004D01*
X122550803Y-87253816D01*
X122527142Y-87257326D01*
X122503250Y-87258500D01*
X121590750Y-87258500D01*
X121566858Y-87257326D01*
X121543197Y-87253816D01*
X121519993Y-87248004D01*
X121497471Y-87239946D01*
X121475847Y-87229718D01*
X121455330Y-87217421D01*
X121436117Y-87203171D01*
X121418393Y-87187107D01*
X121402329Y-87169383D01*
X121388079Y-87150170D01*
X121375782Y-87129653D01*
X121365554Y-87108029D01*
X121357496Y-87085507D01*
X121351684Y-87062303D01*
X121348174Y-87038642D01*
X121347000Y-87014750D01*
X121347000Y-86527250D01*
X121348174Y-86503358D01*
X121351684Y-86479697D01*
X121357496Y-86456493D01*
X121365554Y-86433971D01*
X121375782Y-86412347D01*
X121388079Y-86391830D01*
X121402329Y-86372617D01*
X121418393Y-86354893D01*
X121436117Y-86338829D01*
X121455330Y-86324579D01*
X121475847Y-86312282D01*
X121497471Y-86302054D01*
X121519993Y-86293996D01*
X121543197Y-86288184D01*
X121566858Y-86284674D01*
X121590750Y-86283500D01*
X122503250Y-86283500D01*
X122527142Y-86284674D01*
G37*
G04 #@! TD.AperFunction*
G04 #@! TA.AperFunction,SMDPad,CuDef*
G36*
X124559142Y-86284674D02*
G01*
X124582803Y-86288184D01*
X124606007Y-86293996D01*
X124628529Y-86302054D01*
X124650153Y-86312282D01*
X124670670Y-86324579D01*
X124689883Y-86338829D01*
X124707607Y-86354893D01*
X124723671Y-86372617D01*
X124737921Y-86391830D01*
X124750218Y-86412347D01*
X124760446Y-86433971D01*
X124768504Y-86456493D01*
X124774316Y-86479697D01*
X124777826Y-86503358D01*
X124779000Y-86527250D01*
X124779000Y-87014750D01*
X124777826Y-87038642D01*
X124774316Y-87062303D01*
X124768504Y-87085507D01*
X124760446Y-87108029D01*
X124750218Y-87129653D01*
X124737921Y-87150170D01*
X124723671Y-87169383D01*
X124707607Y-87187107D01*
X124689883Y-87203171D01*
X124670670Y-87217421D01*
X124650153Y-87229718D01*
X124628529Y-87239946D01*
X124606007Y-87248004D01*
X124582803Y-87253816D01*
X124559142Y-87257326D01*
X124535250Y-87258500D01*
X123622750Y-87258500D01*
X123598858Y-87257326D01*
X123575197Y-87253816D01*
X123551993Y-87248004D01*
X123529471Y-87239946D01*
X123507847Y-87229718D01*
X123487330Y-87217421D01*
X123468117Y-87203171D01*
X123450393Y-87187107D01*
X123434329Y-87169383D01*
X123420079Y-87150170D01*
X123407782Y-87129653D01*
X123397554Y-87108029D01*
X123389496Y-87085507D01*
X123383684Y-87062303D01*
X123380174Y-87038642D01*
X123379000Y-87014750D01*
X123379000Y-86527250D01*
X123380174Y-86503358D01*
X123383684Y-86479697D01*
X123389496Y-86456493D01*
X123397554Y-86433971D01*
X123407782Y-86412347D01*
X123420079Y-86391830D01*
X123434329Y-86372617D01*
X123450393Y-86354893D01*
X123468117Y-86338829D01*
X123487330Y-86324579D01*
X123507847Y-86312282D01*
X123529471Y-86302054D01*
X123551993Y-86293996D01*
X123575197Y-86288184D01*
X123598858Y-86284674D01*
X123622750Y-86283500D01*
X124535250Y-86283500D01*
X124559142Y-86284674D01*
G37*
G04 #@! TD.AperFunction*
G04 #@! TA.AperFunction,SMDPad,CuDef*
G36*
X124559142Y-88159674D02*
G01*
X124582803Y-88163184D01*
X124606007Y-88168996D01*
X124628529Y-88177054D01*
X124650153Y-88187282D01*
X124670670Y-88199579D01*
X124689883Y-88213829D01*
X124707607Y-88229893D01*
X124723671Y-88247617D01*
X124737921Y-88266830D01*
X124750218Y-88287347D01*
X124760446Y-88308971D01*
X124768504Y-88331493D01*
X124774316Y-88354697D01*
X124777826Y-88378358D01*
X124779000Y-88402250D01*
X124779000Y-88889750D01*
X124777826Y-88913642D01*
X124774316Y-88937303D01*
X124768504Y-88960507D01*
X124760446Y-88983029D01*
X124750218Y-89004653D01*
X124737921Y-89025170D01*
X124723671Y-89044383D01*
X124707607Y-89062107D01*
X124689883Y-89078171D01*
X124670670Y-89092421D01*
X124650153Y-89104718D01*
X124628529Y-89114946D01*
X124606007Y-89123004D01*
X124582803Y-89128816D01*
X124559142Y-89132326D01*
X124535250Y-89133500D01*
X123622750Y-89133500D01*
X123598858Y-89132326D01*
X123575197Y-89128816D01*
X123551993Y-89123004D01*
X123529471Y-89114946D01*
X123507847Y-89104718D01*
X123487330Y-89092421D01*
X123468117Y-89078171D01*
X123450393Y-89062107D01*
X123434329Y-89044383D01*
X123420079Y-89025170D01*
X123407782Y-89004653D01*
X123397554Y-88983029D01*
X123389496Y-88960507D01*
X123383684Y-88937303D01*
X123380174Y-88913642D01*
X123379000Y-88889750D01*
X123379000Y-88402250D01*
X123380174Y-88378358D01*
X123383684Y-88354697D01*
X123389496Y-88331493D01*
X123397554Y-88308971D01*
X123407782Y-88287347D01*
X123420079Y-88266830D01*
X123434329Y-88247617D01*
X123450393Y-88229893D01*
X123468117Y-88213829D01*
X123487330Y-88199579D01*
X123507847Y-88187282D01*
X123529471Y-88177054D01*
X123551993Y-88168996D01*
X123575197Y-88163184D01*
X123598858Y-88159674D01*
X123622750Y-88158500D01*
X124535250Y-88158500D01*
X124559142Y-88159674D01*
G37*
G04 #@! TD.AperFunction*
G04 #@! TA.AperFunction,SMDPad,CuDef*
G36*
X119901642Y-81216174D02*
G01*
X119925303Y-81219684D01*
X119948507Y-81225496D01*
X119971029Y-81233554D01*
X119992653Y-81243782D01*
X120013170Y-81256079D01*
X120032383Y-81270329D01*
X120050107Y-81286393D01*
X120066171Y-81304117D01*
X120080421Y-81323330D01*
X120092718Y-81343847D01*
X120102946Y-81365471D01*
X120111004Y-81387993D01*
X120116816Y-81411197D01*
X120120326Y-81434858D01*
X120121500Y-81458750D01*
X120121500Y-82371250D01*
X120120326Y-82395142D01*
X120116816Y-82418803D01*
X120111004Y-82442007D01*
X120102946Y-82464529D01*
X120092718Y-82486153D01*
X120080421Y-82506670D01*
X120066171Y-82525883D01*
X120050107Y-82543607D01*
X120032383Y-82559671D01*
X120013170Y-82573921D01*
X119992653Y-82586218D01*
X119971029Y-82596446D01*
X119948507Y-82604504D01*
X119925303Y-82610316D01*
X119901642Y-82613826D01*
X119877750Y-82615000D01*
X119390250Y-82615000D01*
X119366358Y-82613826D01*
X119342697Y-82610316D01*
X119319493Y-82604504D01*
X119296971Y-82596446D01*
X119275347Y-82586218D01*
X119254830Y-82573921D01*
X119235617Y-82559671D01*
X119217893Y-82543607D01*
X119201829Y-82525883D01*
X119187579Y-82506670D01*
X119175282Y-82486153D01*
X119165054Y-82464529D01*
X119156996Y-82442007D01*
X119151184Y-82418803D01*
X119147674Y-82395142D01*
X119146500Y-82371250D01*
X119146500Y-81458750D01*
X119147674Y-81434858D01*
X119151184Y-81411197D01*
X119156996Y-81387993D01*
X119165054Y-81365471D01*
X119175282Y-81343847D01*
X119187579Y-81323330D01*
X119201829Y-81304117D01*
X119217893Y-81286393D01*
X119235617Y-81270329D01*
X119254830Y-81256079D01*
X119275347Y-81243782D01*
X119296971Y-81233554D01*
X119319493Y-81225496D01*
X119342697Y-81219684D01*
X119366358Y-81216174D01*
X119390250Y-81215000D01*
X119877750Y-81215000D01*
X119901642Y-81216174D01*
G37*
G04 #@! TD.AperFunction*
G04 #@! TA.AperFunction,SMDPad,CuDef*
G36*
X118026642Y-81216174D02*
G01*
X118050303Y-81219684D01*
X118073507Y-81225496D01*
X118096029Y-81233554D01*
X118117653Y-81243782D01*
X118138170Y-81256079D01*
X118157383Y-81270329D01*
X118175107Y-81286393D01*
X118191171Y-81304117D01*
X118205421Y-81323330D01*
X118217718Y-81343847D01*
X118227946Y-81365471D01*
X118236004Y-81387993D01*
X118241816Y-81411197D01*
X118245326Y-81434858D01*
X118246500Y-81458750D01*
X118246500Y-82371250D01*
X118245326Y-82395142D01*
X118241816Y-82418803D01*
X118236004Y-82442007D01*
X118227946Y-82464529D01*
X118217718Y-82486153D01*
X118205421Y-82506670D01*
X118191171Y-82525883D01*
X118175107Y-82543607D01*
X118157383Y-82559671D01*
X118138170Y-82573921D01*
X118117653Y-82586218D01*
X118096029Y-82596446D01*
X118073507Y-82604504D01*
X118050303Y-82610316D01*
X118026642Y-82613826D01*
X118002750Y-82615000D01*
X117515250Y-82615000D01*
X117491358Y-82613826D01*
X117467697Y-82610316D01*
X117444493Y-82604504D01*
X117421971Y-82596446D01*
X117400347Y-82586218D01*
X117379830Y-82573921D01*
X117360617Y-82559671D01*
X117342893Y-82543607D01*
X117326829Y-82525883D01*
X117312579Y-82506670D01*
X117300282Y-82486153D01*
X117290054Y-82464529D01*
X117281996Y-82442007D01*
X117276184Y-82418803D01*
X117272674Y-82395142D01*
X117271500Y-82371250D01*
X117271500Y-81458750D01*
X117272674Y-81434858D01*
X117276184Y-81411197D01*
X117281996Y-81387993D01*
X117290054Y-81365471D01*
X117300282Y-81343847D01*
X117312579Y-81323330D01*
X117326829Y-81304117D01*
X117342893Y-81286393D01*
X117360617Y-81270329D01*
X117379830Y-81256079D01*
X117400347Y-81243782D01*
X117421971Y-81233554D01*
X117444493Y-81225496D01*
X117467697Y-81219684D01*
X117491358Y-81216174D01*
X117515250Y-81215000D01*
X118002750Y-81215000D01*
X118026642Y-81216174D01*
G37*
G04 #@! TD.AperFunction*
G04 #@! TA.AperFunction,SMDPad,CuDef*
G36*
X106028642Y-81343174D02*
G01*
X106052303Y-81346684D01*
X106075507Y-81352496D01*
X106098029Y-81360554D01*
X106119653Y-81370782D01*
X106140170Y-81383079D01*
X106159383Y-81397329D01*
X106177107Y-81413393D01*
X106193171Y-81431117D01*
X106207421Y-81450330D01*
X106219718Y-81470847D01*
X106229946Y-81492471D01*
X106238004Y-81514993D01*
X106243816Y-81538197D01*
X106247326Y-81561858D01*
X106248500Y-81585750D01*
X106248500Y-82498250D01*
X106247326Y-82522142D01*
X106243816Y-82545803D01*
X106238004Y-82569007D01*
X106229946Y-82591529D01*
X106219718Y-82613153D01*
X106207421Y-82633670D01*
X106193171Y-82652883D01*
X106177107Y-82670607D01*
X106159383Y-82686671D01*
X106140170Y-82700921D01*
X106119653Y-82713218D01*
X106098029Y-82723446D01*
X106075507Y-82731504D01*
X106052303Y-82737316D01*
X106028642Y-82740826D01*
X106004750Y-82742000D01*
X105517250Y-82742000D01*
X105493358Y-82740826D01*
X105469697Y-82737316D01*
X105446493Y-82731504D01*
X105423971Y-82723446D01*
X105402347Y-82713218D01*
X105381830Y-82700921D01*
X105362617Y-82686671D01*
X105344893Y-82670607D01*
X105328829Y-82652883D01*
X105314579Y-82633670D01*
X105302282Y-82613153D01*
X105292054Y-82591529D01*
X105283996Y-82569007D01*
X105278184Y-82545803D01*
X105274674Y-82522142D01*
X105273500Y-82498250D01*
X105273500Y-81585750D01*
X105274674Y-81561858D01*
X105278184Y-81538197D01*
X105283996Y-81514993D01*
X105292054Y-81492471D01*
X105302282Y-81470847D01*
X105314579Y-81450330D01*
X105328829Y-81431117D01*
X105344893Y-81413393D01*
X105362617Y-81397329D01*
X105381830Y-81383079D01*
X105402347Y-81370782D01*
X105423971Y-81360554D01*
X105446493Y-81352496D01*
X105469697Y-81346684D01*
X105493358Y-81343174D01*
X105517250Y-81342000D01*
X106004750Y-81342000D01*
X106028642Y-81343174D01*
G37*
G04 #@! TD.AperFunction*
G04 #@! TA.AperFunction,SMDPad,CuDef*
G36*
X104153642Y-81343174D02*
G01*
X104177303Y-81346684D01*
X104200507Y-81352496D01*
X104223029Y-81360554D01*
X104244653Y-81370782D01*
X104265170Y-81383079D01*
X104284383Y-81397329D01*
X104302107Y-81413393D01*
X104318171Y-81431117D01*
X104332421Y-81450330D01*
X104344718Y-81470847D01*
X104354946Y-81492471D01*
X104363004Y-81514993D01*
X104368816Y-81538197D01*
X104372326Y-81561858D01*
X104373500Y-81585750D01*
X104373500Y-82498250D01*
X104372326Y-82522142D01*
X104368816Y-82545803D01*
X104363004Y-82569007D01*
X104354946Y-82591529D01*
X104344718Y-82613153D01*
X104332421Y-82633670D01*
X104318171Y-82652883D01*
X104302107Y-82670607D01*
X104284383Y-82686671D01*
X104265170Y-82700921D01*
X104244653Y-82713218D01*
X104223029Y-82723446D01*
X104200507Y-82731504D01*
X104177303Y-82737316D01*
X104153642Y-82740826D01*
X104129750Y-82742000D01*
X103642250Y-82742000D01*
X103618358Y-82740826D01*
X103594697Y-82737316D01*
X103571493Y-82731504D01*
X103548971Y-82723446D01*
X103527347Y-82713218D01*
X103506830Y-82700921D01*
X103487617Y-82686671D01*
X103469893Y-82670607D01*
X103453829Y-82652883D01*
X103439579Y-82633670D01*
X103427282Y-82613153D01*
X103417054Y-82591529D01*
X103408996Y-82569007D01*
X103403184Y-82545803D01*
X103399674Y-82522142D01*
X103398500Y-82498250D01*
X103398500Y-81585750D01*
X103399674Y-81561858D01*
X103403184Y-81538197D01*
X103408996Y-81514993D01*
X103417054Y-81492471D01*
X103427282Y-81470847D01*
X103439579Y-81450330D01*
X103453829Y-81431117D01*
X103469893Y-81413393D01*
X103487617Y-81397329D01*
X103506830Y-81383079D01*
X103527347Y-81370782D01*
X103548971Y-81360554D01*
X103571493Y-81352496D01*
X103594697Y-81346684D01*
X103618358Y-81343174D01*
X103642250Y-81342000D01*
X104129750Y-81342000D01*
X104153642Y-81343174D01*
G37*
G04 #@! TD.AperFunction*
D12*
X108594000Y-84455000D03*
X108594000Y-85725000D03*
X108594000Y-86995000D03*
X108594000Y-88265000D03*
X119244000Y-88265000D03*
X119244000Y-86995000D03*
X119244000Y-85725000D03*
X119244000Y-84455000D03*
D13*
X126967000Y-80645000D03*
D14*
X126967000Y-83185000D03*
X126967000Y-85725000D03*
X126967000Y-88265000D03*
X134907000Y-88265000D03*
X134907000Y-85725000D03*
X134907000Y-83185000D03*
X134907000Y-80645000D03*
D15*
X94615000Y-71501000D03*
X94615000Y-88773000D03*
G04 #@! TA.AperFunction,ComponentPad*
D11*
G36*
X139976504Y-76721204D02*
G01*
X140000773Y-76724804D01*
X140024571Y-76730765D01*
X140047671Y-76739030D01*
X140069849Y-76749520D01*
X140090893Y-76762133D01*
X140110598Y-76776747D01*
X140128777Y-76793223D01*
X140145253Y-76811402D01*
X140159867Y-76831107D01*
X140172480Y-76852151D01*
X140182970Y-76874329D01*
X140191235Y-76897429D01*
X140197196Y-76921227D01*
X140200796Y-76945496D01*
X140202000Y-76970000D01*
X140202000Y-77970000D01*
X140200796Y-77994504D01*
X140197196Y-78018773D01*
X140191235Y-78042571D01*
X140182970Y-78065671D01*
X140172480Y-78087849D01*
X140159867Y-78108893D01*
X140145253Y-78128598D01*
X140128777Y-78146777D01*
X140110598Y-78163253D01*
X140090893Y-78177867D01*
X140069849Y-78190480D01*
X140047671Y-78200970D01*
X140024571Y-78209235D01*
X140000773Y-78215196D01*
X139976504Y-78218796D01*
X139952000Y-78220000D01*
X138432000Y-78220000D01*
X138407496Y-78218796D01*
X138383227Y-78215196D01*
X138359429Y-78209235D01*
X138336329Y-78200970D01*
X138314151Y-78190480D01*
X138293107Y-78177867D01*
X138273402Y-78163253D01*
X138255223Y-78146777D01*
X138238747Y-78128598D01*
X138224133Y-78108893D01*
X138211520Y-78087849D01*
X138201030Y-78065671D01*
X138192765Y-78042571D01*
X138186804Y-78018773D01*
X138183204Y-77994504D01*
X138182000Y-77970000D01*
X138182000Y-76970000D01*
X138183204Y-76945496D01*
X138186804Y-76921227D01*
X138192765Y-76897429D01*
X138201030Y-76874329D01*
X138211520Y-76852151D01*
X138224133Y-76831107D01*
X138238747Y-76811402D01*
X138255223Y-76793223D01*
X138273402Y-76776747D01*
X138293107Y-76762133D01*
X138314151Y-76749520D01*
X138336329Y-76739030D01*
X138359429Y-76730765D01*
X138383227Y-76724804D01*
X138407496Y-76721204D01*
X138432000Y-76720000D01*
X139952000Y-76720000D01*
X139976504Y-76721204D01*
G37*
G04 #@! TD.AperFunction*
D16*
X139192000Y-80470000D03*
X139192000Y-83470000D03*
X139192000Y-86470000D03*
D17*
X146812000Y-71501000D03*
X144272000Y-71501000D03*
X141732000Y-71501000D03*
X139192000Y-71501000D03*
D18*
X136652000Y-71501000D03*
D19*
X120523000Y-76327000D03*
D20*
X117983000Y-76327000D03*
X107823000Y-76327000D03*
X105283000Y-76327000D03*
X102743000Y-76327000D03*
G04 #@! TA.AperFunction,SMDPad,CuDef*
D11*
G36*
X98947504Y-70871204D02*
G01*
X98971773Y-70874804D01*
X98995571Y-70880765D01*
X99018671Y-70889030D01*
X99040849Y-70899520D01*
X99061893Y-70912133D01*
X99081598Y-70926747D01*
X99099777Y-70943223D01*
X99116253Y-70961402D01*
X99130867Y-70981107D01*
X99143480Y-71002151D01*
X99153970Y-71024329D01*
X99162235Y-71047429D01*
X99168196Y-71071227D01*
X99171796Y-71095496D01*
X99173000Y-71120000D01*
X99173000Y-71870000D01*
X99171796Y-71894504D01*
X99168196Y-71918773D01*
X99162235Y-71942571D01*
X99153970Y-71965671D01*
X99143480Y-71987849D01*
X99130867Y-72008893D01*
X99116253Y-72028598D01*
X99099777Y-72046777D01*
X99081598Y-72063253D01*
X99061893Y-72077867D01*
X99040849Y-72090480D01*
X99018671Y-72100970D01*
X98995571Y-72109235D01*
X98971773Y-72115196D01*
X98947504Y-72118796D01*
X98923000Y-72120000D01*
X97673000Y-72120000D01*
X97648496Y-72118796D01*
X97624227Y-72115196D01*
X97600429Y-72109235D01*
X97577329Y-72100970D01*
X97555151Y-72090480D01*
X97534107Y-72077867D01*
X97514402Y-72063253D01*
X97496223Y-72046777D01*
X97479747Y-72028598D01*
X97465133Y-72008893D01*
X97452520Y-71987849D01*
X97442030Y-71965671D01*
X97433765Y-71942571D01*
X97427804Y-71918773D01*
X97424204Y-71894504D01*
X97423000Y-71870000D01*
X97423000Y-71120000D01*
X97424204Y-71095496D01*
X97427804Y-71071227D01*
X97433765Y-71047429D01*
X97442030Y-71024329D01*
X97452520Y-71002151D01*
X97465133Y-70981107D01*
X97479747Y-70961402D01*
X97496223Y-70943223D01*
X97514402Y-70926747D01*
X97534107Y-70912133D01*
X97555151Y-70899520D01*
X97577329Y-70889030D01*
X97600429Y-70880765D01*
X97624227Y-70874804D01*
X97648496Y-70871204D01*
X97673000Y-70870000D01*
X98923000Y-70870000D01*
X98947504Y-70871204D01*
G37*
G04 #@! TD.AperFunction*
G04 #@! TA.AperFunction,SMDPad,CuDef*
G36*
X98947504Y-73671204D02*
G01*
X98971773Y-73674804D01*
X98995571Y-73680765D01*
X99018671Y-73689030D01*
X99040849Y-73699520D01*
X99061893Y-73712133D01*
X99081598Y-73726747D01*
X99099777Y-73743223D01*
X99116253Y-73761402D01*
X99130867Y-73781107D01*
X99143480Y-73802151D01*
X99153970Y-73824329D01*
X99162235Y-73847429D01*
X99168196Y-73871227D01*
X99171796Y-73895496D01*
X99173000Y-73920000D01*
X99173000Y-74670000D01*
X99171796Y-74694504D01*
X99168196Y-74718773D01*
X99162235Y-74742571D01*
X99153970Y-74765671D01*
X99143480Y-74787849D01*
X99130867Y-74808893D01*
X99116253Y-74828598D01*
X99099777Y-74846777D01*
X99081598Y-74863253D01*
X99061893Y-74877867D01*
X99040849Y-74890480D01*
X99018671Y-74900970D01*
X98995571Y-74909235D01*
X98971773Y-74915196D01*
X98947504Y-74918796D01*
X98923000Y-74920000D01*
X97673000Y-74920000D01*
X97648496Y-74918796D01*
X97624227Y-74915196D01*
X97600429Y-74909235D01*
X97577329Y-74900970D01*
X97555151Y-74890480D01*
X97534107Y-74877867D01*
X97514402Y-74863253D01*
X97496223Y-74846777D01*
X97479747Y-74828598D01*
X97465133Y-74808893D01*
X97452520Y-74787849D01*
X97442030Y-74765671D01*
X97433765Y-74742571D01*
X97427804Y-74718773D01*
X97424204Y-74694504D01*
X97423000Y-74670000D01*
X97423000Y-73920000D01*
X97424204Y-73895496D01*
X97427804Y-73871227D01*
X97433765Y-73847429D01*
X97442030Y-73824329D01*
X97452520Y-73802151D01*
X97465133Y-73781107D01*
X97479747Y-73761402D01*
X97496223Y-73743223D01*
X97514402Y-73726747D01*
X97534107Y-73712133D01*
X97555151Y-73699520D01*
X97577329Y-73689030D01*
X97600429Y-73680765D01*
X97624227Y-73674804D01*
X97648496Y-73671204D01*
X97673000Y-73670000D01*
X98923000Y-73670000D01*
X98947504Y-73671204D01*
G37*
G04 #@! TD.AperFunction*
G04 #@! TA.AperFunction,SMDPad,CuDef*
G36*
X98947504Y-78497204D02*
G01*
X98971773Y-78500804D01*
X98995571Y-78506765D01*
X99018671Y-78515030D01*
X99040849Y-78525520D01*
X99061893Y-78538133D01*
X99081598Y-78552747D01*
X99099777Y-78569223D01*
X99116253Y-78587402D01*
X99130867Y-78607107D01*
X99143480Y-78628151D01*
X99153970Y-78650329D01*
X99162235Y-78673429D01*
X99168196Y-78697227D01*
X99171796Y-78721496D01*
X99173000Y-78746000D01*
X99173000Y-79496000D01*
X99171796Y-79520504D01*
X99168196Y-79544773D01*
X99162235Y-79568571D01*
X99153970Y-79591671D01*
X99143480Y-79613849D01*
X99130867Y-79634893D01*
X99116253Y-79654598D01*
X99099777Y-79672777D01*
X99081598Y-79689253D01*
X99061893Y-79703867D01*
X99040849Y-79716480D01*
X99018671Y-79726970D01*
X98995571Y-79735235D01*
X98971773Y-79741196D01*
X98947504Y-79744796D01*
X98923000Y-79746000D01*
X97673000Y-79746000D01*
X97648496Y-79744796D01*
X97624227Y-79741196D01*
X97600429Y-79735235D01*
X97577329Y-79726970D01*
X97555151Y-79716480D01*
X97534107Y-79703867D01*
X97514402Y-79689253D01*
X97496223Y-79672777D01*
X97479747Y-79654598D01*
X97465133Y-79634893D01*
X97452520Y-79613849D01*
X97442030Y-79591671D01*
X97433765Y-79568571D01*
X97427804Y-79544773D01*
X97424204Y-79520504D01*
X97423000Y-79496000D01*
X97423000Y-78746000D01*
X97424204Y-78721496D01*
X97427804Y-78697227D01*
X97433765Y-78673429D01*
X97442030Y-78650329D01*
X97452520Y-78628151D01*
X97465133Y-78607107D01*
X97479747Y-78587402D01*
X97496223Y-78569223D01*
X97514402Y-78552747D01*
X97534107Y-78538133D01*
X97555151Y-78525520D01*
X97577329Y-78515030D01*
X97600429Y-78506765D01*
X97624227Y-78500804D01*
X97648496Y-78497204D01*
X97673000Y-78496000D01*
X98923000Y-78496000D01*
X98947504Y-78497204D01*
G37*
G04 #@! TD.AperFunction*
G04 #@! TA.AperFunction,SMDPad,CuDef*
G36*
X98947504Y-75697204D02*
G01*
X98971773Y-75700804D01*
X98995571Y-75706765D01*
X99018671Y-75715030D01*
X99040849Y-75725520D01*
X99061893Y-75738133D01*
X99081598Y-75752747D01*
X99099777Y-75769223D01*
X99116253Y-75787402D01*
X99130867Y-75807107D01*
X99143480Y-75828151D01*
X99153970Y-75850329D01*
X99162235Y-75873429D01*
X99168196Y-75897227D01*
X99171796Y-75921496D01*
X99173000Y-75946000D01*
X99173000Y-76696000D01*
X99171796Y-76720504D01*
X99168196Y-76744773D01*
X99162235Y-76768571D01*
X99153970Y-76791671D01*
X99143480Y-76813849D01*
X99130867Y-76834893D01*
X99116253Y-76854598D01*
X99099777Y-76872777D01*
X99081598Y-76889253D01*
X99061893Y-76903867D01*
X99040849Y-76916480D01*
X99018671Y-76926970D01*
X98995571Y-76935235D01*
X98971773Y-76941196D01*
X98947504Y-76944796D01*
X98923000Y-76946000D01*
X97673000Y-76946000D01*
X97648496Y-76944796D01*
X97624227Y-76941196D01*
X97600429Y-76935235D01*
X97577329Y-76926970D01*
X97555151Y-76916480D01*
X97534107Y-76903867D01*
X97514402Y-76889253D01*
X97496223Y-76872777D01*
X97479747Y-76854598D01*
X97465133Y-76834893D01*
X97452520Y-76813849D01*
X97442030Y-76791671D01*
X97433765Y-76768571D01*
X97427804Y-76744773D01*
X97424204Y-76720504D01*
X97423000Y-76696000D01*
X97423000Y-75946000D01*
X97424204Y-75921496D01*
X97427804Y-75897227D01*
X97433765Y-75873429D01*
X97442030Y-75850329D01*
X97452520Y-75828151D01*
X97465133Y-75807107D01*
X97479747Y-75787402D01*
X97496223Y-75769223D01*
X97514402Y-75752747D01*
X97534107Y-75738133D01*
X97555151Y-75725520D01*
X97577329Y-75715030D01*
X97600429Y-75706765D01*
X97624227Y-75700804D01*
X97648496Y-75697204D01*
X97673000Y-75696000D01*
X98923000Y-75696000D01*
X98947504Y-75697204D01*
G37*
G04 #@! TD.AperFunction*
G04 #@! TA.AperFunction,SMDPad,CuDef*
G36*
X98947504Y-80523204D02*
G01*
X98971773Y-80526804D01*
X98995571Y-80532765D01*
X99018671Y-80541030D01*
X99040849Y-80551520D01*
X99061893Y-80564133D01*
X99081598Y-80578747D01*
X99099777Y-80595223D01*
X99116253Y-80613402D01*
X99130867Y-80633107D01*
X99143480Y-80654151D01*
X99153970Y-80676329D01*
X99162235Y-80699429D01*
X99168196Y-80723227D01*
X99171796Y-80747496D01*
X99173000Y-80772000D01*
X99173000Y-81522000D01*
X99171796Y-81546504D01*
X99168196Y-81570773D01*
X99162235Y-81594571D01*
X99153970Y-81617671D01*
X99143480Y-81639849D01*
X99130867Y-81660893D01*
X99116253Y-81680598D01*
X99099777Y-81698777D01*
X99081598Y-81715253D01*
X99061893Y-81729867D01*
X99040849Y-81742480D01*
X99018671Y-81752970D01*
X98995571Y-81761235D01*
X98971773Y-81767196D01*
X98947504Y-81770796D01*
X98923000Y-81772000D01*
X97673000Y-81772000D01*
X97648496Y-81770796D01*
X97624227Y-81767196D01*
X97600429Y-81761235D01*
X97577329Y-81752970D01*
X97555151Y-81742480D01*
X97534107Y-81729867D01*
X97514402Y-81715253D01*
X97496223Y-81698777D01*
X97479747Y-81680598D01*
X97465133Y-81660893D01*
X97452520Y-81639849D01*
X97442030Y-81617671D01*
X97433765Y-81594571D01*
X97427804Y-81570773D01*
X97424204Y-81546504D01*
X97423000Y-81522000D01*
X97423000Y-80772000D01*
X97424204Y-80747496D01*
X97427804Y-80723227D01*
X97433765Y-80699429D01*
X97442030Y-80676329D01*
X97452520Y-80654151D01*
X97465133Y-80633107D01*
X97479747Y-80613402D01*
X97496223Y-80595223D01*
X97514402Y-80578747D01*
X97534107Y-80564133D01*
X97555151Y-80551520D01*
X97577329Y-80541030D01*
X97600429Y-80532765D01*
X97624227Y-80526804D01*
X97648496Y-80523204D01*
X97673000Y-80522000D01*
X98923000Y-80522000D01*
X98947504Y-80523204D01*
G37*
G04 #@! TD.AperFunction*
G04 #@! TA.AperFunction,SMDPad,CuDef*
G36*
X98947504Y-83323204D02*
G01*
X98971773Y-83326804D01*
X98995571Y-83332765D01*
X99018671Y-83341030D01*
X99040849Y-83351520D01*
X99061893Y-83364133D01*
X99081598Y-83378747D01*
X99099777Y-83395223D01*
X99116253Y-83413402D01*
X99130867Y-83433107D01*
X99143480Y-83454151D01*
X99153970Y-83476329D01*
X99162235Y-83499429D01*
X99168196Y-83523227D01*
X99171796Y-83547496D01*
X99173000Y-83572000D01*
X99173000Y-84322000D01*
X99171796Y-84346504D01*
X99168196Y-84370773D01*
X99162235Y-84394571D01*
X99153970Y-84417671D01*
X99143480Y-84439849D01*
X99130867Y-84460893D01*
X99116253Y-84480598D01*
X99099777Y-84498777D01*
X99081598Y-84515253D01*
X99061893Y-84529867D01*
X99040849Y-84542480D01*
X99018671Y-84552970D01*
X98995571Y-84561235D01*
X98971773Y-84567196D01*
X98947504Y-84570796D01*
X98923000Y-84572000D01*
X97673000Y-84572000D01*
X97648496Y-84570796D01*
X97624227Y-84567196D01*
X97600429Y-84561235D01*
X97577329Y-84552970D01*
X97555151Y-84542480D01*
X97534107Y-84529867D01*
X97514402Y-84515253D01*
X97496223Y-84498777D01*
X97479747Y-84480598D01*
X97465133Y-84460893D01*
X97452520Y-84439849D01*
X97442030Y-84417671D01*
X97433765Y-84394571D01*
X97427804Y-84370773D01*
X97424204Y-84346504D01*
X97423000Y-84322000D01*
X97423000Y-83572000D01*
X97424204Y-83547496D01*
X97427804Y-83523227D01*
X97433765Y-83499429D01*
X97442030Y-83476329D01*
X97452520Y-83454151D01*
X97465133Y-83433107D01*
X97479747Y-83413402D01*
X97496223Y-83395223D01*
X97514402Y-83378747D01*
X97534107Y-83364133D01*
X97555151Y-83351520D01*
X97577329Y-83341030D01*
X97600429Y-83332765D01*
X97624227Y-83326804D01*
X97648496Y-83323204D01*
X97673000Y-83322000D01*
X98923000Y-83322000D01*
X98947504Y-83323204D01*
G37*
G04 #@! TD.AperFunction*
G04 #@! TA.AperFunction,SMDPad,CuDef*
G36*
X98947504Y-88149204D02*
G01*
X98971773Y-88152804D01*
X98995571Y-88158765D01*
X99018671Y-88167030D01*
X99040849Y-88177520D01*
X99061893Y-88190133D01*
X99081598Y-88204747D01*
X99099777Y-88221223D01*
X99116253Y-88239402D01*
X99130867Y-88259107D01*
X99143480Y-88280151D01*
X99153970Y-88302329D01*
X99162235Y-88325429D01*
X99168196Y-88349227D01*
X99171796Y-88373496D01*
X99173000Y-88398000D01*
X99173000Y-89148000D01*
X99171796Y-89172504D01*
X99168196Y-89196773D01*
X99162235Y-89220571D01*
X99153970Y-89243671D01*
X99143480Y-89265849D01*
X99130867Y-89286893D01*
X99116253Y-89306598D01*
X99099777Y-89324777D01*
X99081598Y-89341253D01*
X99061893Y-89355867D01*
X99040849Y-89368480D01*
X99018671Y-89378970D01*
X98995571Y-89387235D01*
X98971773Y-89393196D01*
X98947504Y-89396796D01*
X98923000Y-89398000D01*
X97673000Y-89398000D01*
X97648496Y-89396796D01*
X97624227Y-89393196D01*
X97600429Y-89387235D01*
X97577329Y-89378970D01*
X97555151Y-89368480D01*
X97534107Y-89355867D01*
X97514402Y-89341253D01*
X97496223Y-89324777D01*
X97479747Y-89306598D01*
X97465133Y-89286893D01*
X97452520Y-89265849D01*
X97442030Y-89243671D01*
X97433765Y-89220571D01*
X97427804Y-89196773D01*
X97424204Y-89172504D01*
X97423000Y-89148000D01*
X97423000Y-88398000D01*
X97424204Y-88373496D01*
X97427804Y-88349227D01*
X97433765Y-88325429D01*
X97442030Y-88302329D01*
X97452520Y-88280151D01*
X97465133Y-88259107D01*
X97479747Y-88239402D01*
X97496223Y-88221223D01*
X97514402Y-88204747D01*
X97534107Y-88190133D01*
X97555151Y-88177520D01*
X97577329Y-88167030D01*
X97600429Y-88158765D01*
X97624227Y-88152804D01*
X97648496Y-88149204D01*
X97673000Y-88148000D01*
X98923000Y-88148000D01*
X98947504Y-88149204D01*
G37*
G04 #@! TD.AperFunction*
G04 #@! TA.AperFunction,SMDPad,CuDef*
G36*
X98947504Y-85349204D02*
G01*
X98971773Y-85352804D01*
X98995571Y-85358765D01*
X99018671Y-85367030D01*
X99040849Y-85377520D01*
X99061893Y-85390133D01*
X99081598Y-85404747D01*
X99099777Y-85421223D01*
X99116253Y-85439402D01*
X99130867Y-85459107D01*
X99143480Y-85480151D01*
X99153970Y-85502329D01*
X99162235Y-85525429D01*
X99168196Y-85549227D01*
X99171796Y-85573496D01*
X99173000Y-85598000D01*
X99173000Y-86348000D01*
X99171796Y-86372504D01*
X99168196Y-86396773D01*
X99162235Y-86420571D01*
X99153970Y-86443671D01*
X99143480Y-86465849D01*
X99130867Y-86486893D01*
X99116253Y-86506598D01*
X99099777Y-86524777D01*
X99081598Y-86541253D01*
X99061893Y-86555867D01*
X99040849Y-86568480D01*
X99018671Y-86578970D01*
X98995571Y-86587235D01*
X98971773Y-86593196D01*
X98947504Y-86596796D01*
X98923000Y-86598000D01*
X97673000Y-86598000D01*
X97648496Y-86596796D01*
X97624227Y-86593196D01*
X97600429Y-86587235D01*
X97577329Y-86578970D01*
X97555151Y-86568480D01*
X97534107Y-86555867D01*
X97514402Y-86541253D01*
X97496223Y-86524777D01*
X97479747Y-86506598D01*
X97465133Y-86486893D01*
X97452520Y-86465849D01*
X97442030Y-86443671D01*
X97433765Y-86420571D01*
X97427804Y-86396773D01*
X97424204Y-86372504D01*
X97423000Y-86348000D01*
X97423000Y-85598000D01*
X97424204Y-85573496D01*
X97427804Y-85549227D01*
X97433765Y-85525429D01*
X97442030Y-85502329D01*
X97452520Y-85480151D01*
X97465133Y-85459107D01*
X97479747Y-85439402D01*
X97496223Y-85421223D01*
X97514402Y-85404747D01*
X97534107Y-85390133D01*
X97555151Y-85377520D01*
X97577329Y-85367030D01*
X97600429Y-85358765D01*
X97624227Y-85352804D01*
X97648496Y-85349204D01*
X97673000Y-85348000D01*
X98923000Y-85348000D01*
X98947504Y-85349204D01*
G37*
G04 #@! TD.AperFunction*
D21*
X107188000Y-85725000D03*
X101727000Y-86360000D03*
X99949000Y-84201000D03*
X123317000Y-77089000D03*
X120396000Y-86995000D03*
X128397000Y-86995000D03*
X120396000Y-85725000D03*
X129159000Y-80645000D03*
X139192000Y-74930000D03*
X136271000Y-74930000D03*
X131699000Y-80645000D03*
D22*
X98298000Y-83947000D02*
X98298000Y-85973000D01*
X107188000Y-85725000D02*
X108594000Y-85725000D01*
X100711000Y-86390000D02*
X101697000Y-86390000D01*
X101697000Y-86390000D02*
X101727000Y-86360000D01*
X98298000Y-85973000D02*
X99435000Y-85973000D01*
X99852000Y-86390000D02*
X100711000Y-86390000D01*
X99435000Y-85973000D02*
X99852000Y-86390000D01*
X96029213Y-88773000D02*
X97917000Y-88773000D01*
X94615000Y-88773000D02*
X96029213Y-88773000D01*
X100330000Y-88265000D02*
X103505000Y-88265000D01*
X103505000Y-88265000D02*
X105537000Y-88265000D01*
X105537000Y-88265000D02*
X108594000Y-88265000D01*
X108594000Y-88265000D02*
X108594000Y-86995000D01*
X105283000Y-77089000D02*
X105283000Y-78613000D01*
X103886000Y-80010000D02*
X103886000Y-82042000D01*
X105283000Y-78613000D02*
X103886000Y-80010000D01*
X103886000Y-82042000D02*
X103886000Y-84201000D01*
X103886000Y-84201000D02*
X103398500Y-84201000D01*
X103398500Y-84201000D02*
X102362000Y-84201000D01*
X102362000Y-84201000D02*
X99949000Y-84201000D01*
X98298000Y-88773000D02*
X99441000Y-88773000D01*
X99949000Y-88265000D02*
X100711000Y-88265000D01*
X99441000Y-88773000D02*
X99949000Y-88265000D01*
X103505000Y-86390000D02*
X105537000Y-86390000D01*
X105537000Y-84425000D02*
X105761000Y-84201000D01*
X105537000Y-86390000D02*
X105537000Y-84425000D01*
X106015000Y-84455000D02*
X105761000Y-84201000D01*
X108594000Y-84455000D02*
X106015000Y-84455000D01*
X105761000Y-84201000D02*
X105761000Y-82042000D01*
X107823000Y-77089000D02*
X107823000Y-78867000D01*
X105761000Y-80929000D02*
X105761000Y-82042000D01*
X107823000Y-78867000D02*
X105761000Y-80929000D01*
X117983000Y-81691000D02*
X117759000Y-81915000D01*
D23*
X117983000Y-77089000D02*
X117983000Y-81691000D01*
X117983000Y-77089000D02*
X117983000Y-75780853D01*
X117983000Y-75780853D02*
X117983000Y-74295000D01*
D22*
X119244000Y-88265000D02*
X122047000Y-88265000D01*
X122047000Y-88265000D02*
X124079000Y-88265000D01*
X126459000Y-88265000D02*
X124079000Y-88265000D01*
X120523000Y-78994000D02*
X120523000Y-77089000D01*
X119634000Y-81915000D02*
X119634000Y-79883000D01*
X119634000Y-79883000D02*
X120523000Y-78994000D01*
X123825000Y-77089000D02*
X124079000Y-77343000D01*
X123317000Y-77089000D02*
X123825000Y-77089000D01*
X119244000Y-86995000D02*
X120396000Y-86995000D01*
X127635000Y-83185000D02*
X126459000Y-83185000D01*
X128016000Y-83185000D02*
X127635000Y-83185000D01*
X128397000Y-86995000D02*
X128397000Y-83566000D01*
X128397000Y-83566000D02*
X128016000Y-83185000D01*
X119244000Y-85725000D02*
X120396000Y-85725000D01*
X129159000Y-73660000D02*
X129199000Y-73620000D01*
X129159000Y-80645000D02*
X129159000Y-73660000D01*
X139192000Y-71501000D02*
X139192000Y-74930000D01*
X136271000Y-84361000D02*
X134907000Y-85725000D01*
X136271000Y-74930000D02*
X136271000Y-84361000D01*
X131699000Y-80079315D02*
X131699000Y-71120000D01*
X131699000Y-80645000D02*
X131699000Y-80079315D01*
X98292000Y-71501000D02*
X98298000Y-71495000D01*
X94615000Y-71501000D02*
X97911000Y-71501000D01*
X141732000Y-72703081D02*
X141097000Y-73338081D01*
X141732000Y-71501000D02*
X141732000Y-72703081D01*
X140452000Y-80470000D02*
X139192000Y-80470000D01*
X141097000Y-79825000D02*
X140452000Y-80470000D01*
X141097000Y-73338081D02*
X141097000Y-79825000D01*
X139192000Y-86470000D02*
X144797000Y-86470000D01*
X144797000Y-86470000D02*
X145669000Y-85598000D01*
X145669000Y-85598000D02*
X145669000Y-74676000D01*
X144272000Y-73279000D02*
X144272000Y-71501000D01*
X145669000Y-74676000D02*
X144272000Y-73279000D01*
X98298000Y-74295000D02*
X98298000Y-76321000D01*
X98298000Y-79121000D02*
X98298000Y-81147000D01*
D24*
G36*
X125099429Y-70265012D02*
G01*
X124963365Y-70593501D01*
X124894000Y-70942223D01*
X124894000Y-71297777D01*
X124963365Y-71646499D01*
X125099429Y-71974988D01*
X125296965Y-72270621D01*
X125548379Y-72522035D01*
X125844012Y-72719571D01*
X126172501Y-72855635D01*
X126521223Y-72925000D01*
X126876777Y-72925000D01*
X127225499Y-72855635D01*
X127553988Y-72719571D01*
X127690933Y-72628067D01*
X127599429Y-72765012D01*
X127463365Y-73093501D01*
X127394000Y-73442223D01*
X127394000Y-73797777D01*
X127463365Y-74146499D01*
X127599429Y-74474988D01*
X127796965Y-74770621D01*
X128048379Y-75022035D01*
X128344012Y-75219571D01*
X128399001Y-75242348D01*
X128399000Y-79941289D01*
X128355063Y-79985226D01*
X128241795Y-80154744D01*
X128170072Y-80327897D01*
X128170072Y-80080000D01*
X128157812Y-79955518D01*
X128121502Y-79835820D01*
X128062537Y-79725506D01*
X127983185Y-79628815D01*
X127886494Y-79549463D01*
X127776180Y-79490498D01*
X127656482Y-79454188D01*
X127532000Y-79441928D01*
X126402000Y-79441928D01*
X126277518Y-79454188D01*
X126157820Y-79490498D01*
X126047506Y-79549463D01*
X125950815Y-79628815D01*
X125871463Y-79725506D01*
X125812498Y-79835820D01*
X125776188Y-79955518D01*
X125763928Y-80080000D01*
X125763928Y-81210000D01*
X125776188Y-81334482D01*
X125812498Y-81454180D01*
X125871463Y-81564494D01*
X125950815Y-81661185D01*
X126047506Y-81740537D01*
X126157820Y-81799502D01*
X126277518Y-81835812D01*
X126402000Y-81848072D01*
X127532000Y-81848072D01*
X127656482Y-81835812D01*
X127776180Y-81799502D01*
X127886494Y-81740537D01*
X127983185Y-81661185D01*
X128062537Y-81564494D01*
X128121502Y-81454180D01*
X128157812Y-81334482D01*
X128170072Y-81210000D01*
X128170072Y-80962103D01*
X128241795Y-81135256D01*
X128355063Y-81304774D01*
X128499226Y-81448937D01*
X128668744Y-81562205D01*
X128857102Y-81640226D01*
X129057061Y-81680000D01*
X129260939Y-81680000D01*
X129460898Y-81640226D01*
X129649256Y-81562205D01*
X129818774Y-81448937D01*
X129962937Y-81304774D01*
X130076205Y-81135256D01*
X130154226Y-80946898D01*
X130194000Y-80746939D01*
X130194000Y-80543061D01*
X130154226Y-80343102D01*
X130076205Y-80154744D01*
X129962937Y-79985226D01*
X129919000Y-79941289D01*
X129919000Y-75275485D01*
X130053988Y-75219571D01*
X130349621Y-75022035D01*
X130601035Y-74770621D01*
X130798571Y-74474988D01*
X130934635Y-74146499D01*
X130939001Y-74124551D01*
X130939000Y-79941289D01*
X130895063Y-79985226D01*
X130781795Y-80154744D01*
X130703774Y-80343102D01*
X130664000Y-80543061D01*
X130664000Y-80746939D01*
X130703774Y-80946898D01*
X130781795Y-81135256D01*
X130895063Y-81304774D01*
X131039226Y-81448937D01*
X131208744Y-81562205D01*
X131397102Y-81640226D01*
X131597061Y-81680000D01*
X131800939Y-81680000D01*
X132000898Y-81640226D01*
X132189256Y-81562205D01*
X132358774Y-81448937D01*
X132502937Y-81304774D01*
X132616205Y-81135256D01*
X132694226Y-80946898D01*
X132734000Y-80746939D01*
X132734000Y-80543061D01*
X132730768Y-80526810D01*
X133707000Y-80526810D01*
X133707000Y-80763190D01*
X133753116Y-80995027D01*
X133843574Y-81213413D01*
X133974899Y-81409955D01*
X134142045Y-81577101D01*
X134338587Y-81708426D01*
X134556973Y-81798884D01*
X134788810Y-81845000D01*
X135025190Y-81845000D01*
X135257027Y-81798884D01*
X135475413Y-81708426D01*
X135511001Y-81684647D01*
X135511001Y-82150145D01*
X135509067Y-82140260D01*
X135293680Y-82042877D01*
X135063433Y-81989385D01*
X134827174Y-81981840D01*
X134593983Y-82020532D01*
X134372821Y-82103973D01*
X134304933Y-82140260D01*
X134261889Y-82360284D01*
X134907000Y-83005395D01*
X134921143Y-82991253D01*
X135100748Y-83170858D01*
X135086605Y-83185000D01*
X135100748Y-83199143D01*
X134921143Y-83378748D01*
X134907000Y-83364605D01*
X134261889Y-84009716D01*
X134304933Y-84229740D01*
X134520320Y-84327123D01*
X134750567Y-84380615D01*
X134986826Y-84388160D01*
X135205286Y-84351912D01*
X135031036Y-84526163D01*
X135025190Y-84525000D01*
X134788810Y-84525000D01*
X134556973Y-84571116D01*
X134338587Y-84661574D01*
X134142045Y-84792899D01*
X133974899Y-84960045D01*
X133843574Y-85156587D01*
X133753116Y-85374973D01*
X133707000Y-85606810D01*
X133707000Y-85843190D01*
X133753116Y-86075027D01*
X133843574Y-86293413D01*
X133974899Y-86489955D01*
X134142045Y-86657101D01*
X134338587Y-86788426D01*
X134556973Y-86878884D01*
X134788810Y-86925000D01*
X135025190Y-86925000D01*
X135257027Y-86878884D01*
X135475413Y-86788426D01*
X135671955Y-86657101D01*
X135839101Y-86489955D01*
X135970426Y-86293413D01*
X136060884Y-86075027D01*
X136107000Y-85843190D01*
X136107000Y-85606810D01*
X136105837Y-85600964D01*
X136782003Y-84924799D01*
X136811001Y-84901001D01*
X136905974Y-84785276D01*
X136976546Y-84653247D01*
X137020003Y-84509986D01*
X137031000Y-84398333D01*
X137031000Y-84398324D01*
X137034676Y-84361001D01*
X137031000Y-84323678D01*
X137031000Y-83470000D01*
X137540299Y-83470000D01*
X137567040Y-83741507D01*
X137646236Y-84002581D01*
X137774843Y-84243188D01*
X137947919Y-84454081D01*
X138158812Y-84627157D01*
X138399419Y-84755764D01*
X138660493Y-84834960D01*
X138863963Y-84855000D01*
X139520037Y-84855000D01*
X139723507Y-84834960D01*
X139984581Y-84755764D01*
X140225188Y-84627157D01*
X140436081Y-84454081D01*
X140609157Y-84243188D01*
X140737764Y-84002581D01*
X140816960Y-83741507D01*
X140843701Y-83470000D01*
X140816960Y-83198493D01*
X140737764Y-82937419D01*
X140609157Y-82696812D01*
X140436081Y-82485919D01*
X140225188Y-82312843D01*
X139984581Y-82184236D01*
X139723507Y-82105040D01*
X139520037Y-82085000D01*
X138863963Y-82085000D01*
X138660493Y-82105040D01*
X138399419Y-82184236D01*
X138158812Y-82312843D01*
X137947919Y-82485919D01*
X137774843Y-82696812D01*
X137646236Y-82937419D01*
X137567040Y-83198493D01*
X137540299Y-83470000D01*
X137031000Y-83470000D01*
X137031000Y-78220000D01*
X137543928Y-78220000D01*
X137556188Y-78344482D01*
X137592498Y-78464180D01*
X137651463Y-78574494D01*
X137730815Y-78671185D01*
X137827506Y-78750537D01*
X137937820Y-78809502D01*
X138057518Y-78845812D01*
X138182000Y-78858072D01*
X138906250Y-78855000D01*
X139065000Y-78696250D01*
X139065000Y-77597000D01*
X137705750Y-77597000D01*
X137547000Y-77755750D01*
X137543928Y-78220000D01*
X137031000Y-78220000D01*
X137031000Y-76720000D01*
X137543928Y-76720000D01*
X137547000Y-77184250D01*
X137705750Y-77343000D01*
X139065000Y-77343000D01*
X139065000Y-76243750D01*
X138906250Y-76085000D01*
X138182000Y-76081928D01*
X138057518Y-76094188D01*
X137937820Y-76130498D01*
X137827506Y-76189463D01*
X137730815Y-76268815D01*
X137651463Y-76365506D01*
X137592498Y-76475820D01*
X137556188Y-76595518D01*
X137543928Y-76720000D01*
X137031000Y-76720000D01*
X137031000Y-75633711D01*
X137074937Y-75589774D01*
X137188205Y-75420256D01*
X137266226Y-75231898D01*
X137306000Y-75031939D01*
X137306000Y-74828061D01*
X137266226Y-74628102D01*
X137188205Y-74439744D01*
X137074937Y-74270226D01*
X136930774Y-74126063D01*
X136761256Y-74012795D01*
X136572898Y-73934774D01*
X136372939Y-73895000D01*
X136169061Y-73895000D01*
X135969102Y-73934774D01*
X135780744Y-74012795D01*
X135611226Y-74126063D01*
X135467063Y-74270226D01*
X135353795Y-74439744D01*
X135275774Y-74628102D01*
X135236000Y-74828061D01*
X135236000Y-75031939D01*
X135275774Y-75231898D01*
X135353795Y-75420256D01*
X135467063Y-75589774D01*
X135511000Y-75633711D01*
X135511000Y-79605353D01*
X135475413Y-79581574D01*
X135257027Y-79491116D01*
X135025190Y-79445000D01*
X134788810Y-79445000D01*
X134556973Y-79491116D01*
X134338587Y-79581574D01*
X134142045Y-79712899D01*
X133974899Y-79880045D01*
X133843574Y-80076587D01*
X133753116Y-80294973D01*
X133707000Y-80526810D01*
X132730768Y-80526810D01*
X132694226Y-80343102D01*
X132616205Y-80154744D01*
X132502937Y-79985226D01*
X132459000Y-79941289D01*
X132459000Y-72758916D01*
X132553988Y-72719571D01*
X132849621Y-72522035D01*
X133020656Y-72351000D01*
X135163928Y-72351000D01*
X135176188Y-72475482D01*
X135212498Y-72595180D01*
X135271463Y-72705494D01*
X135350815Y-72802185D01*
X135447506Y-72881537D01*
X135557820Y-72940502D01*
X135677518Y-72976812D01*
X135802000Y-72989072D01*
X136366250Y-72986000D01*
X136525000Y-72827250D01*
X136525000Y-71628000D01*
X135325750Y-71628000D01*
X135167000Y-71786750D01*
X135163928Y-72351000D01*
X133020656Y-72351000D01*
X133101035Y-72270621D01*
X133298571Y-71974988D01*
X133434635Y-71646499D01*
X133504000Y-71297777D01*
X133504000Y-70942223D01*
X133434635Y-70593501D01*
X133298571Y-70265012D01*
X133292549Y-70256000D01*
X135304705Y-70256000D01*
X135271463Y-70296506D01*
X135212498Y-70406820D01*
X135176188Y-70526518D01*
X135163928Y-70651000D01*
X135167000Y-71215250D01*
X135325750Y-71374000D01*
X136525000Y-71374000D01*
X136525000Y-71354000D01*
X136779000Y-71354000D01*
X136779000Y-71374000D01*
X136799000Y-71374000D01*
X136799000Y-71628000D01*
X136779000Y-71628000D01*
X136779000Y-72827250D01*
X136937750Y-72986000D01*
X137502000Y-72989072D01*
X137626482Y-72976812D01*
X137746180Y-72940502D01*
X137856494Y-72881537D01*
X137953185Y-72802185D01*
X138032537Y-72705494D01*
X138091502Y-72595180D01*
X138113513Y-72522620D01*
X138245368Y-72654475D01*
X138432000Y-72779179D01*
X138432001Y-74226288D01*
X138388063Y-74270226D01*
X138274795Y-74439744D01*
X138196774Y-74628102D01*
X138157000Y-74828061D01*
X138157000Y-75031939D01*
X138196774Y-75231898D01*
X138274795Y-75420256D01*
X138388063Y-75589774D01*
X138532226Y-75733937D01*
X138701744Y-75847205D01*
X138890102Y-75925226D01*
X139090061Y-75965000D01*
X139293939Y-75965000D01*
X139493898Y-75925226D01*
X139682256Y-75847205D01*
X139851774Y-75733937D01*
X139995937Y-75589774D01*
X140109205Y-75420256D01*
X140187226Y-75231898D01*
X140227000Y-75031939D01*
X140227000Y-74828061D01*
X140187226Y-74628102D01*
X140109205Y-74439744D01*
X139995937Y-74270226D01*
X139952000Y-74226289D01*
X139952000Y-72779178D01*
X140138632Y-72654475D01*
X140345475Y-72447632D01*
X140462000Y-72273240D01*
X140578525Y-72447632D01*
X140745586Y-72614693D01*
X140586002Y-72774278D01*
X140556999Y-72798080D01*
X140510513Y-72854724D01*
X140462026Y-72913805D01*
X140423437Y-72986000D01*
X140391454Y-73045835D01*
X140347997Y-73189096D01*
X140337000Y-73300749D01*
X140337000Y-73300759D01*
X140333324Y-73338081D01*
X140337000Y-73375404D01*
X140337000Y-76097379D01*
X140326482Y-76094188D01*
X140202000Y-76081928D01*
X139477750Y-76085000D01*
X139319000Y-76243750D01*
X139319000Y-77343000D01*
X139339000Y-77343000D01*
X139339000Y-77597000D01*
X139319000Y-77597000D01*
X139319000Y-78696250D01*
X139477750Y-78855000D01*
X140202000Y-78858072D01*
X140326482Y-78845812D01*
X140337001Y-78842621D01*
X140337001Y-79404606D01*
X140225188Y-79312843D01*
X139984581Y-79184236D01*
X139723507Y-79105040D01*
X139520037Y-79085000D01*
X138863963Y-79085000D01*
X138660493Y-79105040D01*
X138399419Y-79184236D01*
X138158812Y-79312843D01*
X137947919Y-79485919D01*
X137774843Y-79696812D01*
X137646236Y-79937419D01*
X137567040Y-80198493D01*
X137540299Y-80470000D01*
X137567040Y-80741507D01*
X137646236Y-81002581D01*
X137774843Y-81243188D01*
X137947919Y-81454081D01*
X138158812Y-81627157D01*
X138399419Y-81755764D01*
X138660493Y-81834960D01*
X138863963Y-81855000D01*
X139520037Y-81855000D01*
X139723507Y-81834960D01*
X139984581Y-81755764D01*
X140225188Y-81627157D01*
X140436081Y-81454081D01*
X140609157Y-81243188D01*
X140626167Y-81211365D01*
X140744247Y-81175546D01*
X140876276Y-81104974D01*
X140992001Y-81010001D01*
X141015803Y-80980998D01*
X141545450Y-80451352D01*
X141619988Y-80631302D01*
X141853637Y-80980983D01*
X142151017Y-81278363D01*
X142500698Y-81512012D01*
X142889244Y-81672953D01*
X143301721Y-81755000D01*
X143722279Y-81755000D01*
X144134756Y-81672953D01*
X144523302Y-81512012D01*
X144872983Y-81278363D01*
X144909000Y-81242346D01*
X144909000Y-82697654D01*
X144872983Y-82661637D01*
X144523302Y-82427988D01*
X144134756Y-82267047D01*
X143722279Y-82185000D01*
X143301721Y-82185000D01*
X142889244Y-82267047D01*
X142500698Y-82427988D01*
X142151017Y-82661637D01*
X141853637Y-82959017D01*
X141619988Y-83308698D01*
X141459047Y-83697244D01*
X141377000Y-84109721D01*
X141377000Y-84530279D01*
X141459047Y-84942756D01*
X141619988Y-85331302D01*
X141853637Y-85680983D01*
X141882654Y-85710000D01*
X140616206Y-85710000D01*
X140609157Y-85696812D01*
X140436081Y-85485919D01*
X140225188Y-85312843D01*
X139984581Y-85184236D01*
X139723507Y-85105040D01*
X139520037Y-85085000D01*
X138863963Y-85085000D01*
X138660493Y-85105040D01*
X138399419Y-85184236D01*
X138158812Y-85312843D01*
X137947919Y-85485919D01*
X137774843Y-85696812D01*
X137646236Y-85937419D01*
X137567040Y-86198493D01*
X137540299Y-86470000D01*
X137567040Y-86741507D01*
X137646236Y-87002581D01*
X137774843Y-87243188D01*
X137947919Y-87454081D01*
X138158812Y-87627157D01*
X138399419Y-87755764D01*
X138660493Y-87834960D01*
X138863963Y-87855000D01*
X139520037Y-87855000D01*
X139723507Y-87834960D01*
X139984581Y-87755764D01*
X140225188Y-87627157D01*
X140436081Y-87454081D01*
X140609157Y-87243188D01*
X140616206Y-87230000D01*
X144759678Y-87230000D01*
X144797000Y-87233676D01*
X144834322Y-87230000D01*
X144834333Y-87230000D01*
X144945986Y-87219003D01*
X145089247Y-87175546D01*
X145221276Y-87104974D01*
X145337001Y-87010001D01*
X145360803Y-86980998D01*
X146180004Y-86161798D01*
X146209001Y-86138001D01*
X146303974Y-86022276D01*
X146374546Y-85890247D01*
X146418003Y-85746986D01*
X146429000Y-85635333D01*
X146429000Y-85635324D01*
X146432676Y-85598001D01*
X146429000Y-85560678D01*
X146429000Y-74713322D01*
X146432676Y-74675999D01*
X146429000Y-74638676D01*
X146429000Y-74638667D01*
X146418003Y-74527014D01*
X146374546Y-74383753D01*
X146303974Y-74251724D01*
X146209001Y-74135999D01*
X146180003Y-74112201D01*
X145032000Y-72964199D01*
X145032000Y-72779178D01*
X145218632Y-72654475D01*
X145425475Y-72447632D01*
X145542000Y-72273240D01*
X145658525Y-72447632D01*
X145865368Y-72654475D01*
X146108589Y-72816990D01*
X146378842Y-72928932D01*
X146665740Y-72986000D01*
X146958260Y-72986000D01*
X147245158Y-72928932D01*
X147515411Y-72816990D01*
X147758632Y-72654475D01*
X147965475Y-72447632D01*
X148057000Y-72310655D01*
X148057001Y-89764000D01*
X124612130Y-89764000D01*
X124707285Y-89754628D01*
X124872709Y-89704447D01*
X125025164Y-89622958D01*
X125158792Y-89513292D01*
X125268458Y-89379664D01*
X125349947Y-89227209D01*
X125400128Y-89061785D01*
X125403751Y-89025000D01*
X126031588Y-89025000D01*
X126034899Y-89029955D01*
X126202045Y-89197101D01*
X126398587Y-89328426D01*
X126616973Y-89418884D01*
X126848810Y-89465000D01*
X127085190Y-89465000D01*
X127317027Y-89418884D01*
X127535413Y-89328426D01*
X127731955Y-89197101D01*
X127899101Y-89029955D01*
X128030426Y-88833413D01*
X128120884Y-88615027D01*
X128167000Y-88383190D01*
X128167000Y-88146810D01*
X133707000Y-88146810D01*
X133707000Y-88383190D01*
X133753116Y-88615027D01*
X133843574Y-88833413D01*
X133974899Y-89029955D01*
X134142045Y-89197101D01*
X134338587Y-89328426D01*
X134556973Y-89418884D01*
X134788810Y-89465000D01*
X135025190Y-89465000D01*
X135257027Y-89418884D01*
X135475413Y-89328426D01*
X135671955Y-89197101D01*
X135839101Y-89029955D01*
X135970426Y-88833413D01*
X136060884Y-88615027D01*
X136107000Y-88383190D01*
X136107000Y-88146810D01*
X136060884Y-87914973D01*
X135970426Y-87696587D01*
X135839101Y-87500045D01*
X135671955Y-87332899D01*
X135475413Y-87201574D01*
X135257027Y-87111116D01*
X135025190Y-87065000D01*
X134788810Y-87065000D01*
X134556973Y-87111116D01*
X134338587Y-87201574D01*
X134142045Y-87332899D01*
X133974899Y-87500045D01*
X133843574Y-87696587D01*
X133753116Y-87914973D01*
X133707000Y-88146810D01*
X128167000Y-88146810D01*
X128137532Y-87998666D01*
X128295061Y-88030000D01*
X128498939Y-88030000D01*
X128698898Y-87990226D01*
X128887256Y-87912205D01*
X129056774Y-87798937D01*
X129200937Y-87654774D01*
X129314205Y-87485256D01*
X129392226Y-87296898D01*
X129432000Y-87096939D01*
X129432000Y-86893061D01*
X129392226Y-86693102D01*
X129314205Y-86504744D01*
X129200937Y-86335226D01*
X129157000Y-86291289D01*
X129157000Y-83603322D01*
X129160676Y-83565999D01*
X129157000Y-83528676D01*
X129157000Y-83528667D01*
X129146003Y-83417014D01*
X129102546Y-83273753D01*
X129097775Y-83264826D01*
X133703840Y-83264826D01*
X133742532Y-83498017D01*
X133825973Y-83719179D01*
X133862260Y-83787067D01*
X134082284Y-83830111D01*
X134727395Y-83185000D01*
X134082284Y-82539889D01*
X133862260Y-82582933D01*
X133764877Y-82798320D01*
X133711385Y-83028567D01*
X133703840Y-83264826D01*
X129097775Y-83264826D01*
X129031974Y-83141724D01*
X128937001Y-83025999D01*
X128907997Y-83002196D01*
X128579804Y-82674003D01*
X128556001Y-82644999D01*
X128440276Y-82550026D01*
X128308247Y-82479454D01*
X128164986Y-82435997D01*
X128053333Y-82425000D01*
X128053322Y-82425000D01*
X128016000Y-82421324D01*
X127978678Y-82425000D01*
X127902412Y-82425000D01*
X127899101Y-82420045D01*
X127731955Y-82252899D01*
X127535413Y-82121574D01*
X127317027Y-82031116D01*
X127085190Y-81985000D01*
X126848810Y-81985000D01*
X126616973Y-82031116D01*
X126398587Y-82121574D01*
X126202045Y-82252899D01*
X126034899Y-82420045D01*
X125903574Y-82616587D01*
X125864094Y-82711901D01*
X125824026Y-82760724D01*
X125753454Y-82892753D01*
X125709997Y-83036014D01*
X125695323Y-83185000D01*
X125709997Y-83333986D01*
X125753454Y-83477247D01*
X125824026Y-83609276D01*
X125864094Y-83658099D01*
X125903574Y-83753413D01*
X126034899Y-83949955D01*
X126202045Y-84117101D01*
X126398587Y-84248426D01*
X126616973Y-84338884D01*
X126848810Y-84385000D01*
X127085190Y-84385000D01*
X127317027Y-84338884D01*
X127535413Y-84248426D01*
X127637001Y-84180547D01*
X127637001Y-84729453D01*
X127535413Y-84661574D01*
X127317027Y-84571116D01*
X127085190Y-84525000D01*
X126848810Y-84525000D01*
X126616973Y-84571116D01*
X126398587Y-84661574D01*
X126202045Y-84792899D01*
X126034899Y-84960045D01*
X125903574Y-85156587D01*
X125813116Y-85374973D01*
X125767000Y-85606810D01*
X125767000Y-85843190D01*
X125813116Y-86075027D01*
X125903574Y-86293413D01*
X126034899Y-86489955D01*
X126202045Y-86657101D01*
X126398587Y-86788426D01*
X126616973Y-86878884D01*
X126848810Y-86925000D01*
X127085190Y-86925000D01*
X127317027Y-86878884D01*
X127369111Y-86857310D01*
X127362000Y-86893061D01*
X127362000Y-87096939D01*
X127369111Y-87132690D01*
X127317027Y-87111116D01*
X127085190Y-87065000D01*
X126848810Y-87065000D01*
X126616973Y-87111116D01*
X126398587Y-87201574D01*
X126202045Y-87332899D01*
X126034899Y-87500045D01*
X126031588Y-87505000D01*
X125367262Y-87505000D01*
X125368502Y-87502680D01*
X125404812Y-87382982D01*
X125417072Y-87258500D01*
X125414000Y-87056750D01*
X125255250Y-86898000D01*
X124206000Y-86898000D01*
X124206000Y-86918000D01*
X123952000Y-86918000D01*
X123952000Y-86898000D01*
X122174000Y-86898000D01*
X122174000Y-86918000D01*
X121920000Y-86918000D01*
X121920000Y-86898000D01*
X121900000Y-86898000D01*
X121900000Y-86644000D01*
X121920000Y-86644000D01*
X121920000Y-85807250D01*
X121761250Y-85648500D01*
X121431000Y-85646051D01*
X121431000Y-85623061D01*
X121391226Y-85423102D01*
X121313205Y-85234744D01*
X121199937Y-85065226D01*
X121055774Y-84921063D01*
X120886256Y-84807795D01*
X120806667Y-84774828D01*
X120804000Y-84740750D01*
X120645250Y-84582000D01*
X119371000Y-84582000D01*
X119371000Y-84602000D01*
X119117000Y-84602000D01*
X119117000Y-84582000D01*
X117842750Y-84582000D01*
X117684000Y-84740750D01*
X117680928Y-84780000D01*
X117693188Y-84904482D01*
X117729498Y-85024180D01*
X117764680Y-85090000D01*
X117729498Y-85155820D01*
X117693188Y-85275518D01*
X117680928Y-85400000D01*
X117680928Y-86050000D01*
X117693188Y-86174482D01*
X117729498Y-86294180D01*
X117764680Y-86360000D01*
X117729498Y-86425820D01*
X117693188Y-86545518D01*
X117680928Y-86670000D01*
X117680928Y-87320000D01*
X117693188Y-87444482D01*
X117729498Y-87564180D01*
X117764680Y-87630000D01*
X117729498Y-87695820D01*
X117693188Y-87815518D01*
X117680928Y-87940000D01*
X117680928Y-88590000D01*
X117693188Y-88714482D01*
X117729498Y-88834180D01*
X117788463Y-88944494D01*
X117867815Y-89041185D01*
X117964506Y-89120537D01*
X118074820Y-89179502D01*
X118194518Y-89215812D01*
X118319000Y-89228072D01*
X120169000Y-89228072D01*
X120293482Y-89215812D01*
X120413180Y-89179502D01*
X120523494Y-89120537D01*
X120620185Y-89041185D01*
X120633468Y-89025000D01*
X120722249Y-89025000D01*
X120725872Y-89061785D01*
X120776053Y-89227209D01*
X120857542Y-89379664D01*
X120967208Y-89513292D01*
X121100836Y-89622958D01*
X121253291Y-89704447D01*
X121418715Y-89754628D01*
X121513870Y-89764000D01*
X116967000Y-89764000D01*
X116967000Y-84130000D01*
X117680928Y-84130000D01*
X117684000Y-84169250D01*
X117842750Y-84328000D01*
X119117000Y-84328000D01*
X119117000Y-83653750D01*
X119371000Y-83653750D01*
X119371000Y-84328000D01*
X120645250Y-84328000D01*
X120804000Y-84169250D01*
X120807072Y-84130000D01*
X120794812Y-84005518D01*
X120758502Y-83885820D01*
X120699537Y-83775506D01*
X120620185Y-83678815D01*
X120523494Y-83599463D01*
X120413180Y-83540498D01*
X120293482Y-83504188D01*
X120169000Y-83491928D01*
X119529750Y-83495000D01*
X119371000Y-83653750D01*
X119117000Y-83653750D01*
X118958250Y-83495000D01*
X118319000Y-83491928D01*
X118194518Y-83504188D01*
X118074820Y-83540498D01*
X117964506Y-83599463D01*
X117867815Y-83678815D01*
X117788463Y-83775506D01*
X117729498Y-83885820D01*
X117693188Y-84005518D01*
X117680928Y-84130000D01*
X116967000Y-84130000D01*
X116967000Y-83172260D01*
X117027320Y-83204502D01*
X117147018Y-83240812D01*
X117271500Y-83253072D01*
X117473250Y-83250000D01*
X117632000Y-83091250D01*
X117632000Y-82042000D01*
X117612000Y-82042000D01*
X117612000Y-81788000D01*
X117632000Y-81788000D01*
X117632000Y-80738750D01*
X117473250Y-80580000D01*
X117271500Y-80576928D01*
X117147018Y-80589188D01*
X117027320Y-80625498D01*
X116967000Y-80657740D01*
X116967000Y-77522608D01*
X117080689Y-77408919D01*
X117167393Y-77665653D01*
X117444223Y-77799048D01*
X117741757Y-77875873D01*
X118048562Y-77893176D01*
X118352848Y-77850292D01*
X118642921Y-77748868D01*
X118798607Y-77665653D01*
X118885311Y-77408919D01*
X119001186Y-77524794D01*
X119015918Y-77510062D01*
X119067463Y-77606494D01*
X119146815Y-77703185D01*
X119243506Y-77782537D01*
X119353820Y-77841502D01*
X119473518Y-77877812D01*
X119598000Y-77890072D01*
X119763001Y-77890072D01*
X119763000Y-78679198D01*
X119122998Y-79319201D01*
X119094000Y-79342999D01*
X119070202Y-79371997D01*
X119070201Y-79371998D01*
X118999026Y-79458724D01*
X118928454Y-79590754D01*
X118916909Y-79628815D01*
X118884998Y-79734014D01*
X118874001Y-79845667D01*
X118870324Y-79883000D01*
X118874001Y-79920332D01*
X118874001Y-80747155D01*
X118766708Y-80835208D01*
X118761492Y-80841564D01*
X118697685Y-80763815D01*
X118600994Y-80684463D01*
X118490680Y-80625498D01*
X118370982Y-80589188D01*
X118246500Y-80576928D01*
X118044750Y-80580000D01*
X117886000Y-80738750D01*
X117886000Y-81788000D01*
X117906000Y-81788000D01*
X117906000Y-82042000D01*
X117886000Y-82042000D01*
X117886000Y-83091250D01*
X118044750Y-83250000D01*
X118246500Y-83253072D01*
X118370982Y-83240812D01*
X118490680Y-83204502D01*
X118600994Y-83145537D01*
X118697685Y-83066185D01*
X118761492Y-82988436D01*
X118766708Y-82994792D01*
X118900336Y-83104458D01*
X119052791Y-83185947D01*
X119218215Y-83236128D01*
X119390250Y-83253072D01*
X119877750Y-83253072D01*
X120049785Y-83236128D01*
X120215209Y-83185947D01*
X120308484Y-83136090D01*
X120759147Y-83136090D01*
X120759147Y-83589910D01*
X120847683Y-84035009D01*
X121021352Y-84454283D01*
X121273481Y-84831620D01*
X121594380Y-85152519D01*
X121971717Y-85404648D01*
X122390991Y-85578317D01*
X122729049Y-85645561D01*
X122332750Y-85648500D01*
X122174000Y-85807250D01*
X122174000Y-86644000D01*
X123952000Y-86644000D01*
X123952000Y-85807250D01*
X124206000Y-85807250D01*
X124206000Y-86644000D01*
X125255250Y-86644000D01*
X125414000Y-86485250D01*
X125417072Y-86283500D01*
X125404812Y-86159018D01*
X125368502Y-86039320D01*
X125309537Y-85929006D01*
X125230185Y-85832315D01*
X125133494Y-85752963D01*
X125023180Y-85693998D01*
X124903482Y-85657688D01*
X124779000Y-85645428D01*
X124364750Y-85648500D01*
X124206000Y-85807250D01*
X123952000Y-85807250D01*
X123793250Y-85648500D01*
X123396951Y-85645561D01*
X123735009Y-85578317D01*
X124154283Y-85404648D01*
X124531620Y-85152519D01*
X124852519Y-84831620D01*
X125104648Y-84454283D01*
X125278317Y-84035009D01*
X125366853Y-83589910D01*
X125366853Y-83136090D01*
X125278317Y-82690991D01*
X125104648Y-82271717D01*
X124852519Y-81894380D01*
X124531620Y-81573481D01*
X124154283Y-81321352D01*
X123735009Y-81147683D01*
X123289910Y-81059147D01*
X122836090Y-81059147D01*
X122390991Y-81147683D01*
X121971717Y-81321352D01*
X121594380Y-81573481D01*
X121273481Y-81894380D01*
X121021352Y-82271717D01*
X120847683Y-82690991D01*
X120759147Y-83136090D01*
X120308484Y-83136090D01*
X120367664Y-83104458D01*
X120501292Y-82994792D01*
X120610958Y-82861164D01*
X120692447Y-82708709D01*
X120742628Y-82543285D01*
X120759572Y-82371250D01*
X120759572Y-81458750D01*
X120742628Y-81286715D01*
X120692447Y-81121291D01*
X120610958Y-80968836D01*
X120501292Y-80835208D01*
X120394000Y-80747155D01*
X120394000Y-80197801D01*
X121034004Y-79557798D01*
X121063001Y-79534001D01*
X121157974Y-79418276D01*
X121228546Y-79286247D01*
X121272003Y-79142986D01*
X121283000Y-79031333D01*
X121283000Y-79031323D01*
X121286676Y-78994000D01*
X121283000Y-78956677D01*
X121283000Y-77890072D01*
X121448000Y-77890072D01*
X121572482Y-77877812D01*
X121692180Y-77841502D01*
X121802494Y-77782537D01*
X121899185Y-77703185D01*
X121978537Y-77606494D01*
X122037502Y-77496180D01*
X122073812Y-77376482D01*
X122086072Y-77252000D01*
X122086072Y-76987061D01*
X122282000Y-76987061D01*
X122282000Y-77190939D01*
X122321774Y-77390898D01*
X122399795Y-77579256D01*
X122513063Y-77748774D01*
X122657226Y-77892937D01*
X122826744Y-78006205D01*
X123003128Y-78079266D01*
X123020553Y-78136709D01*
X123102042Y-78289164D01*
X123211708Y-78422792D01*
X123345336Y-78532458D01*
X123497791Y-78613947D01*
X123663215Y-78664128D01*
X123835250Y-78681072D01*
X124322750Y-78681072D01*
X124494785Y-78664128D01*
X124660209Y-78613947D01*
X124812664Y-78532458D01*
X124946292Y-78422792D01*
X124951508Y-78416436D01*
X125015315Y-78494185D01*
X125112006Y-78573537D01*
X125222320Y-78632502D01*
X125342018Y-78668812D01*
X125466500Y-78681072D01*
X125668250Y-78678000D01*
X125827000Y-78519250D01*
X125827000Y-77470000D01*
X126081000Y-77470000D01*
X126081000Y-78519250D01*
X126239750Y-78678000D01*
X126441500Y-78681072D01*
X126565982Y-78668812D01*
X126685680Y-78632502D01*
X126795994Y-78573537D01*
X126892685Y-78494185D01*
X126972037Y-78397494D01*
X127031002Y-78287180D01*
X127067312Y-78167482D01*
X127079572Y-78043000D01*
X127076500Y-77628750D01*
X126917750Y-77470000D01*
X126081000Y-77470000D01*
X125827000Y-77470000D01*
X125807000Y-77470000D01*
X125807000Y-77216000D01*
X125827000Y-77216000D01*
X125827000Y-76166750D01*
X126081000Y-76166750D01*
X126081000Y-77216000D01*
X126917750Y-77216000D01*
X127076500Y-77057250D01*
X127079572Y-76643000D01*
X127067312Y-76518518D01*
X127031002Y-76398820D01*
X126972037Y-76288506D01*
X126892685Y-76191815D01*
X126795994Y-76112463D01*
X126685680Y-76053498D01*
X126565982Y-76017188D01*
X126441500Y-76004928D01*
X126239750Y-76008000D01*
X126081000Y-76166750D01*
X125827000Y-76166750D01*
X125668250Y-76008000D01*
X125466500Y-76004928D01*
X125342018Y-76017188D01*
X125222320Y-76053498D01*
X125112006Y-76112463D01*
X125015315Y-76191815D01*
X124951508Y-76269564D01*
X124946292Y-76263208D01*
X124812664Y-76153542D01*
X124660209Y-76072053D01*
X124494785Y-76021872D01*
X124322750Y-76004928D01*
X123835250Y-76004928D01*
X123663215Y-76021872D01*
X123502507Y-76070623D01*
X123418939Y-76054000D01*
X123215061Y-76054000D01*
X123015102Y-76093774D01*
X122826744Y-76171795D01*
X122657226Y-76285063D01*
X122513063Y-76429226D01*
X122399795Y-76598744D01*
X122321774Y-76787102D01*
X122282000Y-76987061D01*
X122086072Y-76987061D01*
X122086072Y-75402000D01*
X122073812Y-75277518D01*
X122037502Y-75157820D01*
X121978537Y-75047506D01*
X121899185Y-74950815D01*
X121802494Y-74871463D01*
X121692180Y-74812498D01*
X121572482Y-74776188D01*
X121448000Y-74763928D01*
X119598000Y-74763928D01*
X119473518Y-74776188D01*
X119353820Y-74812498D01*
X119243506Y-74871463D01*
X119146815Y-74950815D01*
X119067463Y-75047506D01*
X119015918Y-75143938D01*
X119001186Y-75129206D01*
X118885311Y-75245081D01*
X118798607Y-74988347D01*
X118521777Y-74854952D01*
X118224243Y-74778127D01*
X117917438Y-74760824D01*
X117613152Y-74803708D01*
X117323079Y-74905132D01*
X117167393Y-74988347D01*
X117080689Y-75245081D01*
X116967000Y-75131392D01*
X116967000Y-70256000D01*
X125105451Y-70256000D01*
X125099429Y-70265012D01*
G37*
X125099429Y-70265012D02*
X124963365Y-70593501D01*
X124894000Y-70942223D01*
X124894000Y-71297777D01*
X124963365Y-71646499D01*
X125099429Y-71974988D01*
X125296965Y-72270621D01*
X125548379Y-72522035D01*
X125844012Y-72719571D01*
X126172501Y-72855635D01*
X126521223Y-72925000D01*
X126876777Y-72925000D01*
X127225499Y-72855635D01*
X127553988Y-72719571D01*
X127690933Y-72628067D01*
X127599429Y-72765012D01*
X127463365Y-73093501D01*
X127394000Y-73442223D01*
X127394000Y-73797777D01*
X127463365Y-74146499D01*
X127599429Y-74474988D01*
X127796965Y-74770621D01*
X128048379Y-75022035D01*
X128344012Y-75219571D01*
X128399001Y-75242348D01*
X128399000Y-79941289D01*
X128355063Y-79985226D01*
X128241795Y-80154744D01*
X128170072Y-80327897D01*
X128170072Y-80080000D01*
X128157812Y-79955518D01*
X128121502Y-79835820D01*
X128062537Y-79725506D01*
X127983185Y-79628815D01*
X127886494Y-79549463D01*
X127776180Y-79490498D01*
X127656482Y-79454188D01*
X127532000Y-79441928D01*
X126402000Y-79441928D01*
X126277518Y-79454188D01*
X126157820Y-79490498D01*
X126047506Y-79549463D01*
X125950815Y-79628815D01*
X125871463Y-79725506D01*
X125812498Y-79835820D01*
X125776188Y-79955518D01*
X125763928Y-80080000D01*
X125763928Y-81210000D01*
X125776188Y-81334482D01*
X125812498Y-81454180D01*
X125871463Y-81564494D01*
X125950815Y-81661185D01*
X126047506Y-81740537D01*
X126157820Y-81799502D01*
X126277518Y-81835812D01*
X126402000Y-81848072D01*
X127532000Y-81848072D01*
X127656482Y-81835812D01*
X127776180Y-81799502D01*
X127886494Y-81740537D01*
X127983185Y-81661185D01*
X128062537Y-81564494D01*
X128121502Y-81454180D01*
X128157812Y-81334482D01*
X128170072Y-81210000D01*
X128170072Y-80962103D01*
X128241795Y-81135256D01*
X128355063Y-81304774D01*
X128499226Y-81448937D01*
X128668744Y-81562205D01*
X128857102Y-81640226D01*
X129057061Y-81680000D01*
X129260939Y-81680000D01*
X129460898Y-81640226D01*
X129649256Y-81562205D01*
X129818774Y-81448937D01*
X129962937Y-81304774D01*
X130076205Y-81135256D01*
X130154226Y-80946898D01*
X130194000Y-80746939D01*
X130194000Y-80543061D01*
X130154226Y-80343102D01*
X130076205Y-80154744D01*
X129962937Y-79985226D01*
X129919000Y-79941289D01*
X129919000Y-75275485D01*
X130053988Y-75219571D01*
X130349621Y-75022035D01*
X130601035Y-74770621D01*
X130798571Y-74474988D01*
X130934635Y-74146499D01*
X130939001Y-74124551D01*
X130939000Y-79941289D01*
X130895063Y-79985226D01*
X130781795Y-80154744D01*
X130703774Y-80343102D01*
X130664000Y-80543061D01*
X130664000Y-80746939D01*
X130703774Y-80946898D01*
X130781795Y-81135256D01*
X130895063Y-81304774D01*
X131039226Y-81448937D01*
X131208744Y-81562205D01*
X131397102Y-81640226D01*
X131597061Y-81680000D01*
X131800939Y-81680000D01*
X132000898Y-81640226D01*
X132189256Y-81562205D01*
X132358774Y-81448937D01*
X132502937Y-81304774D01*
X132616205Y-81135256D01*
X132694226Y-80946898D01*
X132734000Y-80746939D01*
X132734000Y-80543061D01*
X132730768Y-80526810D01*
X133707000Y-80526810D01*
X133707000Y-80763190D01*
X133753116Y-80995027D01*
X133843574Y-81213413D01*
X133974899Y-81409955D01*
X134142045Y-81577101D01*
X134338587Y-81708426D01*
X134556973Y-81798884D01*
X134788810Y-81845000D01*
X135025190Y-81845000D01*
X135257027Y-81798884D01*
X135475413Y-81708426D01*
X135511001Y-81684647D01*
X135511001Y-82150145D01*
X135509067Y-82140260D01*
X135293680Y-82042877D01*
X135063433Y-81989385D01*
X134827174Y-81981840D01*
X134593983Y-82020532D01*
X134372821Y-82103973D01*
X134304933Y-82140260D01*
X134261889Y-82360284D01*
X134907000Y-83005395D01*
X134921143Y-82991253D01*
X135100748Y-83170858D01*
X135086605Y-83185000D01*
X135100748Y-83199143D01*
X134921143Y-83378748D01*
X134907000Y-83364605D01*
X134261889Y-84009716D01*
X134304933Y-84229740D01*
X134520320Y-84327123D01*
X134750567Y-84380615D01*
X134986826Y-84388160D01*
X135205286Y-84351912D01*
X135031036Y-84526163D01*
X135025190Y-84525000D01*
X134788810Y-84525000D01*
X134556973Y-84571116D01*
X134338587Y-84661574D01*
X134142045Y-84792899D01*
X133974899Y-84960045D01*
X133843574Y-85156587D01*
X133753116Y-85374973D01*
X133707000Y-85606810D01*
X133707000Y-85843190D01*
X133753116Y-86075027D01*
X133843574Y-86293413D01*
X133974899Y-86489955D01*
X134142045Y-86657101D01*
X134338587Y-86788426D01*
X134556973Y-86878884D01*
X134788810Y-86925000D01*
X135025190Y-86925000D01*
X135257027Y-86878884D01*
X135475413Y-86788426D01*
X135671955Y-86657101D01*
X135839101Y-86489955D01*
X135970426Y-86293413D01*
X136060884Y-86075027D01*
X136107000Y-85843190D01*
X136107000Y-85606810D01*
X136105837Y-85600964D01*
X136782003Y-84924799D01*
X136811001Y-84901001D01*
X136905974Y-84785276D01*
X136976546Y-84653247D01*
X137020003Y-84509986D01*
X137031000Y-84398333D01*
X137031000Y-84398324D01*
X137034676Y-84361001D01*
X137031000Y-84323678D01*
X137031000Y-83470000D01*
X137540299Y-83470000D01*
X137567040Y-83741507D01*
X137646236Y-84002581D01*
X137774843Y-84243188D01*
X137947919Y-84454081D01*
X138158812Y-84627157D01*
X138399419Y-84755764D01*
X138660493Y-84834960D01*
X138863963Y-84855000D01*
X139520037Y-84855000D01*
X139723507Y-84834960D01*
X139984581Y-84755764D01*
X140225188Y-84627157D01*
X140436081Y-84454081D01*
X140609157Y-84243188D01*
X140737764Y-84002581D01*
X140816960Y-83741507D01*
X140843701Y-83470000D01*
X140816960Y-83198493D01*
X140737764Y-82937419D01*
X140609157Y-82696812D01*
X140436081Y-82485919D01*
X140225188Y-82312843D01*
X139984581Y-82184236D01*
X139723507Y-82105040D01*
X139520037Y-82085000D01*
X138863963Y-82085000D01*
X138660493Y-82105040D01*
X138399419Y-82184236D01*
X138158812Y-82312843D01*
X137947919Y-82485919D01*
X137774843Y-82696812D01*
X137646236Y-82937419D01*
X137567040Y-83198493D01*
X137540299Y-83470000D01*
X137031000Y-83470000D01*
X137031000Y-78220000D01*
X137543928Y-78220000D01*
X137556188Y-78344482D01*
X137592498Y-78464180D01*
X137651463Y-78574494D01*
X137730815Y-78671185D01*
X137827506Y-78750537D01*
X137937820Y-78809502D01*
X138057518Y-78845812D01*
X138182000Y-78858072D01*
X138906250Y-78855000D01*
X139065000Y-78696250D01*
X139065000Y-77597000D01*
X137705750Y-77597000D01*
X137547000Y-77755750D01*
X137543928Y-78220000D01*
X137031000Y-78220000D01*
X137031000Y-76720000D01*
X137543928Y-76720000D01*
X137547000Y-77184250D01*
X137705750Y-77343000D01*
X139065000Y-77343000D01*
X139065000Y-76243750D01*
X138906250Y-76085000D01*
X138182000Y-76081928D01*
X138057518Y-76094188D01*
X137937820Y-76130498D01*
X137827506Y-76189463D01*
X137730815Y-76268815D01*
X137651463Y-76365506D01*
X137592498Y-76475820D01*
X137556188Y-76595518D01*
X137543928Y-76720000D01*
X137031000Y-76720000D01*
X137031000Y-75633711D01*
X137074937Y-75589774D01*
X137188205Y-75420256D01*
X137266226Y-75231898D01*
X137306000Y-75031939D01*
X137306000Y-74828061D01*
X137266226Y-74628102D01*
X137188205Y-74439744D01*
X137074937Y-74270226D01*
X136930774Y-74126063D01*
X136761256Y-74012795D01*
X136572898Y-73934774D01*
X136372939Y-73895000D01*
X136169061Y-73895000D01*
X135969102Y-73934774D01*
X135780744Y-74012795D01*
X135611226Y-74126063D01*
X135467063Y-74270226D01*
X135353795Y-74439744D01*
X135275774Y-74628102D01*
X135236000Y-74828061D01*
X135236000Y-75031939D01*
X135275774Y-75231898D01*
X135353795Y-75420256D01*
X135467063Y-75589774D01*
X135511000Y-75633711D01*
X135511000Y-79605353D01*
X135475413Y-79581574D01*
X135257027Y-79491116D01*
X135025190Y-79445000D01*
X134788810Y-79445000D01*
X134556973Y-79491116D01*
X134338587Y-79581574D01*
X134142045Y-79712899D01*
X133974899Y-79880045D01*
X133843574Y-80076587D01*
X133753116Y-80294973D01*
X133707000Y-80526810D01*
X132730768Y-80526810D01*
X132694226Y-80343102D01*
X132616205Y-80154744D01*
X132502937Y-79985226D01*
X132459000Y-79941289D01*
X132459000Y-72758916D01*
X132553988Y-72719571D01*
X132849621Y-72522035D01*
X133020656Y-72351000D01*
X135163928Y-72351000D01*
X135176188Y-72475482D01*
X135212498Y-72595180D01*
X135271463Y-72705494D01*
X135350815Y-72802185D01*
X135447506Y-72881537D01*
X135557820Y-72940502D01*
X135677518Y-72976812D01*
X135802000Y-72989072D01*
X136366250Y-72986000D01*
X136525000Y-72827250D01*
X136525000Y-71628000D01*
X135325750Y-71628000D01*
X135167000Y-71786750D01*
X135163928Y-72351000D01*
X133020656Y-72351000D01*
X133101035Y-72270621D01*
X133298571Y-71974988D01*
X133434635Y-71646499D01*
X133504000Y-71297777D01*
X133504000Y-70942223D01*
X133434635Y-70593501D01*
X133298571Y-70265012D01*
X133292549Y-70256000D01*
X135304705Y-70256000D01*
X135271463Y-70296506D01*
X135212498Y-70406820D01*
X135176188Y-70526518D01*
X135163928Y-70651000D01*
X135167000Y-71215250D01*
X135325750Y-71374000D01*
X136525000Y-71374000D01*
X136525000Y-71354000D01*
X136779000Y-71354000D01*
X136779000Y-71374000D01*
X136799000Y-71374000D01*
X136799000Y-71628000D01*
X136779000Y-71628000D01*
X136779000Y-72827250D01*
X136937750Y-72986000D01*
X137502000Y-72989072D01*
X137626482Y-72976812D01*
X137746180Y-72940502D01*
X137856494Y-72881537D01*
X137953185Y-72802185D01*
X138032537Y-72705494D01*
X138091502Y-72595180D01*
X138113513Y-72522620D01*
X138245368Y-72654475D01*
X138432000Y-72779179D01*
X138432001Y-74226288D01*
X138388063Y-74270226D01*
X138274795Y-74439744D01*
X138196774Y-74628102D01*
X138157000Y-74828061D01*
X138157000Y-75031939D01*
X138196774Y-75231898D01*
X138274795Y-75420256D01*
X138388063Y-75589774D01*
X138532226Y-75733937D01*
X138701744Y-75847205D01*
X138890102Y-75925226D01*
X139090061Y-75965000D01*
X139293939Y-75965000D01*
X139493898Y-75925226D01*
X139682256Y-75847205D01*
X139851774Y-75733937D01*
X139995937Y-75589774D01*
X140109205Y-75420256D01*
X140187226Y-75231898D01*
X140227000Y-75031939D01*
X140227000Y-74828061D01*
X140187226Y-74628102D01*
X140109205Y-74439744D01*
X139995937Y-74270226D01*
X139952000Y-74226289D01*
X139952000Y-72779178D01*
X140138632Y-72654475D01*
X140345475Y-72447632D01*
X140462000Y-72273240D01*
X140578525Y-72447632D01*
X140745586Y-72614693D01*
X140586002Y-72774278D01*
X140556999Y-72798080D01*
X140510513Y-72854724D01*
X140462026Y-72913805D01*
X140423437Y-72986000D01*
X140391454Y-73045835D01*
X140347997Y-73189096D01*
X140337000Y-73300749D01*
X140337000Y-73300759D01*
X140333324Y-73338081D01*
X140337000Y-73375404D01*
X140337000Y-76097379D01*
X140326482Y-76094188D01*
X140202000Y-76081928D01*
X139477750Y-76085000D01*
X139319000Y-76243750D01*
X139319000Y-77343000D01*
X139339000Y-77343000D01*
X139339000Y-77597000D01*
X139319000Y-77597000D01*
X139319000Y-78696250D01*
X139477750Y-78855000D01*
X140202000Y-78858072D01*
X140326482Y-78845812D01*
X140337001Y-78842621D01*
X140337001Y-79404606D01*
X140225188Y-79312843D01*
X139984581Y-79184236D01*
X139723507Y-79105040D01*
X139520037Y-79085000D01*
X138863963Y-79085000D01*
X138660493Y-79105040D01*
X138399419Y-79184236D01*
X138158812Y-79312843D01*
X137947919Y-79485919D01*
X137774843Y-79696812D01*
X137646236Y-79937419D01*
X137567040Y-80198493D01*
X137540299Y-80470000D01*
X137567040Y-80741507D01*
X137646236Y-81002581D01*
X137774843Y-81243188D01*
X137947919Y-81454081D01*
X138158812Y-81627157D01*
X138399419Y-81755764D01*
X138660493Y-81834960D01*
X138863963Y-81855000D01*
X139520037Y-81855000D01*
X139723507Y-81834960D01*
X139984581Y-81755764D01*
X140225188Y-81627157D01*
X140436081Y-81454081D01*
X140609157Y-81243188D01*
X140626167Y-81211365D01*
X140744247Y-81175546D01*
X140876276Y-81104974D01*
X140992001Y-81010001D01*
X141015803Y-80980998D01*
X141545450Y-80451352D01*
X141619988Y-80631302D01*
X141853637Y-80980983D01*
X142151017Y-81278363D01*
X142500698Y-81512012D01*
X142889244Y-81672953D01*
X143301721Y-81755000D01*
X143722279Y-81755000D01*
X144134756Y-81672953D01*
X144523302Y-81512012D01*
X144872983Y-81278363D01*
X144909000Y-81242346D01*
X144909000Y-82697654D01*
X144872983Y-82661637D01*
X144523302Y-82427988D01*
X144134756Y-82267047D01*
X143722279Y-82185000D01*
X143301721Y-82185000D01*
X142889244Y-82267047D01*
X142500698Y-82427988D01*
X142151017Y-82661637D01*
X141853637Y-82959017D01*
X141619988Y-83308698D01*
X141459047Y-83697244D01*
X141377000Y-84109721D01*
X141377000Y-84530279D01*
X141459047Y-84942756D01*
X141619988Y-85331302D01*
X141853637Y-85680983D01*
X141882654Y-85710000D01*
X140616206Y-85710000D01*
X140609157Y-85696812D01*
X140436081Y-85485919D01*
X140225188Y-85312843D01*
X139984581Y-85184236D01*
X139723507Y-85105040D01*
X139520037Y-85085000D01*
X138863963Y-85085000D01*
X138660493Y-85105040D01*
X138399419Y-85184236D01*
X138158812Y-85312843D01*
X137947919Y-85485919D01*
X137774843Y-85696812D01*
X137646236Y-85937419D01*
X137567040Y-86198493D01*
X137540299Y-86470000D01*
X137567040Y-86741507D01*
X137646236Y-87002581D01*
X137774843Y-87243188D01*
X137947919Y-87454081D01*
X138158812Y-87627157D01*
X138399419Y-87755764D01*
X138660493Y-87834960D01*
X138863963Y-87855000D01*
X139520037Y-87855000D01*
X139723507Y-87834960D01*
X139984581Y-87755764D01*
X140225188Y-87627157D01*
X140436081Y-87454081D01*
X140609157Y-87243188D01*
X140616206Y-87230000D01*
X144759678Y-87230000D01*
X144797000Y-87233676D01*
X144834322Y-87230000D01*
X144834333Y-87230000D01*
X144945986Y-87219003D01*
X145089247Y-87175546D01*
X145221276Y-87104974D01*
X145337001Y-87010001D01*
X145360803Y-86980998D01*
X146180004Y-86161798D01*
X146209001Y-86138001D01*
X146303974Y-86022276D01*
X146374546Y-85890247D01*
X146418003Y-85746986D01*
X146429000Y-85635333D01*
X146429000Y-85635324D01*
X146432676Y-85598001D01*
X146429000Y-85560678D01*
X146429000Y-74713322D01*
X146432676Y-74675999D01*
X146429000Y-74638676D01*
X146429000Y-74638667D01*
X146418003Y-74527014D01*
X146374546Y-74383753D01*
X146303974Y-74251724D01*
X146209001Y-74135999D01*
X146180003Y-74112201D01*
X145032000Y-72964199D01*
X145032000Y-72779178D01*
X145218632Y-72654475D01*
X145425475Y-72447632D01*
X145542000Y-72273240D01*
X145658525Y-72447632D01*
X145865368Y-72654475D01*
X146108589Y-72816990D01*
X146378842Y-72928932D01*
X146665740Y-72986000D01*
X146958260Y-72986000D01*
X147245158Y-72928932D01*
X147515411Y-72816990D01*
X147758632Y-72654475D01*
X147965475Y-72447632D01*
X148057000Y-72310655D01*
X148057001Y-89764000D01*
X124612130Y-89764000D01*
X124707285Y-89754628D01*
X124872709Y-89704447D01*
X125025164Y-89622958D01*
X125158792Y-89513292D01*
X125268458Y-89379664D01*
X125349947Y-89227209D01*
X125400128Y-89061785D01*
X125403751Y-89025000D01*
X126031588Y-89025000D01*
X126034899Y-89029955D01*
X126202045Y-89197101D01*
X126398587Y-89328426D01*
X126616973Y-89418884D01*
X126848810Y-89465000D01*
X127085190Y-89465000D01*
X127317027Y-89418884D01*
X127535413Y-89328426D01*
X127731955Y-89197101D01*
X127899101Y-89029955D01*
X128030426Y-88833413D01*
X128120884Y-88615027D01*
X128167000Y-88383190D01*
X128167000Y-88146810D01*
X133707000Y-88146810D01*
X133707000Y-88383190D01*
X133753116Y-88615027D01*
X133843574Y-88833413D01*
X133974899Y-89029955D01*
X134142045Y-89197101D01*
X134338587Y-89328426D01*
X134556973Y-89418884D01*
X134788810Y-89465000D01*
X135025190Y-89465000D01*
X135257027Y-89418884D01*
X135475413Y-89328426D01*
X135671955Y-89197101D01*
X135839101Y-89029955D01*
X135970426Y-88833413D01*
X136060884Y-88615027D01*
X136107000Y-88383190D01*
X136107000Y-88146810D01*
X136060884Y-87914973D01*
X135970426Y-87696587D01*
X135839101Y-87500045D01*
X135671955Y-87332899D01*
X135475413Y-87201574D01*
X135257027Y-87111116D01*
X135025190Y-87065000D01*
X134788810Y-87065000D01*
X134556973Y-87111116D01*
X134338587Y-87201574D01*
X134142045Y-87332899D01*
X133974899Y-87500045D01*
X133843574Y-87696587D01*
X133753116Y-87914973D01*
X133707000Y-88146810D01*
X128167000Y-88146810D01*
X128137532Y-87998666D01*
X128295061Y-88030000D01*
X128498939Y-88030000D01*
X128698898Y-87990226D01*
X128887256Y-87912205D01*
X129056774Y-87798937D01*
X129200937Y-87654774D01*
X129314205Y-87485256D01*
X129392226Y-87296898D01*
X129432000Y-87096939D01*
X129432000Y-86893061D01*
X129392226Y-86693102D01*
X129314205Y-86504744D01*
X129200937Y-86335226D01*
X129157000Y-86291289D01*
X129157000Y-83603322D01*
X129160676Y-83565999D01*
X129157000Y-83528676D01*
X129157000Y-83528667D01*
X129146003Y-83417014D01*
X129102546Y-83273753D01*
X129097775Y-83264826D01*
X133703840Y-83264826D01*
X133742532Y-83498017D01*
X133825973Y-83719179D01*
X133862260Y-83787067D01*
X134082284Y-83830111D01*
X134727395Y-83185000D01*
X134082284Y-82539889D01*
X133862260Y-82582933D01*
X133764877Y-82798320D01*
X133711385Y-83028567D01*
X133703840Y-83264826D01*
X129097775Y-83264826D01*
X129031974Y-83141724D01*
X128937001Y-83025999D01*
X128907997Y-83002196D01*
X128579804Y-82674003D01*
X128556001Y-82644999D01*
X128440276Y-82550026D01*
X128308247Y-82479454D01*
X128164986Y-82435997D01*
X128053333Y-82425000D01*
X128053322Y-82425000D01*
X128016000Y-82421324D01*
X127978678Y-82425000D01*
X127902412Y-82425000D01*
X127899101Y-82420045D01*
X127731955Y-82252899D01*
X127535413Y-82121574D01*
X127317027Y-82031116D01*
X127085190Y-81985000D01*
X126848810Y-81985000D01*
X126616973Y-82031116D01*
X126398587Y-82121574D01*
X126202045Y-82252899D01*
X126034899Y-82420045D01*
X125903574Y-82616587D01*
X125864094Y-82711901D01*
X125824026Y-82760724D01*
X125753454Y-82892753D01*
X125709997Y-83036014D01*
X125695323Y-83185000D01*
X125709997Y-83333986D01*
X125753454Y-83477247D01*
X125824026Y-83609276D01*
X125864094Y-83658099D01*
X125903574Y-83753413D01*
X126034899Y-83949955D01*
X126202045Y-84117101D01*
X126398587Y-84248426D01*
X126616973Y-84338884D01*
X126848810Y-84385000D01*
X127085190Y-84385000D01*
X127317027Y-84338884D01*
X127535413Y-84248426D01*
X127637001Y-84180547D01*
X127637001Y-84729453D01*
X127535413Y-84661574D01*
X127317027Y-84571116D01*
X127085190Y-84525000D01*
X126848810Y-84525000D01*
X126616973Y-84571116D01*
X126398587Y-84661574D01*
X126202045Y-84792899D01*
X126034899Y-84960045D01*
X125903574Y-85156587D01*
X125813116Y-85374973D01*
X125767000Y-85606810D01*
X125767000Y-85843190D01*
X125813116Y-86075027D01*
X125903574Y-86293413D01*
X126034899Y-86489955D01*
X126202045Y-86657101D01*
X126398587Y-86788426D01*
X126616973Y-86878884D01*
X126848810Y-86925000D01*
X127085190Y-86925000D01*
X127317027Y-86878884D01*
X127369111Y-86857310D01*
X127362000Y-86893061D01*
X127362000Y-87096939D01*
X127369111Y-87132690D01*
X127317027Y-87111116D01*
X127085190Y-87065000D01*
X126848810Y-87065000D01*
X126616973Y-87111116D01*
X126398587Y-87201574D01*
X126202045Y-87332899D01*
X126034899Y-87500045D01*
X126031588Y-87505000D01*
X125367262Y-87505000D01*
X125368502Y-87502680D01*
X125404812Y-87382982D01*
X125417072Y-87258500D01*
X125414000Y-87056750D01*
X125255250Y-86898000D01*
X124206000Y-86898000D01*
X124206000Y-86918000D01*
X123952000Y-86918000D01*
X123952000Y-86898000D01*
X122174000Y-86898000D01*
X122174000Y-86918000D01*
X121920000Y-86918000D01*
X121920000Y-86898000D01*
X121900000Y-86898000D01*
X121900000Y-86644000D01*
X121920000Y-86644000D01*
X121920000Y-85807250D01*
X121761250Y-85648500D01*
X121431000Y-85646051D01*
X121431000Y-85623061D01*
X121391226Y-85423102D01*
X121313205Y-85234744D01*
X121199937Y-85065226D01*
X121055774Y-84921063D01*
X120886256Y-84807795D01*
X120806667Y-84774828D01*
X120804000Y-84740750D01*
X120645250Y-84582000D01*
X119371000Y-84582000D01*
X119371000Y-84602000D01*
X119117000Y-84602000D01*
X119117000Y-84582000D01*
X117842750Y-84582000D01*
X117684000Y-84740750D01*
X117680928Y-84780000D01*
X117693188Y-84904482D01*
X117729498Y-85024180D01*
X117764680Y-85090000D01*
X117729498Y-85155820D01*
X117693188Y-85275518D01*
X117680928Y-85400000D01*
X117680928Y-86050000D01*
X117693188Y-86174482D01*
X117729498Y-86294180D01*
X117764680Y-86360000D01*
X117729498Y-86425820D01*
X117693188Y-86545518D01*
X117680928Y-86670000D01*
X117680928Y-87320000D01*
X117693188Y-87444482D01*
X117729498Y-87564180D01*
X117764680Y-87630000D01*
X117729498Y-87695820D01*
X117693188Y-87815518D01*
X117680928Y-87940000D01*
X117680928Y-88590000D01*
X117693188Y-88714482D01*
X117729498Y-88834180D01*
X117788463Y-88944494D01*
X117867815Y-89041185D01*
X117964506Y-89120537D01*
X118074820Y-89179502D01*
X118194518Y-89215812D01*
X118319000Y-89228072D01*
X120169000Y-89228072D01*
X120293482Y-89215812D01*
X120413180Y-89179502D01*
X120523494Y-89120537D01*
X120620185Y-89041185D01*
X120633468Y-89025000D01*
X120722249Y-89025000D01*
X120725872Y-89061785D01*
X120776053Y-89227209D01*
X120857542Y-89379664D01*
X120967208Y-89513292D01*
X121100836Y-89622958D01*
X121253291Y-89704447D01*
X121418715Y-89754628D01*
X121513870Y-89764000D01*
X116967000Y-89764000D01*
X116967000Y-84130000D01*
X117680928Y-84130000D01*
X117684000Y-84169250D01*
X117842750Y-84328000D01*
X119117000Y-84328000D01*
X119117000Y-83653750D01*
X119371000Y-83653750D01*
X119371000Y-84328000D01*
X120645250Y-84328000D01*
X120804000Y-84169250D01*
X120807072Y-84130000D01*
X120794812Y-84005518D01*
X120758502Y-83885820D01*
X120699537Y-83775506D01*
X120620185Y-83678815D01*
X120523494Y-83599463D01*
X120413180Y-83540498D01*
X120293482Y-83504188D01*
X120169000Y-83491928D01*
X119529750Y-83495000D01*
X119371000Y-83653750D01*
X119117000Y-83653750D01*
X118958250Y-83495000D01*
X118319000Y-83491928D01*
X118194518Y-83504188D01*
X118074820Y-83540498D01*
X117964506Y-83599463D01*
X117867815Y-83678815D01*
X117788463Y-83775506D01*
X117729498Y-83885820D01*
X117693188Y-84005518D01*
X117680928Y-84130000D01*
X116967000Y-84130000D01*
X116967000Y-83172260D01*
X117027320Y-83204502D01*
X117147018Y-83240812D01*
X117271500Y-83253072D01*
X117473250Y-83250000D01*
X117632000Y-83091250D01*
X117632000Y-82042000D01*
X117612000Y-82042000D01*
X117612000Y-81788000D01*
X117632000Y-81788000D01*
X117632000Y-80738750D01*
X117473250Y-80580000D01*
X117271500Y-80576928D01*
X117147018Y-80589188D01*
X117027320Y-80625498D01*
X116967000Y-80657740D01*
X116967000Y-77522608D01*
X117080689Y-77408919D01*
X117167393Y-77665653D01*
X117444223Y-77799048D01*
X117741757Y-77875873D01*
X118048562Y-77893176D01*
X118352848Y-77850292D01*
X118642921Y-77748868D01*
X118798607Y-77665653D01*
X118885311Y-77408919D01*
X119001186Y-77524794D01*
X119015918Y-77510062D01*
X119067463Y-77606494D01*
X119146815Y-77703185D01*
X119243506Y-77782537D01*
X119353820Y-77841502D01*
X119473518Y-77877812D01*
X119598000Y-77890072D01*
X119763001Y-77890072D01*
X119763000Y-78679198D01*
X119122998Y-79319201D01*
X119094000Y-79342999D01*
X119070202Y-79371997D01*
X119070201Y-79371998D01*
X118999026Y-79458724D01*
X118928454Y-79590754D01*
X118916909Y-79628815D01*
X118884998Y-79734014D01*
X118874001Y-79845667D01*
X118870324Y-79883000D01*
X118874001Y-79920332D01*
X118874001Y-80747155D01*
X118766708Y-80835208D01*
X118761492Y-80841564D01*
X118697685Y-80763815D01*
X118600994Y-80684463D01*
X118490680Y-80625498D01*
X118370982Y-80589188D01*
X118246500Y-80576928D01*
X118044750Y-80580000D01*
X117886000Y-80738750D01*
X117886000Y-81788000D01*
X117906000Y-81788000D01*
X117906000Y-82042000D01*
X117886000Y-82042000D01*
X117886000Y-83091250D01*
X118044750Y-83250000D01*
X118246500Y-83253072D01*
X118370982Y-83240812D01*
X118490680Y-83204502D01*
X118600994Y-83145537D01*
X118697685Y-83066185D01*
X118761492Y-82988436D01*
X118766708Y-82994792D01*
X118900336Y-83104458D01*
X119052791Y-83185947D01*
X119218215Y-83236128D01*
X119390250Y-83253072D01*
X119877750Y-83253072D01*
X120049785Y-83236128D01*
X120215209Y-83185947D01*
X120308484Y-83136090D01*
X120759147Y-83136090D01*
X120759147Y-83589910D01*
X120847683Y-84035009D01*
X121021352Y-84454283D01*
X121273481Y-84831620D01*
X121594380Y-85152519D01*
X121971717Y-85404648D01*
X122390991Y-85578317D01*
X122729049Y-85645561D01*
X122332750Y-85648500D01*
X122174000Y-85807250D01*
X122174000Y-86644000D01*
X123952000Y-86644000D01*
X123952000Y-85807250D01*
X124206000Y-85807250D01*
X124206000Y-86644000D01*
X125255250Y-86644000D01*
X125414000Y-86485250D01*
X125417072Y-86283500D01*
X125404812Y-86159018D01*
X125368502Y-86039320D01*
X125309537Y-85929006D01*
X125230185Y-85832315D01*
X125133494Y-85752963D01*
X125023180Y-85693998D01*
X124903482Y-85657688D01*
X124779000Y-85645428D01*
X124364750Y-85648500D01*
X124206000Y-85807250D01*
X123952000Y-85807250D01*
X123793250Y-85648500D01*
X123396951Y-85645561D01*
X123735009Y-85578317D01*
X124154283Y-85404648D01*
X124531620Y-85152519D01*
X124852519Y-84831620D01*
X125104648Y-84454283D01*
X125278317Y-84035009D01*
X125366853Y-83589910D01*
X125366853Y-83136090D01*
X125278317Y-82690991D01*
X125104648Y-82271717D01*
X124852519Y-81894380D01*
X124531620Y-81573481D01*
X124154283Y-81321352D01*
X123735009Y-81147683D01*
X123289910Y-81059147D01*
X122836090Y-81059147D01*
X122390991Y-81147683D01*
X121971717Y-81321352D01*
X121594380Y-81573481D01*
X121273481Y-81894380D01*
X121021352Y-82271717D01*
X120847683Y-82690991D01*
X120759147Y-83136090D01*
X120308484Y-83136090D01*
X120367664Y-83104458D01*
X120501292Y-82994792D01*
X120610958Y-82861164D01*
X120692447Y-82708709D01*
X120742628Y-82543285D01*
X120759572Y-82371250D01*
X120759572Y-81458750D01*
X120742628Y-81286715D01*
X120692447Y-81121291D01*
X120610958Y-80968836D01*
X120501292Y-80835208D01*
X120394000Y-80747155D01*
X120394000Y-80197801D01*
X121034004Y-79557798D01*
X121063001Y-79534001D01*
X121157974Y-79418276D01*
X121228546Y-79286247D01*
X121272003Y-79142986D01*
X121283000Y-79031333D01*
X121283000Y-79031323D01*
X121286676Y-78994000D01*
X121283000Y-78956677D01*
X121283000Y-77890072D01*
X121448000Y-77890072D01*
X121572482Y-77877812D01*
X121692180Y-77841502D01*
X121802494Y-77782537D01*
X121899185Y-77703185D01*
X121978537Y-77606494D01*
X122037502Y-77496180D01*
X122073812Y-77376482D01*
X122086072Y-77252000D01*
X122086072Y-76987061D01*
X122282000Y-76987061D01*
X122282000Y-77190939D01*
X122321774Y-77390898D01*
X122399795Y-77579256D01*
X122513063Y-77748774D01*
X122657226Y-77892937D01*
X122826744Y-78006205D01*
X123003128Y-78079266D01*
X123020553Y-78136709D01*
X123102042Y-78289164D01*
X123211708Y-78422792D01*
X123345336Y-78532458D01*
X123497791Y-78613947D01*
X123663215Y-78664128D01*
X123835250Y-78681072D01*
X124322750Y-78681072D01*
X124494785Y-78664128D01*
X124660209Y-78613947D01*
X124812664Y-78532458D01*
X124946292Y-78422792D01*
X124951508Y-78416436D01*
X125015315Y-78494185D01*
X125112006Y-78573537D01*
X125222320Y-78632502D01*
X125342018Y-78668812D01*
X125466500Y-78681072D01*
X125668250Y-78678000D01*
X125827000Y-78519250D01*
X125827000Y-77470000D01*
X126081000Y-77470000D01*
X126081000Y-78519250D01*
X126239750Y-78678000D01*
X126441500Y-78681072D01*
X126565982Y-78668812D01*
X126685680Y-78632502D01*
X126795994Y-78573537D01*
X126892685Y-78494185D01*
X126972037Y-78397494D01*
X127031002Y-78287180D01*
X127067312Y-78167482D01*
X127079572Y-78043000D01*
X127076500Y-77628750D01*
X126917750Y-77470000D01*
X126081000Y-77470000D01*
X125827000Y-77470000D01*
X125807000Y-77470000D01*
X125807000Y-77216000D01*
X125827000Y-77216000D01*
X125827000Y-76166750D01*
X126081000Y-76166750D01*
X126081000Y-77216000D01*
X126917750Y-77216000D01*
X127076500Y-77057250D01*
X127079572Y-76643000D01*
X127067312Y-76518518D01*
X127031002Y-76398820D01*
X126972037Y-76288506D01*
X126892685Y-76191815D01*
X126795994Y-76112463D01*
X126685680Y-76053498D01*
X126565982Y-76017188D01*
X126441500Y-76004928D01*
X126239750Y-76008000D01*
X126081000Y-76166750D01*
X125827000Y-76166750D01*
X125668250Y-76008000D01*
X125466500Y-76004928D01*
X125342018Y-76017188D01*
X125222320Y-76053498D01*
X125112006Y-76112463D01*
X125015315Y-76191815D01*
X124951508Y-76269564D01*
X124946292Y-76263208D01*
X124812664Y-76153542D01*
X124660209Y-76072053D01*
X124494785Y-76021872D01*
X124322750Y-76004928D01*
X123835250Y-76004928D01*
X123663215Y-76021872D01*
X123502507Y-76070623D01*
X123418939Y-76054000D01*
X123215061Y-76054000D01*
X123015102Y-76093774D01*
X122826744Y-76171795D01*
X122657226Y-76285063D01*
X122513063Y-76429226D01*
X122399795Y-76598744D01*
X122321774Y-76787102D01*
X122282000Y-76987061D01*
X122086072Y-76987061D01*
X122086072Y-75402000D01*
X122073812Y-75277518D01*
X122037502Y-75157820D01*
X121978537Y-75047506D01*
X121899185Y-74950815D01*
X121802494Y-74871463D01*
X121692180Y-74812498D01*
X121572482Y-74776188D01*
X121448000Y-74763928D01*
X119598000Y-74763928D01*
X119473518Y-74776188D01*
X119353820Y-74812498D01*
X119243506Y-74871463D01*
X119146815Y-74950815D01*
X119067463Y-75047506D01*
X119015918Y-75143938D01*
X119001186Y-75129206D01*
X118885311Y-75245081D01*
X118798607Y-74988347D01*
X118521777Y-74854952D01*
X118224243Y-74778127D01*
X117917438Y-74760824D01*
X117613152Y-74803708D01*
X117323079Y-74905132D01*
X117167393Y-74988347D01*
X117080689Y-75245081D01*
X116967000Y-75131392D01*
X116967000Y-70256000D01*
X125105451Y-70256000D01*
X125099429Y-70265012D01*
G36*
X118176748Y-76312858D02*
G01*
X118162605Y-76327000D01*
X118176748Y-76341143D01*
X117997143Y-76520748D01*
X117983000Y-76506605D01*
X117968858Y-76520748D01*
X117789253Y-76341143D01*
X117803395Y-76327000D01*
X117789253Y-76312858D01*
X117968858Y-76133253D01*
X117983000Y-76147395D01*
X117997143Y-76133253D01*
X118176748Y-76312858D01*
G37*
X118176748Y-76312858D02*
X118162605Y-76327000D01*
X118176748Y-76341143D01*
X117997143Y-76520748D01*
X117983000Y-76506605D01*
X117968858Y-76520748D01*
X117789253Y-76341143D01*
X117803395Y-76327000D01*
X117789253Y-76312858D01*
X117968858Y-76133253D01*
X117983000Y-76147395D01*
X117997143Y-76133253D01*
X118176748Y-76312858D01*
M02*
