G04 #@! TF.GenerationSoftware,KiCad,Pcbnew,(5.1.5)-3*
G04 #@! TF.CreationDate,2020-07-17T00:05:11-04:00*
G04 #@! TF.ProjectId,Power Transducer,506f7765-7220-4547-9261-6e7364756365,rev?*
G04 #@! TF.SameCoordinates,Original*
G04 #@! TF.FileFunction,Copper,L2,Bot*
G04 #@! TF.FilePolarity,Positive*
%FSLAX46Y46*%
G04 Gerber Fmt 4.6, Leading zero omitted, Abs format (unit mm)*
G04 Created by KiCad (PCBNEW (5.1.5)-3) date 2020-07-17 00:05:11*
%MOMM*%
%LPD*%
G04 APERTURE LIST*
%ADD10C,2.340000*%
%ADD11R,1.130000X1.130000*%
%ADD12C,1.130000*%
%ADD13C,2.000000*%
%ADD14C,0.100000*%
%ADD15O,2.020000X1.500000*%
%ADD16O,1.700000X1.700000*%
%ADD17R,1.700000X1.700000*%
%ADD18R,1.850000X1.850000*%
%ADD19C,1.850000*%
%ADD20C,0.800000*%
%ADD21C,0.250000*%
%ADD22C,0.254000*%
G04 APERTURE END LIST*
D10*
X131699000Y-71120000D03*
X129199000Y-73620000D03*
X126699000Y-71120000D03*
D11*
X126967000Y-80645000D03*
D12*
X126967000Y-83185000D03*
X126967000Y-85725000D03*
X126967000Y-88265000D03*
X134907000Y-88265000D03*
X134907000Y-85725000D03*
X134907000Y-83185000D03*
X134907000Y-80645000D03*
D13*
X94615000Y-71501000D03*
X94615000Y-88773000D03*
G04 #@! TA.AperFunction,ComponentPad*
D14*
G36*
X139976504Y-76721204D02*
G01*
X140000773Y-76724804D01*
X140024571Y-76730765D01*
X140047671Y-76739030D01*
X140069849Y-76749520D01*
X140090893Y-76762133D01*
X140110598Y-76776747D01*
X140128777Y-76793223D01*
X140145253Y-76811402D01*
X140159867Y-76831107D01*
X140172480Y-76852151D01*
X140182970Y-76874329D01*
X140191235Y-76897429D01*
X140197196Y-76921227D01*
X140200796Y-76945496D01*
X140202000Y-76970000D01*
X140202000Y-77970000D01*
X140200796Y-77994504D01*
X140197196Y-78018773D01*
X140191235Y-78042571D01*
X140182970Y-78065671D01*
X140172480Y-78087849D01*
X140159867Y-78108893D01*
X140145253Y-78128598D01*
X140128777Y-78146777D01*
X140110598Y-78163253D01*
X140090893Y-78177867D01*
X140069849Y-78190480D01*
X140047671Y-78200970D01*
X140024571Y-78209235D01*
X140000773Y-78215196D01*
X139976504Y-78218796D01*
X139952000Y-78220000D01*
X138432000Y-78220000D01*
X138407496Y-78218796D01*
X138383227Y-78215196D01*
X138359429Y-78209235D01*
X138336329Y-78200970D01*
X138314151Y-78190480D01*
X138293107Y-78177867D01*
X138273402Y-78163253D01*
X138255223Y-78146777D01*
X138238747Y-78128598D01*
X138224133Y-78108893D01*
X138211520Y-78087849D01*
X138201030Y-78065671D01*
X138192765Y-78042571D01*
X138186804Y-78018773D01*
X138183204Y-77994504D01*
X138182000Y-77970000D01*
X138182000Y-76970000D01*
X138183204Y-76945496D01*
X138186804Y-76921227D01*
X138192765Y-76897429D01*
X138201030Y-76874329D01*
X138211520Y-76852151D01*
X138224133Y-76831107D01*
X138238747Y-76811402D01*
X138255223Y-76793223D01*
X138273402Y-76776747D01*
X138293107Y-76762133D01*
X138314151Y-76749520D01*
X138336329Y-76739030D01*
X138359429Y-76730765D01*
X138383227Y-76724804D01*
X138407496Y-76721204D01*
X138432000Y-76720000D01*
X139952000Y-76720000D01*
X139976504Y-76721204D01*
G37*
G04 #@! TD.AperFunction*
D15*
X139192000Y-80470000D03*
X139192000Y-83470000D03*
X139192000Y-86470000D03*
D16*
X146812000Y-71501000D03*
X144272000Y-71501000D03*
X141732000Y-71501000D03*
X139192000Y-71501000D03*
D17*
X136652000Y-71501000D03*
D18*
X120523000Y-76327000D03*
D19*
X117983000Y-76327000D03*
X107823000Y-76327000D03*
X105283000Y-76327000D03*
X102743000Y-76327000D03*
D20*
X107188000Y-85725000D03*
X101727000Y-86360000D03*
X99949000Y-84201000D03*
X123317000Y-77089000D03*
X120396000Y-86995000D03*
X128397000Y-86995000D03*
X120396000Y-85725000D03*
X129159000Y-80645000D03*
X139192000Y-74930000D03*
X136271000Y-74930000D03*
X131699000Y-80645000D03*
D21*
X106553000Y-86360000D02*
X107188000Y-85725000D01*
X101727000Y-86360000D02*
X106553000Y-86360000D01*
X94615000Y-85979000D02*
X94615000Y-88773000D01*
X99949000Y-84201000D02*
X96393000Y-84201000D01*
X96393000Y-84201000D02*
X94615000Y-85979000D01*
X120523000Y-77089000D02*
X123317000Y-77089000D01*
X120396000Y-86995000D02*
X128016000Y-86995000D01*
X128016000Y-86995000D02*
X128397000Y-86995000D01*
X120396000Y-85725000D02*
X126459000Y-85725000D01*
X126459000Y-80645000D02*
X129159000Y-80645000D01*
X139192000Y-74930000D02*
X136271000Y-74930000D01*
X132207000Y-80645000D02*
X134399000Y-80645000D01*
X132207000Y-80645000D02*
X131699000Y-80645000D01*
D22*
G36*
X125099429Y-70265012D02*
G01*
X124963365Y-70593501D01*
X124894000Y-70942223D01*
X124894000Y-71297777D01*
X124963365Y-71646499D01*
X125099429Y-71974988D01*
X125296965Y-72270621D01*
X125548379Y-72522035D01*
X125844012Y-72719571D01*
X126172501Y-72855635D01*
X126521223Y-72925000D01*
X126876777Y-72925000D01*
X127225499Y-72855635D01*
X127553988Y-72719571D01*
X127690933Y-72628067D01*
X127599429Y-72765012D01*
X127463365Y-73093501D01*
X127394000Y-73442223D01*
X127394000Y-73797777D01*
X127463365Y-74146499D01*
X127599429Y-74474988D01*
X127796965Y-74770621D01*
X128048379Y-75022035D01*
X128344012Y-75219571D01*
X128672501Y-75355635D01*
X129021223Y-75425000D01*
X129376777Y-75425000D01*
X129725499Y-75355635D01*
X130053988Y-75219571D01*
X130349621Y-75022035D01*
X130543595Y-74828061D01*
X135236000Y-74828061D01*
X135236000Y-75031939D01*
X135275774Y-75231898D01*
X135353795Y-75420256D01*
X135467063Y-75589774D01*
X135611226Y-75733937D01*
X135780744Y-75847205D01*
X135969102Y-75925226D01*
X136169061Y-75965000D01*
X136372939Y-75965000D01*
X136572898Y-75925226D01*
X136761256Y-75847205D01*
X136930774Y-75733937D01*
X136974711Y-75690000D01*
X138488289Y-75690000D01*
X138532226Y-75733937D01*
X138701744Y-75847205D01*
X138890102Y-75925226D01*
X139090061Y-75965000D01*
X139293939Y-75965000D01*
X139493898Y-75925226D01*
X139682256Y-75847205D01*
X139851774Y-75733937D01*
X139995937Y-75589774D01*
X140109205Y-75420256D01*
X140187226Y-75231898D01*
X140227000Y-75031939D01*
X140227000Y-74828061D01*
X140187226Y-74628102D01*
X140109205Y-74439744D01*
X139995937Y-74270226D01*
X139851774Y-74126063D01*
X139682256Y-74012795D01*
X139493898Y-73934774D01*
X139293939Y-73895000D01*
X139090061Y-73895000D01*
X138890102Y-73934774D01*
X138701744Y-74012795D01*
X138532226Y-74126063D01*
X138488289Y-74170000D01*
X136974711Y-74170000D01*
X136930774Y-74126063D01*
X136761256Y-74012795D01*
X136572898Y-73934774D01*
X136372939Y-73895000D01*
X136169061Y-73895000D01*
X135969102Y-73934774D01*
X135780744Y-74012795D01*
X135611226Y-74126063D01*
X135467063Y-74270226D01*
X135353795Y-74439744D01*
X135275774Y-74628102D01*
X135236000Y-74828061D01*
X130543595Y-74828061D01*
X130601035Y-74770621D01*
X130798571Y-74474988D01*
X130934635Y-74146499D01*
X131004000Y-73797777D01*
X131004000Y-73442223D01*
X130934635Y-73093501D01*
X130798571Y-72765012D01*
X130707067Y-72628067D01*
X130844012Y-72719571D01*
X131172501Y-72855635D01*
X131521223Y-72925000D01*
X131876777Y-72925000D01*
X132225499Y-72855635D01*
X132553988Y-72719571D01*
X132849621Y-72522035D01*
X133101035Y-72270621D01*
X133298571Y-71974988D01*
X133434635Y-71646499D01*
X133504000Y-71297777D01*
X133504000Y-70942223D01*
X133434635Y-70593501D01*
X133298571Y-70265012D01*
X133292549Y-70256000D01*
X135304705Y-70256000D01*
X135271463Y-70296506D01*
X135212498Y-70406820D01*
X135176188Y-70526518D01*
X135163928Y-70651000D01*
X135163928Y-72351000D01*
X135176188Y-72475482D01*
X135212498Y-72595180D01*
X135271463Y-72705494D01*
X135350815Y-72802185D01*
X135447506Y-72881537D01*
X135557820Y-72940502D01*
X135677518Y-72976812D01*
X135802000Y-72989072D01*
X137502000Y-72989072D01*
X137626482Y-72976812D01*
X137746180Y-72940502D01*
X137856494Y-72881537D01*
X137953185Y-72802185D01*
X138032537Y-72705494D01*
X138091502Y-72595180D01*
X138113513Y-72522620D01*
X138245368Y-72654475D01*
X138488589Y-72816990D01*
X138758842Y-72928932D01*
X139045740Y-72986000D01*
X139338260Y-72986000D01*
X139625158Y-72928932D01*
X139895411Y-72816990D01*
X140138632Y-72654475D01*
X140345475Y-72447632D01*
X140462000Y-72273240D01*
X140578525Y-72447632D01*
X140785368Y-72654475D01*
X141028589Y-72816990D01*
X141298842Y-72928932D01*
X141585740Y-72986000D01*
X141878260Y-72986000D01*
X142165158Y-72928932D01*
X142435411Y-72816990D01*
X142678632Y-72654475D01*
X142885475Y-72447632D01*
X143002000Y-72273240D01*
X143118525Y-72447632D01*
X143325368Y-72654475D01*
X143568589Y-72816990D01*
X143838842Y-72928932D01*
X144125740Y-72986000D01*
X144418260Y-72986000D01*
X144705158Y-72928932D01*
X144975411Y-72816990D01*
X145218632Y-72654475D01*
X145425475Y-72447632D01*
X145547195Y-72265466D01*
X145616822Y-72382355D01*
X145811731Y-72598588D01*
X146045080Y-72772641D01*
X146307901Y-72897825D01*
X146455110Y-72942476D01*
X146685000Y-72821155D01*
X146685000Y-71628000D01*
X146665000Y-71628000D01*
X146665000Y-71374000D01*
X146685000Y-71374000D01*
X146685000Y-71354000D01*
X146939000Y-71354000D01*
X146939000Y-71374000D01*
X146959000Y-71374000D01*
X146959000Y-71628000D01*
X146939000Y-71628000D01*
X146939000Y-72821155D01*
X147168890Y-72942476D01*
X147316099Y-72897825D01*
X147578920Y-72772641D01*
X147812269Y-72598588D01*
X148007178Y-72382355D01*
X148057000Y-72298715D01*
X148057001Y-89764000D01*
X116967000Y-89764000D01*
X116967000Y-89089716D01*
X126321889Y-89089716D01*
X126364933Y-89309740D01*
X126580320Y-89407123D01*
X126810567Y-89460615D01*
X127046826Y-89468160D01*
X127280017Y-89429468D01*
X127501179Y-89346027D01*
X127569067Y-89309740D01*
X127612111Y-89089716D01*
X134261889Y-89089716D01*
X134304933Y-89309740D01*
X134520320Y-89407123D01*
X134750567Y-89460615D01*
X134986826Y-89468160D01*
X135220017Y-89429468D01*
X135441179Y-89346027D01*
X135509067Y-89309740D01*
X135552111Y-89089716D01*
X134907000Y-88444605D01*
X134261889Y-89089716D01*
X127612111Y-89089716D01*
X126967000Y-88444605D01*
X126321889Y-89089716D01*
X116967000Y-89089716D01*
X116967000Y-85623061D01*
X119361000Y-85623061D01*
X119361000Y-85826939D01*
X119400774Y-86026898D01*
X119478795Y-86215256D01*
X119575510Y-86360000D01*
X119478795Y-86504744D01*
X119400774Y-86693102D01*
X119361000Y-86893061D01*
X119361000Y-87096939D01*
X119400774Y-87296898D01*
X119478795Y-87485256D01*
X119592063Y-87654774D01*
X119736226Y-87798937D01*
X119905744Y-87912205D01*
X120094102Y-87990226D01*
X120294061Y-88030000D01*
X120497939Y-88030000D01*
X120697898Y-87990226D01*
X120886256Y-87912205D01*
X121055774Y-87798937D01*
X121099711Y-87755000D01*
X125880634Y-87755000D01*
X125824877Y-87878320D01*
X125771385Y-88108567D01*
X125763840Y-88344826D01*
X125802532Y-88578017D01*
X125885973Y-88799179D01*
X125922260Y-88867067D01*
X126142284Y-88910111D01*
X126787395Y-88265000D01*
X126773253Y-88250858D01*
X126952858Y-88071253D01*
X126967000Y-88085395D01*
X126981143Y-88071253D01*
X127160748Y-88250858D01*
X127146605Y-88265000D01*
X127791716Y-88910111D01*
X128011740Y-88867067D01*
X128109123Y-88651680D01*
X128162615Y-88421433D01*
X128165061Y-88344826D01*
X133703840Y-88344826D01*
X133742532Y-88578017D01*
X133825973Y-88799179D01*
X133862260Y-88867067D01*
X134082284Y-88910111D01*
X134727395Y-88265000D01*
X135086605Y-88265000D01*
X135731716Y-88910111D01*
X135951740Y-88867067D01*
X136049123Y-88651680D01*
X136102615Y-88421433D01*
X136110160Y-88185174D01*
X136071468Y-87951983D01*
X135988027Y-87730821D01*
X135951740Y-87662933D01*
X135731716Y-87619889D01*
X135086605Y-88265000D01*
X134727395Y-88265000D01*
X134082284Y-87619889D01*
X133862260Y-87662933D01*
X133764877Y-87878320D01*
X133711385Y-88108567D01*
X133703840Y-88344826D01*
X128165061Y-88344826D01*
X128170160Y-88185174D01*
X128139271Y-87999012D01*
X128295061Y-88030000D01*
X128498939Y-88030000D01*
X128698898Y-87990226D01*
X128887256Y-87912205D01*
X129056774Y-87798937D01*
X129200937Y-87654774D01*
X129314205Y-87485256D01*
X129332833Y-87440284D01*
X134261889Y-87440284D01*
X134907000Y-88085395D01*
X135552111Y-87440284D01*
X135509067Y-87220260D01*
X135293680Y-87122877D01*
X135063433Y-87069385D01*
X134827174Y-87061840D01*
X134593983Y-87100532D01*
X134372821Y-87183973D01*
X134304933Y-87220260D01*
X134261889Y-87440284D01*
X129332833Y-87440284D01*
X129392226Y-87296898D01*
X129432000Y-87096939D01*
X129432000Y-86893061D01*
X129392226Y-86693102D01*
X129314205Y-86504744D01*
X129200937Y-86335226D01*
X129056774Y-86191063D01*
X128887256Y-86077795D01*
X128698898Y-85999774D01*
X128498939Y-85960000D01*
X128295061Y-85960000D01*
X128137532Y-85991334D01*
X128167000Y-85843190D01*
X128167000Y-85606810D01*
X133707000Y-85606810D01*
X133707000Y-85843190D01*
X133753116Y-86075027D01*
X133843574Y-86293413D01*
X133974899Y-86489955D01*
X134142045Y-86657101D01*
X134338587Y-86788426D01*
X134556973Y-86878884D01*
X134788810Y-86925000D01*
X135025190Y-86925000D01*
X135257027Y-86878884D01*
X135475413Y-86788426D01*
X135671955Y-86657101D01*
X135839101Y-86489955D01*
X135852434Y-86470000D01*
X137540299Y-86470000D01*
X137567040Y-86741507D01*
X137646236Y-87002581D01*
X137774843Y-87243188D01*
X137947919Y-87454081D01*
X138158812Y-87627157D01*
X138399419Y-87755764D01*
X138660493Y-87834960D01*
X138863963Y-87855000D01*
X139520037Y-87855000D01*
X139723507Y-87834960D01*
X139984581Y-87755764D01*
X140225188Y-87627157D01*
X140436081Y-87454081D01*
X140609157Y-87243188D01*
X140737764Y-87002581D01*
X140816960Y-86741507D01*
X140843701Y-86470000D01*
X140816960Y-86198493D01*
X140737764Y-85937419D01*
X140609157Y-85696812D01*
X140436081Y-85485919D01*
X140225188Y-85312843D01*
X139984581Y-85184236D01*
X139723507Y-85105040D01*
X139520037Y-85085000D01*
X138863963Y-85085000D01*
X138660493Y-85105040D01*
X138399419Y-85184236D01*
X138158812Y-85312843D01*
X137947919Y-85485919D01*
X137774843Y-85696812D01*
X137646236Y-85937419D01*
X137567040Y-86198493D01*
X137540299Y-86470000D01*
X135852434Y-86470000D01*
X135970426Y-86293413D01*
X136060884Y-86075027D01*
X136107000Y-85843190D01*
X136107000Y-85606810D01*
X136060884Y-85374973D01*
X135970426Y-85156587D01*
X135839101Y-84960045D01*
X135671955Y-84792899D01*
X135475413Y-84661574D01*
X135257027Y-84571116D01*
X135025190Y-84525000D01*
X134788810Y-84525000D01*
X134556973Y-84571116D01*
X134338587Y-84661574D01*
X134142045Y-84792899D01*
X133974899Y-84960045D01*
X133843574Y-85156587D01*
X133753116Y-85374973D01*
X133707000Y-85606810D01*
X128167000Y-85606810D01*
X128120884Y-85374973D01*
X128030426Y-85156587D01*
X127899101Y-84960045D01*
X127731955Y-84792899D01*
X127535413Y-84661574D01*
X127317027Y-84571116D01*
X127085190Y-84525000D01*
X126848810Y-84525000D01*
X126616973Y-84571116D01*
X126398587Y-84661574D01*
X126202045Y-84792899D01*
X126034899Y-84960045D01*
X126031588Y-84965000D01*
X124719139Y-84965000D01*
X124852519Y-84831620D01*
X125104648Y-84454283D01*
X125278317Y-84035009D01*
X125366853Y-83589910D01*
X125366853Y-83136090D01*
X125353073Y-83066810D01*
X125767000Y-83066810D01*
X125767000Y-83303190D01*
X125813116Y-83535027D01*
X125903574Y-83753413D01*
X126034899Y-83949955D01*
X126202045Y-84117101D01*
X126398587Y-84248426D01*
X126616973Y-84338884D01*
X126848810Y-84385000D01*
X127085190Y-84385000D01*
X127317027Y-84338884D01*
X127535413Y-84248426D01*
X127731955Y-84117101D01*
X127899101Y-83949955D01*
X128030426Y-83753413D01*
X128120884Y-83535027D01*
X128167000Y-83303190D01*
X128167000Y-83066810D01*
X133707000Y-83066810D01*
X133707000Y-83303190D01*
X133753116Y-83535027D01*
X133843574Y-83753413D01*
X133974899Y-83949955D01*
X134142045Y-84117101D01*
X134338587Y-84248426D01*
X134556973Y-84338884D01*
X134788810Y-84385000D01*
X135025190Y-84385000D01*
X135257027Y-84338884D01*
X135475413Y-84248426D01*
X135671955Y-84117101D01*
X135839101Y-83949955D01*
X135931824Y-83811185D01*
X137589682Y-83811185D01*
X137603827Y-83882684D01*
X137709858Y-84133868D01*
X137862855Y-84359540D01*
X138056939Y-84551028D01*
X138284651Y-84700972D01*
X138537240Y-84803611D01*
X138805000Y-84855000D01*
X139065000Y-84855000D01*
X139065000Y-83597000D01*
X139319000Y-83597000D01*
X139319000Y-84855000D01*
X139579000Y-84855000D01*
X139846760Y-84803611D01*
X140099349Y-84700972D01*
X140327061Y-84551028D01*
X140521145Y-84359540D01*
X140674142Y-84133868D01*
X140684335Y-84109721D01*
X141377000Y-84109721D01*
X141377000Y-84530279D01*
X141459047Y-84942756D01*
X141619988Y-85331302D01*
X141853637Y-85680983D01*
X142151017Y-85978363D01*
X142500698Y-86212012D01*
X142889244Y-86372953D01*
X143301721Y-86455000D01*
X143722279Y-86455000D01*
X144134756Y-86372953D01*
X144523302Y-86212012D01*
X144872983Y-85978363D01*
X145170363Y-85680983D01*
X145404012Y-85331302D01*
X145564953Y-84942756D01*
X145647000Y-84530279D01*
X145647000Y-84109721D01*
X145564953Y-83697244D01*
X145404012Y-83308698D01*
X145170363Y-82959017D01*
X144872983Y-82661637D01*
X144523302Y-82427988D01*
X144134756Y-82267047D01*
X143722279Y-82185000D01*
X143301721Y-82185000D01*
X142889244Y-82267047D01*
X142500698Y-82427988D01*
X142151017Y-82661637D01*
X141853637Y-82959017D01*
X141619988Y-83308698D01*
X141459047Y-83697244D01*
X141377000Y-84109721D01*
X140684335Y-84109721D01*
X140780173Y-83882684D01*
X140794318Y-83811185D01*
X140671656Y-83597000D01*
X139319000Y-83597000D01*
X139065000Y-83597000D01*
X137712344Y-83597000D01*
X137589682Y-83811185D01*
X135931824Y-83811185D01*
X135970426Y-83753413D01*
X136060884Y-83535027D01*
X136107000Y-83303190D01*
X136107000Y-83128815D01*
X137589682Y-83128815D01*
X137712344Y-83343000D01*
X139065000Y-83343000D01*
X139065000Y-82085000D01*
X139319000Y-82085000D01*
X139319000Y-83343000D01*
X140671656Y-83343000D01*
X140794318Y-83128815D01*
X140780173Y-83057316D01*
X140674142Y-82806132D01*
X140521145Y-82580460D01*
X140327061Y-82388972D01*
X140099349Y-82239028D01*
X139846760Y-82136389D01*
X139579000Y-82085000D01*
X139319000Y-82085000D01*
X139065000Y-82085000D01*
X138805000Y-82085000D01*
X138537240Y-82136389D01*
X138284651Y-82239028D01*
X138056939Y-82388972D01*
X137862855Y-82580460D01*
X137709858Y-82806132D01*
X137603827Y-83057316D01*
X137589682Y-83128815D01*
X136107000Y-83128815D01*
X136107000Y-83066810D01*
X136060884Y-82834973D01*
X135970426Y-82616587D01*
X135839101Y-82420045D01*
X135671955Y-82252899D01*
X135475413Y-82121574D01*
X135257027Y-82031116D01*
X135025190Y-81985000D01*
X134788810Y-81985000D01*
X134556973Y-82031116D01*
X134338587Y-82121574D01*
X134142045Y-82252899D01*
X133974899Y-82420045D01*
X133843574Y-82616587D01*
X133753116Y-82834973D01*
X133707000Y-83066810D01*
X128167000Y-83066810D01*
X128120884Y-82834973D01*
X128030426Y-82616587D01*
X127899101Y-82420045D01*
X127731955Y-82252899D01*
X127535413Y-82121574D01*
X127317027Y-82031116D01*
X127085190Y-81985000D01*
X126848810Y-81985000D01*
X126616973Y-82031116D01*
X126398587Y-82121574D01*
X126202045Y-82252899D01*
X126034899Y-82420045D01*
X125903574Y-82616587D01*
X125813116Y-82834973D01*
X125767000Y-83066810D01*
X125353073Y-83066810D01*
X125278317Y-82690991D01*
X125104648Y-82271717D01*
X124852519Y-81894380D01*
X124531620Y-81573481D01*
X124154283Y-81321352D01*
X123735009Y-81147683D01*
X123289910Y-81059147D01*
X122836090Y-81059147D01*
X122390991Y-81147683D01*
X121971717Y-81321352D01*
X121594380Y-81573481D01*
X121273481Y-81894380D01*
X121021352Y-82271717D01*
X120847683Y-82690991D01*
X120759147Y-83136090D01*
X120759147Y-83589910D01*
X120847683Y-84035009D01*
X121021352Y-84454283D01*
X121273481Y-84831620D01*
X121406861Y-84965000D01*
X121099711Y-84965000D01*
X121055774Y-84921063D01*
X120886256Y-84807795D01*
X120697898Y-84729774D01*
X120497939Y-84690000D01*
X120294061Y-84690000D01*
X120094102Y-84729774D01*
X119905744Y-84807795D01*
X119736226Y-84921063D01*
X119592063Y-85065226D01*
X119478795Y-85234744D01*
X119400774Y-85423102D01*
X119361000Y-85623061D01*
X116967000Y-85623061D01*
X116967000Y-80645000D01*
X125695323Y-80645000D01*
X125709997Y-80793986D01*
X125753454Y-80937247D01*
X125763928Y-80956842D01*
X125763928Y-81210000D01*
X125776188Y-81334482D01*
X125812498Y-81454180D01*
X125871463Y-81564494D01*
X125950815Y-81661185D01*
X126047506Y-81740537D01*
X126157820Y-81799502D01*
X126277518Y-81835812D01*
X126402000Y-81848072D01*
X127532000Y-81848072D01*
X127656482Y-81835812D01*
X127776180Y-81799502D01*
X127886494Y-81740537D01*
X127983185Y-81661185D01*
X128062537Y-81564494D01*
X128121502Y-81454180D01*
X128136421Y-81405000D01*
X128455289Y-81405000D01*
X128499226Y-81448937D01*
X128668744Y-81562205D01*
X128857102Y-81640226D01*
X129057061Y-81680000D01*
X129260939Y-81680000D01*
X129460898Y-81640226D01*
X129649256Y-81562205D01*
X129818774Y-81448937D01*
X129962937Y-81304774D01*
X130076205Y-81135256D01*
X130154226Y-80946898D01*
X130194000Y-80746939D01*
X130194000Y-80543061D01*
X130664000Y-80543061D01*
X130664000Y-80746939D01*
X130703774Y-80946898D01*
X130781795Y-81135256D01*
X130895063Y-81304774D01*
X131039226Y-81448937D01*
X131208744Y-81562205D01*
X131397102Y-81640226D01*
X131597061Y-81680000D01*
X131800939Y-81680000D01*
X132000898Y-81640226D01*
X132189256Y-81562205D01*
X132358774Y-81448937D01*
X132402711Y-81405000D01*
X133971588Y-81405000D01*
X133974899Y-81409955D01*
X134142045Y-81577101D01*
X134338587Y-81708426D01*
X134556973Y-81798884D01*
X134788810Y-81845000D01*
X135025190Y-81845000D01*
X135257027Y-81798884D01*
X135475413Y-81708426D01*
X135671955Y-81577101D01*
X135839101Y-81409955D01*
X135970426Y-81213413D01*
X136060884Y-80995027D01*
X136107000Y-80763190D01*
X136107000Y-80526810D01*
X136095700Y-80470000D01*
X137540299Y-80470000D01*
X137567040Y-80741507D01*
X137646236Y-81002581D01*
X137774843Y-81243188D01*
X137947919Y-81454081D01*
X138158812Y-81627157D01*
X138399419Y-81755764D01*
X138660493Y-81834960D01*
X138863963Y-81855000D01*
X139520037Y-81855000D01*
X139723507Y-81834960D01*
X139984581Y-81755764D01*
X140225188Y-81627157D01*
X140436081Y-81454081D01*
X140609157Y-81243188D01*
X140737764Y-81002581D01*
X140816960Y-80741507D01*
X140843701Y-80470000D01*
X140816960Y-80198493D01*
X140737764Y-79937419D01*
X140609157Y-79696812D01*
X140436081Y-79485919D01*
X140343234Y-79409721D01*
X141377000Y-79409721D01*
X141377000Y-79830279D01*
X141459047Y-80242756D01*
X141619988Y-80631302D01*
X141853637Y-80980983D01*
X142151017Y-81278363D01*
X142500698Y-81512012D01*
X142889244Y-81672953D01*
X143301721Y-81755000D01*
X143722279Y-81755000D01*
X144134756Y-81672953D01*
X144523302Y-81512012D01*
X144872983Y-81278363D01*
X145170363Y-80980983D01*
X145404012Y-80631302D01*
X145564953Y-80242756D01*
X145647000Y-79830279D01*
X145647000Y-79409721D01*
X145564953Y-78997244D01*
X145404012Y-78608698D01*
X145170363Y-78259017D01*
X144872983Y-77961637D01*
X144523302Y-77727988D01*
X144134756Y-77567047D01*
X143722279Y-77485000D01*
X143301721Y-77485000D01*
X142889244Y-77567047D01*
X142500698Y-77727988D01*
X142151017Y-77961637D01*
X141853637Y-78259017D01*
X141619988Y-78608698D01*
X141459047Y-78997244D01*
X141377000Y-79409721D01*
X140343234Y-79409721D01*
X140225188Y-79312843D01*
X139984581Y-79184236D01*
X139723507Y-79105040D01*
X139520037Y-79085000D01*
X138863963Y-79085000D01*
X138660493Y-79105040D01*
X138399419Y-79184236D01*
X138158812Y-79312843D01*
X137947919Y-79485919D01*
X137774843Y-79696812D01*
X137646236Y-79937419D01*
X137567040Y-80198493D01*
X137540299Y-80470000D01*
X136095700Y-80470000D01*
X136060884Y-80294973D01*
X135970426Y-80076587D01*
X135839101Y-79880045D01*
X135671955Y-79712899D01*
X135475413Y-79581574D01*
X135257027Y-79491116D01*
X135025190Y-79445000D01*
X134788810Y-79445000D01*
X134556973Y-79491116D01*
X134338587Y-79581574D01*
X134142045Y-79712899D01*
X133974899Y-79880045D01*
X133971588Y-79885000D01*
X132402711Y-79885000D01*
X132358774Y-79841063D01*
X132189256Y-79727795D01*
X132000898Y-79649774D01*
X131800939Y-79610000D01*
X131597061Y-79610000D01*
X131397102Y-79649774D01*
X131208744Y-79727795D01*
X131039226Y-79841063D01*
X130895063Y-79985226D01*
X130781795Y-80154744D01*
X130703774Y-80343102D01*
X130664000Y-80543061D01*
X130194000Y-80543061D01*
X130154226Y-80343102D01*
X130076205Y-80154744D01*
X129962937Y-79985226D01*
X129818774Y-79841063D01*
X129649256Y-79727795D01*
X129460898Y-79649774D01*
X129260939Y-79610000D01*
X129057061Y-79610000D01*
X128857102Y-79649774D01*
X128668744Y-79727795D01*
X128499226Y-79841063D01*
X128455289Y-79885000D01*
X128136421Y-79885000D01*
X128121502Y-79835820D01*
X128062537Y-79725506D01*
X127983185Y-79628815D01*
X127886494Y-79549463D01*
X127776180Y-79490498D01*
X127656482Y-79454188D01*
X127532000Y-79441928D01*
X126402000Y-79441928D01*
X126277518Y-79454188D01*
X126157820Y-79490498D01*
X126047506Y-79549463D01*
X125950815Y-79628815D01*
X125871463Y-79725506D01*
X125812498Y-79835820D01*
X125776188Y-79955518D01*
X125763928Y-80080000D01*
X125763928Y-80333158D01*
X125753454Y-80352753D01*
X125709997Y-80496014D01*
X125695323Y-80645000D01*
X116967000Y-80645000D01*
X116967000Y-77517173D01*
X116988558Y-77538731D01*
X117244063Y-77709454D01*
X117527965Y-77827050D01*
X117829353Y-77887000D01*
X118136647Y-77887000D01*
X118438035Y-77827050D01*
X118721937Y-77709454D01*
X118977442Y-77538731D01*
X119012502Y-77503671D01*
X119067463Y-77606494D01*
X119146815Y-77703185D01*
X119243506Y-77782537D01*
X119353820Y-77841502D01*
X119473518Y-77877812D01*
X119598000Y-77890072D01*
X120237250Y-77887000D01*
X120396000Y-77728250D01*
X120396000Y-76454000D01*
X120650000Y-76454000D01*
X120650000Y-77728250D01*
X120808750Y-77887000D01*
X121448000Y-77890072D01*
X121572482Y-77877812D01*
X121692180Y-77841502D01*
X121802494Y-77782537D01*
X121899185Y-77703185D01*
X121978537Y-77606494D01*
X122037502Y-77496180D01*
X122073812Y-77376482D01*
X122086072Y-77252000D01*
X122084717Y-76970000D01*
X137543928Y-76970000D01*
X137543928Y-77970000D01*
X137560992Y-78143254D01*
X137611528Y-78309850D01*
X137693595Y-78463386D01*
X137804038Y-78597962D01*
X137938614Y-78708405D01*
X138092150Y-78790472D01*
X138258746Y-78841008D01*
X138432000Y-78858072D01*
X139952000Y-78858072D01*
X140125254Y-78841008D01*
X140291850Y-78790472D01*
X140445386Y-78708405D01*
X140579962Y-78597962D01*
X140690405Y-78463386D01*
X140772472Y-78309850D01*
X140823008Y-78143254D01*
X140840072Y-77970000D01*
X140840072Y-76970000D01*
X140823008Y-76796746D01*
X140772472Y-76630150D01*
X140690405Y-76476614D01*
X140579962Y-76342038D01*
X140445386Y-76231595D01*
X140291850Y-76149528D01*
X140125254Y-76098992D01*
X139952000Y-76081928D01*
X138432000Y-76081928D01*
X138258746Y-76098992D01*
X138092150Y-76149528D01*
X137938614Y-76231595D01*
X137804038Y-76342038D01*
X137693595Y-76476614D01*
X137611528Y-76630150D01*
X137560992Y-76796746D01*
X137543928Y-76970000D01*
X122084717Y-76970000D01*
X122083000Y-76612750D01*
X121924250Y-76454000D01*
X120650000Y-76454000D01*
X120396000Y-76454000D01*
X120376000Y-76454000D01*
X120376000Y-76200000D01*
X120396000Y-76200000D01*
X120396000Y-74925750D01*
X120650000Y-74925750D01*
X120650000Y-76200000D01*
X121924250Y-76200000D01*
X122083000Y-76041250D01*
X122086072Y-75402000D01*
X122073812Y-75277518D01*
X122037502Y-75157820D01*
X121978537Y-75047506D01*
X121899185Y-74950815D01*
X121802494Y-74871463D01*
X121692180Y-74812498D01*
X121572482Y-74776188D01*
X121448000Y-74763928D01*
X120808750Y-74767000D01*
X120650000Y-74925750D01*
X120396000Y-74925750D01*
X120237250Y-74767000D01*
X119598000Y-74763928D01*
X119473518Y-74776188D01*
X119353820Y-74812498D01*
X119243506Y-74871463D01*
X119146815Y-74950815D01*
X119067463Y-75047506D01*
X119012502Y-75150329D01*
X118977442Y-75115269D01*
X118721937Y-74944546D01*
X118438035Y-74826950D01*
X118136647Y-74767000D01*
X117829353Y-74767000D01*
X117527965Y-74826950D01*
X117244063Y-74944546D01*
X116988558Y-75115269D01*
X116967000Y-75136827D01*
X116967000Y-70256000D01*
X125105451Y-70256000D01*
X125099429Y-70265012D01*
G37*
X125099429Y-70265012D02*
X124963365Y-70593501D01*
X124894000Y-70942223D01*
X124894000Y-71297777D01*
X124963365Y-71646499D01*
X125099429Y-71974988D01*
X125296965Y-72270621D01*
X125548379Y-72522035D01*
X125844012Y-72719571D01*
X126172501Y-72855635D01*
X126521223Y-72925000D01*
X126876777Y-72925000D01*
X127225499Y-72855635D01*
X127553988Y-72719571D01*
X127690933Y-72628067D01*
X127599429Y-72765012D01*
X127463365Y-73093501D01*
X127394000Y-73442223D01*
X127394000Y-73797777D01*
X127463365Y-74146499D01*
X127599429Y-74474988D01*
X127796965Y-74770621D01*
X128048379Y-75022035D01*
X128344012Y-75219571D01*
X128672501Y-75355635D01*
X129021223Y-75425000D01*
X129376777Y-75425000D01*
X129725499Y-75355635D01*
X130053988Y-75219571D01*
X130349621Y-75022035D01*
X130543595Y-74828061D01*
X135236000Y-74828061D01*
X135236000Y-75031939D01*
X135275774Y-75231898D01*
X135353795Y-75420256D01*
X135467063Y-75589774D01*
X135611226Y-75733937D01*
X135780744Y-75847205D01*
X135969102Y-75925226D01*
X136169061Y-75965000D01*
X136372939Y-75965000D01*
X136572898Y-75925226D01*
X136761256Y-75847205D01*
X136930774Y-75733937D01*
X136974711Y-75690000D01*
X138488289Y-75690000D01*
X138532226Y-75733937D01*
X138701744Y-75847205D01*
X138890102Y-75925226D01*
X139090061Y-75965000D01*
X139293939Y-75965000D01*
X139493898Y-75925226D01*
X139682256Y-75847205D01*
X139851774Y-75733937D01*
X139995937Y-75589774D01*
X140109205Y-75420256D01*
X140187226Y-75231898D01*
X140227000Y-75031939D01*
X140227000Y-74828061D01*
X140187226Y-74628102D01*
X140109205Y-74439744D01*
X139995937Y-74270226D01*
X139851774Y-74126063D01*
X139682256Y-74012795D01*
X139493898Y-73934774D01*
X139293939Y-73895000D01*
X139090061Y-73895000D01*
X138890102Y-73934774D01*
X138701744Y-74012795D01*
X138532226Y-74126063D01*
X138488289Y-74170000D01*
X136974711Y-74170000D01*
X136930774Y-74126063D01*
X136761256Y-74012795D01*
X136572898Y-73934774D01*
X136372939Y-73895000D01*
X136169061Y-73895000D01*
X135969102Y-73934774D01*
X135780744Y-74012795D01*
X135611226Y-74126063D01*
X135467063Y-74270226D01*
X135353795Y-74439744D01*
X135275774Y-74628102D01*
X135236000Y-74828061D01*
X130543595Y-74828061D01*
X130601035Y-74770621D01*
X130798571Y-74474988D01*
X130934635Y-74146499D01*
X131004000Y-73797777D01*
X131004000Y-73442223D01*
X130934635Y-73093501D01*
X130798571Y-72765012D01*
X130707067Y-72628067D01*
X130844012Y-72719571D01*
X131172501Y-72855635D01*
X131521223Y-72925000D01*
X131876777Y-72925000D01*
X132225499Y-72855635D01*
X132553988Y-72719571D01*
X132849621Y-72522035D01*
X133101035Y-72270621D01*
X133298571Y-71974988D01*
X133434635Y-71646499D01*
X133504000Y-71297777D01*
X133504000Y-70942223D01*
X133434635Y-70593501D01*
X133298571Y-70265012D01*
X133292549Y-70256000D01*
X135304705Y-70256000D01*
X135271463Y-70296506D01*
X135212498Y-70406820D01*
X135176188Y-70526518D01*
X135163928Y-70651000D01*
X135163928Y-72351000D01*
X135176188Y-72475482D01*
X135212498Y-72595180D01*
X135271463Y-72705494D01*
X135350815Y-72802185D01*
X135447506Y-72881537D01*
X135557820Y-72940502D01*
X135677518Y-72976812D01*
X135802000Y-72989072D01*
X137502000Y-72989072D01*
X137626482Y-72976812D01*
X137746180Y-72940502D01*
X137856494Y-72881537D01*
X137953185Y-72802185D01*
X138032537Y-72705494D01*
X138091502Y-72595180D01*
X138113513Y-72522620D01*
X138245368Y-72654475D01*
X138488589Y-72816990D01*
X138758842Y-72928932D01*
X139045740Y-72986000D01*
X139338260Y-72986000D01*
X139625158Y-72928932D01*
X139895411Y-72816990D01*
X140138632Y-72654475D01*
X140345475Y-72447632D01*
X140462000Y-72273240D01*
X140578525Y-72447632D01*
X140785368Y-72654475D01*
X141028589Y-72816990D01*
X141298842Y-72928932D01*
X141585740Y-72986000D01*
X141878260Y-72986000D01*
X142165158Y-72928932D01*
X142435411Y-72816990D01*
X142678632Y-72654475D01*
X142885475Y-72447632D01*
X143002000Y-72273240D01*
X143118525Y-72447632D01*
X143325368Y-72654475D01*
X143568589Y-72816990D01*
X143838842Y-72928932D01*
X144125740Y-72986000D01*
X144418260Y-72986000D01*
X144705158Y-72928932D01*
X144975411Y-72816990D01*
X145218632Y-72654475D01*
X145425475Y-72447632D01*
X145547195Y-72265466D01*
X145616822Y-72382355D01*
X145811731Y-72598588D01*
X146045080Y-72772641D01*
X146307901Y-72897825D01*
X146455110Y-72942476D01*
X146685000Y-72821155D01*
X146685000Y-71628000D01*
X146665000Y-71628000D01*
X146665000Y-71374000D01*
X146685000Y-71374000D01*
X146685000Y-71354000D01*
X146939000Y-71354000D01*
X146939000Y-71374000D01*
X146959000Y-71374000D01*
X146959000Y-71628000D01*
X146939000Y-71628000D01*
X146939000Y-72821155D01*
X147168890Y-72942476D01*
X147316099Y-72897825D01*
X147578920Y-72772641D01*
X147812269Y-72598588D01*
X148007178Y-72382355D01*
X148057000Y-72298715D01*
X148057001Y-89764000D01*
X116967000Y-89764000D01*
X116967000Y-89089716D01*
X126321889Y-89089716D01*
X126364933Y-89309740D01*
X126580320Y-89407123D01*
X126810567Y-89460615D01*
X127046826Y-89468160D01*
X127280017Y-89429468D01*
X127501179Y-89346027D01*
X127569067Y-89309740D01*
X127612111Y-89089716D01*
X134261889Y-89089716D01*
X134304933Y-89309740D01*
X134520320Y-89407123D01*
X134750567Y-89460615D01*
X134986826Y-89468160D01*
X135220017Y-89429468D01*
X135441179Y-89346027D01*
X135509067Y-89309740D01*
X135552111Y-89089716D01*
X134907000Y-88444605D01*
X134261889Y-89089716D01*
X127612111Y-89089716D01*
X126967000Y-88444605D01*
X126321889Y-89089716D01*
X116967000Y-89089716D01*
X116967000Y-85623061D01*
X119361000Y-85623061D01*
X119361000Y-85826939D01*
X119400774Y-86026898D01*
X119478795Y-86215256D01*
X119575510Y-86360000D01*
X119478795Y-86504744D01*
X119400774Y-86693102D01*
X119361000Y-86893061D01*
X119361000Y-87096939D01*
X119400774Y-87296898D01*
X119478795Y-87485256D01*
X119592063Y-87654774D01*
X119736226Y-87798937D01*
X119905744Y-87912205D01*
X120094102Y-87990226D01*
X120294061Y-88030000D01*
X120497939Y-88030000D01*
X120697898Y-87990226D01*
X120886256Y-87912205D01*
X121055774Y-87798937D01*
X121099711Y-87755000D01*
X125880634Y-87755000D01*
X125824877Y-87878320D01*
X125771385Y-88108567D01*
X125763840Y-88344826D01*
X125802532Y-88578017D01*
X125885973Y-88799179D01*
X125922260Y-88867067D01*
X126142284Y-88910111D01*
X126787395Y-88265000D01*
X126773253Y-88250858D01*
X126952858Y-88071253D01*
X126967000Y-88085395D01*
X126981143Y-88071253D01*
X127160748Y-88250858D01*
X127146605Y-88265000D01*
X127791716Y-88910111D01*
X128011740Y-88867067D01*
X128109123Y-88651680D01*
X128162615Y-88421433D01*
X128165061Y-88344826D01*
X133703840Y-88344826D01*
X133742532Y-88578017D01*
X133825973Y-88799179D01*
X133862260Y-88867067D01*
X134082284Y-88910111D01*
X134727395Y-88265000D01*
X135086605Y-88265000D01*
X135731716Y-88910111D01*
X135951740Y-88867067D01*
X136049123Y-88651680D01*
X136102615Y-88421433D01*
X136110160Y-88185174D01*
X136071468Y-87951983D01*
X135988027Y-87730821D01*
X135951740Y-87662933D01*
X135731716Y-87619889D01*
X135086605Y-88265000D01*
X134727395Y-88265000D01*
X134082284Y-87619889D01*
X133862260Y-87662933D01*
X133764877Y-87878320D01*
X133711385Y-88108567D01*
X133703840Y-88344826D01*
X128165061Y-88344826D01*
X128170160Y-88185174D01*
X128139271Y-87999012D01*
X128295061Y-88030000D01*
X128498939Y-88030000D01*
X128698898Y-87990226D01*
X128887256Y-87912205D01*
X129056774Y-87798937D01*
X129200937Y-87654774D01*
X129314205Y-87485256D01*
X129332833Y-87440284D01*
X134261889Y-87440284D01*
X134907000Y-88085395D01*
X135552111Y-87440284D01*
X135509067Y-87220260D01*
X135293680Y-87122877D01*
X135063433Y-87069385D01*
X134827174Y-87061840D01*
X134593983Y-87100532D01*
X134372821Y-87183973D01*
X134304933Y-87220260D01*
X134261889Y-87440284D01*
X129332833Y-87440284D01*
X129392226Y-87296898D01*
X129432000Y-87096939D01*
X129432000Y-86893061D01*
X129392226Y-86693102D01*
X129314205Y-86504744D01*
X129200937Y-86335226D01*
X129056774Y-86191063D01*
X128887256Y-86077795D01*
X128698898Y-85999774D01*
X128498939Y-85960000D01*
X128295061Y-85960000D01*
X128137532Y-85991334D01*
X128167000Y-85843190D01*
X128167000Y-85606810D01*
X133707000Y-85606810D01*
X133707000Y-85843190D01*
X133753116Y-86075027D01*
X133843574Y-86293413D01*
X133974899Y-86489955D01*
X134142045Y-86657101D01*
X134338587Y-86788426D01*
X134556973Y-86878884D01*
X134788810Y-86925000D01*
X135025190Y-86925000D01*
X135257027Y-86878884D01*
X135475413Y-86788426D01*
X135671955Y-86657101D01*
X135839101Y-86489955D01*
X135852434Y-86470000D01*
X137540299Y-86470000D01*
X137567040Y-86741507D01*
X137646236Y-87002581D01*
X137774843Y-87243188D01*
X137947919Y-87454081D01*
X138158812Y-87627157D01*
X138399419Y-87755764D01*
X138660493Y-87834960D01*
X138863963Y-87855000D01*
X139520037Y-87855000D01*
X139723507Y-87834960D01*
X139984581Y-87755764D01*
X140225188Y-87627157D01*
X140436081Y-87454081D01*
X140609157Y-87243188D01*
X140737764Y-87002581D01*
X140816960Y-86741507D01*
X140843701Y-86470000D01*
X140816960Y-86198493D01*
X140737764Y-85937419D01*
X140609157Y-85696812D01*
X140436081Y-85485919D01*
X140225188Y-85312843D01*
X139984581Y-85184236D01*
X139723507Y-85105040D01*
X139520037Y-85085000D01*
X138863963Y-85085000D01*
X138660493Y-85105040D01*
X138399419Y-85184236D01*
X138158812Y-85312843D01*
X137947919Y-85485919D01*
X137774843Y-85696812D01*
X137646236Y-85937419D01*
X137567040Y-86198493D01*
X137540299Y-86470000D01*
X135852434Y-86470000D01*
X135970426Y-86293413D01*
X136060884Y-86075027D01*
X136107000Y-85843190D01*
X136107000Y-85606810D01*
X136060884Y-85374973D01*
X135970426Y-85156587D01*
X135839101Y-84960045D01*
X135671955Y-84792899D01*
X135475413Y-84661574D01*
X135257027Y-84571116D01*
X135025190Y-84525000D01*
X134788810Y-84525000D01*
X134556973Y-84571116D01*
X134338587Y-84661574D01*
X134142045Y-84792899D01*
X133974899Y-84960045D01*
X133843574Y-85156587D01*
X133753116Y-85374973D01*
X133707000Y-85606810D01*
X128167000Y-85606810D01*
X128120884Y-85374973D01*
X128030426Y-85156587D01*
X127899101Y-84960045D01*
X127731955Y-84792899D01*
X127535413Y-84661574D01*
X127317027Y-84571116D01*
X127085190Y-84525000D01*
X126848810Y-84525000D01*
X126616973Y-84571116D01*
X126398587Y-84661574D01*
X126202045Y-84792899D01*
X126034899Y-84960045D01*
X126031588Y-84965000D01*
X124719139Y-84965000D01*
X124852519Y-84831620D01*
X125104648Y-84454283D01*
X125278317Y-84035009D01*
X125366853Y-83589910D01*
X125366853Y-83136090D01*
X125353073Y-83066810D01*
X125767000Y-83066810D01*
X125767000Y-83303190D01*
X125813116Y-83535027D01*
X125903574Y-83753413D01*
X126034899Y-83949955D01*
X126202045Y-84117101D01*
X126398587Y-84248426D01*
X126616973Y-84338884D01*
X126848810Y-84385000D01*
X127085190Y-84385000D01*
X127317027Y-84338884D01*
X127535413Y-84248426D01*
X127731955Y-84117101D01*
X127899101Y-83949955D01*
X128030426Y-83753413D01*
X128120884Y-83535027D01*
X128167000Y-83303190D01*
X128167000Y-83066810D01*
X133707000Y-83066810D01*
X133707000Y-83303190D01*
X133753116Y-83535027D01*
X133843574Y-83753413D01*
X133974899Y-83949955D01*
X134142045Y-84117101D01*
X134338587Y-84248426D01*
X134556973Y-84338884D01*
X134788810Y-84385000D01*
X135025190Y-84385000D01*
X135257027Y-84338884D01*
X135475413Y-84248426D01*
X135671955Y-84117101D01*
X135839101Y-83949955D01*
X135931824Y-83811185D01*
X137589682Y-83811185D01*
X137603827Y-83882684D01*
X137709858Y-84133868D01*
X137862855Y-84359540D01*
X138056939Y-84551028D01*
X138284651Y-84700972D01*
X138537240Y-84803611D01*
X138805000Y-84855000D01*
X139065000Y-84855000D01*
X139065000Y-83597000D01*
X139319000Y-83597000D01*
X139319000Y-84855000D01*
X139579000Y-84855000D01*
X139846760Y-84803611D01*
X140099349Y-84700972D01*
X140327061Y-84551028D01*
X140521145Y-84359540D01*
X140674142Y-84133868D01*
X140684335Y-84109721D01*
X141377000Y-84109721D01*
X141377000Y-84530279D01*
X141459047Y-84942756D01*
X141619988Y-85331302D01*
X141853637Y-85680983D01*
X142151017Y-85978363D01*
X142500698Y-86212012D01*
X142889244Y-86372953D01*
X143301721Y-86455000D01*
X143722279Y-86455000D01*
X144134756Y-86372953D01*
X144523302Y-86212012D01*
X144872983Y-85978363D01*
X145170363Y-85680983D01*
X145404012Y-85331302D01*
X145564953Y-84942756D01*
X145647000Y-84530279D01*
X145647000Y-84109721D01*
X145564953Y-83697244D01*
X145404012Y-83308698D01*
X145170363Y-82959017D01*
X144872983Y-82661637D01*
X144523302Y-82427988D01*
X144134756Y-82267047D01*
X143722279Y-82185000D01*
X143301721Y-82185000D01*
X142889244Y-82267047D01*
X142500698Y-82427988D01*
X142151017Y-82661637D01*
X141853637Y-82959017D01*
X141619988Y-83308698D01*
X141459047Y-83697244D01*
X141377000Y-84109721D01*
X140684335Y-84109721D01*
X140780173Y-83882684D01*
X140794318Y-83811185D01*
X140671656Y-83597000D01*
X139319000Y-83597000D01*
X139065000Y-83597000D01*
X137712344Y-83597000D01*
X137589682Y-83811185D01*
X135931824Y-83811185D01*
X135970426Y-83753413D01*
X136060884Y-83535027D01*
X136107000Y-83303190D01*
X136107000Y-83128815D01*
X137589682Y-83128815D01*
X137712344Y-83343000D01*
X139065000Y-83343000D01*
X139065000Y-82085000D01*
X139319000Y-82085000D01*
X139319000Y-83343000D01*
X140671656Y-83343000D01*
X140794318Y-83128815D01*
X140780173Y-83057316D01*
X140674142Y-82806132D01*
X140521145Y-82580460D01*
X140327061Y-82388972D01*
X140099349Y-82239028D01*
X139846760Y-82136389D01*
X139579000Y-82085000D01*
X139319000Y-82085000D01*
X139065000Y-82085000D01*
X138805000Y-82085000D01*
X138537240Y-82136389D01*
X138284651Y-82239028D01*
X138056939Y-82388972D01*
X137862855Y-82580460D01*
X137709858Y-82806132D01*
X137603827Y-83057316D01*
X137589682Y-83128815D01*
X136107000Y-83128815D01*
X136107000Y-83066810D01*
X136060884Y-82834973D01*
X135970426Y-82616587D01*
X135839101Y-82420045D01*
X135671955Y-82252899D01*
X135475413Y-82121574D01*
X135257027Y-82031116D01*
X135025190Y-81985000D01*
X134788810Y-81985000D01*
X134556973Y-82031116D01*
X134338587Y-82121574D01*
X134142045Y-82252899D01*
X133974899Y-82420045D01*
X133843574Y-82616587D01*
X133753116Y-82834973D01*
X133707000Y-83066810D01*
X128167000Y-83066810D01*
X128120884Y-82834973D01*
X128030426Y-82616587D01*
X127899101Y-82420045D01*
X127731955Y-82252899D01*
X127535413Y-82121574D01*
X127317027Y-82031116D01*
X127085190Y-81985000D01*
X126848810Y-81985000D01*
X126616973Y-82031116D01*
X126398587Y-82121574D01*
X126202045Y-82252899D01*
X126034899Y-82420045D01*
X125903574Y-82616587D01*
X125813116Y-82834973D01*
X125767000Y-83066810D01*
X125353073Y-83066810D01*
X125278317Y-82690991D01*
X125104648Y-82271717D01*
X124852519Y-81894380D01*
X124531620Y-81573481D01*
X124154283Y-81321352D01*
X123735009Y-81147683D01*
X123289910Y-81059147D01*
X122836090Y-81059147D01*
X122390991Y-81147683D01*
X121971717Y-81321352D01*
X121594380Y-81573481D01*
X121273481Y-81894380D01*
X121021352Y-82271717D01*
X120847683Y-82690991D01*
X120759147Y-83136090D01*
X120759147Y-83589910D01*
X120847683Y-84035009D01*
X121021352Y-84454283D01*
X121273481Y-84831620D01*
X121406861Y-84965000D01*
X121099711Y-84965000D01*
X121055774Y-84921063D01*
X120886256Y-84807795D01*
X120697898Y-84729774D01*
X120497939Y-84690000D01*
X120294061Y-84690000D01*
X120094102Y-84729774D01*
X119905744Y-84807795D01*
X119736226Y-84921063D01*
X119592063Y-85065226D01*
X119478795Y-85234744D01*
X119400774Y-85423102D01*
X119361000Y-85623061D01*
X116967000Y-85623061D01*
X116967000Y-80645000D01*
X125695323Y-80645000D01*
X125709997Y-80793986D01*
X125753454Y-80937247D01*
X125763928Y-80956842D01*
X125763928Y-81210000D01*
X125776188Y-81334482D01*
X125812498Y-81454180D01*
X125871463Y-81564494D01*
X125950815Y-81661185D01*
X126047506Y-81740537D01*
X126157820Y-81799502D01*
X126277518Y-81835812D01*
X126402000Y-81848072D01*
X127532000Y-81848072D01*
X127656482Y-81835812D01*
X127776180Y-81799502D01*
X127886494Y-81740537D01*
X127983185Y-81661185D01*
X128062537Y-81564494D01*
X128121502Y-81454180D01*
X128136421Y-81405000D01*
X128455289Y-81405000D01*
X128499226Y-81448937D01*
X128668744Y-81562205D01*
X128857102Y-81640226D01*
X129057061Y-81680000D01*
X129260939Y-81680000D01*
X129460898Y-81640226D01*
X129649256Y-81562205D01*
X129818774Y-81448937D01*
X129962937Y-81304774D01*
X130076205Y-81135256D01*
X130154226Y-80946898D01*
X130194000Y-80746939D01*
X130194000Y-80543061D01*
X130664000Y-80543061D01*
X130664000Y-80746939D01*
X130703774Y-80946898D01*
X130781795Y-81135256D01*
X130895063Y-81304774D01*
X131039226Y-81448937D01*
X131208744Y-81562205D01*
X131397102Y-81640226D01*
X131597061Y-81680000D01*
X131800939Y-81680000D01*
X132000898Y-81640226D01*
X132189256Y-81562205D01*
X132358774Y-81448937D01*
X132402711Y-81405000D01*
X133971588Y-81405000D01*
X133974899Y-81409955D01*
X134142045Y-81577101D01*
X134338587Y-81708426D01*
X134556973Y-81798884D01*
X134788810Y-81845000D01*
X135025190Y-81845000D01*
X135257027Y-81798884D01*
X135475413Y-81708426D01*
X135671955Y-81577101D01*
X135839101Y-81409955D01*
X135970426Y-81213413D01*
X136060884Y-80995027D01*
X136107000Y-80763190D01*
X136107000Y-80526810D01*
X136095700Y-80470000D01*
X137540299Y-80470000D01*
X137567040Y-80741507D01*
X137646236Y-81002581D01*
X137774843Y-81243188D01*
X137947919Y-81454081D01*
X138158812Y-81627157D01*
X138399419Y-81755764D01*
X138660493Y-81834960D01*
X138863963Y-81855000D01*
X139520037Y-81855000D01*
X139723507Y-81834960D01*
X139984581Y-81755764D01*
X140225188Y-81627157D01*
X140436081Y-81454081D01*
X140609157Y-81243188D01*
X140737764Y-81002581D01*
X140816960Y-80741507D01*
X140843701Y-80470000D01*
X140816960Y-80198493D01*
X140737764Y-79937419D01*
X140609157Y-79696812D01*
X140436081Y-79485919D01*
X140343234Y-79409721D01*
X141377000Y-79409721D01*
X141377000Y-79830279D01*
X141459047Y-80242756D01*
X141619988Y-80631302D01*
X141853637Y-80980983D01*
X142151017Y-81278363D01*
X142500698Y-81512012D01*
X142889244Y-81672953D01*
X143301721Y-81755000D01*
X143722279Y-81755000D01*
X144134756Y-81672953D01*
X144523302Y-81512012D01*
X144872983Y-81278363D01*
X145170363Y-80980983D01*
X145404012Y-80631302D01*
X145564953Y-80242756D01*
X145647000Y-79830279D01*
X145647000Y-79409721D01*
X145564953Y-78997244D01*
X145404012Y-78608698D01*
X145170363Y-78259017D01*
X144872983Y-77961637D01*
X144523302Y-77727988D01*
X144134756Y-77567047D01*
X143722279Y-77485000D01*
X143301721Y-77485000D01*
X142889244Y-77567047D01*
X142500698Y-77727988D01*
X142151017Y-77961637D01*
X141853637Y-78259017D01*
X141619988Y-78608698D01*
X141459047Y-78997244D01*
X141377000Y-79409721D01*
X140343234Y-79409721D01*
X140225188Y-79312843D01*
X139984581Y-79184236D01*
X139723507Y-79105040D01*
X139520037Y-79085000D01*
X138863963Y-79085000D01*
X138660493Y-79105040D01*
X138399419Y-79184236D01*
X138158812Y-79312843D01*
X137947919Y-79485919D01*
X137774843Y-79696812D01*
X137646236Y-79937419D01*
X137567040Y-80198493D01*
X137540299Y-80470000D01*
X136095700Y-80470000D01*
X136060884Y-80294973D01*
X135970426Y-80076587D01*
X135839101Y-79880045D01*
X135671955Y-79712899D01*
X135475413Y-79581574D01*
X135257027Y-79491116D01*
X135025190Y-79445000D01*
X134788810Y-79445000D01*
X134556973Y-79491116D01*
X134338587Y-79581574D01*
X134142045Y-79712899D01*
X133974899Y-79880045D01*
X133971588Y-79885000D01*
X132402711Y-79885000D01*
X132358774Y-79841063D01*
X132189256Y-79727795D01*
X132000898Y-79649774D01*
X131800939Y-79610000D01*
X131597061Y-79610000D01*
X131397102Y-79649774D01*
X131208744Y-79727795D01*
X131039226Y-79841063D01*
X130895063Y-79985226D01*
X130781795Y-80154744D01*
X130703774Y-80343102D01*
X130664000Y-80543061D01*
X130194000Y-80543061D01*
X130154226Y-80343102D01*
X130076205Y-80154744D01*
X129962937Y-79985226D01*
X129818774Y-79841063D01*
X129649256Y-79727795D01*
X129460898Y-79649774D01*
X129260939Y-79610000D01*
X129057061Y-79610000D01*
X128857102Y-79649774D01*
X128668744Y-79727795D01*
X128499226Y-79841063D01*
X128455289Y-79885000D01*
X128136421Y-79885000D01*
X128121502Y-79835820D01*
X128062537Y-79725506D01*
X127983185Y-79628815D01*
X127886494Y-79549463D01*
X127776180Y-79490498D01*
X127656482Y-79454188D01*
X127532000Y-79441928D01*
X126402000Y-79441928D01*
X126277518Y-79454188D01*
X126157820Y-79490498D01*
X126047506Y-79549463D01*
X125950815Y-79628815D01*
X125871463Y-79725506D01*
X125812498Y-79835820D01*
X125776188Y-79955518D01*
X125763928Y-80080000D01*
X125763928Y-80333158D01*
X125753454Y-80352753D01*
X125709997Y-80496014D01*
X125695323Y-80645000D01*
X116967000Y-80645000D01*
X116967000Y-77517173D01*
X116988558Y-77538731D01*
X117244063Y-77709454D01*
X117527965Y-77827050D01*
X117829353Y-77887000D01*
X118136647Y-77887000D01*
X118438035Y-77827050D01*
X118721937Y-77709454D01*
X118977442Y-77538731D01*
X119012502Y-77503671D01*
X119067463Y-77606494D01*
X119146815Y-77703185D01*
X119243506Y-77782537D01*
X119353820Y-77841502D01*
X119473518Y-77877812D01*
X119598000Y-77890072D01*
X120237250Y-77887000D01*
X120396000Y-77728250D01*
X120396000Y-76454000D01*
X120650000Y-76454000D01*
X120650000Y-77728250D01*
X120808750Y-77887000D01*
X121448000Y-77890072D01*
X121572482Y-77877812D01*
X121692180Y-77841502D01*
X121802494Y-77782537D01*
X121899185Y-77703185D01*
X121978537Y-77606494D01*
X122037502Y-77496180D01*
X122073812Y-77376482D01*
X122086072Y-77252000D01*
X122084717Y-76970000D01*
X137543928Y-76970000D01*
X137543928Y-77970000D01*
X137560992Y-78143254D01*
X137611528Y-78309850D01*
X137693595Y-78463386D01*
X137804038Y-78597962D01*
X137938614Y-78708405D01*
X138092150Y-78790472D01*
X138258746Y-78841008D01*
X138432000Y-78858072D01*
X139952000Y-78858072D01*
X140125254Y-78841008D01*
X140291850Y-78790472D01*
X140445386Y-78708405D01*
X140579962Y-78597962D01*
X140690405Y-78463386D01*
X140772472Y-78309850D01*
X140823008Y-78143254D01*
X140840072Y-77970000D01*
X140840072Y-76970000D01*
X140823008Y-76796746D01*
X140772472Y-76630150D01*
X140690405Y-76476614D01*
X140579962Y-76342038D01*
X140445386Y-76231595D01*
X140291850Y-76149528D01*
X140125254Y-76098992D01*
X139952000Y-76081928D01*
X138432000Y-76081928D01*
X138258746Y-76098992D01*
X138092150Y-76149528D01*
X137938614Y-76231595D01*
X137804038Y-76342038D01*
X137693595Y-76476614D01*
X137611528Y-76630150D01*
X137560992Y-76796746D01*
X137543928Y-76970000D01*
X122084717Y-76970000D01*
X122083000Y-76612750D01*
X121924250Y-76454000D01*
X120650000Y-76454000D01*
X120396000Y-76454000D01*
X120376000Y-76454000D01*
X120376000Y-76200000D01*
X120396000Y-76200000D01*
X120396000Y-74925750D01*
X120650000Y-74925750D01*
X120650000Y-76200000D01*
X121924250Y-76200000D01*
X122083000Y-76041250D01*
X122086072Y-75402000D01*
X122073812Y-75277518D01*
X122037502Y-75157820D01*
X121978537Y-75047506D01*
X121899185Y-74950815D01*
X121802494Y-74871463D01*
X121692180Y-74812498D01*
X121572482Y-74776188D01*
X121448000Y-74763928D01*
X120808750Y-74767000D01*
X120650000Y-74925750D01*
X120396000Y-74925750D01*
X120237250Y-74767000D01*
X119598000Y-74763928D01*
X119473518Y-74776188D01*
X119353820Y-74812498D01*
X119243506Y-74871463D01*
X119146815Y-74950815D01*
X119067463Y-75047506D01*
X119012502Y-75150329D01*
X118977442Y-75115269D01*
X118721937Y-74944546D01*
X118438035Y-74826950D01*
X118136647Y-74767000D01*
X117829353Y-74767000D01*
X117527965Y-74826950D01*
X117244063Y-74944546D01*
X116988558Y-75115269D01*
X116967000Y-75136827D01*
X116967000Y-70256000D01*
X125105451Y-70256000D01*
X125099429Y-70265012D01*
M02*
