M48
; DRILL file {KiCad (5.1.5)-3} date 18/08/2020 01:18:42
; FORMAT={-:-/ absolute / inch / decimal}
; #@! TF.CreationDate,2020-08-18T01:18:42-04:00
; #@! TF.GenerationSoftware,Kicad,Pcbnew,(5.1.5)-3
; #@! TF.FileFunction,Plated,1,2,PTH
FMAT,2
INCH
T1C0.0157
T2C0.0394
T3C0.0402
T4C0.0472
%
G90
G05
T1
X5.2978Y-3.8344
X5.2981Y-4.1113
T2
X5.2257Y-3.0623
X5.2257Y-3.1613
X5.2257Y-4.7613
X5.2257Y-4.8603
X5.3257Y-3.0623
X5.3257Y-3.1613
X5.3257Y-4.7613
X5.3257Y-4.8603
X5.4257Y-3.0623
X5.4257Y-3.1613
X5.4257Y-4.7613
X5.4257Y-4.8603
X5.5257Y-3.0623
X5.5257Y-3.1613
X5.5257Y-4.7613
X5.5257Y-4.8603
X5.6257Y-3.0623
X5.6257Y-3.1613
X5.6257Y-4.7613
X5.6257Y-4.8603
X5.7257Y-3.0623
X5.7257Y-3.1613
X5.7257Y-4.7613
X5.7257Y-4.8603
X5.8257Y-3.0623
X5.8257Y-3.1613
X5.8257Y-4.7613
X5.8257Y-4.8603
X5.9257Y-3.0623
X5.9257Y-3.1613
X5.9257Y-4.7613
X5.9257Y-4.8603
X6.0257Y-3.0623
X6.0257Y-3.1613
X6.0257Y-4.7613
X6.0257Y-4.8603
X6.1257Y-3.0623
X6.1257Y-3.1613
X6.1257Y-4.7613
X6.1257Y-4.8603
T3
X5.8498Y-3.7242
X5.8498Y-3.8423
X5.8498Y-3.9604
X5.8498Y-4.0785
X5.8498Y-4.1966
T4
X5.3978Y-3.4327
X5.1981Y-4.4899
X6.0854Y-3.911
X5.1978Y-3.4327
X5.2978Y-3.4327
X5.2981Y-4.4899
X5.3981Y-4.4899
X6.0854Y-4.011
T0
M30
