G04 #@! TF.GenerationSoftware,KiCad,Pcbnew,(5.1.5)-3*
G04 #@! TF.CreationDate,2020-07-05T20:42:40-04:00*
G04 #@! TF.ProjectId,Slave Board,536c6176-6520-4426-9f61-72642e6b6963,rev?*
G04 #@! TF.SameCoordinates,Original*
G04 #@! TF.FileFunction,Profile,NP*
%FSLAX46Y46*%
G04 Gerber Fmt 4.6, Leading zero omitted, Abs format (unit mm)*
G04 Created by KiCad (PCBNEW (5.1.5)-3) date 2020-07-05 20:42:40*
%MOMM*%
%LPD*%
G04 APERTURE LIST*
%ADD10C,0.050000*%
G04 APERTURE END LIST*
D10*
X71882000Y-175514000D02*
X71882000Y-252984000D01*
X509905000Y-175514000D02*
X509905000Y-195238000D01*
X112177000Y-175514000D02*
X118999000Y-175514000D01*
X482981000Y-252984000D02*
X509905000Y-252984000D01*
X71882000Y-175514000D02*
X97177000Y-175514000D01*
X368148394Y-182777607D02*
G75*
G03X368148394Y-182777607I-1626394J0D01*
G01*
X368656394Y-246023607D02*
G75*
G03X368656394Y-246023607I-1626394J0D01*
G01*
X228829394Y-246277607D02*
G75*
G03X228829394Y-246277607I-1626394J0D01*
G01*
X229083394Y-183412607D02*
G75*
G03X229083394Y-183412607I-1626394J0D01*
G01*
X204595000Y-175514000D02*
X236369000Y-175514000D01*
X188595000Y-175514000D02*
X188595000Y-187238000D01*
X181773000Y-175514000D02*
X188595000Y-175514000D01*
X251369000Y-190238000D02*
X251369000Y-175514000D01*
X236369000Y-190238000D02*
X251369000Y-190238000D01*
X204595000Y-187238000D02*
X204595000Y-175514000D01*
X188595000Y-187238000D02*
X204595000Y-187238000D01*
X236369000Y-175514000D02*
X236369000Y-190238000D01*
X118999000Y-175514000D02*
X118999000Y-187238000D01*
X135001000Y-252984000D02*
X134999000Y-241238000D01*
X236369000Y-238238000D02*
X236369000Y-252984000D01*
X258191001Y-252984000D02*
X251369000Y-252984000D01*
X181773000Y-190238000D02*
X181773000Y-175514000D01*
X251369000Y-238238000D02*
X236369000Y-238238000D01*
X166773000Y-190238000D02*
X181773000Y-190238000D01*
X181773000Y-238238000D02*
X166773000Y-238238000D01*
X97177000Y-190238000D02*
X112177000Y-190238000D01*
X118999000Y-241238000D02*
X118999000Y-252984000D01*
X166773000Y-175514000D02*
X166773000Y-190238000D01*
X204595000Y-252984000D02*
X204595000Y-241238000D01*
X134999000Y-175514000D02*
X166773000Y-175514000D01*
X97177000Y-175514000D02*
X97177000Y-190238000D01*
X204595000Y-241238000D02*
X188595000Y-241238000D01*
X97177000Y-252984000D02*
X71882000Y-252984000D01*
X97177000Y-238238000D02*
X97177000Y-252984000D01*
X112177000Y-252984000D02*
X112177000Y-238238000D01*
X118999000Y-252984000D02*
X112177000Y-252984000D01*
X134999000Y-241238000D02*
X118999000Y-241238000D01*
X166773000Y-252984000D02*
X135001000Y-252984000D01*
X166773000Y-238238000D02*
X166773000Y-252984000D01*
X181773000Y-252984000D02*
X181773000Y-238238000D01*
X251369000Y-252984000D02*
X251369000Y-238238000D01*
X343787000Y-252984000D02*
X343787000Y-241238000D01*
X258191001Y-241238000D02*
X258191001Y-252984000D01*
X274191001Y-241238000D02*
X258191001Y-241238000D01*
X320965000Y-252984000D02*
X320965000Y-238238000D01*
X327787000Y-252984000D02*
X320965000Y-252984000D01*
X343787000Y-241238000D02*
X327787000Y-241238000D01*
X375561000Y-238238000D02*
X375561000Y-252984000D01*
X188595000Y-252984000D02*
X181773000Y-252984000D01*
X236369000Y-252984000D02*
X204595000Y-252984000D01*
X375561000Y-252984000D02*
X343787000Y-252984000D01*
X112177000Y-190238000D02*
X112177000Y-175514000D01*
X274193000Y-252984000D02*
X274191001Y-241238000D01*
X188595000Y-241238000D02*
X188595000Y-252984000D01*
X327787000Y-241238000D02*
X327787000Y-252984000D01*
X134999000Y-187238000D02*
X135001000Y-175514000D01*
X112177000Y-238238000D02*
X97177000Y-238238000D01*
X118999000Y-187238000D02*
X134999000Y-187238000D01*
X460157000Y-238238000D02*
X445157000Y-238238000D01*
X466979000Y-241238000D02*
X466979000Y-252984000D01*
X460157000Y-252984000D02*
X460157000Y-238238000D01*
X466979000Y-252984000D02*
X460157000Y-252984000D01*
X482979000Y-241238000D02*
X466979000Y-241238000D01*
X343789000Y-175514000D02*
X375561000Y-175514000D01*
X320965000Y-175514000D02*
X327787000Y-175514000D01*
X327787000Y-175514000D02*
X327787000Y-187238000D01*
X460157000Y-175514000D02*
X466979000Y-175514000D01*
X413383000Y-187238000D02*
X413383000Y-175514000D01*
X320965000Y-190238000D02*
X320965000Y-175514000D01*
X343787000Y-187238000D02*
X343789000Y-175514000D01*
X397383000Y-175514000D02*
X397383000Y-187238000D01*
X460157000Y-190238000D02*
X460157000Y-175514000D01*
X390561000Y-175514000D02*
X397383000Y-175514000D01*
X327787000Y-187238000D02*
X343787000Y-187238000D01*
X445157000Y-175514000D02*
X445157000Y-190238000D01*
X413383000Y-175514000D02*
X445157000Y-175514000D01*
X390561000Y-190238000D02*
X390561000Y-175514000D01*
X482979000Y-187238000D02*
X482979000Y-175514000D01*
X482979000Y-252984000D02*
X482979000Y-241238000D01*
X509905000Y-210238000D02*
X509905000Y-252984000D01*
X397383000Y-187238000D02*
X413383000Y-187238000D01*
X495157000Y-210238000D02*
X509905000Y-210238000D01*
X375561000Y-175514000D02*
X375561000Y-190238000D01*
X509905000Y-195238000D02*
X495157000Y-195238000D01*
X375561000Y-190238000D02*
X390561000Y-190238000D01*
X495157000Y-195238000D02*
X495157000Y-210238000D01*
X482979000Y-175514000D02*
X509905000Y-175514000D01*
X466979000Y-187238000D02*
X482979000Y-187238000D01*
X466979000Y-175514000D02*
X466979000Y-187238000D01*
X445157000Y-190238000D02*
X460157000Y-190238000D01*
X305965000Y-175514000D02*
X305965000Y-190238000D01*
X274191001Y-187238000D02*
X274191001Y-175514000D01*
X305965000Y-190238000D02*
X320965000Y-190238000D01*
X274191001Y-175514000D02*
X305965000Y-175514000D01*
X258191001Y-187238000D02*
X274191001Y-187238000D01*
X251369000Y-175514000D02*
X258191001Y-175514000D01*
X258191001Y-175514000D02*
X258191001Y-187238000D01*
X445157000Y-252984000D02*
X413383000Y-252984000D01*
X305965000Y-238238000D02*
X305965000Y-252984000D01*
X445157000Y-238238000D02*
X445157000Y-252984000D01*
X390561000Y-238238000D02*
X375561000Y-238238000D01*
X413385000Y-252984000D02*
X413383000Y-241238000D01*
X413383000Y-241238000D02*
X397383000Y-241238000D01*
X397383000Y-241238000D02*
X397383000Y-252984000D01*
X305965000Y-252984000D02*
X274191001Y-252984000D01*
X320965000Y-238238000D02*
X305965000Y-238238000D01*
X390561000Y-252984000D02*
X390561000Y-238238000D01*
X397383000Y-252984000D02*
X390561000Y-252984000D01*
M02*
