M48
; DRILL file {KiCad (5.1.5)-3} date 05/07/2020 20:42:45
; FORMAT={-:-/ absolute / inch / decimal}
; #@! TF.CreationDate,2020-07-05T20:42:45-04:00
; #@! TF.GenerationSoftware,Kicad,Pcbnew,(5.1.5)-3
; #@! TF.FileFunction,Plated,1,2,PTH
FMAT,2
INCH
T1C0.0157
T2C0.0300
T3C0.0315
T4C0.0358
T5C0.0400
T6C0.0402
T7C0.0551
%
G90
G05
T1
X2.985Y-7.65
X3.22Y-7.615
X3.315Y-8.23
X3.39Y-8.185
X3.39Y-8.27
X3.44Y-7.615
X3.44Y-8.065
X3.44Y-8.265
X3.49Y-7.65
X3.49Y-8.065
X3.59Y-7.91
X3.59Y-8.315
X3.63Y-8.01
X3.63Y-8.185
X4.125Y-8.11
X4.14Y-8.01
X4.145Y-7.915
X4.185Y-7.725
X4.615Y-7.915
X4.62Y-8.01
X4.665Y-7.425
X4.665Y-9.445
X4.8321Y-8.9129
X4.8321Y-9.3771
X5.165Y-7.615
X5.165Y-7.685
X5.245Y-7.53
X5.245Y-7.785
X5.3456Y-7.4156
X5.3456Y-7.8906
X5.455Y-7.125
X5.645Y-7.125
X5.645Y-7.34
X5.86Y-7.385
X5.86Y-7.7135
X5.86Y-9.735
X5.86Y-9.88
X6.005Y-8.88
X6.005Y-9.695
X6.42Y-8.01
X6.42Y-8.39
X6.455Y-7.9192
X6.455Y-8.49
X7.405Y-7.425
X7.405Y-9.445
X7.575Y-9.025
X7.575Y-9.3
X7.7621Y-8.9129
X7.7621Y-9.2379
X7.775Y-7.62
X7.775Y-7.745
X7.855Y-7.685
X7.8771Y-7.8621
X7.8835Y-8.9415
X7.8835Y-9.2365
X7.895Y-7.625
X7.895Y-7.815
X7.905Y-8.36
X7.905Y-8.4874
X7.945Y-8.4
X7.945Y-8.655
X7.97Y-8.97
X7.97Y-9.33
X7.975Y-8.365
X7.975Y-8.46
X8.015Y-8.435
X8.015Y-8.555
X8.015Y-9.09
X8.015Y-9.45
X8.07Y-7.49
X8.07Y-7.785
X8.115Y-7.42
X8.115Y-7.8335
X8.385Y-7.115
X8.385Y-7.29
X8.57Y-7.34
X8.57Y-7.695
X8.6Y-9.735
X8.6Y-9.88
X8.7256Y-8.8844
X8.7256Y-9.6944
X10.14Y-9.445
X10.145Y-7.425
X10.315Y-7.56
X10.315Y-7.745
X10.315Y-9.155
X10.315Y-9.31
X10.495Y-9.025
X10.495Y-9.24
X10.52Y-8.4
X10.5452Y-8.4302
X10.6162Y-8.9988
X10.6162Y-9.2388
X10.62Y-8.365
X10.62Y-8.46
X10.635Y-7.62
X10.635Y-7.755
X10.71Y-9.09
X10.71Y-9.34
X10.715Y-7.535
X10.715Y-7.725
X10.715Y-8.625
X10.8Y-9.105
X10.8Y-9.45
X10.81Y-7.415
X10.81Y-7.8335
X11.32Y-7.9121
X11.42Y-7.9406
X11.52Y-7.9692
X11.52Y-8.7987
X11.62Y-7.6065
X11.7199Y-7.6965
X11.72Y-8.8558
X11.77Y-9.435
X11.77Y-9.85
X11.785Y-7.28
X11.785Y-7.605
X11.82Y-7.665
X11.8207Y-9.1835
X11.92Y-8.8844
X11.955Y-7.075
X11.9585Y-9.1835
X12.02Y-8.7987
X12.02Y-8.8844
X12.12Y-8.8273
X12.31Y-8.66
X12.31Y-8.8273
X12.885Y-7.425
X12.885Y-9.445
X13.055Y-7.555
X13.055Y-7.635
X13.055Y-9.305
X13.0565Y-9.2115
X13.24Y-9.155
X13.24Y-9.245
X13.355Y-9.24
X13.3565Y-9.0635
X13.385Y-7.62
X13.385Y-7.695
X13.44Y-9.105
X13.44Y-9.34
X13.46Y-7.52
X13.46Y-7.595
X13.51Y-9.14
X13.51Y-9.45
X13.565Y-7.42
X13.565Y-7.725
X13.67Y-7.18
X13.865Y-8.46
X13.9Y-8.4285
X13.935Y-8.4
X13.97Y-8.37
X13.975Y-7.18
X13.975Y-7.29
X14.085Y-7.345
X14.085Y-7.9692
X14.1892Y-8.8558
X14.1892Y-9.6942
X14.19Y-7.565
X14.19Y-7.9406
X14.4Y-8.315
X14.4406Y-8.4285
X14.48Y-8.3715
X14.525Y-8.36
X14.525Y-8.4
X14.545Y-8.525
X14.555Y-8.085
X14.565Y-8.22
X14.605Y-8.24
X14.67Y-8.155
X14.67Y-8.305
X14.6952Y-8.1852
X14.81Y-8.185
X14.81Y-8.42
X14.88Y-8.155
X14.88Y-8.31
X15.42Y-8.37
X15.4528Y-8.3985
X15.555Y-8.665
X15.555Y-8.9129
X15.565Y-7.8835
X15.565Y-8.06
X15.565Y-8.295
X15.6Y-8.34
X15.6015Y-8.9415
X15.605Y-7.5665
X15.625Y-7.415
X15.625Y-9.445
X15.63Y-8.66
X15.63Y-8.97
X15.6644Y-8.6992
X15.6644Y-8.9988
X15.67Y-8.425
X15.68Y-9.035
X15.695Y-7.595
X15.7068Y-8.2988
X15.71Y-8.46
X15.7215Y-8.685
X15.7215Y-9.0635
X15.7306Y-9.2806
X15.735Y-9.105
X15.75Y-8.46
X15.77Y-8.3274
X15.77Y-9.14
X15.79Y-8.46
X15.795Y-7.55
X15.795Y-7.63
X15.8Y-8.385
X15.81Y-8.6
X15.81Y-9.185
X15.85Y-8.46
X15.855Y-8.975
X15.89Y-8.46
X15.905Y-8.94
X15.9101Y-8.0651
X15.9101Y-8.1545
X15.9456Y-9.2806
X15.9858Y-8.3064
X15.995Y-7.43
X16.025Y-7.835
X16.03Y-7.585
X16.03Y-7.6665
X16.06Y-7.8121
X16.08Y-8.625
X16.0835Y-7.6665
X16.0892Y-8.3064
X16.09Y-8.375
X16.095Y-9.185
X16.095Y-9.245
X16.0993Y-7.8243
X16.1Y-8.59
X16.13Y-7.7835
X16.13Y-8.53
X16.135Y-9.08
X16.135Y-9.17
X16.165Y-7.755
X16.165Y-8.655
X16.175Y-9.14
X16.175Y-9.335
X16.195Y-7.725
X16.195Y-8.6942
X16.23Y-7.695
X16.23Y-8.73
X16.25Y-7.58
X16.25Y-9.45
X16.265Y-7.665
X16.265Y-8.765
X16.29Y-9.03
X16.3Y-8.8002
X16.335Y-7.49
X16.335Y-8.835
X16.37Y-7.42
X16.37Y-7.665
X16.37Y-7.86
X16.37Y-8.25
X16.41Y-7.175
X16.585Y-8.375
X16.585Y-8.575
X16.74Y-7.175
X16.74Y-7.29
X16.78Y-7.63
X16.78Y-8.22
X16.79Y-8.38
X16.79Y-8.575
X16.82Y-7.36
X16.92Y-9.17
X16.92Y-9.695
X18.365Y-7.425
X18.365Y-9.445
X18.4135Y-9.2165
X18.4293Y-9.3243
X18.485Y-8.8761
X18.485Y-9.365
X18.5343Y-7.5607
X18.5343Y-7.8243
X18.56Y-7.89
X18.57Y-7.665
X18.725Y-7.62
X18.725Y-7.925
X18.83Y-9.01
X18.835Y-7.615
X18.835Y-8.84
X18.84Y-9.25
X18.92Y-7.535
X18.92Y-7.96
X18.92Y-9.055
X18.92Y-9.33
X18.965Y-8.9685
X18.98Y-7.415
X18.995Y-9.44
X19.01Y-8.805
X19.1Y-7.43
X19.1Y-7.87
X19.375Y-7.295
X19.375Y-7.665
X19.405Y-9.14
X19.43Y-7.96
X19.465Y-7.925
X19.4785Y-8.9685
X19.535Y-8.71
X19.55Y-8.94
X19.5846Y-8.9046
X19.595Y-9.085
X19.62Y-8.855
X19.65Y-9.01
X19.695Y-9.115
X19.795Y-8.89
T2
X6.586Y-7.9974
X6.6592Y-8.3919
X6.6592Y-8.4926
X6.6852Y-7.9974
X7.7844Y-8.1623
X7.7844Y-8.2627
X7.7844Y-8.3619
X7.7844Y-8.4611
X7.7844Y-8.5604
X7.7844Y-8.6596
X7.7844Y-8.7588
T3
X3.145Y-8.415
X3.145Y-9.37
X3.245Y-9.54
X3.31Y-9.82
X3.575Y-8.485
X3.705Y-8.145
X3.78Y-7.67
X3.785Y-7.81
X3.785Y-8.235
X4.63Y-8.095
X4.63Y-8.485
X5.935Y-7.23
X5.935Y-8.1191
X6.52Y-7.96
X6.52Y-8.06
X8.625Y-7.18
X8.625Y-7.9869
X10.72Y-7.9278
X11.18Y-7.015
X11.18Y-7.9278
X14.08Y-8.783
X14.08Y-9.52
X14.235Y-7.1798
X14.235Y-7.975
T4
X3.46Y-8.655
X3.46Y-9.255
X4.06Y-8.655
X4.06Y-9.255
X4.16Y-8.655
X4.16Y-9.255
T5
X10.5207Y-8.1193
X10.5207Y-8.7193
X10.6207Y-8.1193
X10.6207Y-8.7193
X10.7207Y-8.1193
X10.7207Y-8.7193
X10.8207Y-8.1193
X10.8207Y-8.7193
X10.9207Y-8.1193
X10.9207Y-8.7193
X11.0207Y-8.1193
X11.0207Y-8.7193
X11.1207Y-8.1193
X11.1207Y-8.7193
X11.2207Y-8.1193
X11.2207Y-8.7193
X11.3207Y-8.1193
X11.3207Y-8.7193
X11.4207Y-8.1193
X11.4207Y-8.7193
X11.5207Y-8.1193
X11.5207Y-8.7193
X11.6207Y-8.1193
X11.6207Y-8.7193
X11.7207Y-8.1193
X11.7207Y-8.7193
X11.8207Y-8.1193
X11.8207Y-8.7193
X11.9207Y-8.1193
X11.9207Y-8.7193
X12.0207Y-8.1193
X12.0207Y-8.7193
X12.1207Y-8.1193
X12.1207Y-8.7193
T6
X2.9844Y-6.97
X3.1026Y-6.97
X3.2207Y-6.97
X3.3388Y-6.97
X3.4569Y-6.97
X3.575Y-6.97
T7
X12.77Y-6.995
X4.55Y-9.875
X5.452Y-6.995
X5.615Y-6.995
X15.51Y-9.875
X7.29Y-6.995
X10.03Y-6.995
X18.25Y-9.875
X12.77Y-9.875
X7.29Y-9.875
X8.19Y-9.875
X8.353Y-9.875
X19.99Y-8.415
X8.192Y-6.995
X8.355Y-6.995
X5.45Y-9.875
X5.613Y-9.875
X13.67Y-9.875
X13.833Y-9.875
X4.55Y-6.995
X13.67Y-6.995
X13.833Y-6.995
X11.955Y-9.435
X11.955Y-9.598
X16.41Y-6.995
X16.573Y-6.995
X11.955Y-7.272
X11.955Y-7.435
X18.25Y-6.995
X10.03Y-9.875
X19.152Y-6.995
X19.315Y-6.995
X16.412Y-9.875
X16.575Y-9.875
X19.152Y-9.875
X19.315Y-9.875
X15.51Y-6.995
T0
M30
