G04 #@! TF.GenerationSoftware,KiCad,Pcbnew,(5.1.5)-3*
G04 #@! TF.CreationDate,2020-07-05T20:42:40-04:00*
G04 #@! TF.ProjectId,Slave Board,536c6176-6520-4426-9f61-72642e6b6963,rev?*
G04 #@! TF.SameCoordinates,Original*
G04 #@! TF.FileFunction,Soldermask,Bot*
G04 #@! TF.FilePolarity,Negative*
%FSLAX46Y46*%
G04 Gerber Fmt 4.6, Leading zero omitted, Abs format (unit mm)*
G04 Created by KiCad (PCBNEW (5.1.5)-3) date 2020-07-05 20:42:40*
%MOMM*%
%LPD*%
G04 APERTURE LIST*
%ADD10C,0.100000*%
G04 APERTURE END LIST*
D10*
G36*
X142838760Y-249143837D02*
G01*
X143097199Y-249222234D01*
X143335370Y-249349539D01*
X143544134Y-249520867D01*
X143715461Y-249729628D01*
X143842766Y-249967800D01*
X143921163Y-250226239D01*
X143941000Y-250427651D01*
X143941000Y-251222348D01*
X143921163Y-251423760D01*
X143842766Y-251682200D01*
X143715461Y-251920372D01*
X143544134Y-252129134D01*
X143335372Y-252300461D01*
X143097200Y-252427766D01*
X142838761Y-252506163D01*
X142570000Y-252532633D01*
X142301240Y-252506163D01*
X142042801Y-252427766D01*
X141804630Y-252300461D01*
X141595866Y-252129133D01*
X141424539Y-251920372D01*
X141297234Y-251682200D01*
X141218837Y-251423761D01*
X141199000Y-251222349D01*
X141199000Y-250427652D01*
X141218837Y-250226240D01*
X141297234Y-249967801D01*
X141424539Y-249729630D01*
X141595867Y-249520866D01*
X141804628Y-249349539D01*
X142042800Y-249222234D01*
X142301239Y-249143837D01*
X142570000Y-249117367D01*
X142838760Y-249143837D01*
G37*
G36*
X212434760Y-249143837D02*
G01*
X212693199Y-249222234D01*
X212931370Y-249349539D01*
X213140134Y-249520867D01*
X213311461Y-249729628D01*
X213438766Y-249967800D01*
X213517163Y-250226239D01*
X213537000Y-250427651D01*
X213537000Y-251222348D01*
X213517163Y-251423760D01*
X213438766Y-251682200D01*
X213311461Y-251920372D01*
X213140134Y-252129134D01*
X212931372Y-252300461D01*
X212693200Y-252427766D01*
X212434761Y-252506163D01*
X212166000Y-252532633D01*
X211897240Y-252506163D01*
X211638801Y-252427766D01*
X211400630Y-252300461D01*
X211191866Y-252129133D01*
X211020539Y-251920372D01*
X210893234Y-251682200D01*
X210814837Y-251423761D01*
X210795000Y-251222349D01*
X210795000Y-250427652D01*
X210814837Y-250226240D01*
X210893234Y-249967801D01*
X211020539Y-249729630D01*
X211191867Y-249520866D01*
X211400628Y-249349539D01*
X211638800Y-249222234D01*
X211897239Y-249143837D01*
X212166000Y-249117367D01*
X212434760Y-249143837D01*
G37*
G36*
X490869760Y-249143837D02*
G01*
X491128199Y-249222234D01*
X491366370Y-249349539D01*
X491575134Y-249520867D01*
X491746461Y-249729628D01*
X491873766Y-249967800D01*
X491952163Y-250226239D01*
X491972000Y-250427651D01*
X491972000Y-251222348D01*
X491952163Y-251423760D01*
X491873766Y-251682200D01*
X491746461Y-251920372D01*
X491575134Y-252129134D01*
X491366372Y-252300461D01*
X491128200Y-252427766D01*
X490869761Y-252506163D01*
X490601000Y-252532633D01*
X490332240Y-252506163D01*
X490073801Y-252427766D01*
X489835630Y-252300461D01*
X489626866Y-252129133D01*
X489455539Y-251920372D01*
X489328234Y-251682200D01*
X489249837Y-251423761D01*
X489230000Y-251222349D01*
X489230000Y-250427652D01*
X489249837Y-250226240D01*
X489328234Y-249967801D01*
X489455539Y-249729630D01*
X489626867Y-249520866D01*
X489835628Y-249349539D01*
X490073800Y-249222234D01*
X490332239Y-249143837D01*
X490601000Y-249117367D01*
X490869760Y-249143837D01*
G37*
G36*
X351626760Y-249143837D02*
G01*
X351885199Y-249222234D01*
X352123370Y-249349539D01*
X352332134Y-249520867D01*
X352503461Y-249729628D01*
X352630766Y-249967800D01*
X352709163Y-250226239D01*
X352729000Y-250427651D01*
X352729000Y-251222348D01*
X352709163Y-251423760D01*
X352630766Y-251682200D01*
X352503461Y-251920372D01*
X352332134Y-252129134D01*
X352123372Y-252300461D01*
X351885200Y-252427766D01*
X351626761Y-252506163D01*
X351358000Y-252532633D01*
X351089240Y-252506163D01*
X350830801Y-252427766D01*
X350592630Y-252300461D01*
X350383866Y-252129133D01*
X350212539Y-251920372D01*
X350085234Y-251682200D01*
X350006837Y-251423761D01*
X349987000Y-251222349D01*
X349987000Y-250427652D01*
X350006837Y-250226240D01*
X350085234Y-249967801D01*
X350212539Y-249729630D01*
X350383867Y-249520866D01*
X350592628Y-249349539D01*
X350830800Y-249222234D01*
X351089239Y-249143837D01*
X351358000Y-249117367D01*
X351626760Y-249143837D01*
G37*
G36*
X421273760Y-249143837D02*
G01*
X421532199Y-249222234D01*
X421770370Y-249349539D01*
X421979134Y-249520867D01*
X422150461Y-249729628D01*
X422277766Y-249967800D01*
X422356163Y-250226239D01*
X422376000Y-250427651D01*
X422376000Y-251222348D01*
X422356163Y-251423760D01*
X422277766Y-251682200D01*
X422150461Y-251920372D01*
X421979134Y-252129134D01*
X421770372Y-252300461D01*
X421532200Y-252427766D01*
X421273761Y-252506163D01*
X421005000Y-252532633D01*
X420736240Y-252506163D01*
X420477801Y-252427766D01*
X420239630Y-252300461D01*
X420030866Y-252129133D01*
X419859539Y-251920372D01*
X419732234Y-251682200D01*
X419653837Y-251423761D01*
X419634000Y-251222349D01*
X419634000Y-250427652D01*
X419653837Y-250226240D01*
X419732234Y-249967801D01*
X419859539Y-249729630D01*
X420030867Y-249520866D01*
X420239628Y-249349539D01*
X420477800Y-249222234D01*
X420736239Y-249143837D01*
X421005000Y-249117367D01*
X421273760Y-249143837D01*
G37*
G36*
X348461436Y-249127635D02*
G01*
X348491027Y-249136611D01*
X348518296Y-249151187D01*
X348542198Y-249170802D01*
X348561813Y-249194704D01*
X348576389Y-249221973D01*
X348585365Y-249251564D01*
X348589000Y-249288474D01*
X348589000Y-252361526D01*
X348585365Y-252398436D01*
X348576389Y-252428027D01*
X348561813Y-252455296D01*
X348542198Y-252479198D01*
X348518296Y-252498813D01*
X348491027Y-252513389D01*
X348461436Y-252522365D01*
X348424526Y-252526000D01*
X346011474Y-252526000D01*
X345974564Y-252522365D01*
X345944973Y-252513389D01*
X345917704Y-252498813D01*
X345893802Y-252479198D01*
X345874187Y-252455296D01*
X345859611Y-252428027D01*
X345850635Y-252398436D01*
X345847000Y-252361526D01*
X345847000Y-249288474D01*
X345850635Y-249251564D01*
X345859611Y-249221973D01*
X345874187Y-249194704D01*
X345893802Y-249170802D01*
X345917704Y-249151187D01*
X345944973Y-249136611D01*
X345974564Y-249127635D01*
X346011474Y-249124000D01*
X348424526Y-249124000D01*
X348461436Y-249127635D01*
G37*
G36*
X418108436Y-249127635D02*
G01*
X418138027Y-249136611D01*
X418165296Y-249151187D01*
X418189198Y-249170802D01*
X418208813Y-249194704D01*
X418223389Y-249221973D01*
X418232365Y-249251564D01*
X418236000Y-249288474D01*
X418236000Y-252361526D01*
X418232365Y-252398436D01*
X418223389Y-252428027D01*
X418208813Y-252455296D01*
X418189198Y-252479198D01*
X418165296Y-252498813D01*
X418138027Y-252513389D01*
X418108436Y-252522365D01*
X418071526Y-252526000D01*
X415658474Y-252526000D01*
X415621564Y-252522365D01*
X415591973Y-252513389D01*
X415564704Y-252498813D01*
X415540802Y-252479198D01*
X415521187Y-252455296D01*
X415506611Y-252428027D01*
X415497635Y-252398436D01*
X415494000Y-252361526D01*
X415494000Y-249288474D01*
X415497635Y-249251564D01*
X415506611Y-249221973D01*
X415521187Y-249194704D01*
X415540802Y-249170802D01*
X415564704Y-249151187D01*
X415591973Y-249136611D01*
X415621564Y-249127635D01*
X415658474Y-249124000D01*
X418071526Y-249124000D01*
X418108436Y-249127635D01*
G37*
G36*
X487704436Y-249127635D02*
G01*
X487734027Y-249136611D01*
X487761296Y-249151187D01*
X487785198Y-249170802D01*
X487804813Y-249194704D01*
X487819389Y-249221973D01*
X487828365Y-249251564D01*
X487832000Y-249288474D01*
X487832000Y-252361526D01*
X487828365Y-252398436D01*
X487819389Y-252428027D01*
X487804813Y-252455296D01*
X487785198Y-252479198D01*
X487761296Y-252498813D01*
X487734027Y-252513389D01*
X487704436Y-252522365D01*
X487667526Y-252526000D01*
X485254474Y-252526000D01*
X485217564Y-252522365D01*
X485187973Y-252513389D01*
X485160704Y-252498813D01*
X485136802Y-252479198D01*
X485117187Y-252455296D01*
X485102611Y-252428027D01*
X485093635Y-252398436D01*
X485090000Y-252361526D01*
X485090000Y-249288474D01*
X485093635Y-249251564D01*
X485102611Y-249221973D01*
X485117187Y-249194704D01*
X485136802Y-249170802D01*
X485160704Y-249151187D01*
X485187973Y-249136611D01*
X485217564Y-249127635D01*
X485254474Y-249124000D01*
X487667526Y-249124000D01*
X487704436Y-249127635D01*
G37*
G36*
X116813436Y-249127635D02*
G01*
X116843027Y-249136611D01*
X116870296Y-249151187D01*
X116894198Y-249170802D01*
X116913813Y-249194704D01*
X116928389Y-249221973D01*
X116937365Y-249251564D01*
X116941000Y-249288474D01*
X116941000Y-252361526D01*
X116937365Y-252398436D01*
X116928389Y-252428027D01*
X116913813Y-252455296D01*
X116894198Y-252479198D01*
X116870296Y-252498813D01*
X116843027Y-252513389D01*
X116813436Y-252522365D01*
X116776526Y-252526000D01*
X114363474Y-252526000D01*
X114326564Y-252522365D01*
X114296973Y-252513389D01*
X114269704Y-252498813D01*
X114245802Y-252479198D01*
X114226187Y-252455296D01*
X114211611Y-252428027D01*
X114202635Y-252398436D01*
X114199000Y-252361526D01*
X114199000Y-249288474D01*
X114202635Y-249251564D01*
X114211611Y-249221973D01*
X114226187Y-249194704D01*
X114245802Y-249170802D01*
X114269704Y-249151187D01*
X114296973Y-249136611D01*
X114326564Y-249127635D01*
X114363474Y-249124000D01*
X116776526Y-249124000D01*
X116813436Y-249127635D01*
G37*
G36*
X186409436Y-249127635D02*
G01*
X186439027Y-249136611D01*
X186466296Y-249151187D01*
X186490198Y-249170802D01*
X186509813Y-249194704D01*
X186524389Y-249221973D01*
X186533365Y-249251564D01*
X186537000Y-249288474D01*
X186537000Y-252361526D01*
X186533365Y-252398436D01*
X186524389Y-252428027D01*
X186509813Y-252455296D01*
X186490198Y-252479198D01*
X186466296Y-252498813D01*
X186439027Y-252513389D01*
X186409436Y-252522365D01*
X186372526Y-252526000D01*
X183959474Y-252526000D01*
X183922564Y-252522365D01*
X183892973Y-252513389D01*
X183865704Y-252498813D01*
X183841802Y-252479198D01*
X183822187Y-252455296D01*
X183807611Y-252428027D01*
X183798635Y-252398436D01*
X183795000Y-252361526D01*
X183795000Y-249288474D01*
X183798635Y-249251564D01*
X183807611Y-249221973D01*
X183822187Y-249194704D01*
X183841802Y-249170802D01*
X183865704Y-249151187D01*
X183892973Y-249136611D01*
X183922564Y-249127635D01*
X183959474Y-249124000D01*
X186372526Y-249124000D01*
X186409436Y-249127635D01*
G37*
G36*
X256005436Y-249127635D02*
G01*
X256035027Y-249136611D01*
X256062296Y-249151187D01*
X256086198Y-249170802D01*
X256105813Y-249194704D01*
X256120389Y-249221973D01*
X256129365Y-249251564D01*
X256133000Y-249288474D01*
X256133000Y-252361526D01*
X256129365Y-252398436D01*
X256120389Y-252428027D01*
X256105813Y-252455296D01*
X256086198Y-252479198D01*
X256062296Y-252498813D01*
X256035027Y-252513389D01*
X256005436Y-252522365D01*
X255968526Y-252526000D01*
X253555474Y-252526000D01*
X253518564Y-252522365D01*
X253488973Y-252513389D01*
X253461704Y-252498813D01*
X253437802Y-252479198D01*
X253418187Y-252455296D01*
X253403611Y-252428027D01*
X253394635Y-252398436D01*
X253391000Y-252361526D01*
X253391000Y-249288474D01*
X253394635Y-249251564D01*
X253403611Y-249221973D01*
X253418187Y-249194704D01*
X253437802Y-249170802D01*
X253461704Y-249151187D01*
X253488973Y-249136611D01*
X253518564Y-249127635D01*
X253555474Y-249124000D01*
X255968526Y-249124000D01*
X256005436Y-249127635D01*
G37*
G36*
X325601436Y-249127635D02*
G01*
X325631027Y-249136611D01*
X325658296Y-249151187D01*
X325682198Y-249170802D01*
X325701813Y-249194704D01*
X325716389Y-249221973D01*
X325725365Y-249251564D01*
X325729000Y-249288474D01*
X325729000Y-252361526D01*
X325725365Y-252398436D01*
X325716389Y-252428027D01*
X325701813Y-252455296D01*
X325682198Y-252479198D01*
X325658296Y-252498813D01*
X325631027Y-252513389D01*
X325601436Y-252522365D01*
X325564526Y-252526000D01*
X323151474Y-252526000D01*
X323114564Y-252522365D01*
X323084973Y-252513389D01*
X323057704Y-252498813D01*
X323033802Y-252479198D01*
X323014187Y-252455296D01*
X322999611Y-252428027D01*
X322990635Y-252398436D01*
X322987000Y-252361526D01*
X322987000Y-249288474D01*
X322990635Y-249251564D01*
X322999611Y-249221973D01*
X323014187Y-249194704D01*
X323033802Y-249170802D01*
X323057704Y-249151187D01*
X323084973Y-249136611D01*
X323114564Y-249127635D01*
X323151474Y-249124000D01*
X325564526Y-249124000D01*
X325601436Y-249127635D01*
G37*
G36*
X395197436Y-249127635D02*
G01*
X395227027Y-249136611D01*
X395254296Y-249151187D01*
X395278198Y-249170802D01*
X395297813Y-249194704D01*
X395312389Y-249221973D01*
X395321365Y-249251564D01*
X395325000Y-249288474D01*
X395325000Y-252361526D01*
X395321365Y-252398436D01*
X395312389Y-252428027D01*
X395297813Y-252455296D01*
X395278198Y-252479198D01*
X395254296Y-252498813D01*
X395227027Y-252513389D01*
X395197436Y-252522365D01*
X395160526Y-252526000D01*
X392747474Y-252526000D01*
X392710564Y-252522365D01*
X392680973Y-252513389D01*
X392653704Y-252498813D01*
X392629802Y-252479198D01*
X392610187Y-252455296D01*
X392595611Y-252428027D01*
X392586635Y-252398436D01*
X392583000Y-252361526D01*
X392583000Y-249288474D01*
X392586635Y-249251564D01*
X392595611Y-249221973D01*
X392610187Y-249194704D01*
X392629802Y-249170802D01*
X392653704Y-249151187D01*
X392680973Y-249136611D01*
X392710564Y-249127635D01*
X392747474Y-249124000D01*
X395160526Y-249124000D01*
X395197436Y-249127635D01*
G37*
G36*
X464793436Y-249127635D02*
G01*
X464823027Y-249136611D01*
X464850296Y-249151187D01*
X464874198Y-249170802D01*
X464893813Y-249194704D01*
X464908389Y-249221973D01*
X464917365Y-249251564D01*
X464921000Y-249288474D01*
X464921000Y-252361526D01*
X464917365Y-252398436D01*
X464908389Y-252428027D01*
X464893813Y-252455296D01*
X464874198Y-252479198D01*
X464850296Y-252498813D01*
X464823027Y-252513389D01*
X464793436Y-252522365D01*
X464756526Y-252526000D01*
X462343474Y-252526000D01*
X462306564Y-252522365D01*
X462276973Y-252513389D01*
X462249704Y-252498813D01*
X462225802Y-252479198D01*
X462206187Y-252455296D01*
X462191611Y-252428027D01*
X462182635Y-252398436D01*
X462179000Y-252361526D01*
X462179000Y-249288474D01*
X462182635Y-249251564D01*
X462191611Y-249221973D01*
X462206187Y-249194704D01*
X462225802Y-249170802D01*
X462249704Y-249151187D01*
X462276973Y-249136611D01*
X462306564Y-249127635D01*
X462343474Y-249124000D01*
X464756526Y-249124000D01*
X464793436Y-249127635D01*
G37*
G36*
X139673436Y-249127635D02*
G01*
X139703027Y-249136611D01*
X139730296Y-249151187D01*
X139754198Y-249170802D01*
X139773813Y-249194704D01*
X139788389Y-249221973D01*
X139797365Y-249251564D01*
X139801000Y-249288474D01*
X139801000Y-252361526D01*
X139797365Y-252398436D01*
X139788389Y-252428027D01*
X139773813Y-252455296D01*
X139754198Y-252479198D01*
X139730296Y-252498813D01*
X139703027Y-252513389D01*
X139673436Y-252522365D01*
X139636526Y-252526000D01*
X137223474Y-252526000D01*
X137186564Y-252522365D01*
X137156973Y-252513389D01*
X137129704Y-252498813D01*
X137105802Y-252479198D01*
X137086187Y-252455296D01*
X137071611Y-252428027D01*
X137062635Y-252398436D01*
X137059000Y-252361526D01*
X137059000Y-249288474D01*
X137062635Y-249251564D01*
X137071611Y-249221973D01*
X137086187Y-249194704D01*
X137105802Y-249170802D01*
X137129704Y-249151187D01*
X137156973Y-249136611D01*
X137186564Y-249127635D01*
X137223474Y-249124000D01*
X139636526Y-249124000D01*
X139673436Y-249127635D01*
G37*
G36*
X209269436Y-249127635D02*
G01*
X209299027Y-249136611D01*
X209326296Y-249151187D01*
X209350198Y-249170802D01*
X209369813Y-249194704D01*
X209384389Y-249221973D01*
X209393365Y-249251564D01*
X209397000Y-249288474D01*
X209397000Y-252361526D01*
X209393365Y-252398436D01*
X209384389Y-252428027D01*
X209369813Y-252455296D01*
X209350198Y-252479198D01*
X209326296Y-252498813D01*
X209299027Y-252513389D01*
X209269436Y-252522365D01*
X209232526Y-252526000D01*
X206819474Y-252526000D01*
X206782564Y-252522365D01*
X206752973Y-252513389D01*
X206725704Y-252498813D01*
X206701802Y-252479198D01*
X206682187Y-252455296D01*
X206667611Y-252428027D01*
X206658635Y-252398436D01*
X206655000Y-252361526D01*
X206655000Y-249288474D01*
X206658635Y-249251564D01*
X206667611Y-249221973D01*
X206682187Y-249194704D01*
X206701802Y-249170802D01*
X206725704Y-249151187D01*
X206752973Y-249136611D01*
X206782564Y-249127635D01*
X206819474Y-249124000D01*
X209232526Y-249124000D01*
X209269436Y-249127635D01*
G37*
G36*
X116147835Y-241580128D02*
G01*
X116508354Y-241729460D01*
X116508355Y-241729461D01*
X116832814Y-241946257D01*
X117108743Y-242222186D01*
X117158622Y-242296836D01*
X117325540Y-242546646D01*
X117474872Y-242907165D01*
X117551000Y-243289887D01*
X117551000Y-243680113D01*
X117474872Y-244062835D01*
X117325540Y-244423354D01*
X117325539Y-244423355D01*
X117108743Y-244747814D01*
X116832814Y-245023743D01*
X116694382Y-245116240D01*
X116508354Y-245240540D01*
X116147835Y-245389872D01*
X115765113Y-245466000D01*
X115374887Y-245466000D01*
X114992165Y-245389872D01*
X114631646Y-245240540D01*
X114445618Y-245116240D01*
X114307186Y-245023743D01*
X114031257Y-244747814D01*
X113814461Y-244423355D01*
X113814460Y-244423354D01*
X113665128Y-244062835D01*
X113589000Y-243680113D01*
X113589000Y-243289887D01*
X113665128Y-242907165D01*
X113814460Y-242546646D01*
X113981378Y-242296836D01*
X114031257Y-242222186D01*
X114307186Y-241946257D01*
X114631645Y-241729461D01*
X114631646Y-241729460D01*
X114992165Y-241580128D01*
X115374887Y-241504000D01*
X115765113Y-241504000D01*
X116147835Y-241580128D01*
G37*
G36*
X210673835Y-241580128D02*
G01*
X211034354Y-241729460D01*
X211034355Y-241729461D01*
X211358814Y-241946257D01*
X211634743Y-242222186D01*
X211684622Y-242296836D01*
X211851540Y-242546646D01*
X212000872Y-242907165D01*
X212077000Y-243289887D01*
X212077000Y-243680113D01*
X212000872Y-244062835D01*
X211851540Y-244423354D01*
X211851539Y-244423355D01*
X211634743Y-244747814D01*
X211358814Y-245023743D01*
X211220382Y-245116240D01*
X211034354Y-245240540D01*
X210673835Y-245389872D01*
X210291113Y-245466000D01*
X209900887Y-245466000D01*
X209518165Y-245389872D01*
X209157646Y-245240540D01*
X208971618Y-245116240D01*
X208833186Y-245023743D01*
X208557257Y-244747814D01*
X208340461Y-244423355D01*
X208340460Y-244423354D01*
X208191128Y-244062835D01*
X208115000Y-243680113D01*
X208115000Y-243289887D01*
X208191128Y-242907165D01*
X208340460Y-242546646D01*
X208507378Y-242296836D01*
X208557257Y-242222186D01*
X208833186Y-241946257D01*
X209157645Y-241729461D01*
X209157646Y-241729460D01*
X209518165Y-241580128D01*
X209900887Y-241504000D01*
X210291113Y-241504000D01*
X210673835Y-241580128D01*
G37*
G36*
X141077835Y-241580128D02*
G01*
X141438354Y-241729460D01*
X141438355Y-241729461D01*
X141762814Y-241946257D01*
X142038743Y-242222186D01*
X142088622Y-242296836D01*
X142255540Y-242546646D01*
X142404872Y-242907165D01*
X142481000Y-243289887D01*
X142481000Y-243680113D01*
X142404872Y-244062835D01*
X142255540Y-244423354D01*
X142255539Y-244423355D01*
X142038743Y-244747814D01*
X141762814Y-245023743D01*
X141624382Y-245116240D01*
X141438354Y-245240540D01*
X141077835Y-245389872D01*
X140695113Y-245466000D01*
X140304887Y-245466000D01*
X139922165Y-245389872D01*
X139561646Y-245240540D01*
X139375618Y-245116240D01*
X139237186Y-245023743D01*
X138961257Y-244747814D01*
X138744461Y-244423355D01*
X138744460Y-244423354D01*
X138595128Y-244062835D01*
X138519000Y-243680113D01*
X138519000Y-243289887D01*
X138595128Y-242907165D01*
X138744460Y-242546646D01*
X138911378Y-242296836D01*
X138961257Y-242222186D01*
X139237186Y-241946257D01*
X139561645Y-241729461D01*
X139561646Y-241729460D01*
X139922165Y-241580128D01*
X140304887Y-241504000D01*
X140695113Y-241504000D01*
X141077835Y-241580128D01*
G37*
G36*
X464127835Y-241580128D02*
G01*
X464488354Y-241729460D01*
X464488355Y-241729461D01*
X464812814Y-241946257D01*
X465088743Y-242222186D01*
X465138622Y-242296836D01*
X465305540Y-242546646D01*
X465454872Y-242907165D01*
X465531000Y-243289887D01*
X465531000Y-243680113D01*
X465454872Y-244062835D01*
X465305540Y-244423354D01*
X465305539Y-244423355D01*
X465088743Y-244747814D01*
X464812814Y-245023743D01*
X464674382Y-245116240D01*
X464488354Y-245240540D01*
X464127835Y-245389872D01*
X463745113Y-245466000D01*
X463354887Y-245466000D01*
X462972165Y-245389872D01*
X462611646Y-245240540D01*
X462425618Y-245116240D01*
X462287186Y-245023743D01*
X462011257Y-244747814D01*
X461794461Y-244423355D01*
X461794460Y-244423354D01*
X461645128Y-244062835D01*
X461569000Y-243680113D01*
X461569000Y-243289887D01*
X461645128Y-242907165D01*
X461794460Y-242546646D01*
X461961378Y-242296836D01*
X462011257Y-242222186D01*
X462287186Y-241946257D01*
X462611645Y-241729461D01*
X462611646Y-241729460D01*
X462972165Y-241580128D01*
X463354887Y-241504000D01*
X463745113Y-241504000D01*
X464127835Y-241580128D01*
G37*
G36*
X349865835Y-241580128D02*
G01*
X350226354Y-241729460D01*
X350226355Y-241729461D01*
X350550814Y-241946257D01*
X350826743Y-242222186D01*
X350876622Y-242296836D01*
X351043540Y-242546646D01*
X351192872Y-242907165D01*
X351269000Y-243289887D01*
X351269000Y-243680113D01*
X351192872Y-244062835D01*
X351043540Y-244423354D01*
X351043539Y-244423355D01*
X350826743Y-244747814D01*
X350550814Y-245023743D01*
X350412382Y-245116240D01*
X350226354Y-245240540D01*
X349865835Y-245389872D01*
X349483113Y-245466000D01*
X349092887Y-245466000D01*
X348710165Y-245389872D01*
X348349646Y-245240540D01*
X348163618Y-245116240D01*
X348025186Y-245023743D01*
X347749257Y-244747814D01*
X347532461Y-244423355D01*
X347532460Y-244423354D01*
X347383128Y-244062835D01*
X347307000Y-243680113D01*
X347307000Y-243289887D01*
X347383128Y-242907165D01*
X347532460Y-242546646D01*
X347699378Y-242296836D01*
X347749257Y-242222186D01*
X348025186Y-241946257D01*
X348349645Y-241729461D01*
X348349646Y-241729460D01*
X348710165Y-241580128D01*
X349092887Y-241504000D01*
X349483113Y-241504000D01*
X349865835Y-241580128D01*
G37*
G36*
X419512835Y-241580128D02*
G01*
X419873354Y-241729460D01*
X419873355Y-241729461D01*
X420197814Y-241946257D01*
X420473743Y-242222186D01*
X420523622Y-242296836D01*
X420690540Y-242546646D01*
X420839872Y-242907165D01*
X420916000Y-243289887D01*
X420916000Y-243680113D01*
X420839872Y-244062835D01*
X420690540Y-244423354D01*
X420690539Y-244423355D01*
X420473743Y-244747814D01*
X420197814Y-245023743D01*
X420059382Y-245116240D01*
X419873354Y-245240540D01*
X419512835Y-245389872D01*
X419130113Y-245466000D01*
X418739887Y-245466000D01*
X418357165Y-245389872D01*
X417996646Y-245240540D01*
X417810618Y-245116240D01*
X417672186Y-245023743D01*
X417396257Y-244747814D01*
X417179461Y-244423355D01*
X417179460Y-244423354D01*
X417030128Y-244062835D01*
X416954000Y-243680113D01*
X416954000Y-243289887D01*
X417030128Y-242907165D01*
X417179460Y-242546646D01*
X417346378Y-242296836D01*
X417396257Y-242222186D01*
X417672186Y-241946257D01*
X417996645Y-241729461D01*
X417996646Y-241729460D01*
X418357165Y-241580128D01*
X418739887Y-241504000D01*
X419130113Y-241504000D01*
X419512835Y-241580128D01*
G37*
G36*
X185743835Y-241580128D02*
G01*
X186104354Y-241729460D01*
X186104355Y-241729461D01*
X186428814Y-241946257D01*
X186704743Y-242222186D01*
X186754622Y-242296836D01*
X186921540Y-242546646D01*
X187070872Y-242907165D01*
X187147000Y-243289887D01*
X187147000Y-243680113D01*
X187070872Y-244062835D01*
X186921540Y-244423354D01*
X186921539Y-244423355D01*
X186704743Y-244747814D01*
X186428814Y-245023743D01*
X186290382Y-245116240D01*
X186104354Y-245240540D01*
X185743835Y-245389872D01*
X185361113Y-245466000D01*
X184970887Y-245466000D01*
X184588165Y-245389872D01*
X184227646Y-245240540D01*
X184041618Y-245116240D01*
X183903186Y-245023743D01*
X183627257Y-244747814D01*
X183410461Y-244423355D01*
X183410460Y-244423354D01*
X183261128Y-244062835D01*
X183185000Y-243680113D01*
X183185000Y-243289887D01*
X183261128Y-242907165D01*
X183410460Y-242546646D01*
X183577378Y-242296836D01*
X183627257Y-242222186D01*
X183903186Y-241946257D01*
X184227645Y-241729461D01*
X184227646Y-241729460D01*
X184588165Y-241580128D01*
X184970887Y-241504000D01*
X185361113Y-241504000D01*
X185743835Y-241580128D01*
G37*
G36*
X489108835Y-241580128D02*
G01*
X489469354Y-241729460D01*
X489469355Y-241729461D01*
X489793814Y-241946257D01*
X490069743Y-242222186D01*
X490119622Y-242296836D01*
X490286540Y-242546646D01*
X490435872Y-242907165D01*
X490512000Y-243289887D01*
X490512000Y-243680113D01*
X490435872Y-244062835D01*
X490286540Y-244423354D01*
X490286539Y-244423355D01*
X490069743Y-244747814D01*
X489793814Y-245023743D01*
X489655382Y-245116240D01*
X489469354Y-245240540D01*
X489108835Y-245389872D01*
X488726113Y-245466000D01*
X488335887Y-245466000D01*
X487953165Y-245389872D01*
X487592646Y-245240540D01*
X487406618Y-245116240D01*
X487268186Y-245023743D01*
X486992257Y-244747814D01*
X486775461Y-244423355D01*
X486775460Y-244423354D01*
X486626128Y-244062835D01*
X486550000Y-243680113D01*
X486550000Y-243289887D01*
X486626128Y-242907165D01*
X486775460Y-242546646D01*
X486942378Y-242296836D01*
X486992257Y-242222186D01*
X487268186Y-241946257D01*
X487592645Y-241729461D01*
X487592646Y-241729460D01*
X487953165Y-241580128D01*
X488335887Y-241504000D01*
X488726113Y-241504000D01*
X489108835Y-241580128D01*
G37*
G36*
X255339835Y-241580128D02*
G01*
X255700354Y-241729460D01*
X255700355Y-241729461D01*
X256024814Y-241946257D01*
X256300743Y-242222186D01*
X256350622Y-242296836D01*
X256517540Y-242546646D01*
X256666872Y-242907165D01*
X256743000Y-243289887D01*
X256743000Y-243680113D01*
X256666872Y-244062835D01*
X256517540Y-244423354D01*
X256517539Y-244423355D01*
X256300743Y-244747814D01*
X256024814Y-245023743D01*
X255886382Y-245116240D01*
X255700354Y-245240540D01*
X255339835Y-245389872D01*
X254957113Y-245466000D01*
X254566887Y-245466000D01*
X254184165Y-245389872D01*
X253823646Y-245240540D01*
X253637618Y-245116240D01*
X253499186Y-245023743D01*
X253223257Y-244747814D01*
X253006461Y-244423355D01*
X253006460Y-244423354D01*
X252857128Y-244062835D01*
X252781000Y-243680113D01*
X252781000Y-243289887D01*
X252857128Y-242907165D01*
X253006460Y-242546646D01*
X253173378Y-242296836D01*
X253223257Y-242222186D01*
X253499186Y-241946257D01*
X253823645Y-241729461D01*
X253823646Y-241729460D01*
X254184165Y-241580128D01*
X254566887Y-241504000D01*
X254957113Y-241504000D01*
X255339835Y-241580128D01*
G37*
G36*
X324935835Y-241580128D02*
G01*
X325296354Y-241729460D01*
X325296355Y-241729461D01*
X325620814Y-241946257D01*
X325896743Y-242222186D01*
X325946622Y-242296836D01*
X326113540Y-242546646D01*
X326262872Y-242907165D01*
X326339000Y-243289887D01*
X326339000Y-243680113D01*
X326262872Y-244062835D01*
X326113540Y-244423354D01*
X326113539Y-244423355D01*
X325896743Y-244747814D01*
X325620814Y-245023743D01*
X325482382Y-245116240D01*
X325296354Y-245240540D01*
X324935835Y-245389872D01*
X324553113Y-245466000D01*
X324162887Y-245466000D01*
X323780165Y-245389872D01*
X323419646Y-245240540D01*
X323233618Y-245116240D01*
X323095186Y-245023743D01*
X322819257Y-244747814D01*
X322602461Y-244423355D01*
X322602460Y-244423354D01*
X322453128Y-244062835D01*
X322377000Y-243680113D01*
X322377000Y-243289887D01*
X322453128Y-242907165D01*
X322602460Y-242546646D01*
X322769378Y-242296836D01*
X322819257Y-242222186D01*
X323095186Y-241946257D01*
X323419645Y-241729461D01*
X323419646Y-241729460D01*
X323780165Y-241580128D01*
X324162887Y-241504000D01*
X324553113Y-241504000D01*
X324935835Y-241580128D01*
G37*
G36*
X394531835Y-241580128D02*
G01*
X394892354Y-241729460D01*
X394892355Y-241729461D01*
X395216814Y-241946257D01*
X395492743Y-242222186D01*
X395542622Y-242296836D01*
X395709540Y-242546646D01*
X395858872Y-242907165D01*
X395935000Y-243289887D01*
X395935000Y-243680113D01*
X395858872Y-244062835D01*
X395709540Y-244423354D01*
X395709539Y-244423355D01*
X395492743Y-244747814D01*
X395216814Y-245023743D01*
X395078382Y-245116240D01*
X394892354Y-245240540D01*
X394531835Y-245389872D01*
X394149113Y-245466000D01*
X393758887Y-245466000D01*
X393376165Y-245389872D01*
X393015646Y-245240540D01*
X392829618Y-245116240D01*
X392691186Y-245023743D01*
X392415257Y-244747814D01*
X392198461Y-244423355D01*
X392198460Y-244423354D01*
X392049128Y-244062835D01*
X391973000Y-243680113D01*
X391973000Y-243289887D01*
X392049128Y-242907165D01*
X392198460Y-242546646D01*
X392365378Y-242296836D01*
X392415257Y-242222186D01*
X392691186Y-241946257D01*
X393015645Y-241729461D01*
X393015646Y-241729460D01*
X393376165Y-241580128D01*
X393758887Y-241504000D01*
X394149113Y-241504000D01*
X394531835Y-241580128D01*
G37*
G36*
X305230436Y-242421635D02*
G01*
X305260027Y-242430611D01*
X305287296Y-242445187D01*
X305311198Y-242464802D01*
X305330813Y-242488704D01*
X305345389Y-242515973D01*
X305354365Y-242545564D01*
X305358000Y-242582474D01*
X305358000Y-244995526D01*
X305354365Y-245032436D01*
X305345389Y-245062027D01*
X305330813Y-245089296D01*
X305311198Y-245113198D01*
X305287296Y-245132813D01*
X305260027Y-245147389D01*
X305230436Y-245156365D01*
X305193526Y-245160000D01*
X302120474Y-245160000D01*
X302083564Y-245156365D01*
X302053973Y-245147389D01*
X302026704Y-245132813D01*
X302002802Y-245113198D01*
X301983187Y-245089296D01*
X301968611Y-245062027D01*
X301959635Y-245032436D01*
X301956000Y-244995526D01*
X301956000Y-242582474D01*
X301959635Y-242545564D01*
X301968611Y-242515973D01*
X301983187Y-242488704D01*
X302002802Y-242464802D01*
X302026704Y-242445187D01*
X302053973Y-242430611D01*
X302083564Y-242421635D01*
X302120474Y-242418000D01*
X305193526Y-242418000D01*
X305230436Y-242421635D01*
G37*
G36*
X296894835Y-239814128D02*
G01*
X297255354Y-239963460D01*
X297255355Y-239963461D01*
X297579814Y-240180257D01*
X297855743Y-240456186D01*
X297967294Y-240623134D01*
X298072540Y-240780646D01*
X298221872Y-241141165D01*
X298298000Y-241523887D01*
X298298000Y-241914113D01*
X298221872Y-242296835D01*
X298072540Y-242657354D01*
X298000602Y-242765017D01*
X297855743Y-242981814D01*
X297579814Y-243257743D01*
X297363017Y-243402602D01*
X297255354Y-243474540D01*
X296894835Y-243623872D01*
X296512113Y-243700000D01*
X296121887Y-243700000D01*
X295739165Y-243623872D01*
X295378646Y-243474540D01*
X295270983Y-243402602D01*
X295054186Y-243257743D01*
X294778257Y-242981814D01*
X294633398Y-242765017D01*
X294561460Y-242657354D01*
X294412128Y-242296835D01*
X294336000Y-241914113D01*
X294336000Y-241523887D01*
X294412128Y-241141165D01*
X294561460Y-240780646D01*
X294666706Y-240623134D01*
X294778257Y-240456186D01*
X295054186Y-240180257D01*
X295378645Y-239963461D01*
X295378646Y-239963460D01*
X295739165Y-239814128D01*
X296121887Y-239738000D01*
X296512113Y-239738000D01*
X296894835Y-239814128D01*
G37*
G36*
X304255761Y-238297837D02*
G01*
X304514200Y-238376234D01*
X304752372Y-238503539D01*
X304961134Y-238674866D01*
X305132461Y-238883628D01*
X305259766Y-239121800D01*
X305338163Y-239380239D01*
X305364633Y-239649000D01*
X305338163Y-239917761D01*
X305259766Y-240176200D01*
X305132461Y-240414372D01*
X304961134Y-240623134D01*
X304752372Y-240794461D01*
X304514200Y-240921766D01*
X304255761Y-241000163D01*
X304054349Y-241020000D01*
X303259651Y-241020000D01*
X303058239Y-241000163D01*
X302799800Y-240921766D01*
X302561628Y-240794461D01*
X302352866Y-240623134D01*
X302181539Y-240414372D01*
X302054234Y-240176200D01*
X301975837Y-239917761D01*
X301949367Y-239649000D01*
X301975837Y-239380239D01*
X302054234Y-239121800D01*
X302181539Y-238883628D01*
X302352866Y-238674866D01*
X302561628Y-238503539D01*
X302799800Y-238376234D01*
X303058239Y-238297837D01*
X303259651Y-238278000D01*
X304054349Y-238278000D01*
X304255761Y-238297837D01*
G37*
G36*
X105821023Y-233787590D02*
G01*
X105921682Y-233818125D01*
X105972013Y-233833392D01*
X106111165Y-233907771D01*
X106233133Y-234007867D01*
X106333229Y-234129835D01*
X106407608Y-234268987D01*
X106407608Y-234268988D01*
X106453410Y-234419977D01*
X106465000Y-234537655D01*
X106465000Y-235616345D01*
X106453410Y-235734023D01*
X106422875Y-235834682D01*
X106407608Y-235885013D01*
X106333230Y-236024164D01*
X106333229Y-236024165D01*
X106233133Y-236146133D01*
X106111164Y-236246229D01*
X105972012Y-236320608D01*
X105921681Y-236335875D01*
X105821022Y-236366410D01*
X105664000Y-236381875D01*
X105506977Y-236366410D01*
X105406318Y-236335875D01*
X105355987Y-236320608D01*
X105216835Y-236246229D01*
X105094867Y-236146133D01*
X104994771Y-236024164D01*
X104920393Y-235885013D01*
X104920392Y-235885012D01*
X104905125Y-235834681D01*
X104874590Y-235734022D01*
X104863000Y-235616344D01*
X104863001Y-234537655D01*
X104874591Y-234419977D01*
X104920393Y-234268988D01*
X104920393Y-234268987D01*
X104994772Y-234129835D01*
X105094868Y-234007867D01*
X105216836Y-233907771D01*
X105355988Y-233833392D01*
X105406319Y-233818125D01*
X105506978Y-233787590D01*
X105664000Y-233772125D01*
X105821023Y-233787590D01*
G37*
G36*
X88041023Y-233787590D02*
G01*
X88141682Y-233818125D01*
X88192013Y-233833392D01*
X88331165Y-233907771D01*
X88453133Y-234007867D01*
X88553229Y-234129835D01*
X88627608Y-234268987D01*
X88627608Y-234268988D01*
X88673410Y-234419977D01*
X88685000Y-234537655D01*
X88685000Y-235616345D01*
X88673410Y-235734023D01*
X88642875Y-235834682D01*
X88627608Y-235885013D01*
X88553230Y-236024164D01*
X88553229Y-236024165D01*
X88453133Y-236146133D01*
X88331164Y-236246229D01*
X88192012Y-236320608D01*
X88141681Y-236335875D01*
X88041022Y-236366410D01*
X87884000Y-236381875D01*
X87726977Y-236366410D01*
X87626318Y-236335875D01*
X87575987Y-236320608D01*
X87436835Y-236246229D01*
X87314867Y-236146133D01*
X87214771Y-236024164D01*
X87140393Y-235885013D01*
X87140392Y-235885012D01*
X87125125Y-235834681D01*
X87094590Y-235734022D01*
X87083000Y-235616344D01*
X87083001Y-234537655D01*
X87094591Y-234419977D01*
X87140393Y-234268988D01*
X87140393Y-234268987D01*
X87214772Y-234129835D01*
X87314868Y-234007867D01*
X87436836Y-233907771D01*
X87575988Y-233833392D01*
X87626319Y-233818125D01*
X87726978Y-233787590D01*
X87884000Y-233772125D01*
X88041023Y-233787590D01*
G37*
G36*
X103281023Y-233787590D02*
G01*
X103381682Y-233818125D01*
X103432013Y-233833392D01*
X103571165Y-233907771D01*
X103693133Y-234007867D01*
X103793229Y-234129835D01*
X103867608Y-234268987D01*
X103867608Y-234268988D01*
X103913410Y-234419977D01*
X103925000Y-234537655D01*
X103925000Y-235616345D01*
X103913410Y-235734023D01*
X103882875Y-235834682D01*
X103867608Y-235885013D01*
X103793230Y-236024164D01*
X103793229Y-236024165D01*
X103693133Y-236146133D01*
X103571164Y-236246229D01*
X103432012Y-236320608D01*
X103381681Y-236335875D01*
X103281022Y-236366410D01*
X103124000Y-236381875D01*
X102966977Y-236366410D01*
X102866318Y-236335875D01*
X102815987Y-236320608D01*
X102676835Y-236246229D01*
X102554867Y-236146133D01*
X102454771Y-236024164D01*
X102380393Y-235885013D01*
X102380392Y-235885012D01*
X102365125Y-235834681D01*
X102334590Y-235734022D01*
X102323000Y-235616344D01*
X102323001Y-234537655D01*
X102334591Y-234419977D01*
X102380393Y-234268988D01*
X102380393Y-234268987D01*
X102454772Y-234129835D01*
X102554868Y-234007867D01*
X102676836Y-233907771D01*
X102815988Y-233833392D01*
X102866319Y-233818125D01*
X102966978Y-233787590D01*
X103124000Y-233772125D01*
X103281023Y-233787590D01*
G37*
G36*
X197961142Y-221691242D02*
G01*
X198109101Y-221752529D01*
X198242255Y-221841499D01*
X198355501Y-221954745D01*
X198444471Y-222087899D01*
X198505758Y-222235858D01*
X198537000Y-222392925D01*
X198537000Y-222553075D01*
X198505758Y-222710142D01*
X198444471Y-222858101D01*
X198355501Y-222991255D01*
X198242255Y-223104501D01*
X198109101Y-223193471D01*
X197961142Y-223254758D01*
X197804075Y-223286000D01*
X197643925Y-223286000D01*
X197486858Y-223254758D01*
X197338899Y-223193471D01*
X197205745Y-223104501D01*
X197092499Y-222991255D01*
X197003529Y-222858101D01*
X196942242Y-222710142D01*
X196911000Y-222553075D01*
X196911000Y-222392925D01*
X196942242Y-222235858D01*
X197003529Y-222087899D01*
X197092499Y-221954745D01*
X197205745Y-221841499D01*
X197338899Y-221752529D01*
X197486858Y-221691242D01*
X197643925Y-221660000D01*
X197804075Y-221660000D01*
X197961142Y-221691242D01*
G37*
G36*
X292891778Y-220591547D02*
G01*
X293058224Y-220660491D01*
X293208022Y-220760583D01*
X293335417Y-220887978D01*
X293435509Y-221037776D01*
X293504453Y-221204222D01*
X293539600Y-221380918D01*
X293539600Y-221561082D01*
X293504453Y-221737778D01*
X293435509Y-221904224D01*
X293335417Y-222054022D01*
X293208022Y-222181417D01*
X293058224Y-222281509D01*
X292891778Y-222350453D01*
X292715082Y-222385600D01*
X292534918Y-222385600D01*
X292358222Y-222350453D01*
X292191776Y-222281509D01*
X292041978Y-222181417D01*
X291914583Y-222054022D01*
X291814491Y-221904224D01*
X291745547Y-221737778D01*
X291710400Y-221561082D01*
X291710400Y-221380918D01*
X291745547Y-221204222D01*
X291814491Y-221037776D01*
X291914583Y-220887978D01*
X292041978Y-220760583D01*
X292191776Y-220660491D01*
X292358222Y-220591547D01*
X292534918Y-220556400D01*
X292715082Y-220556400D01*
X292891778Y-220591547D01*
G37*
G36*
X305591778Y-220591547D02*
G01*
X305758224Y-220660491D01*
X305908022Y-220760583D01*
X306035417Y-220887978D01*
X306135509Y-221037776D01*
X306204453Y-221204222D01*
X306239600Y-221380918D01*
X306239600Y-221561082D01*
X306204453Y-221737778D01*
X306135509Y-221904224D01*
X306035417Y-222054022D01*
X305908022Y-222181417D01*
X305758224Y-222281509D01*
X305591778Y-222350453D01*
X305415082Y-222385600D01*
X305234918Y-222385600D01*
X305058222Y-222350453D01*
X304891776Y-222281509D01*
X304741978Y-222181417D01*
X304614583Y-222054022D01*
X304514491Y-221904224D01*
X304445547Y-221737778D01*
X304410400Y-221561082D01*
X304410400Y-221380918D01*
X304445547Y-221204222D01*
X304514491Y-221037776D01*
X304614583Y-220887978D01*
X304741978Y-220760583D01*
X304891776Y-220660491D01*
X305058222Y-220591547D01*
X305234918Y-220556400D01*
X305415082Y-220556400D01*
X305591778Y-220591547D01*
G37*
G36*
X308131778Y-220591547D02*
G01*
X308298224Y-220660491D01*
X308448022Y-220760583D01*
X308575417Y-220887978D01*
X308675509Y-221037776D01*
X308744453Y-221204222D01*
X308779600Y-221380918D01*
X308779600Y-221561082D01*
X308744453Y-221737778D01*
X308675509Y-221904224D01*
X308575417Y-222054022D01*
X308448022Y-222181417D01*
X308298224Y-222281509D01*
X308131778Y-222350453D01*
X307955082Y-222385600D01*
X307774918Y-222385600D01*
X307598222Y-222350453D01*
X307431776Y-222281509D01*
X307281978Y-222181417D01*
X307154583Y-222054022D01*
X307054491Y-221904224D01*
X306985547Y-221737778D01*
X306950400Y-221561082D01*
X306950400Y-221380918D01*
X306985547Y-221204222D01*
X307054491Y-221037776D01*
X307154583Y-220887978D01*
X307281978Y-220760583D01*
X307431776Y-220660491D01*
X307598222Y-220591547D01*
X307774918Y-220556400D01*
X307955082Y-220556400D01*
X308131778Y-220591547D01*
G37*
G36*
X303051778Y-220591547D02*
G01*
X303218224Y-220660491D01*
X303368022Y-220760583D01*
X303495417Y-220887978D01*
X303595509Y-221037776D01*
X303664453Y-221204222D01*
X303699600Y-221380918D01*
X303699600Y-221561082D01*
X303664453Y-221737778D01*
X303595509Y-221904224D01*
X303495417Y-222054022D01*
X303368022Y-222181417D01*
X303218224Y-222281509D01*
X303051778Y-222350453D01*
X302875082Y-222385600D01*
X302694918Y-222385600D01*
X302518222Y-222350453D01*
X302351776Y-222281509D01*
X302201978Y-222181417D01*
X302074583Y-222054022D01*
X301974491Y-221904224D01*
X301905547Y-221737778D01*
X301870400Y-221561082D01*
X301870400Y-221380918D01*
X301905547Y-221204222D01*
X301974491Y-221037776D01*
X302074583Y-220887978D01*
X302201978Y-220760583D01*
X302351776Y-220660491D01*
X302518222Y-220591547D01*
X302694918Y-220556400D01*
X302875082Y-220556400D01*
X303051778Y-220591547D01*
G37*
G36*
X297971778Y-220591547D02*
G01*
X298138224Y-220660491D01*
X298288022Y-220760583D01*
X298415417Y-220887978D01*
X298515509Y-221037776D01*
X298584453Y-221204222D01*
X298619600Y-221380918D01*
X298619600Y-221561082D01*
X298584453Y-221737778D01*
X298515509Y-221904224D01*
X298415417Y-222054022D01*
X298288022Y-222181417D01*
X298138224Y-222281509D01*
X297971778Y-222350453D01*
X297795082Y-222385600D01*
X297614918Y-222385600D01*
X297438222Y-222350453D01*
X297271776Y-222281509D01*
X297121978Y-222181417D01*
X296994583Y-222054022D01*
X296894491Y-221904224D01*
X296825547Y-221737778D01*
X296790400Y-221561082D01*
X296790400Y-221380918D01*
X296825547Y-221204222D01*
X296894491Y-221037776D01*
X296994583Y-220887978D01*
X297121978Y-220760583D01*
X297271776Y-220660491D01*
X297438222Y-220591547D01*
X297614918Y-220556400D01*
X297795082Y-220556400D01*
X297971778Y-220591547D01*
G37*
G36*
X300511778Y-220591547D02*
G01*
X300678224Y-220660491D01*
X300828022Y-220760583D01*
X300955417Y-220887978D01*
X301055509Y-221037776D01*
X301124453Y-221204222D01*
X301159600Y-221380918D01*
X301159600Y-221561082D01*
X301124453Y-221737778D01*
X301055509Y-221904224D01*
X300955417Y-222054022D01*
X300828022Y-222181417D01*
X300678224Y-222281509D01*
X300511778Y-222350453D01*
X300335082Y-222385600D01*
X300154918Y-222385600D01*
X299978222Y-222350453D01*
X299811776Y-222281509D01*
X299661978Y-222181417D01*
X299534583Y-222054022D01*
X299434491Y-221904224D01*
X299365547Y-221737778D01*
X299330400Y-221561082D01*
X299330400Y-221380918D01*
X299365547Y-221204222D01*
X299434491Y-221037776D01*
X299534583Y-220887978D01*
X299661978Y-220760583D01*
X299811776Y-220660491D01*
X299978222Y-220591547D01*
X300154918Y-220556400D01*
X300335082Y-220556400D01*
X300511778Y-220591547D01*
G37*
G36*
X277651778Y-220591547D02*
G01*
X277818224Y-220660491D01*
X277968022Y-220760583D01*
X278095417Y-220887978D01*
X278195509Y-221037776D01*
X278264453Y-221204222D01*
X278299600Y-221380918D01*
X278299600Y-221561082D01*
X278264453Y-221737778D01*
X278195509Y-221904224D01*
X278095417Y-222054022D01*
X277968022Y-222181417D01*
X277818224Y-222281509D01*
X277651778Y-222350453D01*
X277475082Y-222385600D01*
X277294918Y-222385600D01*
X277118222Y-222350453D01*
X276951776Y-222281509D01*
X276801978Y-222181417D01*
X276674583Y-222054022D01*
X276574491Y-221904224D01*
X276505547Y-221737778D01*
X276470400Y-221561082D01*
X276470400Y-221380918D01*
X276505547Y-221204222D01*
X276574491Y-221037776D01*
X276674583Y-220887978D01*
X276801978Y-220760583D01*
X276951776Y-220660491D01*
X277118222Y-220591547D01*
X277294918Y-220556400D01*
X277475082Y-220556400D01*
X277651778Y-220591547D01*
G37*
G36*
X268139600Y-222385600D02*
G01*
X266310400Y-222385600D01*
X266310400Y-220556400D01*
X268139600Y-220556400D01*
X268139600Y-222385600D01*
G37*
G36*
X280191778Y-220591547D02*
G01*
X280358224Y-220660491D01*
X280508022Y-220760583D01*
X280635417Y-220887978D01*
X280735509Y-221037776D01*
X280804453Y-221204222D01*
X280839600Y-221380918D01*
X280839600Y-221561082D01*
X280804453Y-221737778D01*
X280735509Y-221904224D01*
X280635417Y-222054022D01*
X280508022Y-222181417D01*
X280358224Y-222281509D01*
X280191778Y-222350453D01*
X280015082Y-222385600D01*
X279834918Y-222385600D01*
X279658222Y-222350453D01*
X279491776Y-222281509D01*
X279341978Y-222181417D01*
X279214583Y-222054022D01*
X279114491Y-221904224D01*
X279045547Y-221737778D01*
X279010400Y-221561082D01*
X279010400Y-221380918D01*
X279045547Y-221204222D01*
X279114491Y-221037776D01*
X279214583Y-220887978D01*
X279341978Y-220760583D01*
X279491776Y-220660491D01*
X279658222Y-220591547D01*
X279834918Y-220556400D01*
X280015082Y-220556400D01*
X280191778Y-220591547D01*
G37*
G36*
X275111778Y-220591547D02*
G01*
X275278224Y-220660491D01*
X275428022Y-220760583D01*
X275555417Y-220887978D01*
X275655509Y-221037776D01*
X275724453Y-221204222D01*
X275759600Y-221380918D01*
X275759600Y-221561082D01*
X275724453Y-221737778D01*
X275655509Y-221904224D01*
X275555417Y-222054022D01*
X275428022Y-222181417D01*
X275278224Y-222281509D01*
X275111778Y-222350453D01*
X274935082Y-222385600D01*
X274754918Y-222385600D01*
X274578222Y-222350453D01*
X274411776Y-222281509D01*
X274261978Y-222181417D01*
X274134583Y-222054022D01*
X274034491Y-221904224D01*
X273965547Y-221737778D01*
X273930400Y-221561082D01*
X273930400Y-221380918D01*
X273965547Y-221204222D01*
X274034491Y-221037776D01*
X274134583Y-220887978D01*
X274261978Y-220760583D01*
X274411776Y-220660491D01*
X274578222Y-220591547D01*
X274754918Y-220556400D01*
X274935082Y-220556400D01*
X275111778Y-220591547D01*
G37*
G36*
X272571778Y-220591547D02*
G01*
X272738224Y-220660491D01*
X272888022Y-220760583D01*
X273015417Y-220887978D01*
X273115509Y-221037776D01*
X273184453Y-221204222D01*
X273219600Y-221380918D01*
X273219600Y-221561082D01*
X273184453Y-221737778D01*
X273115509Y-221904224D01*
X273015417Y-222054022D01*
X272888022Y-222181417D01*
X272738224Y-222281509D01*
X272571778Y-222350453D01*
X272395082Y-222385600D01*
X272214918Y-222385600D01*
X272038222Y-222350453D01*
X271871776Y-222281509D01*
X271721978Y-222181417D01*
X271594583Y-222054022D01*
X271494491Y-221904224D01*
X271425547Y-221737778D01*
X271390400Y-221561082D01*
X271390400Y-221380918D01*
X271425547Y-221204222D01*
X271494491Y-221037776D01*
X271594583Y-220887978D01*
X271721978Y-220760583D01*
X271871776Y-220660491D01*
X272038222Y-220591547D01*
X272214918Y-220556400D01*
X272395082Y-220556400D01*
X272571778Y-220591547D01*
G37*
G36*
X282731778Y-220591547D02*
G01*
X282898224Y-220660491D01*
X283048022Y-220760583D01*
X283175417Y-220887978D01*
X283275509Y-221037776D01*
X283344453Y-221204222D01*
X283379600Y-221380918D01*
X283379600Y-221561082D01*
X283344453Y-221737778D01*
X283275509Y-221904224D01*
X283175417Y-222054022D01*
X283048022Y-222181417D01*
X282898224Y-222281509D01*
X282731778Y-222350453D01*
X282555082Y-222385600D01*
X282374918Y-222385600D01*
X282198222Y-222350453D01*
X282031776Y-222281509D01*
X281881978Y-222181417D01*
X281754583Y-222054022D01*
X281654491Y-221904224D01*
X281585547Y-221737778D01*
X281550400Y-221561082D01*
X281550400Y-221380918D01*
X281585547Y-221204222D01*
X281654491Y-221037776D01*
X281754583Y-220887978D01*
X281881978Y-220760583D01*
X282031776Y-220660491D01*
X282198222Y-220591547D01*
X282374918Y-220556400D01*
X282555082Y-220556400D01*
X282731778Y-220591547D01*
G37*
G36*
X285271778Y-220591547D02*
G01*
X285438224Y-220660491D01*
X285588022Y-220760583D01*
X285715417Y-220887978D01*
X285815509Y-221037776D01*
X285884453Y-221204222D01*
X285919600Y-221380918D01*
X285919600Y-221561082D01*
X285884453Y-221737778D01*
X285815509Y-221904224D01*
X285715417Y-222054022D01*
X285588022Y-222181417D01*
X285438224Y-222281509D01*
X285271778Y-222350453D01*
X285095082Y-222385600D01*
X284914918Y-222385600D01*
X284738222Y-222350453D01*
X284571776Y-222281509D01*
X284421978Y-222181417D01*
X284294583Y-222054022D01*
X284194491Y-221904224D01*
X284125547Y-221737778D01*
X284090400Y-221561082D01*
X284090400Y-221380918D01*
X284125547Y-221204222D01*
X284194491Y-221037776D01*
X284294583Y-220887978D01*
X284421978Y-220760583D01*
X284571776Y-220660491D01*
X284738222Y-220591547D01*
X284914918Y-220556400D01*
X285095082Y-220556400D01*
X285271778Y-220591547D01*
G37*
G36*
X287811778Y-220591547D02*
G01*
X287978224Y-220660491D01*
X288128022Y-220760583D01*
X288255417Y-220887978D01*
X288355509Y-221037776D01*
X288424453Y-221204222D01*
X288459600Y-221380918D01*
X288459600Y-221561082D01*
X288424453Y-221737778D01*
X288355509Y-221904224D01*
X288255417Y-222054022D01*
X288128022Y-222181417D01*
X287978224Y-222281509D01*
X287811778Y-222350453D01*
X287635082Y-222385600D01*
X287454918Y-222385600D01*
X287278222Y-222350453D01*
X287111776Y-222281509D01*
X286961978Y-222181417D01*
X286834583Y-222054022D01*
X286734491Y-221904224D01*
X286665547Y-221737778D01*
X286630400Y-221561082D01*
X286630400Y-221380918D01*
X286665547Y-221204222D01*
X286734491Y-221037776D01*
X286834583Y-220887978D01*
X286961978Y-220760583D01*
X287111776Y-220660491D01*
X287278222Y-220591547D01*
X287454918Y-220556400D01*
X287635082Y-220556400D01*
X287811778Y-220591547D01*
G37*
G36*
X290351778Y-220591547D02*
G01*
X290518224Y-220660491D01*
X290668022Y-220760583D01*
X290795417Y-220887978D01*
X290895509Y-221037776D01*
X290964453Y-221204222D01*
X290999600Y-221380918D01*
X290999600Y-221561082D01*
X290964453Y-221737778D01*
X290895509Y-221904224D01*
X290795417Y-222054022D01*
X290668022Y-222181417D01*
X290518224Y-222281509D01*
X290351778Y-222350453D01*
X290175082Y-222385600D01*
X289994918Y-222385600D01*
X289818222Y-222350453D01*
X289651776Y-222281509D01*
X289501978Y-222181417D01*
X289374583Y-222054022D01*
X289274491Y-221904224D01*
X289205547Y-221737778D01*
X289170400Y-221561082D01*
X289170400Y-221380918D01*
X289205547Y-221204222D01*
X289274491Y-221037776D01*
X289374583Y-220887978D01*
X289501978Y-220760583D01*
X289651776Y-220660491D01*
X289818222Y-220591547D01*
X289994918Y-220556400D01*
X290175082Y-220556400D01*
X290351778Y-220591547D01*
G37*
G36*
X295431778Y-220591547D02*
G01*
X295598224Y-220660491D01*
X295748022Y-220760583D01*
X295875417Y-220887978D01*
X295975509Y-221037776D01*
X296044453Y-221204222D01*
X296079600Y-221380918D01*
X296079600Y-221561082D01*
X296044453Y-221737778D01*
X295975509Y-221904224D01*
X295875417Y-222054022D01*
X295748022Y-222181417D01*
X295598224Y-222281509D01*
X295431778Y-222350453D01*
X295255082Y-222385600D01*
X295074918Y-222385600D01*
X294898222Y-222350453D01*
X294731776Y-222281509D01*
X294581978Y-222181417D01*
X294454583Y-222054022D01*
X294354491Y-221904224D01*
X294285547Y-221737778D01*
X294250400Y-221561082D01*
X294250400Y-221380918D01*
X294285547Y-221204222D01*
X294354491Y-221037776D01*
X294454583Y-220887978D01*
X294581978Y-220760583D01*
X294731776Y-220660491D01*
X294898222Y-220591547D01*
X295074918Y-220556400D01*
X295255082Y-220556400D01*
X295431778Y-220591547D01*
G37*
G36*
X270031778Y-220591547D02*
G01*
X270198224Y-220660491D01*
X270348022Y-220760583D01*
X270475417Y-220887978D01*
X270575509Y-221037776D01*
X270644453Y-221204222D01*
X270679600Y-221380918D01*
X270679600Y-221561082D01*
X270644453Y-221737778D01*
X270575509Y-221904224D01*
X270475417Y-222054022D01*
X270348022Y-222181417D01*
X270198224Y-222281509D01*
X270031778Y-222350453D01*
X269855082Y-222385600D01*
X269674918Y-222385600D01*
X269498222Y-222350453D01*
X269331776Y-222281509D01*
X269181978Y-222181417D01*
X269054583Y-222054022D01*
X268954491Y-221904224D01*
X268885547Y-221737778D01*
X268850400Y-221561082D01*
X268850400Y-221380918D01*
X268885547Y-221204222D01*
X268954491Y-221037776D01*
X269054583Y-220887978D01*
X269181978Y-220760583D01*
X269331776Y-220660491D01*
X269498222Y-220591547D01*
X269674918Y-220556400D01*
X269855082Y-220556400D01*
X270031778Y-220591547D01*
G37*
G36*
X310568051Y-220933480D02*
G01*
X310618920Y-220954551D01*
X310669786Y-220975620D01*
X310761342Y-221036796D01*
X310839204Y-221114658D01*
X310900380Y-221206214D01*
X310921449Y-221257080D01*
X310942520Y-221307949D01*
X310964000Y-221415941D01*
X310964000Y-221526059D01*
X310942520Y-221634051D01*
X310931771Y-221660000D01*
X310900380Y-221735786D01*
X310839204Y-221827342D01*
X310761342Y-221905204D01*
X310669786Y-221966380D01*
X310618920Y-221987449D01*
X310568051Y-222008520D01*
X310460059Y-222030000D01*
X310349941Y-222030000D01*
X310241949Y-222008520D01*
X310191080Y-221987449D01*
X310140214Y-221966380D01*
X310048658Y-221905204D01*
X309970796Y-221827342D01*
X309909620Y-221735786D01*
X309878229Y-221660000D01*
X309867480Y-221634051D01*
X309846000Y-221526059D01*
X309846000Y-221415941D01*
X309867480Y-221307949D01*
X309888551Y-221257080D01*
X309909620Y-221206214D01*
X309970796Y-221114658D01*
X310048658Y-221036796D01*
X310140214Y-220975620D01*
X310191080Y-220954551D01*
X310241949Y-220933480D01*
X310349941Y-220912000D01*
X310460059Y-220912000D01*
X310568051Y-220933480D01*
G37*
G36*
X264848051Y-220933480D02*
G01*
X264898920Y-220954551D01*
X264949786Y-220975620D01*
X265041342Y-221036796D01*
X265119204Y-221114658D01*
X265180380Y-221206214D01*
X265201449Y-221257080D01*
X265222520Y-221307949D01*
X265244000Y-221415941D01*
X265244000Y-221526059D01*
X265222520Y-221634051D01*
X265211771Y-221660000D01*
X265180380Y-221735786D01*
X265119204Y-221827342D01*
X265041342Y-221905204D01*
X264949786Y-221966380D01*
X264898920Y-221987449D01*
X264848051Y-222008520D01*
X264740059Y-222030000D01*
X264629941Y-222030000D01*
X264521949Y-222008520D01*
X264471080Y-221987449D01*
X264420214Y-221966380D01*
X264328658Y-221905204D01*
X264250796Y-221827342D01*
X264189620Y-221735786D01*
X264158229Y-221660000D01*
X264147480Y-221634051D01*
X264126000Y-221526059D01*
X264126000Y-221415941D01*
X264147480Y-221307949D01*
X264168551Y-221257080D01*
X264189620Y-221206214D01*
X264250796Y-221114658D01*
X264328658Y-221036796D01*
X264420214Y-220975620D01*
X264471080Y-220954551D01*
X264521949Y-220933480D01*
X264629941Y-220912000D01*
X264740059Y-220912000D01*
X264848051Y-220933480D01*
G37*
G36*
X105821023Y-218547590D02*
G01*
X105921682Y-218578125D01*
X105972013Y-218593392D01*
X106111165Y-218667771D01*
X106233133Y-218767867D01*
X106333229Y-218889835D01*
X106407608Y-219028987D01*
X106407608Y-219028988D01*
X106453410Y-219179977D01*
X106465000Y-219297655D01*
X106465000Y-220376345D01*
X106453410Y-220494023D01*
X106434488Y-220556400D01*
X106407608Y-220645013D01*
X106359638Y-220734757D01*
X106333229Y-220784165D01*
X106233133Y-220906133D01*
X106148459Y-220975622D01*
X106111164Y-221006229D01*
X105972012Y-221080608D01*
X105921681Y-221095875D01*
X105821022Y-221126410D01*
X105664000Y-221141875D01*
X105506977Y-221126410D01*
X105406318Y-221095875D01*
X105355987Y-221080608D01*
X105216835Y-221006229D01*
X105179538Y-220975620D01*
X105094867Y-220906133D01*
X104994771Y-220784164D01*
X104935604Y-220673471D01*
X104920392Y-220645012D01*
X104904174Y-220591547D01*
X104874590Y-220494022D01*
X104863000Y-220376344D01*
X104863001Y-219297655D01*
X104874591Y-219179977D01*
X104920393Y-219028988D01*
X104920393Y-219028987D01*
X104994772Y-218889835D01*
X105094868Y-218767867D01*
X105216836Y-218667771D01*
X105355988Y-218593392D01*
X105406319Y-218578125D01*
X105506978Y-218547590D01*
X105664000Y-218532125D01*
X105821023Y-218547590D01*
G37*
G36*
X103281023Y-218547590D02*
G01*
X103381682Y-218578125D01*
X103432013Y-218593392D01*
X103571165Y-218667771D01*
X103693133Y-218767867D01*
X103793229Y-218889835D01*
X103867608Y-219028987D01*
X103867608Y-219028988D01*
X103913410Y-219179977D01*
X103925000Y-219297655D01*
X103925000Y-220376345D01*
X103913410Y-220494023D01*
X103894488Y-220556400D01*
X103867608Y-220645013D01*
X103819638Y-220734757D01*
X103793229Y-220784165D01*
X103693133Y-220906133D01*
X103608459Y-220975622D01*
X103571164Y-221006229D01*
X103432012Y-221080608D01*
X103381681Y-221095875D01*
X103281022Y-221126410D01*
X103124000Y-221141875D01*
X102966977Y-221126410D01*
X102866318Y-221095875D01*
X102815987Y-221080608D01*
X102676835Y-221006229D01*
X102639538Y-220975620D01*
X102554867Y-220906133D01*
X102454771Y-220784164D01*
X102395604Y-220673471D01*
X102380392Y-220645012D01*
X102364174Y-220591547D01*
X102334590Y-220494022D01*
X102323000Y-220376344D01*
X102323001Y-219297655D01*
X102334591Y-219179977D01*
X102380393Y-219028988D01*
X102380393Y-219028987D01*
X102454772Y-218889835D01*
X102554868Y-218767867D01*
X102676836Y-218667771D01*
X102815988Y-218593392D01*
X102866319Y-218578125D01*
X102966978Y-218547590D01*
X103124000Y-218532125D01*
X103281023Y-218547590D01*
G37*
G36*
X88041023Y-218547590D02*
G01*
X88141682Y-218578125D01*
X88192013Y-218593392D01*
X88331165Y-218667771D01*
X88453133Y-218767867D01*
X88553229Y-218889835D01*
X88627608Y-219028987D01*
X88627608Y-219028988D01*
X88673410Y-219179977D01*
X88685000Y-219297655D01*
X88685000Y-220376345D01*
X88673410Y-220494023D01*
X88654488Y-220556400D01*
X88627608Y-220645013D01*
X88579638Y-220734757D01*
X88553229Y-220784165D01*
X88453133Y-220906133D01*
X88368459Y-220975622D01*
X88331164Y-221006229D01*
X88192012Y-221080608D01*
X88141681Y-221095875D01*
X88041022Y-221126410D01*
X87884000Y-221141875D01*
X87726977Y-221126410D01*
X87626318Y-221095875D01*
X87575987Y-221080608D01*
X87436835Y-221006229D01*
X87399538Y-220975620D01*
X87314867Y-220906133D01*
X87214771Y-220784164D01*
X87155604Y-220673471D01*
X87140392Y-220645012D01*
X87124174Y-220591547D01*
X87094590Y-220494022D01*
X87083000Y-220376344D01*
X87083001Y-219297655D01*
X87094591Y-219179977D01*
X87140393Y-219028988D01*
X87140393Y-219028987D01*
X87214772Y-218889835D01*
X87314868Y-218767867D01*
X87436836Y-218667771D01*
X87575988Y-218593392D01*
X87626319Y-218578125D01*
X87726978Y-218547590D01*
X87884000Y-218532125D01*
X88041023Y-218547590D01*
G37*
G36*
X197961142Y-219171242D02*
G01*
X198109101Y-219232529D01*
X198242255Y-219321499D01*
X198355501Y-219434745D01*
X198444471Y-219567899D01*
X198505758Y-219715858D01*
X198537000Y-219872925D01*
X198537000Y-220033075D01*
X198505758Y-220190142D01*
X198444471Y-220338101D01*
X198355501Y-220471255D01*
X198242255Y-220584501D01*
X198109101Y-220673471D01*
X197961142Y-220734758D01*
X197804075Y-220766000D01*
X197643925Y-220766000D01*
X197486858Y-220734758D01*
X197338899Y-220673471D01*
X197205745Y-220584501D01*
X197092499Y-220471255D01*
X197003529Y-220338101D01*
X196942242Y-220190142D01*
X196911000Y-220033075D01*
X196911000Y-219872925D01*
X196942242Y-219715858D01*
X197003529Y-219567899D01*
X197092499Y-219434745D01*
X197205745Y-219321499D01*
X197338899Y-219232529D01*
X197486858Y-219171242D01*
X197643925Y-219140000D01*
X197804075Y-219140000D01*
X197961142Y-219171242D01*
G37*
G36*
X197961142Y-216651242D02*
G01*
X198109101Y-216712529D01*
X198242255Y-216801499D01*
X198355501Y-216914745D01*
X198444471Y-217047899D01*
X198505758Y-217195858D01*
X198537000Y-217352925D01*
X198537000Y-217513075D01*
X198505758Y-217670142D01*
X198444471Y-217818101D01*
X198355501Y-217951255D01*
X198242255Y-218064501D01*
X198109101Y-218153471D01*
X197961142Y-218214758D01*
X197804075Y-218246000D01*
X197643925Y-218246000D01*
X197486858Y-218214758D01*
X197338899Y-218153471D01*
X197205745Y-218064501D01*
X197092499Y-217951255D01*
X197003529Y-217818101D01*
X196942242Y-217670142D01*
X196911000Y-217513075D01*
X196911000Y-217352925D01*
X196942242Y-217195858D01*
X197003529Y-217047899D01*
X197092499Y-216914745D01*
X197205745Y-216801499D01*
X197338899Y-216712529D01*
X197486858Y-216651242D01*
X197643925Y-216620000D01*
X197804075Y-216620000D01*
X197961142Y-216651242D01*
G37*
G36*
X169381142Y-214931242D02*
G01*
X169529101Y-214992529D01*
X169662255Y-215081499D01*
X169775501Y-215194745D01*
X169864471Y-215327899D01*
X169925758Y-215475858D01*
X169957000Y-215632925D01*
X169957000Y-215793075D01*
X169925758Y-215950142D01*
X169864471Y-216098101D01*
X169775501Y-216231255D01*
X169662255Y-216344501D01*
X169529101Y-216433471D01*
X169381142Y-216494758D01*
X169224075Y-216526000D01*
X169063925Y-216526000D01*
X168906858Y-216494758D01*
X168758899Y-216433471D01*
X168625745Y-216344501D01*
X168512499Y-216231255D01*
X168423529Y-216098101D01*
X168362242Y-215950142D01*
X168331000Y-215793075D01*
X168331000Y-215632925D01*
X168362242Y-215475858D01*
X168423529Y-215327899D01*
X168512499Y-215194745D01*
X168625745Y-215081499D01*
X168758899Y-214992529D01*
X168906858Y-214931242D01*
X169063925Y-214900000D01*
X169224075Y-214900000D01*
X169381142Y-214931242D01*
G37*
G36*
X197961142Y-214131242D02*
G01*
X198109101Y-214192529D01*
X198242255Y-214281499D01*
X198355501Y-214394745D01*
X198444471Y-214527899D01*
X198505758Y-214675858D01*
X198537000Y-214832925D01*
X198537000Y-214993075D01*
X198505758Y-215150142D01*
X198444471Y-215298101D01*
X198355501Y-215431255D01*
X198242255Y-215544501D01*
X198109101Y-215633471D01*
X197961142Y-215694758D01*
X197804075Y-215726000D01*
X197643925Y-215726000D01*
X197486858Y-215694758D01*
X197338899Y-215633471D01*
X197205745Y-215544501D01*
X197092499Y-215431255D01*
X197003529Y-215298101D01*
X196942242Y-215150142D01*
X196911000Y-214993075D01*
X196911000Y-214832925D01*
X196942242Y-214675858D01*
X197003529Y-214527899D01*
X197092499Y-214394745D01*
X197205745Y-214281499D01*
X197338899Y-214192529D01*
X197486858Y-214131242D01*
X197643925Y-214100000D01*
X197804075Y-214100000D01*
X197961142Y-214131242D01*
G37*
G36*
X500983835Y-211836128D02*
G01*
X501344354Y-211985460D01*
X501452017Y-212057398D01*
X501668814Y-212202257D01*
X501944743Y-212478186D01*
X501973685Y-212521501D01*
X502161540Y-212802646D01*
X502310872Y-213163165D01*
X502387000Y-213545887D01*
X502387000Y-213936113D01*
X502310872Y-214318835D01*
X502161540Y-214679354D01*
X502161539Y-214679355D01*
X501944743Y-215003814D01*
X501668814Y-215279743D01*
X501452017Y-215424602D01*
X501344354Y-215496540D01*
X500983835Y-215645872D01*
X500601113Y-215722000D01*
X500210887Y-215722000D01*
X499828165Y-215645872D01*
X499467646Y-215496540D01*
X499359983Y-215424602D01*
X499143186Y-215279743D01*
X498867257Y-215003814D01*
X498650461Y-214679355D01*
X498650460Y-214679354D01*
X498501128Y-214318835D01*
X498425000Y-213936113D01*
X498425000Y-213545887D01*
X498501128Y-213163165D01*
X498650460Y-212802646D01*
X498838315Y-212521501D01*
X498867257Y-212478186D01*
X499143186Y-212202257D01*
X499359983Y-212057398D01*
X499467646Y-211985460D01*
X499828165Y-211836128D01*
X500210887Y-211760000D01*
X500601113Y-211760000D01*
X500983835Y-211836128D01*
G37*
G36*
X509319436Y-212373635D02*
G01*
X509349027Y-212382611D01*
X509376296Y-212397187D01*
X509400198Y-212416802D01*
X509419813Y-212440704D01*
X509434389Y-212467973D01*
X509443365Y-212497564D01*
X509447000Y-212534474D01*
X509447000Y-214947526D01*
X509443365Y-214984436D01*
X509434389Y-215014027D01*
X509419813Y-215041296D01*
X509400198Y-215065198D01*
X509376296Y-215084813D01*
X509349027Y-215099389D01*
X509319436Y-215108365D01*
X509282526Y-215112000D01*
X506209474Y-215112000D01*
X506172564Y-215108365D01*
X506142973Y-215099389D01*
X506115704Y-215084813D01*
X506091802Y-215065198D01*
X506072187Y-215041296D01*
X506057611Y-215014027D01*
X506048635Y-214984436D01*
X506045000Y-214947526D01*
X506045000Y-212534474D01*
X506048635Y-212497564D01*
X506057611Y-212467973D01*
X506072187Y-212440704D01*
X506091802Y-212416802D01*
X506115704Y-212397187D01*
X506142973Y-212382611D01*
X506172564Y-212373635D01*
X506209474Y-212370000D01*
X509282526Y-212370000D01*
X509319436Y-212373635D01*
G37*
G36*
X169381142Y-212371242D02*
G01*
X169529101Y-212432529D01*
X169662255Y-212521499D01*
X169775501Y-212634745D01*
X169864471Y-212767899D01*
X169925758Y-212915858D01*
X169957000Y-213072925D01*
X169957000Y-213233075D01*
X169925758Y-213390142D01*
X169864471Y-213538101D01*
X169775501Y-213671255D01*
X169662255Y-213784501D01*
X169529101Y-213873471D01*
X169381142Y-213934758D01*
X169224075Y-213966000D01*
X169063925Y-213966000D01*
X168906858Y-213934758D01*
X168758899Y-213873471D01*
X168625745Y-213784501D01*
X168512499Y-213671255D01*
X168423529Y-213538101D01*
X168362242Y-213390142D01*
X168331000Y-213233075D01*
X168331000Y-213072925D01*
X168362242Y-212915858D01*
X168423529Y-212767899D01*
X168512499Y-212634745D01*
X168625745Y-212521499D01*
X168758899Y-212432529D01*
X168906858Y-212371242D01*
X169063925Y-212340000D01*
X169224075Y-212340000D01*
X169381142Y-212371242D01*
G37*
G36*
X197961142Y-211611242D02*
G01*
X198109101Y-211672529D01*
X198242255Y-211761499D01*
X198355501Y-211874745D01*
X198444471Y-212007899D01*
X198505758Y-212155858D01*
X198537000Y-212312925D01*
X198537000Y-212473075D01*
X198505758Y-212630142D01*
X198444471Y-212778101D01*
X198355501Y-212911255D01*
X198242255Y-213024501D01*
X198109101Y-213113471D01*
X197961142Y-213174758D01*
X197804075Y-213206000D01*
X197643925Y-213206000D01*
X197486858Y-213174758D01*
X197338899Y-213113471D01*
X197205745Y-213024501D01*
X197092499Y-212911255D01*
X197003529Y-212778101D01*
X196942242Y-212630142D01*
X196911000Y-212473075D01*
X196911000Y-212312925D01*
X196942242Y-212155858D01*
X197003529Y-212007899D01*
X197092499Y-211874745D01*
X197205745Y-211761499D01*
X197338899Y-211672529D01*
X197486858Y-211611242D01*
X197643925Y-211580000D01*
X197804075Y-211580000D01*
X197961142Y-211611242D01*
G37*
G36*
X197961142Y-209091242D02*
G01*
X198109101Y-209152529D01*
X198242255Y-209241499D01*
X198355501Y-209354745D01*
X198444471Y-209487899D01*
X198505758Y-209635858D01*
X198537000Y-209792925D01*
X198537000Y-209953075D01*
X198505758Y-210110142D01*
X198444471Y-210258101D01*
X198355501Y-210391255D01*
X198242255Y-210504501D01*
X198109101Y-210593471D01*
X197961142Y-210654758D01*
X197804075Y-210686000D01*
X197643925Y-210686000D01*
X197486858Y-210654758D01*
X197338899Y-210593471D01*
X197205745Y-210504501D01*
X197092499Y-210391255D01*
X197003529Y-210258101D01*
X196942242Y-210110142D01*
X196911000Y-209953075D01*
X196911000Y-209792925D01*
X196942242Y-209635858D01*
X197003529Y-209487899D01*
X197092499Y-209354745D01*
X197205745Y-209241499D01*
X197338899Y-209152529D01*
X197486858Y-209091242D01*
X197643925Y-209060000D01*
X197804075Y-209060000D01*
X197961142Y-209091242D01*
G37*
G36*
X197961142Y-206541242D02*
G01*
X198109101Y-206602529D01*
X198242255Y-206691499D01*
X198355501Y-206804745D01*
X198444471Y-206937899D01*
X198505758Y-207085858D01*
X198537000Y-207242925D01*
X198537000Y-207403075D01*
X198505758Y-207560142D01*
X198444471Y-207708101D01*
X198355501Y-207841255D01*
X198242255Y-207954501D01*
X198109101Y-208043471D01*
X197961142Y-208104758D01*
X197804075Y-208136000D01*
X197643925Y-208136000D01*
X197486858Y-208104758D01*
X197338899Y-208043471D01*
X197205745Y-207954501D01*
X197092499Y-207841255D01*
X197003529Y-207708101D01*
X196942242Y-207560142D01*
X196911000Y-207403075D01*
X196911000Y-207242925D01*
X196942242Y-207085858D01*
X197003529Y-206937899D01*
X197092499Y-206804745D01*
X197205745Y-206691499D01*
X197338899Y-206602529D01*
X197486858Y-206541242D01*
X197643925Y-206510000D01*
X197804075Y-206510000D01*
X197961142Y-206541242D01*
G37*
G36*
X303051778Y-205351547D02*
G01*
X303218224Y-205420491D01*
X303368022Y-205520583D01*
X303495417Y-205647978D01*
X303595509Y-205797776D01*
X303664453Y-205964222D01*
X303699600Y-206140918D01*
X303699600Y-206321082D01*
X303664453Y-206497778D01*
X303595509Y-206664224D01*
X303495417Y-206814022D01*
X303368022Y-206941417D01*
X303218224Y-207041509D01*
X303051778Y-207110453D01*
X302875082Y-207145600D01*
X302694918Y-207145600D01*
X302518222Y-207110453D01*
X302351776Y-207041509D01*
X302201978Y-206941417D01*
X302074583Y-206814022D01*
X301974491Y-206664224D01*
X301905547Y-206497778D01*
X301870400Y-206321082D01*
X301870400Y-206140918D01*
X301905547Y-205964222D01*
X301974491Y-205797776D01*
X302074583Y-205647978D01*
X302201978Y-205520583D01*
X302351776Y-205420491D01*
X302518222Y-205351547D01*
X302694918Y-205316400D01*
X302875082Y-205316400D01*
X303051778Y-205351547D01*
G37*
G36*
X287811778Y-205351547D02*
G01*
X287978224Y-205420491D01*
X288128022Y-205520583D01*
X288255417Y-205647978D01*
X288355509Y-205797776D01*
X288424453Y-205964222D01*
X288459600Y-206140918D01*
X288459600Y-206321082D01*
X288424453Y-206497778D01*
X288355509Y-206664224D01*
X288255417Y-206814022D01*
X288128022Y-206941417D01*
X287978224Y-207041509D01*
X287811778Y-207110453D01*
X287635082Y-207145600D01*
X287454918Y-207145600D01*
X287278222Y-207110453D01*
X287111776Y-207041509D01*
X286961978Y-206941417D01*
X286834583Y-206814022D01*
X286734491Y-206664224D01*
X286665547Y-206497778D01*
X286630400Y-206321082D01*
X286630400Y-206140918D01*
X286665547Y-205964222D01*
X286734491Y-205797776D01*
X286834583Y-205647978D01*
X286961978Y-205520583D01*
X287111776Y-205420491D01*
X287278222Y-205351547D01*
X287454918Y-205316400D01*
X287635082Y-205316400D01*
X287811778Y-205351547D01*
G37*
G36*
X285271778Y-205351547D02*
G01*
X285438224Y-205420491D01*
X285588022Y-205520583D01*
X285715417Y-205647978D01*
X285815509Y-205797776D01*
X285884453Y-205964222D01*
X285919600Y-206140918D01*
X285919600Y-206321082D01*
X285884453Y-206497778D01*
X285815509Y-206664224D01*
X285715417Y-206814022D01*
X285588022Y-206941417D01*
X285438224Y-207041509D01*
X285271778Y-207110453D01*
X285095082Y-207145600D01*
X284914918Y-207145600D01*
X284738222Y-207110453D01*
X284571776Y-207041509D01*
X284421978Y-206941417D01*
X284294583Y-206814022D01*
X284194491Y-206664224D01*
X284125547Y-206497778D01*
X284090400Y-206321082D01*
X284090400Y-206140918D01*
X284125547Y-205964222D01*
X284194491Y-205797776D01*
X284294583Y-205647978D01*
X284421978Y-205520583D01*
X284571776Y-205420491D01*
X284738222Y-205351547D01*
X284914918Y-205316400D01*
X285095082Y-205316400D01*
X285271778Y-205351547D01*
G37*
G36*
X290351778Y-205351547D02*
G01*
X290518224Y-205420491D01*
X290668022Y-205520583D01*
X290795417Y-205647978D01*
X290895509Y-205797776D01*
X290964453Y-205964222D01*
X290999600Y-206140918D01*
X290999600Y-206321082D01*
X290964453Y-206497778D01*
X290895509Y-206664224D01*
X290795417Y-206814022D01*
X290668022Y-206941417D01*
X290518224Y-207041509D01*
X290351778Y-207110453D01*
X290175082Y-207145600D01*
X289994918Y-207145600D01*
X289818222Y-207110453D01*
X289651776Y-207041509D01*
X289501978Y-206941417D01*
X289374583Y-206814022D01*
X289274491Y-206664224D01*
X289205547Y-206497778D01*
X289170400Y-206321082D01*
X289170400Y-206140918D01*
X289205547Y-205964222D01*
X289274491Y-205797776D01*
X289374583Y-205647978D01*
X289501978Y-205520583D01*
X289651776Y-205420491D01*
X289818222Y-205351547D01*
X289994918Y-205316400D01*
X290175082Y-205316400D01*
X290351778Y-205351547D01*
G37*
G36*
X292891778Y-205351547D02*
G01*
X293058224Y-205420491D01*
X293208022Y-205520583D01*
X293335417Y-205647978D01*
X293435509Y-205797776D01*
X293504453Y-205964222D01*
X293539600Y-206140918D01*
X293539600Y-206321082D01*
X293504453Y-206497778D01*
X293435509Y-206664224D01*
X293335417Y-206814022D01*
X293208022Y-206941417D01*
X293058224Y-207041509D01*
X292891778Y-207110453D01*
X292715082Y-207145600D01*
X292534918Y-207145600D01*
X292358222Y-207110453D01*
X292191776Y-207041509D01*
X292041978Y-206941417D01*
X291914583Y-206814022D01*
X291814491Y-206664224D01*
X291745547Y-206497778D01*
X291710400Y-206321082D01*
X291710400Y-206140918D01*
X291745547Y-205964222D01*
X291814491Y-205797776D01*
X291914583Y-205647978D01*
X292041978Y-205520583D01*
X292191776Y-205420491D01*
X292358222Y-205351547D01*
X292534918Y-205316400D01*
X292715082Y-205316400D01*
X292891778Y-205351547D01*
G37*
G36*
X267491778Y-205351547D02*
G01*
X267658224Y-205420491D01*
X267808022Y-205520583D01*
X267935417Y-205647978D01*
X268035509Y-205797776D01*
X268104453Y-205964222D01*
X268139600Y-206140918D01*
X268139600Y-206321082D01*
X268104453Y-206497778D01*
X268035509Y-206664224D01*
X267935417Y-206814022D01*
X267808022Y-206941417D01*
X267658224Y-207041509D01*
X267491778Y-207110453D01*
X267315082Y-207145600D01*
X267134918Y-207145600D01*
X266958222Y-207110453D01*
X266791776Y-207041509D01*
X266641978Y-206941417D01*
X266514583Y-206814022D01*
X266414491Y-206664224D01*
X266345547Y-206497778D01*
X266310400Y-206321082D01*
X266310400Y-206140918D01*
X266345547Y-205964222D01*
X266414491Y-205797776D01*
X266514583Y-205647978D01*
X266641978Y-205520583D01*
X266791776Y-205420491D01*
X266958222Y-205351547D01*
X267134918Y-205316400D01*
X267315082Y-205316400D01*
X267491778Y-205351547D01*
G37*
G36*
X300511778Y-205351547D02*
G01*
X300678224Y-205420491D01*
X300828022Y-205520583D01*
X300955417Y-205647978D01*
X301055509Y-205797776D01*
X301124453Y-205964222D01*
X301159600Y-206140918D01*
X301159600Y-206321082D01*
X301124453Y-206497778D01*
X301055509Y-206664224D01*
X300955417Y-206814022D01*
X300828022Y-206941417D01*
X300678224Y-207041509D01*
X300511778Y-207110453D01*
X300335082Y-207145600D01*
X300154918Y-207145600D01*
X299978222Y-207110453D01*
X299811776Y-207041509D01*
X299661978Y-206941417D01*
X299534583Y-206814022D01*
X299434491Y-206664224D01*
X299365547Y-206497778D01*
X299330400Y-206321082D01*
X299330400Y-206140918D01*
X299365547Y-205964222D01*
X299434491Y-205797776D01*
X299534583Y-205647978D01*
X299661978Y-205520583D01*
X299811776Y-205420491D01*
X299978222Y-205351547D01*
X300154918Y-205316400D01*
X300335082Y-205316400D01*
X300511778Y-205351547D01*
G37*
G36*
X272571778Y-205351547D02*
G01*
X272738224Y-205420491D01*
X272888022Y-205520583D01*
X273015417Y-205647978D01*
X273115509Y-205797776D01*
X273184453Y-205964222D01*
X273219600Y-206140918D01*
X273219600Y-206321082D01*
X273184453Y-206497778D01*
X273115509Y-206664224D01*
X273015417Y-206814022D01*
X272888022Y-206941417D01*
X272738224Y-207041509D01*
X272571778Y-207110453D01*
X272395082Y-207145600D01*
X272214918Y-207145600D01*
X272038222Y-207110453D01*
X271871776Y-207041509D01*
X271721978Y-206941417D01*
X271594583Y-206814022D01*
X271494491Y-206664224D01*
X271425547Y-206497778D01*
X271390400Y-206321082D01*
X271390400Y-206140918D01*
X271425547Y-205964222D01*
X271494491Y-205797776D01*
X271594583Y-205647978D01*
X271721978Y-205520583D01*
X271871776Y-205420491D01*
X272038222Y-205351547D01*
X272214918Y-205316400D01*
X272395082Y-205316400D01*
X272571778Y-205351547D01*
G37*
G36*
X295431778Y-205351547D02*
G01*
X295598224Y-205420491D01*
X295748022Y-205520583D01*
X295875417Y-205647978D01*
X295975509Y-205797776D01*
X296044453Y-205964222D01*
X296079600Y-206140918D01*
X296079600Y-206321082D01*
X296044453Y-206497778D01*
X295975509Y-206664224D01*
X295875417Y-206814022D01*
X295748022Y-206941417D01*
X295598224Y-207041509D01*
X295431778Y-207110453D01*
X295255082Y-207145600D01*
X295074918Y-207145600D01*
X294898222Y-207110453D01*
X294731776Y-207041509D01*
X294581978Y-206941417D01*
X294454583Y-206814022D01*
X294354491Y-206664224D01*
X294285547Y-206497778D01*
X294250400Y-206321082D01*
X294250400Y-206140918D01*
X294285547Y-205964222D01*
X294354491Y-205797776D01*
X294454583Y-205647978D01*
X294581978Y-205520583D01*
X294731776Y-205420491D01*
X294898222Y-205351547D01*
X295074918Y-205316400D01*
X295255082Y-205316400D01*
X295431778Y-205351547D01*
G37*
G36*
X270031778Y-205351547D02*
G01*
X270198224Y-205420491D01*
X270348022Y-205520583D01*
X270475417Y-205647978D01*
X270575509Y-205797776D01*
X270644453Y-205964222D01*
X270679600Y-206140918D01*
X270679600Y-206321082D01*
X270644453Y-206497778D01*
X270575509Y-206664224D01*
X270475417Y-206814022D01*
X270348022Y-206941417D01*
X270198224Y-207041509D01*
X270031778Y-207110453D01*
X269855082Y-207145600D01*
X269674918Y-207145600D01*
X269498222Y-207110453D01*
X269331776Y-207041509D01*
X269181978Y-206941417D01*
X269054583Y-206814022D01*
X268954491Y-206664224D01*
X268885547Y-206497778D01*
X268850400Y-206321082D01*
X268850400Y-206140918D01*
X268885547Y-205964222D01*
X268954491Y-205797776D01*
X269054583Y-205647978D01*
X269181978Y-205520583D01*
X269331776Y-205420491D01*
X269498222Y-205351547D01*
X269674918Y-205316400D01*
X269855082Y-205316400D01*
X270031778Y-205351547D01*
G37*
G36*
X280191778Y-205351547D02*
G01*
X280358224Y-205420491D01*
X280508022Y-205520583D01*
X280635417Y-205647978D01*
X280735509Y-205797776D01*
X280804453Y-205964222D01*
X280839600Y-206140918D01*
X280839600Y-206321082D01*
X280804453Y-206497778D01*
X280735509Y-206664224D01*
X280635417Y-206814022D01*
X280508022Y-206941417D01*
X280358224Y-207041509D01*
X280191778Y-207110453D01*
X280015082Y-207145600D01*
X279834918Y-207145600D01*
X279658222Y-207110453D01*
X279491776Y-207041509D01*
X279341978Y-206941417D01*
X279214583Y-206814022D01*
X279114491Y-206664224D01*
X279045547Y-206497778D01*
X279010400Y-206321082D01*
X279010400Y-206140918D01*
X279045547Y-205964222D01*
X279114491Y-205797776D01*
X279214583Y-205647978D01*
X279341978Y-205520583D01*
X279491776Y-205420491D01*
X279658222Y-205351547D01*
X279834918Y-205316400D01*
X280015082Y-205316400D01*
X280191778Y-205351547D01*
G37*
G36*
X305591778Y-205351547D02*
G01*
X305758224Y-205420491D01*
X305908022Y-205520583D01*
X306035417Y-205647978D01*
X306135509Y-205797776D01*
X306204453Y-205964222D01*
X306239600Y-206140918D01*
X306239600Y-206321082D01*
X306204453Y-206497778D01*
X306135509Y-206664224D01*
X306035417Y-206814022D01*
X305908022Y-206941417D01*
X305758224Y-207041509D01*
X305591778Y-207110453D01*
X305415082Y-207145600D01*
X305234918Y-207145600D01*
X305058222Y-207110453D01*
X304891776Y-207041509D01*
X304741978Y-206941417D01*
X304614583Y-206814022D01*
X304514491Y-206664224D01*
X304445547Y-206497778D01*
X304410400Y-206321082D01*
X304410400Y-206140918D01*
X304445547Y-205964222D01*
X304514491Y-205797776D01*
X304614583Y-205647978D01*
X304741978Y-205520583D01*
X304891776Y-205420491D01*
X305058222Y-205351547D01*
X305234918Y-205316400D01*
X305415082Y-205316400D01*
X305591778Y-205351547D01*
G37*
G36*
X277651778Y-205351547D02*
G01*
X277818224Y-205420491D01*
X277968022Y-205520583D01*
X278095417Y-205647978D01*
X278195509Y-205797776D01*
X278264453Y-205964222D01*
X278299600Y-206140918D01*
X278299600Y-206321082D01*
X278264453Y-206497778D01*
X278195509Y-206664224D01*
X278095417Y-206814022D01*
X277968022Y-206941417D01*
X277818224Y-207041509D01*
X277651778Y-207110453D01*
X277475082Y-207145600D01*
X277294918Y-207145600D01*
X277118222Y-207110453D01*
X276951776Y-207041509D01*
X276801978Y-206941417D01*
X276674583Y-206814022D01*
X276574491Y-206664224D01*
X276505547Y-206497778D01*
X276470400Y-206321082D01*
X276470400Y-206140918D01*
X276505547Y-205964222D01*
X276574491Y-205797776D01*
X276674583Y-205647978D01*
X276801978Y-205520583D01*
X276951776Y-205420491D01*
X277118222Y-205351547D01*
X277294918Y-205316400D01*
X277475082Y-205316400D01*
X277651778Y-205351547D01*
G37*
G36*
X297971778Y-205351547D02*
G01*
X298138224Y-205420491D01*
X298288022Y-205520583D01*
X298415417Y-205647978D01*
X298515509Y-205797776D01*
X298584453Y-205964222D01*
X298619600Y-206140918D01*
X298619600Y-206321082D01*
X298584453Y-206497778D01*
X298515509Y-206664224D01*
X298415417Y-206814022D01*
X298288022Y-206941417D01*
X298138224Y-207041509D01*
X297971778Y-207110453D01*
X297795082Y-207145600D01*
X297614918Y-207145600D01*
X297438222Y-207110453D01*
X297271776Y-207041509D01*
X297121978Y-206941417D01*
X296994583Y-206814022D01*
X296894491Y-206664224D01*
X296825547Y-206497778D01*
X296790400Y-206321082D01*
X296790400Y-206140918D01*
X296825547Y-205964222D01*
X296894491Y-205797776D01*
X296994583Y-205647978D01*
X297121978Y-205520583D01*
X297271776Y-205420491D01*
X297438222Y-205351547D01*
X297614918Y-205316400D01*
X297795082Y-205316400D01*
X297971778Y-205351547D01*
G37*
G36*
X282731778Y-205351547D02*
G01*
X282898224Y-205420491D01*
X283048022Y-205520583D01*
X283175417Y-205647978D01*
X283275509Y-205797776D01*
X283344453Y-205964222D01*
X283379600Y-206140918D01*
X283379600Y-206321082D01*
X283344453Y-206497778D01*
X283275509Y-206664224D01*
X283175417Y-206814022D01*
X283048022Y-206941417D01*
X282898224Y-207041509D01*
X282731778Y-207110453D01*
X282555082Y-207145600D01*
X282374918Y-207145600D01*
X282198222Y-207110453D01*
X282031776Y-207041509D01*
X281881978Y-206941417D01*
X281754583Y-206814022D01*
X281654491Y-206664224D01*
X281585547Y-206497778D01*
X281550400Y-206321082D01*
X281550400Y-206140918D01*
X281585547Y-205964222D01*
X281654491Y-205797776D01*
X281754583Y-205647978D01*
X281881978Y-205520583D01*
X282031776Y-205420491D01*
X282198222Y-205351547D01*
X282374918Y-205316400D01*
X282555082Y-205316400D01*
X282731778Y-205351547D01*
G37*
G36*
X308131778Y-205351547D02*
G01*
X308298224Y-205420491D01*
X308448022Y-205520583D01*
X308575417Y-205647978D01*
X308675509Y-205797776D01*
X308744453Y-205964222D01*
X308779600Y-206140918D01*
X308779600Y-206321082D01*
X308744453Y-206497778D01*
X308675509Y-206664224D01*
X308575417Y-206814022D01*
X308448022Y-206941417D01*
X308298224Y-207041509D01*
X308131778Y-207110453D01*
X307955082Y-207145600D01*
X307774918Y-207145600D01*
X307598222Y-207110453D01*
X307431776Y-207041509D01*
X307281978Y-206941417D01*
X307154583Y-206814022D01*
X307054491Y-206664224D01*
X306985547Y-206497778D01*
X306950400Y-206321082D01*
X306950400Y-206140918D01*
X306985547Y-205964222D01*
X307054491Y-205797776D01*
X307154583Y-205647978D01*
X307281978Y-205520583D01*
X307431776Y-205420491D01*
X307598222Y-205351547D01*
X307774918Y-205316400D01*
X307955082Y-205316400D01*
X308131778Y-205351547D01*
G37*
G36*
X275111778Y-205351547D02*
G01*
X275278224Y-205420491D01*
X275428022Y-205520583D01*
X275555417Y-205647978D01*
X275655509Y-205797776D01*
X275724453Y-205964222D01*
X275759600Y-206140918D01*
X275759600Y-206321082D01*
X275724453Y-206497778D01*
X275655509Y-206664224D01*
X275555417Y-206814022D01*
X275428022Y-206941417D01*
X275278224Y-207041509D01*
X275111778Y-207110453D01*
X274935082Y-207145600D01*
X274754918Y-207145600D01*
X274578222Y-207110453D01*
X274411776Y-207041509D01*
X274261978Y-206941417D01*
X274134583Y-206814022D01*
X274034491Y-206664224D01*
X273965547Y-206497778D01*
X273930400Y-206321082D01*
X273930400Y-206140918D01*
X273965547Y-205964222D01*
X274034491Y-205797776D01*
X274134583Y-205647978D01*
X274261978Y-205520583D01*
X274411776Y-205420491D01*
X274578222Y-205351547D01*
X274754918Y-205316400D01*
X274935082Y-205316400D01*
X275111778Y-205351547D01*
G37*
G36*
X264848051Y-205693480D02*
G01*
X264898920Y-205714551D01*
X264949786Y-205735620D01*
X265041342Y-205796796D01*
X265119204Y-205874658D01*
X265180380Y-205966214D01*
X265201449Y-206017080D01*
X265222520Y-206067949D01*
X265244000Y-206175941D01*
X265244000Y-206286059D01*
X265222520Y-206394051D01*
X265201449Y-206444920D01*
X265180380Y-206495786D01*
X265119204Y-206587342D01*
X265041342Y-206665204D01*
X264949786Y-206726380D01*
X264898920Y-206747449D01*
X264848051Y-206768520D01*
X264740059Y-206790000D01*
X264629941Y-206790000D01*
X264521949Y-206768520D01*
X264471080Y-206747449D01*
X264420214Y-206726380D01*
X264328658Y-206665204D01*
X264250796Y-206587342D01*
X264189620Y-206495786D01*
X264168551Y-206444920D01*
X264147480Y-206394051D01*
X264126000Y-206286059D01*
X264126000Y-206175941D01*
X264147480Y-206067949D01*
X264168551Y-206017080D01*
X264189620Y-205966214D01*
X264250796Y-205874658D01*
X264328658Y-205796796D01*
X264420214Y-205735620D01*
X264471080Y-205714551D01*
X264521949Y-205693480D01*
X264629941Y-205672000D01*
X264740059Y-205672000D01*
X264848051Y-205693480D01*
G37*
G36*
X310568051Y-205693480D02*
G01*
X310618920Y-205714551D01*
X310669786Y-205735620D01*
X310761342Y-205796796D01*
X310839204Y-205874658D01*
X310900380Y-205966214D01*
X310921449Y-206017080D01*
X310942520Y-206067949D01*
X310964000Y-206175941D01*
X310964000Y-206286059D01*
X310942520Y-206394051D01*
X310921449Y-206444920D01*
X310900380Y-206495786D01*
X310839204Y-206587342D01*
X310761342Y-206665204D01*
X310669786Y-206726380D01*
X310618920Y-206747449D01*
X310568051Y-206768520D01*
X310460059Y-206790000D01*
X310349941Y-206790000D01*
X310241949Y-206768520D01*
X310191080Y-206747449D01*
X310140214Y-206726380D01*
X310048658Y-206665204D01*
X309970796Y-206587342D01*
X309909620Y-206495786D01*
X309888551Y-206444920D01*
X309867480Y-206394051D01*
X309846000Y-206286059D01*
X309846000Y-206175941D01*
X309867480Y-206067949D01*
X309888551Y-206017080D01*
X309909620Y-205966214D01*
X309970796Y-205874658D01*
X310048658Y-205796796D01*
X310140214Y-205735620D01*
X310191080Y-205714551D01*
X310241949Y-205693480D01*
X310349941Y-205672000D01*
X310460059Y-205672000D01*
X310568051Y-205693480D01*
G37*
G36*
X167521142Y-202351242D02*
G01*
X167669101Y-202412529D01*
X167802255Y-202501499D01*
X167915501Y-202614745D01*
X168004471Y-202747899D01*
X168065758Y-202895858D01*
X168097000Y-203052925D01*
X168097000Y-203213075D01*
X168065758Y-203370142D01*
X168004471Y-203518101D01*
X167915501Y-203651255D01*
X167802255Y-203764501D01*
X167669101Y-203853471D01*
X167521142Y-203914758D01*
X167364075Y-203946000D01*
X167203925Y-203946000D01*
X167046858Y-203914758D01*
X166898899Y-203853471D01*
X166765745Y-203764501D01*
X166652499Y-203651255D01*
X166563529Y-203518101D01*
X166502242Y-203370142D01*
X166471000Y-203213075D01*
X166471000Y-203052925D01*
X166502242Y-202895858D01*
X166563529Y-202747899D01*
X166652499Y-202614745D01*
X166765745Y-202501499D01*
X166898899Y-202412529D01*
X167046858Y-202351242D01*
X167203925Y-202320000D01*
X167364075Y-202320000D01*
X167521142Y-202351242D01*
G37*
G36*
X170041142Y-202351242D02*
G01*
X170189101Y-202412529D01*
X170322255Y-202501499D01*
X170435501Y-202614745D01*
X170524471Y-202747899D01*
X170585758Y-202895858D01*
X170617000Y-203052925D01*
X170617000Y-203213075D01*
X170585758Y-203370142D01*
X170524471Y-203518101D01*
X170435501Y-203651255D01*
X170322255Y-203764501D01*
X170189101Y-203853471D01*
X170041142Y-203914758D01*
X169884075Y-203946000D01*
X169723925Y-203946000D01*
X169566858Y-203914758D01*
X169418899Y-203853471D01*
X169285745Y-203764501D01*
X169172499Y-203651255D01*
X169083529Y-203518101D01*
X169022242Y-203370142D01*
X168991000Y-203213075D01*
X168991000Y-203052925D01*
X169022242Y-202895858D01*
X169083529Y-202747899D01*
X169172499Y-202614745D01*
X169285745Y-202501499D01*
X169418899Y-202412529D01*
X169566858Y-202351242D01*
X169723925Y-202320000D01*
X169884075Y-202320000D01*
X170041142Y-202351242D01*
G37*
G36*
X305230436Y-187481635D02*
G01*
X305260027Y-187490611D01*
X305287296Y-187505187D01*
X305311198Y-187524802D01*
X305330813Y-187548704D01*
X305345389Y-187575973D01*
X305354365Y-187605564D01*
X305358000Y-187642474D01*
X305358000Y-190055526D01*
X305354365Y-190092436D01*
X305345389Y-190122027D01*
X305330813Y-190149296D01*
X305311198Y-190173198D01*
X305287296Y-190192813D01*
X305260027Y-190207389D01*
X305230436Y-190216365D01*
X305193526Y-190220000D01*
X302120474Y-190220000D01*
X302083564Y-190216365D01*
X302053973Y-190207389D01*
X302026704Y-190192813D01*
X302002802Y-190173198D01*
X301983187Y-190149296D01*
X301968611Y-190122027D01*
X301959635Y-190092436D01*
X301956000Y-190055526D01*
X301956000Y-187642474D01*
X301959635Y-187605564D01*
X301968611Y-187575973D01*
X301983187Y-187548704D01*
X302002802Y-187524802D01*
X302026704Y-187505187D01*
X302053973Y-187490611D01*
X302083564Y-187481635D01*
X302120474Y-187478000D01*
X305193526Y-187478000D01*
X305230436Y-187481635D01*
G37*
G36*
X296894835Y-184874128D02*
G01*
X297255354Y-185023460D01*
X297255355Y-185023461D01*
X297579814Y-185240257D01*
X297855743Y-185516186D01*
X297905622Y-185590836D01*
X298072540Y-185840646D01*
X298221872Y-186201165D01*
X298298000Y-186583887D01*
X298298000Y-186974113D01*
X298221872Y-187356835D01*
X298072540Y-187717354D01*
X298000602Y-187825017D01*
X297855743Y-188041814D01*
X297579814Y-188317743D01*
X297363017Y-188462602D01*
X297255354Y-188534540D01*
X296894835Y-188683872D01*
X296512113Y-188760000D01*
X296121887Y-188760000D01*
X295739165Y-188683872D01*
X295378646Y-188534540D01*
X295270983Y-188462602D01*
X295054186Y-188317743D01*
X294778257Y-188041814D01*
X294633398Y-187825017D01*
X294561460Y-187717354D01*
X294412128Y-187356835D01*
X294336000Y-186974113D01*
X294336000Y-186583887D01*
X294412128Y-186201165D01*
X294561460Y-185840646D01*
X294728378Y-185590836D01*
X294778257Y-185516186D01*
X295054186Y-185240257D01*
X295378645Y-185023461D01*
X295378646Y-185023460D01*
X295739165Y-184874128D01*
X296121887Y-184798000D01*
X296512113Y-184798000D01*
X296894835Y-184874128D01*
G37*
G36*
X489108835Y-183108128D02*
G01*
X489469354Y-183257460D01*
X489469355Y-183257461D01*
X489793814Y-183474257D01*
X490069743Y-183750186D01*
X490198996Y-183943628D01*
X490286540Y-184074646D01*
X490435872Y-184435165D01*
X490512000Y-184817887D01*
X490512000Y-185208113D01*
X490435872Y-185590835D01*
X490286540Y-185951354D01*
X490214602Y-186059017D01*
X490069743Y-186275814D01*
X489793814Y-186551743D01*
X489577017Y-186696602D01*
X489469354Y-186768540D01*
X489108835Y-186917872D01*
X488726113Y-186994000D01*
X488335887Y-186994000D01*
X487953165Y-186917872D01*
X487592646Y-186768540D01*
X487484983Y-186696602D01*
X487268186Y-186551743D01*
X486992257Y-186275814D01*
X486847398Y-186059017D01*
X486775460Y-185951354D01*
X486626128Y-185590835D01*
X486550000Y-185208113D01*
X486550000Y-184817887D01*
X486626128Y-184435165D01*
X486775460Y-184074646D01*
X486863004Y-183943628D01*
X486992257Y-183750186D01*
X487268186Y-183474257D01*
X487592645Y-183257461D01*
X487592646Y-183257460D01*
X487953165Y-183108128D01*
X488335887Y-183032000D01*
X488726113Y-183032000D01*
X489108835Y-183108128D01*
G37*
G36*
X464127835Y-183108128D02*
G01*
X464488354Y-183257460D01*
X464488355Y-183257461D01*
X464812814Y-183474257D01*
X465088743Y-183750186D01*
X465217996Y-183943628D01*
X465305540Y-184074646D01*
X465454872Y-184435165D01*
X465531000Y-184817887D01*
X465531000Y-185208113D01*
X465454872Y-185590835D01*
X465305540Y-185951354D01*
X465233602Y-186059017D01*
X465088743Y-186275814D01*
X464812814Y-186551743D01*
X464596017Y-186696602D01*
X464488354Y-186768540D01*
X464127835Y-186917872D01*
X463745113Y-186994000D01*
X463354887Y-186994000D01*
X462972165Y-186917872D01*
X462611646Y-186768540D01*
X462503983Y-186696602D01*
X462287186Y-186551743D01*
X462011257Y-186275814D01*
X461866398Y-186059017D01*
X461794460Y-185951354D01*
X461645128Y-185590835D01*
X461569000Y-185208113D01*
X461569000Y-184817887D01*
X461645128Y-184435165D01*
X461794460Y-184074646D01*
X461882004Y-183943628D01*
X462011257Y-183750186D01*
X462287186Y-183474257D01*
X462611645Y-183257461D01*
X462611646Y-183257460D01*
X462972165Y-183108128D01*
X463354887Y-183032000D01*
X463745113Y-183032000D01*
X464127835Y-183108128D01*
G37*
G36*
X349865835Y-183108128D02*
G01*
X350226354Y-183257460D01*
X350226355Y-183257461D01*
X350550814Y-183474257D01*
X350826743Y-183750186D01*
X350955996Y-183943628D01*
X351043540Y-184074646D01*
X351192872Y-184435165D01*
X351269000Y-184817887D01*
X351269000Y-185208113D01*
X351192872Y-185590835D01*
X351043540Y-185951354D01*
X350971602Y-186059017D01*
X350826743Y-186275814D01*
X350550814Y-186551743D01*
X350334017Y-186696602D01*
X350226354Y-186768540D01*
X349865835Y-186917872D01*
X349483113Y-186994000D01*
X349092887Y-186994000D01*
X348710165Y-186917872D01*
X348349646Y-186768540D01*
X348241983Y-186696602D01*
X348025186Y-186551743D01*
X347749257Y-186275814D01*
X347604398Y-186059017D01*
X347532460Y-185951354D01*
X347383128Y-185590835D01*
X347307000Y-185208113D01*
X347307000Y-184817887D01*
X347383128Y-184435165D01*
X347532460Y-184074646D01*
X347620004Y-183943628D01*
X347749257Y-183750186D01*
X348025186Y-183474257D01*
X348349645Y-183257461D01*
X348349646Y-183257460D01*
X348710165Y-183108128D01*
X349092887Y-183032000D01*
X349483113Y-183032000D01*
X349865835Y-183108128D01*
G37*
G36*
X210724835Y-183108128D02*
G01*
X211085354Y-183257460D01*
X211085355Y-183257461D01*
X211409814Y-183474257D01*
X211685743Y-183750186D01*
X211814996Y-183943628D01*
X211902540Y-184074646D01*
X212051872Y-184435165D01*
X212128000Y-184817887D01*
X212128000Y-185208113D01*
X212051872Y-185590835D01*
X211902540Y-185951354D01*
X211830602Y-186059017D01*
X211685743Y-186275814D01*
X211409814Y-186551743D01*
X211193017Y-186696602D01*
X211085354Y-186768540D01*
X210724835Y-186917872D01*
X210342113Y-186994000D01*
X209951887Y-186994000D01*
X209569165Y-186917872D01*
X209208646Y-186768540D01*
X209100983Y-186696602D01*
X208884186Y-186551743D01*
X208608257Y-186275814D01*
X208463398Y-186059017D01*
X208391460Y-185951354D01*
X208242128Y-185590835D01*
X208166000Y-185208113D01*
X208166000Y-184817887D01*
X208242128Y-184435165D01*
X208391460Y-184074646D01*
X208479004Y-183943628D01*
X208608257Y-183750186D01*
X208884186Y-183474257D01*
X209208645Y-183257461D01*
X209208646Y-183257460D01*
X209569165Y-183108128D01*
X209951887Y-183032000D01*
X210342113Y-183032000D01*
X210724835Y-183108128D01*
G37*
G36*
X185743835Y-183108128D02*
G01*
X186104354Y-183257460D01*
X186104355Y-183257461D01*
X186428814Y-183474257D01*
X186704743Y-183750186D01*
X186833996Y-183943628D01*
X186921540Y-184074646D01*
X187070872Y-184435165D01*
X187147000Y-184817887D01*
X187147000Y-185208113D01*
X187070872Y-185590835D01*
X186921540Y-185951354D01*
X186849602Y-186059017D01*
X186704743Y-186275814D01*
X186428814Y-186551743D01*
X186212017Y-186696602D01*
X186104354Y-186768540D01*
X185743835Y-186917872D01*
X185361113Y-186994000D01*
X184970887Y-186994000D01*
X184588165Y-186917872D01*
X184227646Y-186768540D01*
X184119983Y-186696602D01*
X183903186Y-186551743D01*
X183627257Y-186275814D01*
X183482398Y-186059017D01*
X183410460Y-185951354D01*
X183261128Y-185590835D01*
X183185000Y-185208113D01*
X183185000Y-184817887D01*
X183261128Y-184435165D01*
X183410460Y-184074646D01*
X183498004Y-183943628D01*
X183627257Y-183750186D01*
X183903186Y-183474257D01*
X184227645Y-183257461D01*
X184227646Y-183257460D01*
X184588165Y-183108128D01*
X184970887Y-183032000D01*
X185361113Y-183032000D01*
X185743835Y-183108128D01*
G37*
G36*
X255339835Y-183108128D02*
G01*
X255700354Y-183257460D01*
X255700355Y-183257461D01*
X256024814Y-183474257D01*
X256300743Y-183750186D01*
X256429996Y-183943628D01*
X256517540Y-184074646D01*
X256666872Y-184435165D01*
X256743000Y-184817887D01*
X256743000Y-185208113D01*
X256666872Y-185590835D01*
X256517540Y-185951354D01*
X256445602Y-186059017D01*
X256300743Y-186275814D01*
X256024814Y-186551743D01*
X255808017Y-186696602D01*
X255700354Y-186768540D01*
X255339835Y-186917872D01*
X254957113Y-186994000D01*
X254566887Y-186994000D01*
X254184165Y-186917872D01*
X253823646Y-186768540D01*
X253715983Y-186696602D01*
X253499186Y-186551743D01*
X253223257Y-186275814D01*
X253078398Y-186059017D01*
X253006460Y-185951354D01*
X252857128Y-185590835D01*
X252781000Y-185208113D01*
X252781000Y-184817887D01*
X252857128Y-184435165D01*
X253006460Y-184074646D01*
X253094004Y-183943628D01*
X253223257Y-183750186D01*
X253499186Y-183474257D01*
X253823645Y-183257461D01*
X253823646Y-183257460D01*
X254184165Y-183108128D01*
X254566887Y-183032000D01*
X254957113Y-183032000D01*
X255339835Y-183108128D01*
G37*
G36*
X141128835Y-183108128D02*
G01*
X141489354Y-183257460D01*
X141489355Y-183257461D01*
X141813814Y-183474257D01*
X142089743Y-183750186D01*
X142218996Y-183943628D01*
X142306540Y-184074646D01*
X142455872Y-184435165D01*
X142532000Y-184817887D01*
X142532000Y-185208113D01*
X142455872Y-185590835D01*
X142306540Y-185951354D01*
X142234602Y-186059017D01*
X142089743Y-186275814D01*
X141813814Y-186551743D01*
X141597017Y-186696602D01*
X141489354Y-186768540D01*
X141128835Y-186917872D01*
X140746113Y-186994000D01*
X140355887Y-186994000D01*
X139973165Y-186917872D01*
X139612646Y-186768540D01*
X139504983Y-186696602D01*
X139288186Y-186551743D01*
X139012257Y-186275814D01*
X138867398Y-186059017D01*
X138795460Y-185951354D01*
X138646128Y-185590835D01*
X138570000Y-185208113D01*
X138570000Y-184817887D01*
X138646128Y-184435165D01*
X138795460Y-184074646D01*
X138883004Y-183943628D01*
X139012257Y-183750186D01*
X139288186Y-183474257D01*
X139612645Y-183257461D01*
X139612646Y-183257460D01*
X139973165Y-183108128D01*
X140355887Y-183032000D01*
X140746113Y-183032000D01*
X141128835Y-183108128D01*
G37*
G36*
X394531835Y-183108128D02*
G01*
X394892354Y-183257460D01*
X394892355Y-183257461D01*
X395216814Y-183474257D01*
X395492743Y-183750186D01*
X395621996Y-183943628D01*
X395709540Y-184074646D01*
X395858872Y-184435165D01*
X395935000Y-184817887D01*
X395935000Y-185208113D01*
X395858872Y-185590835D01*
X395709540Y-185951354D01*
X395637602Y-186059017D01*
X395492743Y-186275814D01*
X395216814Y-186551743D01*
X395000017Y-186696602D01*
X394892354Y-186768540D01*
X394531835Y-186917872D01*
X394149113Y-186994000D01*
X393758887Y-186994000D01*
X393376165Y-186917872D01*
X393015646Y-186768540D01*
X392907983Y-186696602D01*
X392691186Y-186551743D01*
X392415257Y-186275814D01*
X392270398Y-186059017D01*
X392198460Y-185951354D01*
X392049128Y-185590835D01*
X391973000Y-185208113D01*
X391973000Y-184817887D01*
X392049128Y-184435165D01*
X392198460Y-184074646D01*
X392286004Y-183943628D01*
X392415257Y-183750186D01*
X392691186Y-183474257D01*
X393015645Y-183257461D01*
X393015646Y-183257460D01*
X393376165Y-183108128D01*
X393758887Y-183032000D01*
X394149113Y-183032000D01*
X394531835Y-183108128D01*
G37*
G36*
X116147835Y-183108128D02*
G01*
X116508354Y-183257460D01*
X116508355Y-183257461D01*
X116832814Y-183474257D01*
X117108743Y-183750186D01*
X117237996Y-183943628D01*
X117325540Y-184074646D01*
X117474872Y-184435165D01*
X117551000Y-184817887D01*
X117551000Y-185208113D01*
X117474872Y-185590835D01*
X117325540Y-185951354D01*
X117253602Y-186059017D01*
X117108743Y-186275814D01*
X116832814Y-186551743D01*
X116616017Y-186696602D01*
X116508354Y-186768540D01*
X116147835Y-186917872D01*
X115765113Y-186994000D01*
X115374887Y-186994000D01*
X114992165Y-186917872D01*
X114631646Y-186768540D01*
X114523983Y-186696602D01*
X114307186Y-186551743D01*
X114031257Y-186275814D01*
X113886398Y-186059017D01*
X113814460Y-185951354D01*
X113665128Y-185590835D01*
X113589000Y-185208113D01*
X113589000Y-184817887D01*
X113665128Y-184435165D01*
X113814460Y-184074646D01*
X113902004Y-183943628D01*
X114031257Y-183750186D01*
X114307186Y-183474257D01*
X114631645Y-183257461D01*
X114631646Y-183257460D01*
X114992165Y-183108128D01*
X115374887Y-183032000D01*
X115765113Y-183032000D01*
X116147835Y-183108128D01*
G37*
G36*
X419461835Y-183108128D02*
G01*
X419822354Y-183257460D01*
X419822355Y-183257461D01*
X420146814Y-183474257D01*
X420422743Y-183750186D01*
X420551996Y-183943628D01*
X420639540Y-184074646D01*
X420788872Y-184435165D01*
X420865000Y-184817887D01*
X420865000Y-185208113D01*
X420788872Y-185590835D01*
X420639540Y-185951354D01*
X420567602Y-186059017D01*
X420422743Y-186275814D01*
X420146814Y-186551743D01*
X419930017Y-186696602D01*
X419822354Y-186768540D01*
X419461835Y-186917872D01*
X419079113Y-186994000D01*
X418688887Y-186994000D01*
X418306165Y-186917872D01*
X417945646Y-186768540D01*
X417837983Y-186696602D01*
X417621186Y-186551743D01*
X417345257Y-186275814D01*
X417200398Y-186059017D01*
X417128460Y-185951354D01*
X416979128Y-185590835D01*
X416903000Y-185208113D01*
X416903000Y-184817887D01*
X416979128Y-184435165D01*
X417128460Y-184074646D01*
X417216004Y-183943628D01*
X417345257Y-183750186D01*
X417621186Y-183474257D01*
X417945645Y-183257461D01*
X417945646Y-183257460D01*
X418306165Y-183108128D01*
X418688887Y-183032000D01*
X419079113Y-183032000D01*
X419461835Y-183108128D01*
G37*
G36*
X324935835Y-183108128D02*
G01*
X325296354Y-183257460D01*
X325296355Y-183257461D01*
X325620814Y-183474257D01*
X325896743Y-183750186D01*
X326025996Y-183943628D01*
X326113540Y-184074646D01*
X326262872Y-184435165D01*
X326339000Y-184817887D01*
X326339000Y-185208113D01*
X326262872Y-185590835D01*
X326113540Y-185951354D01*
X326041602Y-186059017D01*
X325896743Y-186275814D01*
X325620814Y-186551743D01*
X325404017Y-186696602D01*
X325296354Y-186768540D01*
X324935835Y-186917872D01*
X324553113Y-186994000D01*
X324162887Y-186994000D01*
X323780165Y-186917872D01*
X323419646Y-186768540D01*
X323311983Y-186696602D01*
X323095186Y-186551743D01*
X322819257Y-186275814D01*
X322674398Y-186059017D01*
X322602460Y-185951354D01*
X322453128Y-185590835D01*
X322377000Y-185208113D01*
X322377000Y-184817887D01*
X322453128Y-184435165D01*
X322602460Y-184074646D01*
X322690004Y-183943628D01*
X322819257Y-183750186D01*
X323095186Y-183474257D01*
X323419645Y-183257461D01*
X323419646Y-183257460D01*
X323780165Y-183108128D01*
X324162887Y-183032000D01*
X324553113Y-183032000D01*
X324935835Y-183108128D01*
G37*
G36*
X304255761Y-183357837D02*
G01*
X304514200Y-183436234D01*
X304752372Y-183563539D01*
X304961134Y-183734866D01*
X305132461Y-183943628D01*
X305259766Y-184181800D01*
X305338163Y-184440239D01*
X305364633Y-184709000D01*
X305338163Y-184977761D01*
X305259766Y-185236200D01*
X305132461Y-185474372D01*
X304961134Y-185683134D01*
X304752372Y-185854461D01*
X304514200Y-185981766D01*
X304255761Y-186060163D01*
X304054349Y-186080000D01*
X303259651Y-186080000D01*
X303058239Y-186060163D01*
X302799800Y-185981766D01*
X302561628Y-185854461D01*
X302352866Y-185683134D01*
X302181539Y-185474372D01*
X302054234Y-185236200D01*
X301975837Y-184977761D01*
X301949367Y-184709000D01*
X301975837Y-184440239D01*
X302054234Y-184181800D01*
X302181539Y-183943628D01*
X302352866Y-183734866D01*
X302561628Y-183563539D01*
X302799800Y-183436234D01*
X303058239Y-183357837D01*
X303259651Y-183338000D01*
X304054349Y-183338000D01*
X304255761Y-183357837D01*
G37*
G36*
X88957585Y-179836802D02*
G01*
X89107410Y-179866604D01*
X89389674Y-179983521D01*
X89643705Y-180153259D01*
X89859741Y-180369295D01*
X90029479Y-180623326D01*
X90146396Y-180905590D01*
X90206000Y-181205240D01*
X90206000Y-181510760D01*
X90146396Y-181810410D01*
X90029479Y-182092674D01*
X89859741Y-182346705D01*
X89643705Y-182562741D01*
X89389674Y-182732479D01*
X89107410Y-182849396D01*
X88957585Y-182879198D01*
X88807761Y-182909000D01*
X88502239Y-182909000D01*
X88352415Y-182879198D01*
X88202590Y-182849396D01*
X87920326Y-182732479D01*
X87666295Y-182562741D01*
X87450259Y-182346705D01*
X87280521Y-182092674D01*
X87163604Y-181810410D01*
X87104000Y-181510760D01*
X87104000Y-181205240D01*
X87163604Y-180905590D01*
X87280521Y-180623326D01*
X87450259Y-180369295D01*
X87666295Y-180153259D01*
X87920326Y-179983521D01*
X88202590Y-179866604D01*
X88352415Y-179836802D01*
X88502239Y-179807000D01*
X88807761Y-179807000D01*
X88957585Y-179836802D01*
G37*
G36*
X78257585Y-179836802D02*
G01*
X78407410Y-179866604D01*
X78689674Y-179983521D01*
X78943705Y-180153259D01*
X79159741Y-180369295D01*
X79329479Y-180623326D01*
X79446396Y-180905590D01*
X79506000Y-181205240D01*
X79506000Y-181510760D01*
X79446396Y-181810410D01*
X79329479Y-182092674D01*
X79159741Y-182346705D01*
X78943705Y-182562741D01*
X78689674Y-182732479D01*
X78407410Y-182849396D01*
X78257585Y-182879198D01*
X78107761Y-182909000D01*
X77802239Y-182909000D01*
X77652415Y-182879198D01*
X77502590Y-182849396D01*
X77220326Y-182732479D01*
X76966295Y-182562741D01*
X76750259Y-182346705D01*
X76580521Y-182092674D01*
X76463604Y-181810410D01*
X76404000Y-181510760D01*
X76404000Y-181205240D01*
X76463604Y-180905590D01*
X76580521Y-180623326D01*
X76750259Y-180369295D01*
X76966295Y-180153259D01*
X77220326Y-179983521D01*
X77502590Y-179866604D01*
X77652415Y-179836802D01*
X77802239Y-179807000D01*
X78107761Y-179807000D01*
X78257585Y-179836802D01*
G37*
G36*
X138749761Y-175991837D02*
G01*
X139008200Y-176070234D01*
X139246372Y-176197539D01*
X139455134Y-176368866D01*
X139626461Y-176577628D01*
X139753766Y-176815800D01*
X139832163Y-177074240D01*
X139852000Y-177275652D01*
X139852000Y-178070349D01*
X139832163Y-178271761D01*
X139753766Y-178530200D01*
X139626461Y-178768372D01*
X139455134Y-178977133D01*
X139246370Y-179148461D01*
X139008199Y-179275766D01*
X138749760Y-179354163D01*
X138481000Y-179380633D01*
X138212239Y-179354163D01*
X137953800Y-179275766D01*
X137715628Y-179148461D01*
X137506867Y-178977134D01*
X137335539Y-178768370D01*
X137208234Y-178530199D01*
X137129837Y-178271760D01*
X137110000Y-178070348D01*
X137110000Y-177275651D01*
X137129837Y-177074239D01*
X137208234Y-176815800D01*
X137335539Y-176577628D01*
X137506866Y-176368867D01*
X137715630Y-176197539D01*
X137953801Y-176070234D01*
X138212240Y-175991837D01*
X138481000Y-175965367D01*
X138749761Y-175991837D01*
G37*
G36*
X347486761Y-175991837D02*
G01*
X347745200Y-176070234D01*
X347983372Y-176197539D01*
X348192134Y-176368866D01*
X348363461Y-176577628D01*
X348490766Y-176815800D01*
X348569163Y-177074240D01*
X348589000Y-177275652D01*
X348589000Y-178070349D01*
X348569163Y-178271761D01*
X348490766Y-178530200D01*
X348363461Y-178768372D01*
X348192134Y-178977133D01*
X347983370Y-179148461D01*
X347745199Y-179275766D01*
X347486760Y-179354163D01*
X347218000Y-179380633D01*
X346949239Y-179354163D01*
X346690800Y-179275766D01*
X346452628Y-179148461D01*
X346243867Y-178977134D01*
X346072539Y-178768370D01*
X345945234Y-178530199D01*
X345866837Y-178271760D01*
X345847000Y-178070348D01*
X345847000Y-177275651D01*
X345866837Y-177074239D01*
X345945234Y-176815800D01*
X346072539Y-176577628D01*
X346243866Y-176368867D01*
X346452630Y-176197539D01*
X346690801Y-176070234D01*
X346949240Y-175991837D01*
X347218000Y-175965367D01*
X347486761Y-175991837D01*
G37*
G36*
X486729761Y-175991837D02*
G01*
X486988200Y-176070234D01*
X487226372Y-176197539D01*
X487435134Y-176368866D01*
X487606461Y-176577628D01*
X487733766Y-176815800D01*
X487812163Y-177074240D01*
X487832000Y-177275652D01*
X487832000Y-178070349D01*
X487812163Y-178271761D01*
X487733766Y-178530200D01*
X487606461Y-178768372D01*
X487435134Y-178977133D01*
X487226370Y-179148461D01*
X486988199Y-179275766D01*
X486729760Y-179354163D01*
X486461000Y-179380633D01*
X486192239Y-179354163D01*
X485933800Y-179275766D01*
X485695628Y-179148461D01*
X485486867Y-178977134D01*
X485315539Y-178768370D01*
X485188234Y-178530199D01*
X485109837Y-178271760D01*
X485090000Y-178070348D01*
X485090000Y-177275651D01*
X485109837Y-177074239D01*
X485188234Y-176815800D01*
X485315539Y-176577628D01*
X485486866Y-176368867D01*
X485695630Y-176197539D01*
X485933801Y-176070234D01*
X486192240Y-175991837D01*
X486461000Y-175965367D01*
X486729761Y-175991837D01*
G37*
G36*
X417082761Y-175991837D02*
G01*
X417341200Y-176070234D01*
X417579372Y-176197539D01*
X417788134Y-176368866D01*
X417959461Y-176577628D01*
X418086766Y-176815800D01*
X418165163Y-177074240D01*
X418185000Y-177275652D01*
X418185000Y-178070349D01*
X418165163Y-178271761D01*
X418086766Y-178530200D01*
X417959461Y-178768372D01*
X417788134Y-178977133D01*
X417579370Y-179148461D01*
X417341199Y-179275766D01*
X417082760Y-179354163D01*
X416814000Y-179380633D01*
X416545239Y-179354163D01*
X416286800Y-179275766D01*
X416048628Y-179148461D01*
X415839867Y-178977134D01*
X415668539Y-178768370D01*
X415541234Y-178530199D01*
X415462837Y-178271760D01*
X415443000Y-178070348D01*
X415443000Y-177275651D01*
X415462837Y-177074239D01*
X415541234Y-176815800D01*
X415668539Y-176577628D01*
X415839866Y-176368867D01*
X416048630Y-176197539D01*
X416286801Y-176070234D01*
X416545240Y-175991837D01*
X416814000Y-175965367D01*
X417082761Y-175991837D01*
G37*
G36*
X208345761Y-175991837D02*
G01*
X208604200Y-176070234D01*
X208842372Y-176197539D01*
X209051134Y-176368866D01*
X209222461Y-176577628D01*
X209349766Y-176815800D01*
X209428163Y-177074240D01*
X209448000Y-177275652D01*
X209448000Y-178070349D01*
X209428163Y-178271761D01*
X209349766Y-178530200D01*
X209222461Y-178768372D01*
X209051134Y-178977133D01*
X208842370Y-179148461D01*
X208604199Y-179275766D01*
X208345760Y-179354163D01*
X208077000Y-179380633D01*
X207808239Y-179354163D01*
X207549800Y-179275766D01*
X207311628Y-179148461D01*
X207102867Y-178977134D01*
X206931539Y-178768370D01*
X206804234Y-178530199D01*
X206725837Y-178271760D01*
X206706000Y-178070348D01*
X206706000Y-177275651D01*
X206725837Y-177074239D01*
X206804234Y-176815800D01*
X206931539Y-176577628D01*
X207102866Y-176368867D01*
X207311630Y-176197539D01*
X207549801Y-176070234D01*
X207808240Y-175991837D01*
X208077000Y-175965367D01*
X208345761Y-175991837D01*
G37*
G36*
X422197436Y-175975635D02*
G01*
X422227027Y-175984611D01*
X422254296Y-175999187D01*
X422278198Y-176018802D01*
X422297813Y-176042704D01*
X422312389Y-176069973D01*
X422321365Y-176099564D01*
X422325000Y-176136474D01*
X422325000Y-179209526D01*
X422321365Y-179246436D01*
X422312389Y-179276027D01*
X422297813Y-179303296D01*
X422278198Y-179327198D01*
X422254296Y-179346813D01*
X422227027Y-179361389D01*
X422197436Y-179370365D01*
X422160526Y-179374000D01*
X419747474Y-179374000D01*
X419710564Y-179370365D01*
X419680973Y-179361389D01*
X419653704Y-179346813D01*
X419629802Y-179327198D01*
X419610187Y-179303296D01*
X419595611Y-179276027D01*
X419586635Y-179246436D01*
X419583000Y-179209526D01*
X419583000Y-176136474D01*
X419586635Y-176099564D01*
X419595611Y-176069973D01*
X419610187Y-176042704D01*
X419629802Y-176018802D01*
X419653704Y-175999187D01*
X419680973Y-175984611D01*
X419710564Y-175975635D01*
X419747474Y-175972000D01*
X422160526Y-175972000D01*
X422197436Y-175975635D01*
G37*
G36*
X325601436Y-175975635D02*
G01*
X325631027Y-175984611D01*
X325658296Y-175999187D01*
X325682198Y-176018802D01*
X325701813Y-176042704D01*
X325716389Y-176069973D01*
X325725365Y-176099564D01*
X325729000Y-176136474D01*
X325729000Y-179209526D01*
X325725365Y-179246436D01*
X325716389Y-179276027D01*
X325701813Y-179303296D01*
X325682198Y-179327198D01*
X325658296Y-179346813D01*
X325631027Y-179361389D01*
X325601436Y-179370365D01*
X325564526Y-179374000D01*
X323151474Y-179374000D01*
X323114564Y-179370365D01*
X323084973Y-179361389D01*
X323057704Y-179346813D01*
X323033802Y-179327198D01*
X323014187Y-179303296D01*
X322999611Y-179276027D01*
X322990635Y-179246436D01*
X322987000Y-179209526D01*
X322987000Y-176136474D01*
X322990635Y-176099564D01*
X322999611Y-176069973D01*
X323014187Y-176042704D01*
X323033802Y-176018802D01*
X323057704Y-175999187D01*
X323084973Y-175984611D01*
X323114564Y-175975635D01*
X323151474Y-175972000D01*
X325564526Y-175972000D01*
X325601436Y-175975635D01*
G37*
G36*
X395197436Y-175975635D02*
G01*
X395227027Y-175984611D01*
X395254296Y-175999187D01*
X395278198Y-176018802D01*
X395297813Y-176042704D01*
X395312389Y-176069973D01*
X395321365Y-176099564D01*
X395325000Y-176136474D01*
X395325000Y-179209526D01*
X395321365Y-179246436D01*
X395312389Y-179276027D01*
X395297813Y-179303296D01*
X395278198Y-179327198D01*
X395254296Y-179346813D01*
X395227027Y-179361389D01*
X395197436Y-179370365D01*
X395160526Y-179374000D01*
X392747474Y-179374000D01*
X392710564Y-179370365D01*
X392680973Y-179361389D01*
X392653704Y-179346813D01*
X392629802Y-179327198D01*
X392610187Y-179303296D01*
X392595611Y-179276027D01*
X392586635Y-179246436D01*
X392583000Y-179209526D01*
X392583000Y-176136474D01*
X392586635Y-176099564D01*
X392595611Y-176069973D01*
X392610187Y-176042704D01*
X392629802Y-176018802D01*
X392653704Y-175999187D01*
X392680973Y-175984611D01*
X392710564Y-175975635D01*
X392747474Y-175972000D01*
X395160526Y-175972000D01*
X395197436Y-175975635D01*
G37*
G36*
X464793436Y-175975635D02*
G01*
X464823027Y-175984611D01*
X464850296Y-175999187D01*
X464874198Y-176018802D01*
X464893813Y-176042704D01*
X464908389Y-176069973D01*
X464917365Y-176099564D01*
X464921000Y-176136474D01*
X464921000Y-179209526D01*
X464917365Y-179246436D01*
X464908389Y-179276027D01*
X464893813Y-179303296D01*
X464874198Y-179327198D01*
X464850296Y-179346813D01*
X464823027Y-179361389D01*
X464793436Y-179370365D01*
X464756526Y-179374000D01*
X462343474Y-179374000D01*
X462306564Y-179370365D01*
X462276973Y-179361389D01*
X462249704Y-179346813D01*
X462225802Y-179327198D01*
X462206187Y-179303296D01*
X462191611Y-179276027D01*
X462182635Y-179246436D01*
X462179000Y-179209526D01*
X462179000Y-176136474D01*
X462182635Y-176099564D01*
X462191611Y-176069973D01*
X462206187Y-176042704D01*
X462225802Y-176018802D01*
X462249704Y-175999187D01*
X462276973Y-175984611D01*
X462306564Y-175975635D01*
X462343474Y-175972000D01*
X464756526Y-175972000D01*
X464793436Y-175975635D01*
G37*
G36*
X256005436Y-175975635D02*
G01*
X256035027Y-175984611D01*
X256062296Y-175999187D01*
X256086198Y-176018802D01*
X256105813Y-176042704D01*
X256120389Y-176069973D01*
X256129365Y-176099564D01*
X256133000Y-176136474D01*
X256133000Y-179209526D01*
X256129365Y-179246436D01*
X256120389Y-179276027D01*
X256105813Y-179303296D01*
X256086198Y-179327198D01*
X256062296Y-179346813D01*
X256035027Y-179361389D01*
X256005436Y-179370365D01*
X255968526Y-179374000D01*
X253555474Y-179374000D01*
X253518564Y-179370365D01*
X253488973Y-179361389D01*
X253461704Y-179346813D01*
X253437802Y-179327198D01*
X253418187Y-179303296D01*
X253403611Y-179276027D01*
X253394635Y-179246436D01*
X253391000Y-179209526D01*
X253391000Y-176136474D01*
X253394635Y-176099564D01*
X253403611Y-176069973D01*
X253418187Y-176042704D01*
X253437802Y-176018802D01*
X253461704Y-175999187D01*
X253488973Y-175984611D01*
X253518564Y-175975635D01*
X253555474Y-175972000D01*
X255968526Y-175972000D01*
X256005436Y-175975635D01*
G37*
G36*
X186409436Y-175975635D02*
G01*
X186439027Y-175984611D01*
X186466296Y-175999187D01*
X186490198Y-176018802D01*
X186509813Y-176042704D01*
X186524389Y-176069973D01*
X186533365Y-176099564D01*
X186537000Y-176136474D01*
X186537000Y-179209526D01*
X186533365Y-179246436D01*
X186524389Y-179276027D01*
X186509813Y-179303296D01*
X186490198Y-179327198D01*
X186466296Y-179346813D01*
X186439027Y-179361389D01*
X186409436Y-179370365D01*
X186372526Y-179374000D01*
X183959474Y-179374000D01*
X183922564Y-179370365D01*
X183892973Y-179361389D01*
X183865704Y-179346813D01*
X183841802Y-179327198D01*
X183822187Y-179303296D01*
X183807611Y-179276027D01*
X183798635Y-179246436D01*
X183795000Y-179209526D01*
X183795000Y-176136474D01*
X183798635Y-176099564D01*
X183807611Y-176069973D01*
X183822187Y-176042704D01*
X183841802Y-176018802D01*
X183865704Y-175999187D01*
X183892973Y-175984611D01*
X183922564Y-175975635D01*
X183959474Y-175972000D01*
X186372526Y-175972000D01*
X186409436Y-175975635D01*
G37*
G36*
X116813436Y-175975635D02*
G01*
X116843027Y-175984611D01*
X116870296Y-175999187D01*
X116894198Y-176018802D01*
X116913813Y-176042704D01*
X116928389Y-176069973D01*
X116937365Y-176099564D01*
X116941000Y-176136474D01*
X116941000Y-179209526D01*
X116937365Y-179246436D01*
X116928389Y-179276027D01*
X116913813Y-179303296D01*
X116894198Y-179327198D01*
X116870296Y-179346813D01*
X116843027Y-179361389D01*
X116813436Y-179370365D01*
X116776526Y-179374000D01*
X114363474Y-179374000D01*
X114326564Y-179370365D01*
X114296973Y-179361389D01*
X114269704Y-179346813D01*
X114245802Y-179327198D01*
X114226187Y-179303296D01*
X114211611Y-179276027D01*
X114202635Y-179246436D01*
X114199000Y-179209526D01*
X114199000Y-176136474D01*
X114202635Y-176099564D01*
X114211611Y-176069973D01*
X114226187Y-176042704D01*
X114245802Y-176018802D01*
X114269704Y-175999187D01*
X114296973Y-175984611D01*
X114326564Y-175975635D01*
X114363474Y-175972000D01*
X116776526Y-175972000D01*
X116813436Y-175975635D01*
G37*
G36*
X143864436Y-175975635D02*
G01*
X143894027Y-175984611D01*
X143921296Y-175999187D01*
X143945198Y-176018802D01*
X143964813Y-176042704D01*
X143979389Y-176069973D01*
X143988365Y-176099564D01*
X143992000Y-176136474D01*
X143992000Y-179209526D01*
X143988365Y-179246436D01*
X143979389Y-179276027D01*
X143964813Y-179303296D01*
X143945198Y-179327198D01*
X143921296Y-179346813D01*
X143894027Y-179361389D01*
X143864436Y-179370365D01*
X143827526Y-179374000D01*
X141414474Y-179374000D01*
X141377564Y-179370365D01*
X141347973Y-179361389D01*
X141320704Y-179346813D01*
X141296802Y-179327198D01*
X141277187Y-179303296D01*
X141262611Y-179276027D01*
X141253635Y-179246436D01*
X141250000Y-179209526D01*
X141250000Y-176136474D01*
X141253635Y-176099564D01*
X141262611Y-176069973D01*
X141277187Y-176042704D01*
X141296802Y-176018802D01*
X141320704Y-175999187D01*
X141347973Y-175984611D01*
X141377564Y-175975635D01*
X141414474Y-175972000D01*
X143827526Y-175972000D01*
X143864436Y-175975635D01*
G37*
G36*
X491844436Y-175975635D02*
G01*
X491874027Y-175984611D01*
X491901296Y-175999187D01*
X491925198Y-176018802D01*
X491944813Y-176042704D01*
X491959389Y-176069973D01*
X491968365Y-176099564D01*
X491972000Y-176136474D01*
X491972000Y-179209526D01*
X491968365Y-179246436D01*
X491959389Y-179276027D01*
X491944813Y-179303296D01*
X491925198Y-179327198D01*
X491901296Y-179346813D01*
X491874027Y-179361389D01*
X491844436Y-179370365D01*
X491807526Y-179374000D01*
X489394474Y-179374000D01*
X489357564Y-179370365D01*
X489327973Y-179361389D01*
X489300704Y-179346813D01*
X489276802Y-179327198D01*
X489257187Y-179303296D01*
X489242611Y-179276027D01*
X489233635Y-179246436D01*
X489230000Y-179209526D01*
X489230000Y-176136474D01*
X489233635Y-176099564D01*
X489242611Y-176069973D01*
X489257187Y-176042704D01*
X489276802Y-176018802D01*
X489300704Y-175999187D01*
X489327973Y-175984611D01*
X489357564Y-175975635D01*
X489394474Y-175972000D01*
X491807526Y-175972000D01*
X491844436Y-175975635D01*
G37*
G36*
X352601436Y-175975635D02*
G01*
X352631027Y-175984611D01*
X352658296Y-175999187D01*
X352682198Y-176018802D01*
X352701813Y-176042704D01*
X352716389Y-176069973D01*
X352725365Y-176099564D01*
X352729000Y-176136474D01*
X352729000Y-179209526D01*
X352725365Y-179246436D01*
X352716389Y-179276027D01*
X352701813Y-179303296D01*
X352682198Y-179327198D01*
X352658296Y-179346813D01*
X352631027Y-179361389D01*
X352601436Y-179370365D01*
X352564526Y-179374000D01*
X350151474Y-179374000D01*
X350114564Y-179370365D01*
X350084973Y-179361389D01*
X350057704Y-179346813D01*
X350033802Y-179327198D01*
X350014187Y-179303296D01*
X349999611Y-179276027D01*
X349990635Y-179246436D01*
X349987000Y-179209526D01*
X349987000Y-176136474D01*
X349990635Y-176099564D01*
X349999611Y-176069973D01*
X350014187Y-176042704D01*
X350033802Y-176018802D01*
X350057704Y-175999187D01*
X350084973Y-175984611D01*
X350114564Y-175975635D01*
X350151474Y-175972000D01*
X352564526Y-175972000D01*
X352601436Y-175975635D01*
G37*
G36*
X213460436Y-175975635D02*
G01*
X213490027Y-175984611D01*
X213517296Y-175999187D01*
X213541198Y-176018802D01*
X213560813Y-176042704D01*
X213575389Y-176069973D01*
X213584365Y-176099564D01*
X213588000Y-176136474D01*
X213588000Y-179209526D01*
X213584365Y-179246436D01*
X213575389Y-179276027D01*
X213560813Y-179303296D01*
X213541198Y-179327198D01*
X213517296Y-179346813D01*
X213490027Y-179361389D01*
X213460436Y-179370365D01*
X213423526Y-179374000D01*
X211010474Y-179374000D01*
X210973564Y-179370365D01*
X210943973Y-179361389D01*
X210916704Y-179346813D01*
X210892802Y-179327198D01*
X210873187Y-179303296D01*
X210858611Y-179276027D01*
X210849635Y-179246436D01*
X210846000Y-179209526D01*
X210846000Y-176136474D01*
X210849635Y-176099564D01*
X210858611Y-176069973D01*
X210873187Y-176042704D01*
X210892802Y-176018802D01*
X210916704Y-175999187D01*
X210943973Y-175984611D01*
X210973564Y-175975635D01*
X211010474Y-175972000D01*
X213423526Y-175972000D01*
X213460436Y-175975635D01*
G37*
G36*
X81962023Y-175988590D02*
G01*
X82061619Y-176018802D01*
X82113013Y-176034392D01*
X82252165Y-176108771D01*
X82374133Y-176208867D01*
X82474229Y-176330835D01*
X82548608Y-176469987D01*
X82548608Y-176469988D01*
X82594410Y-176620977D01*
X82606000Y-176738655D01*
X82606000Y-177337345D01*
X82594410Y-177455023D01*
X82563875Y-177555682D01*
X82548608Y-177606013D01*
X82474230Y-177745164D01*
X82474229Y-177745165D01*
X82374133Y-177867133D01*
X82271881Y-177951048D01*
X82252164Y-177967229D01*
X82113012Y-178041608D01*
X82062681Y-178056875D01*
X81962022Y-178087410D01*
X81805000Y-178102875D01*
X81647977Y-178087410D01*
X81547318Y-178056875D01*
X81496987Y-178041608D01*
X81357835Y-177967229D01*
X81287118Y-177909193D01*
X81235867Y-177867133D01*
X81135771Y-177745164D01*
X81061393Y-177606013D01*
X81061392Y-177606012D01*
X81046125Y-177555681D01*
X81015590Y-177455022D01*
X81004000Y-177337344D01*
X81004000Y-176738655D01*
X81015590Y-176620977D01*
X81061392Y-176469988D01*
X81061392Y-176469987D01*
X81115444Y-176368866D01*
X81135772Y-176330835D01*
X81235868Y-176208867D01*
X81357836Y-176108771D01*
X81429935Y-176070233D01*
X81496988Y-176034392D01*
X81548382Y-176018802D01*
X81647978Y-175988590D01*
X81805000Y-175973125D01*
X81962023Y-175988590D01*
G37*
G36*
X84962023Y-175988590D02*
G01*
X85061619Y-176018802D01*
X85113013Y-176034392D01*
X85252165Y-176108771D01*
X85374133Y-176208867D01*
X85474229Y-176330835D01*
X85548608Y-176469987D01*
X85548608Y-176469988D01*
X85594410Y-176620977D01*
X85606000Y-176738655D01*
X85606000Y-177337345D01*
X85594410Y-177455023D01*
X85563875Y-177555682D01*
X85548608Y-177606013D01*
X85474230Y-177745164D01*
X85474229Y-177745165D01*
X85374133Y-177867133D01*
X85271881Y-177951048D01*
X85252164Y-177967229D01*
X85113012Y-178041608D01*
X85062681Y-178056875D01*
X84962022Y-178087410D01*
X84805000Y-178102875D01*
X84647977Y-178087410D01*
X84547318Y-178056875D01*
X84496987Y-178041608D01*
X84357835Y-177967229D01*
X84287118Y-177909193D01*
X84235867Y-177867133D01*
X84135771Y-177745164D01*
X84061393Y-177606013D01*
X84061392Y-177606012D01*
X84046125Y-177555681D01*
X84015590Y-177455022D01*
X84004000Y-177337344D01*
X84004000Y-176738655D01*
X84015590Y-176620977D01*
X84061392Y-176469988D01*
X84061392Y-176469987D01*
X84115444Y-176368866D01*
X84135772Y-176330835D01*
X84235868Y-176208867D01*
X84357836Y-176108771D01*
X84429935Y-176070233D01*
X84496988Y-176034392D01*
X84548382Y-176018802D01*
X84647978Y-175988590D01*
X84805000Y-175973125D01*
X84962023Y-175988590D01*
G37*
G36*
X87962023Y-175988590D02*
G01*
X88061619Y-176018802D01*
X88113013Y-176034392D01*
X88252165Y-176108771D01*
X88374133Y-176208867D01*
X88474229Y-176330835D01*
X88548608Y-176469987D01*
X88548608Y-176469988D01*
X88594410Y-176620977D01*
X88606000Y-176738655D01*
X88606000Y-177337345D01*
X88594410Y-177455023D01*
X88563875Y-177555682D01*
X88548608Y-177606013D01*
X88474230Y-177745164D01*
X88474229Y-177745165D01*
X88374133Y-177867133D01*
X88271881Y-177951048D01*
X88252164Y-177967229D01*
X88113012Y-178041608D01*
X88062681Y-178056875D01*
X87962022Y-178087410D01*
X87805000Y-178102875D01*
X87647977Y-178087410D01*
X87547318Y-178056875D01*
X87496987Y-178041608D01*
X87357835Y-177967229D01*
X87287118Y-177909193D01*
X87235867Y-177867133D01*
X87135771Y-177745164D01*
X87061393Y-177606013D01*
X87061392Y-177606012D01*
X87046125Y-177555681D01*
X87015590Y-177455022D01*
X87004000Y-177337344D01*
X87004000Y-176738655D01*
X87015590Y-176620977D01*
X87061392Y-176469988D01*
X87061392Y-176469987D01*
X87115444Y-176368866D01*
X87135772Y-176330835D01*
X87235868Y-176208867D01*
X87357836Y-176108771D01*
X87429935Y-176070233D01*
X87496988Y-176034392D01*
X87548382Y-176018802D01*
X87647978Y-175988590D01*
X87805000Y-175973125D01*
X87962023Y-175988590D01*
G37*
G36*
X78962023Y-175988590D02*
G01*
X79061619Y-176018802D01*
X79113013Y-176034392D01*
X79252165Y-176108771D01*
X79374133Y-176208867D01*
X79474229Y-176330835D01*
X79548608Y-176469987D01*
X79548608Y-176469988D01*
X79594410Y-176620977D01*
X79606000Y-176738655D01*
X79606000Y-177337345D01*
X79594410Y-177455023D01*
X79563875Y-177555682D01*
X79548608Y-177606013D01*
X79474230Y-177745164D01*
X79474229Y-177745165D01*
X79374133Y-177867133D01*
X79271881Y-177951048D01*
X79252164Y-177967229D01*
X79113012Y-178041608D01*
X79062681Y-178056875D01*
X78962022Y-178087410D01*
X78805000Y-178102875D01*
X78647977Y-178087410D01*
X78547318Y-178056875D01*
X78496987Y-178041608D01*
X78357835Y-177967229D01*
X78287118Y-177909193D01*
X78235867Y-177867133D01*
X78135771Y-177745164D01*
X78061393Y-177606013D01*
X78061392Y-177606012D01*
X78046125Y-177555681D01*
X78015590Y-177455022D01*
X78004000Y-177337344D01*
X78004000Y-176738655D01*
X78015590Y-176620977D01*
X78061392Y-176469988D01*
X78061392Y-176469987D01*
X78115444Y-176368866D01*
X78135772Y-176330835D01*
X78235868Y-176208867D01*
X78357836Y-176108771D01*
X78429935Y-176070233D01*
X78496988Y-176034392D01*
X78548382Y-176018802D01*
X78647978Y-175988590D01*
X78805000Y-175973125D01*
X78962023Y-175988590D01*
G37*
G36*
X75962023Y-175988590D02*
G01*
X76061619Y-176018802D01*
X76113013Y-176034392D01*
X76252165Y-176108771D01*
X76374133Y-176208867D01*
X76474229Y-176330835D01*
X76548608Y-176469987D01*
X76548608Y-176469988D01*
X76594410Y-176620977D01*
X76606000Y-176738655D01*
X76606000Y-177337345D01*
X76594410Y-177455023D01*
X76563875Y-177555682D01*
X76548608Y-177606013D01*
X76474230Y-177745164D01*
X76474229Y-177745165D01*
X76374133Y-177867133D01*
X76271881Y-177951048D01*
X76252164Y-177967229D01*
X76113012Y-178041608D01*
X76062681Y-178056875D01*
X75962022Y-178087410D01*
X75805000Y-178102875D01*
X75647977Y-178087410D01*
X75547318Y-178056875D01*
X75496987Y-178041608D01*
X75357835Y-177967229D01*
X75287118Y-177909193D01*
X75235867Y-177867133D01*
X75135771Y-177745164D01*
X75061393Y-177606013D01*
X75061392Y-177606012D01*
X75046125Y-177555681D01*
X75015590Y-177455022D01*
X75004000Y-177337344D01*
X75004000Y-176738655D01*
X75015590Y-176620977D01*
X75061392Y-176469988D01*
X75061392Y-176469987D01*
X75115444Y-176368866D01*
X75135772Y-176330835D01*
X75235868Y-176208867D01*
X75357836Y-176108771D01*
X75429935Y-176070233D01*
X75496988Y-176034392D01*
X75548382Y-176018802D01*
X75647978Y-175988590D01*
X75805000Y-175973125D01*
X75962023Y-175988590D01*
G37*
G36*
X91458048Y-175981122D02*
G01*
X91492387Y-175991539D01*
X91524036Y-176008456D01*
X91551778Y-176031222D01*
X91574544Y-176058964D01*
X91591461Y-176090613D01*
X91601878Y-176124952D01*
X91606000Y-176166807D01*
X91606000Y-177909193D01*
X91601878Y-177951048D01*
X91591461Y-177985387D01*
X91574544Y-178017036D01*
X91551778Y-178044778D01*
X91524036Y-178067544D01*
X91492387Y-178084461D01*
X91458048Y-178094878D01*
X91416193Y-178099000D01*
X90193807Y-178099000D01*
X90151952Y-178094878D01*
X90117613Y-178084461D01*
X90085964Y-178067544D01*
X90058222Y-178044778D01*
X90035456Y-178017036D01*
X90018539Y-177985387D01*
X90008122Y-177951048D01*
X90004000Y-177909193D01*
X90004000Y-176166807D01*
X90008122Y-176124952D01*
X90018539Y-176090613D01*
X90035456Y-176058964D01*
X90058222Y-176031222D01*
X90085964Y-176008456D01*
X90117613Y-175991539D01*
X90151952Y-175981122D01*
X90193807Y-175977000D01*
X91416193Y-175977000D01*
X91458048Y-175981122D01*
G37*
M02*
