M48
; DRILL file {KiCad (5.1.5)-3} date 14/08/2020 17:04:56
; FORMAT={-:-/ absolute / inch / decimal}
; #@! TF.CreationDate,2020-08-14T17:04:56-04:00
; #@! TF.GenerationSoftware,Kicad,Pcbnew,(5.1.5)-3
; #@! TF.FileFunction,NonPlated,1,2,NPTH
FMAT,2
INCH
T1C0.0400
T2C0.1181
T3C0.1520
%
G90
G05
T1
X10.4207Y-8.1193
X10.4207Y-8.7193
X12.2207Y-8.1193
X12.2207Y-8.7193
T2
X4.0754Y-8.1538
X4.2605Y-8.1538
T3
X8.2735Y-7.284
X15.51Y-7.284
X10.03Y-7.284
X6.352Y-9.5856
X6.3505Y-7.284
X19.2335Y-9.586
X7.29Y-7.284
X7.29Y-9.586
X15.51Y-9.586
X19.701Y-8.415
X18.25Y-7.284
X12.77Y-9.586
X11.666Y-7.3535
X19.2335Y-7.284
X18.25Y-9.586
X5.6721Y-7.2839
X8.2715Y-9.586
X16.4915Y-7.284
X11.666Y-9.5165
X10.03Y-9.586
X13.7515Y-9.586
X12.77Y-7.284
X13.7515Y-7.284
X16.4935Y-9.586
X5.9043Y-9.5857
T0
M30
