G04 #@! TF.GenerationSoftware,KiCad,Pcbnew,(5.1.5)-3*
G04 #@! TF.CreationDate,2020-07-16T16:27:48-04:00*
G04 #@! TF.ProjectId,AIL_TSAL,41494c5f-5453-4414-9c2e-6b696361645f,rev?*
G04 #@! TF.SameCoordinates,Original*
G04 #@! TF.FileFunction,Paste,Top*
G04 #@! TF.FilePolarity,Positive*
%FSLAX46Y46*%
G04 Gerber Fmt 4.6, Leading zero omitted, Abs format (unit mm)*
G04 Created by KiCad (PCBNEW (5.1.5)-3) date 2020-07-16 16:27:48*
%MOMM*%
%LPD*%
G04 APERTURE LIST*
%ADD10C,0.100000*%
%ADD11R,3.050000X2.750000*%
%ADD12R,2.200000X1.200000*%
G04 APERTURE END LIST*
D10*
G36*
X159357142Y-96795674D02*
G01*
X159380803Y-96799184D01*
X159404007Y-96804996D01*
X159426529Y-96813054D01*
X159448153Y-96823282D01*
X159468670Y-96835579D01*
X159487883Y-96849829D01*
X159505607Y-96865893D01*
X159521671Y-96883617D01*
X159535921Y-96902830D01*
X159548218Y-96923347D01*
X159558446Y-96944971D01*
X159566504Y-96967493D01*
X159572316Y-96990697D01*
X159575826Y-97014358D01*
X159577000Y-97038250D01*
X159577000Y-97525750D01*
X159575826Y-97549642D01*
X159572316Y-97573303D01*
X159566504Y-97596507D01*
X159558446Y-97619029D01*
X159548218Y-97640653D01*
X159535921Y-97661170D01*
X159521671Y-97680383D01*
X159505607Y-97698107D01*
X159487883Y-97714171D01*
X159468670Y-97728421D01*
X159448153Y-97740718D01*
X159426529Y-97750946D01*
X159404007Y-97759004D01*
X159380803Y-97764816D01*
X159357142Y-97768326D01*
X159333250Y-97769500D01*
X158420750Y-97769500D01*
X158396858Y-97768326D01*
X158373197Y-97764816D01*
X158349993Y-97759004D01*
X158327471Y-97750946D01*
X158305847Y-97740718D01*
X158285330Y-97728421D01*
X158266117Y-97714171D01*
X158248393Y-97698107D01*
X158232329Y-97680383D01*
X158218079Y-97661170D01*
X158205782Y-97640653D01*
X158195554Y-97619029D01*
X158187496Y-97596507D01*
X158181684Y-97573303D01*
X158178174Y-97549642D01*
X158177000Y-97525750D01*
X158177000Y-97038250D01*
X158178174Y-97014358D01*
X158181684Y-96990697D01*
X158187496Y-96967493D01*
X158195554Y-96944971D01*
X158205782Y-96923347D01*
X158218079Y-96902830D01*
X158232329Y-96883617D01*
X158248393Y-96865893D01*
X158266117Y-96849829D01*
X158285330Y-96835579D01*
X158305847Y-96823282D01*
X158327471Y-96813054D01*
X158349993Y-96804996D01*
X158373197Y-96799184D01*
X158396858Y-96795674D01*
X158420750Y-96794500D01*
X159333250Y-96794500D01*
X159357142Y-96795674D01*
G37*
G36*
X159357142Y-94920674D02*
G01*
X159380803Y-94924184D01*
X159404007Y-94929996D01*
X159426529Y-94938054D01*
X159448153Y-94948282D01*
X159468670Y-94960579D01*
X159487883Y-94974829D01*
X159505607Y-94990893D01*
X159521671Y-95008617D01*
X159535921Y-95027830D01*
X159548218Y-95048347D01*
X159558446Y-95069971D01*
X159566504Y-95092493D01*
X159572316Y-95115697D01*
X159575826Y-95139358D01*
X159577000Y-95163250D01*
X159577000Y-95650750D01*
X159575826Y-95674642D01*
X159572316Y-95698303D01*
X159566504Y-95721507D01*
X159558446Y-95744029D01*
X159548218Y-95765653D01*
X159535921Y-95786170D01*
X159521671Y-95805383D01*
X159505607Y-95823107D01*
X159487883Y-95839171D01*
X159468670Y-95853421D01*
X159448153Y-95865718D01*
X159426529Y-95875946D01*
X159404007Y-95884004D01*
X159380803Y-95889816D01*
X159357142Y-95893326D01*
X159333250Y-95894500D01*
X158420750Y-95894500D01*
X158396858Y-95893326D01*
X158373197Y-95889816D01*
X158349993Y-95884004D01*
X158327471Y-95875946D01*
X158305847Y-95865718D01*
X158285330Y-95853421D01*
X158266117Y-95839171D01*
X158248393Y-95823107D01*
X158232329Y-95805383D01*
X158218079Y-95786170D01*
X158205782Y-95765653D01*
X158195554Y-95744029D01*
X158187496Y-95721507D01*
X158181684Y-95698303D01*
X158178174Y-95674642D01*
X158177000Y-95650750D01*
X158177000Y-95163250D01*
X158178174Y-95139358D01*
X158181684Y-95115697D01*
X158187496Y-95092493D01*
X158195554Y-95069971D01*
X158205782Y-95048347D01*
X158218079Y-95027830D01*
X158232329Y-95008617D01*
X158248393Y-94990893D01*
X158266117Y-94974829D01*
X158285330Y-94960579D01*
X158305847Y-94948282D01*
X158327471Y-94938054D01*
X158349993Y-94929996D01*
X158373197Y-94924184D01*
X158396858Y-94920674D01*
X158420750Y-94919500D01*
X159333250Y-94919500D01*
X159357142Y-94920674D01*
G37*
G36*
X172184142Y-109671174D02*
G01*
X172207803Y-109674684D01*
X172231007Y-109680496D01*
X172253529Y-109688554D01*
X172275153Y-109698782D01*
X172295670Y-109711079D01*
X172314883Y-109725329D01*
X172332607Y-109741393D01*
X172348671Y-109759117D01*
X172362921Y-109778330D01*
X172375218Y-109798847D01*
X172385446Y-109820471D01*
X172393504Y-109842993D01*
X172399316Y-109866197D01*
X172402826Y-109889858D01*
X172404000Y-109913750D01*
X172404000Y-110401250D01*
X172402826Y-110425142D01*
X172399316Y-110448803D01*
X172393504Y-110472007D01*
X172385446Y-110494529D01*
X172375218Y-110516153D01*
X172362921Y-110536670D01*
X172348671Y-110555883D01*
X172332607Y-110573607D01*
X172314883Y-110589671D01*
X172295670Y-110603921D01*
X172275153Y-110616218D01*
X172253529Y-110626446D01*
X172231007Y-110634504D01*
X172207803Y-110640316D01*
X172184142Y-110643826D01*
X172160250Y-110645000D01*
X171247750Y-110645000D01*
X171223858Y-110643826D01*
X171200197Y-110640316D01*
X171176993Y-110634504D01*
X171154471Y-110626446D01*
X171132847Y-110616218D01*
X171112330Y-110603921D01*
X171093117Y-110589671D01*
X171075393Y-110573607D01*
X171059329Y-110555883D01*
X171045079Y-110536670D01*
X171032782Y-110516153D01*
X171022554Y-110494529D01*
X171014496Y-110472007D01*
X171008684Y-110448803D01*
X171005174Y-110425142D01*
X171004000Y-110401250D01*
X171004000Y-109913750D01*
X171005174Y-109889858D01*
X171008684Y-109866197D01*
X171014496Y-109842993D01*
X171022554Y-109820471D01*
X171032782Y-109798847D01*
X171045079Y-109778330D01*
X171059329Y-109759117D01*
X171075393Y-109741393D01*
X171093117Y-109725329D01*
X171112330Y-109711079D01*
X171132847Y-109698782D01*
X171154471Y-109688554D01*
X171176993Y-109680496D01*
X171200197Y-109674684D01*
X171223858Y-109671174D01*
X171247750Y-109670000D01*
X172160250Y-109670000D01*
X172184142Y-109671174D01*
G37*
G36*
X172184142Y-107796174D02*
G01*
X172207803Y-107799684D01*
X172231007Y-107805496D01*
X172253529Y-107813554D01*
X172275153Y-107823782D01*
X172295670Y-107836079D01*
X172314883Y-107850329D01*
X172332607Y-107866393D01*
X172348671Y-107884117D01*
X172362921Y-107903330D01*
X172375218Y-107923847D01*
X172385446Y-107945471D01*
X172393504Y-107967993D01*
X172399316Y-107991197D01*
X172402826Y-108014858D01*
X172404000Y-108038750D01*
X172404000Y-108526250D01*
X172402826Y-108550142D01*
X172399316Y-108573803D01*
X172393504Y-108597007D01*
X172385446Y-108619529D01*
X172375218Y-108641153D01*
X172362921Y-108661670D01*
X172348671Y-108680883D01*
X172332607Y-108698607D01*
X172314883Y-108714671D01*
X172295670Y-108728921D01*
X172275153Y-108741218D01*
X172253529Y-108751446D01*
X172231007Y-108759504D01*
X172207803Y-108765316D01*
X172184142Y-108768826D01*
X172160250Y-108770000D01*
X171247750Y-108770000D01*
X171223858Y-108768826D01*
X171200197Y-108765316D01*
X171176993Y-108759504D01*
X171154471Y-108751446D01*
X171132847Y-108741218D01*
X171112330Y-108728921D01*
X171093117Y-108714671D01*
X171075393Y-108698607D01*
X171059329Y-108680883D01*
X171045079Y-108661670D01*
X171032782Y-108641153D01*
X171022554Y-108619529D01*
X171014496Y-108597007D01*
X171008684Y-108573803D01*
X171005174Y-108550142D01*
X171004000Y-108526250D01*
X171004000Y-108038750D01*
X171005174Y-108014858D01*
X171008684Y-107991197D01*
X171014496Y-107967993D01*
X171022554Y-107945471D01*
X171032782Y-107923847D01*
X171045079Y-107903330D01*
X171059329Y-107884117D01*
X171075393Y-107866393D01*
X171093117Y-107850329D01*
X171112330Y-107836079D01*
X171132847Y-107823782D01*
X171154471Y-107813554D01*
X171176993Y-107805496D01*
X171200197Y-107799684D01*
X171223858Y-107796174D01*
X171247750Y-107795000D01*
X172160250Y-107795000D01*
X172184142Y-107796174D01*
G37*
G36*
X174597142Y-106955674D02*
G01*
X174620803Y-106959184D01*
X174644007Y-106964996D01*
X174666529Y-106973054D01*
X174688153Y-106983282D01*
X174708670Y-106995579D01*
X174727883Y-107009829D01*
X174745607Y-107025893D01*
X174761671Y-107043617D01*
X174775921Y-107062830D01*
X174788218Y-107083347D01*
X174798446Y-107104971D01*
X174806504Y-107127493D01*
X174812316Y-107150697D01*
X174815826Y-107174358D01*
X174817000Y-107198250D01*
X174817000Y-107685750D01*
X174815826Y-107709642D01*
X174812316Y-107733303D01*
X174806504Y-107756507D01*
X174798446Y-107779029D01*
X174788218Y-107800653D01*
X174775921Y-107821170D01*
X174761671Y-107840383D01*
X174745607Y-107858107D01*
X174727883Y-107874171D01*
X174708670Y-107888421D01*
X174688153Y-107900718D01*
X174666529Y-107910946D01*
X174644007Y-107919004D01*
X174620803Y-107924816D01*
X174597142Y-107928326D01*
X174573250Y-107929500D01*
X173660750Y-107929500D01*
X173636858Y-107928326D01*
X173613197Y-107924816D01*
X173589993Y-107919004D01*
X173567471Y-107910946D01*
X173545847Y-107900718D01*
X173525330Y-107888421D01*
X173506117Y-107874171D01*
X173488393Y-107858107D01*
X173472329Y-107840383D01*
X173458079Y-107821170D01*
X173445782Y-107800653D01*
X173435554Y-107779029D01*
X173427496Y-107756507D01*
X173421684Y-107733303D01*
X173418174Y-107709642D01*
X173417000Y-107685750D01*
X173417000Y-107198250D01*
X173418174Y-107174358D01*
X173421684Y-107150697D01*
X173427496Y-107127493D01*
X173435554Y-107104971D01*
X173445782Y-107083347D01*
X173458079Y-107062830D01*
X173472329Y-107043617D01*
X173488393Y-107025893D01*
X173506117Y-107009829D01*
X173525330Y-106995579D01*
X173545847Y-106983282D01*
X173567471Y-106973054D01*
X173589993Y-106964996D01*
X173613197Y-106959184D01*
X173636858Y-106955674D01*
X173660750Y-106954500D01*
X174573250Y-106954500D01*
X174597142Y-106955674D01*
G37*
G36*
X174597142Y-108830674D02*
G01*
X174620803Y-108834184D01*
X174644007Y-108839996D01*
X174666529Y-108848054D01*
X174688153Y-108858282D01*
X174708670Y-108870579D01*
X174727883Y-108884829D01*
X174745607Y-108900893D01*
X174761671Y-108918617D01*
X174775921Y-108937830D01*
X174788218Y-108958347D01*
X174798446Y-108979971D01*
X174806504Y-109002493D01*
X174812316Y-109025697D01*
X174815826Y-109049358D01*
X174817000Y-109073250D01*
X174817000Y-109560750D01*
X174815826Y-109584642D01*
X174812316Y-109608303D01*
X174806504Y-109631507D01*
X174798446Y-109654029D01*
X174788218Y-109675653D01*
X174775921Y-109696170D01*
X174761671Y-109715383D01*
X174745607Y-109733107D01*
X174727883Y-109749171D01*
X174708670Y-109763421D01*
X174688153Y-109775718D01*
X174666529Y-109785946D01*
X174644007Y-109794004D01*
X174620803Y-109799816D01*
X174597142Y-109803326D01*
X174573250Y-109804500D01*
X173660750Y-109804500D01*
X173636858Y-109803326D01*
X173613197Y-109799816D01*
X173589993Y-109794004D01*
X173567471Y-109785946D01*
X173545847Y-109775718D01*
X173525330Y-109763421D01*
X173506117Y-109749171D01*
X173488393Y-109733107D01*
X173472329Y-109715383D01*
X173458079Y-109696170D01*
X173445782Y-109675653D01*
X173435554Y-109654029D01*
X173427496Y-109631507D01*
X173421684Y-109608303D01*
X173418174Y-109584642D01*
X173417000Y-109560750D01*
X173417000Y-109073250D01*
X173418174Y-109049358D01*
X173421684Y-109025697D01*
X173427496Y-109002493D01*
X173435554Y-108979971D01*
X173445782Y-108958347D01*
X173458079Y-108937830D01*
X173472329Y-108918617D01*
X173488393Y-108900893D01*
X173506117Y-108884829D01*
X173525330Y-108870579D01*
X173545847Y-108858282D01*
X173567471Y-108848054D01*
X173589993Y-108839996D01*
X173613197Y-108834184D01*
X173636858Y-108830674D01*
X173660750Y-108829500D01*
X174573250Y-108829500D01*
X174597142Y-108830674D01*
G37*
G36*
X138190504Y-105167204D02*
G01*
X138214773Y-105170804D01*
X138238571Y-105176765D01*
X138261671Y-105185030D01*
X138283849Y-105195520D01*
X138304893Y-105208133D01*
X138324598Y-105222747D01*
X138342777Y-105239223D01*
X138359253Y-105257402D01*
X138373867Y-105277107D01*
X138386480Y-105298151D01*
X138396970Y-105320329D01*
X138405235Y-105343429D01*
X138411196Y-105367227D01*
X138414796Y-105391496D01*
X138416000Y-105416000D01*
X138416000Y-106166000D01*
X138414796Y-106190504D01*
X138411196Y-106214773D01*
X138405235Y-106238571D01*
X138396970Y-106261671D01*
X138386480Y-106283849D01*
X138373867Y-106304893D01*
X138359253Y-106324598D01*
X138342777Y-106342777D01*
X138324598Y-106359253D01*
X138304893Y-106373867D01*
X138283849Y-106386480D01*
X138261671Y-106396970D01*
X138238571Y-106405235D01*
X138214773Y-106411196D01*
X138190504Y-106414796D01*
X138166000Y-106416000D01*
X136916000Y-106416000D01*
X136891496Y-106414796D01*
X136867227Y-106411196D01*
X136843429Y-106405235D01*
X136820329Y-106396970D01*
X136798151Y-106386480D01*
X136777107Y-106373867D01*
X136757402Y-106359253D01*
X136739223Y-106342777D01*
X136722747Y-106324598D01*
X136708133Y-106304893D01*
X136695520Y-106283849D01*
X136685030Y-106261671D01*
X136676765Y-106238571D01*
X136670804Y-106214773D01*
X136667204Y-106190504D01*
X136666000Y-106166000D01*
X136666000Y-105416000D01*
X136667204Y-105391496D01*
X136670804Y-105367227D01*
X136676765Y-105343429D01*
X136685030Y-105320329D01*
X136695520Y-105298151D01*
X136708133Y-105277107D01*
X136722747Y-105257402D01*
X136739223Y-105239223D01*
X136757402Y-105222747D01*
X136777107Y-105208133D01*
X136798151Y-105195520D01*
X136820329Y-105185030D01*
X136843429Y-105176765D01*
X136867227Y-105170804D01*
X136891496Y-105167204D01*
X136916000Y-105166000D01*
X138166000Y-105166000D01*
X138190504Y-105167204D01*
G37*
G36*
X138190504Y-102367204D02*
G01*
X138214773Y-102370804D01*
X138238571Y-102376765D01*
X138261671Y-102385030D01*
X138283849Y-102395520D01*
X138304893Y-102408133D01*
X138324598Y-102422747D01*
X138342777Y-102439223D01*
X138359253Y-102457402D01*
X138373867Y-102477107D01*
X138386480Y-102498151D01*
X138396970Y-102520329D01*
X138405235Y-102543429D01*
X138411196Y-102567227D01*
X138414796Y-102591496D01*
X138416000Y-102616000D01*
X138416000Y-103366000D01*
X138414796Y-103390504D01*
X138411196Y-103414773D01*
X138405235Y-103438571D01*
X138396970Y-103461671D01*
X138386480Y-103483849D01*
X138373867Y-103504893D01*
X138359253Y-103524598D01*
X138342777Y-103542777D01*
X138324598Y-103559253D01*
X138304893Y-103573867D01*
X138283849Y-103586480D01*
X138261671Y-103596970D01*
X138238571Y-103605235D01*
X138214773Y-103611196D01*
X138190504Y-103614796D01*
X138166000Y-103616000D01*
X136916000Y-103616000D01*
X136891496Y-103614796D01*
X136867227Y-103611196D01*
X136843429Y-103605235D01*
X136820329Y-103596970D01*
X136798151Y-103586480D01*
X136777107Y-103573867D01*
X136757402Y-103559253D01*
X136739223Y-103542777D01*
X136722747Y-103524598D01*
X136708133Y-103504893D01*
X136695520Y-103483849D01*
X136685030Y-103461671D01*
X136676765Y-103438571D01*
X136670804Y-103414773D01*
X136667204Y-103390504D01*
X136666000Y-103366000D01*
X136666000Y-102616000D01*
X136667204Y-102591496D01*
X136670804Y-102567227D01*
X136676765Y-102543429D01*
X136685030Y-102520329D01*
X136695520Y-102498151D01*
X136708133Y-102477107D01*
X136722747Y-102457402D01*
X136739223Y-102439223D01*
X136757402Y-102422747D01*
X136777107Y-102408133D01*
X136798151Y-102395520D01*
X136820329Y-102385030D01*
X136843429Y-102376765D01*
X136867227Y-102370804D01*
X136891496Y-102367204D01*
X136916000Y-102366000D01*
X138166000Y-102366000D01*
X138190504Y-102367204D01*
G37*
G36*
X184797703Y-102443722D02*
G01*
X184812264Y-102445882D01*
X184826543Y-102449459D01*
X184840403Y-102454418D01*
X184853710Y-102460712D01*
X184866336Y-102468280D01*
X184878159Y-102477048D01*
X184889066Y-102486934D01*
X184898952Y-102497841D01*
X184907720Y-102509664D01*
X184915288Y-102522290D01*
X184921582Y-102535597D01*
X184926541Y-102549457D01*
X184930118Y-102563736D01*
X184932278Y-102578297D01*
X184933000Y-102593000D01*
X184933000Y-102893000D01*
X184932278Y-102907703D01*
X184930118Y-102922264D01*
X184926541Y-102936543D01*
X184921582Y-102950403D01*
X184915288Y-102963710D01*
X184907720Y-102976336D01*
X184898952Y-102988159D01*
X184889066Y-102999066D01*
X184878159Y-103008952D01*
X184866336Y-103017720D01*
X184853710Y-103025288D01*
X184840403Y-103031582D01*
X184826543Y-103036541D01*
X184812264Y-103040118D01*
X184797703Y-103042278D01*
X184783000Y-103043000D01*
X183333000Y-103043000D01*
X183318297Y-103042278D01*
X183303736Y-103040118D01*
X183289457Y-103036541D01*
X183275597Y-103031582D01*
X183262290Y-103025288D01*
X183249664Y-103017720D01*
X183237841Y-103008952D01*
X183226934Y-102999066D01*
X183217048Y-102988159D01*
X183208280Y-102976336D01*
X183200712Y-102963710D01*
X183194418Y-102950403D01*
X183189459Y-102936543D01*
X183185882Y-102922264D01*
X183183722Y-102907703D01*
X183183000Y-102893000D01*
X183183000Y-102593000D01*
X183183722Y-102578297D01*
X183185882Y-102563736D01*
X183189459Y-102549457D01*
X183194418Y-102535597D01*
X183200712Y-102522290D01*
X183208280Y-102509664D01*
X183217048Y-102497841D01*
X183226934Y-102486934D01*
X183237841Y-102477048D01*
X183249664Y-102468280D01*
X183262290Y-102460712D01*
X183275597Y-102454418D01*
X183289457Y-102449459D01*
X183303736Y-102445882D01*
X183318297Y-102443722D01*
X183333000Y-102443000D01*
X184783000Y-102443000D01*
X184797703Y-102443722D01*
G37*
G36*
X184797703Y-103713722D02*
G01*
X184812264Y-103715882D01*
X184826543Y-103719459D01*
X184840403Y-103724418D01*
X184853710Y-103730712D01*
X184866336Y-103738280D01*
X184878159Y-103747048D01*
X184889066Y-103756934D01*
X184898952Y-103767841D01*
X184907720Y-103779664D01*
X184915288Y-103792290D01*
X184921582Y-103805597D01*
X184926541Y-103819457D01*
X184930118Y-103833736D01*
X184932278Y-103848297D01*
X184933000Y-103863000D01*
X184933000Y-104163000D01*
X184932278Y-104177703D01*
X184930118Y-104192264D01*
X184926541Y-104206543D01*
X184921582Y-104220403D01*
X184915288Y-104233710D01*
X184907720Y-104246336D01*
X184898952Y-104258159D01*
X184889066Y-104269066D01*
X184878159Y-104278952D01*
X184866336Y-104287720D01*
X184853710Y-104295288D01*
X184840403Y-104301582D01*
X184826543Y-104306541D01*
X184812264Y-104310118D01*
X184797703Y-104312278D01*
X184783000Y-104313000D01*
X183333000Y-104313000D01*
X183318297Y-104312278D01*
X183303736Y-104310118D01*
X183289457Y-104306541D01*
X183275597Y-104301582D01*
X183262290Y-104295288D01*
X183249664Y-104287720D01*
X183237841Y-104278952D01*
X183226934Y-104269066D01*
X183217048Y-104258159D01*
X183208280Y-104246336D01*
X183200712Y-104233710D01*
X183194418Y-104220403D01*
X183189459Y-104206543D01*
X183185882Y-104192264D01*
X183183722Y-104177703D01*
X183183000Y-104163000D01*
X183183000Y-103863000D01*
X183183722Y-103848297D01*
X183185882Y-103833736D01*
X183189459Y-103819457D01*
X183194418Y-103805597D01*
X183200712Y-103792290D01*
X183208280Y-103779664D01*
X183217048Y-103767841D01*
X183226934Y-103756934D01*
X183237841Y-103747048D01*
X183249664Y-103738280D01*
X183262290Y-103730712D01*
X183275597Y-103724418D01*
X183289457Y-103719459D01*
X183303736Y-103715882D01*
X183318297Y-103713722D01*
X183333000Y-103713000D01*
X184783000Y-103713000D01*
X184797703Y-103713722D01*
G37*
G36*
X184797703Y-104983722D02*
G01*
X184812264Y-104985882D01*
X184826543Y-104989459D01*
X184840403Y-104994418D01*
X184853710Y-105000712D01*
X184866336Y-105008280D01*
X184878159Y-105017048D01*
X184889066Y-105026934D01*
X184898952Y-105037841D01*
X184907720Y-105049664D01*
X184915288Y-105062290D01*
X184921582Y-105075597D01*
X184926541Y-105089457D01*
X184930118Y-105103736D01*
X184932278Y-105118297D01*
X184933000Y-105133000D01*
X184933000Y-105433000D01*
X184932278Y-105447703D01*
X184930118Y-105462264D01*
X184926541Y-105476543D01*
X184921582Y-105490403D01*
X184915288Y-105503710D01*
X184907720Y-105516336D01*
X184898952Y-105528159D01*
X184889066Y-105539066D01*
X184878159Y-105548952D01*
X184866336Y-105557720D01*
X184853710Y-105565288D01*
X184840403Y-105571582D01*
X184826543Y-105576541D01*
X184812264Y-105580118D01*
X184797703Y-105582278D01*
X184783000Y-105583000D01*
X183333000Y-105583000D01*
X183318297Y-105582278D01*
X183303736Y-105580118D01*
X183289457Y-105576541D01*
X183275597Y-105571582D01*
X183262290Y-105565288D01*
X183249664Y-105557720D01*
X183237841Y-105548952D01*
X183226934Y-105539066D01*
X183217048Y-105528159D01*
X183208280Y-105516336D01*
X183200712Y-105503710D01*
X183194418Y-105490403D01*
X183189459Y-105476543D01*
X183185882Y-105462264D01*
X183183722Y-105447703D01*
X183183000Y-105433000D01*
X183183000Y-105133000D01*
X183183722Y-105118297D01*
X183185882Y-105103736D01*
X183189459Y-105089457D01*
X183194418Y-105075597D01*
X183200712Y-105062290D01*
X183208280Y-105049664D01*
X183217048Y-105037841D01*
X183226934Y-105026934D01*
X183237841Y-105017048D01*
X183249664Y-105008280D01*
X183262290Y-105000712D01*
X183275597Y-104994418D01*
X183289457Y-104989459D01*
X183303736Y-104985882D01*
X183318297Y-104983722D01*
X183333000Y-104983000D01*
X184783000Y-104983000D01*
X184797703Y-104983722D01*
G37*
G36*
X184797703Y-106253722D02*
G01*
X184812264Y-106255882D01*
X184826543Y-106259459D01*
X184840403Y-106264418D01*
X184853710Y-106270712D01*
X184866336Y-106278280D01*
X184878159Y-106287048D01*
X184889066Y-106296934D01*
X184898952Y-106307841D01*
X184907720Y-106319664D01*
X184915288Y-106332290D01*
X184921582Y-106345597D01*
X184926541Y-106359457D01*
X184930118Y-106373736D01*
X184932278Y-106388297D01*
X184933000Y-106403000D01*
X184933000Y-106703000D01*
X184932278Y-106717703D01*
X184930118Y-106732264D01*
X184926541Y-106746543D01*
X184921582Y-106760403D01*
X184915288Y-106773710D01*
X184907720Y-106786336D01*
X184898952Y-106798159D01*
X184889066Y-106809066D01*
X184878159Y-106818952D01*
X184866336Y-106827720D01*
X184853710Y-106835288D01*
X184840403Y-106841582D01*
X184826543Y-106846541D01*
X184812264Y-106850118D01*
X184797703Y-106852278D01*
X184783000Y-106853000D01*
X183333000Y-106853000D01*
X183318297Y-106852278D01*
X183303736Y-106850118D01*
X183289457Y-106846541D01*
X183275597Y-106841582D01*
X183262290Y-106835288D01*
X183249664Y-106827720D01*
X183237841Y-106818952D01*
X183226934Y-106809066D01*
X183217048Y-106798159D01*
X183208280Y-106786336D01*
X183200712Y-106773710D01*
X183194418Y-106760403D01*
X183189459Y-106746543D01*
X183185882Y-106732264D01*
X183183722Y-106717703D01*
X183183000Y-106703000D01*
X183183000Y-106403000D01*
X183183722Y-106388297D01*
X183185882Y-106373736D01*
X183189459Y-106359457D01*
X183194418Y-106345597D01*
X183200712Y-106332290D01*
X183208280Y-106319664D01*
X183217048Y-106307841D01*
X183226934Y-106296934D01*
X183237841Y-106287048D01*
X183249664Y-106278280D01*
X183262290Y-106270712D01*
X183275597Y-106264418D01*
X183289457Y-106259459D01*
X183303736Y-106255882D01*
X183318297Y-106253722D01*
X183333000Y-106253000D01*
X184783000Y-106253000D01*
X184797703Y-106253722D01*
G37*
G36*
X179647703Y-106253722D02*
G01*
X179662264Y-106255882D01*
X179676543Y-106259459D01*
X179690403Y-106264418D01*
X179703710Y-106270712D01*
X179716336Y-106278280D01*
X179728159Y-106287048D01*
X179739066Y-106296934D01*
X179748952Y-106307841D01*
X179757720Y-106319664D01*
X179765288Y-106332290D01*
X179771582Y-106345597D01*
X179776541Y-106359457D01*
X179780118Y-106373736D01*
X179782278Y-106388297D01*
X179783000Y-106403000D01*
X179783000Y-106703000D01*
X179782278Y-106717703D01*
X179780118Y-106732264D01*
X179776541Y-106746543D01*
X179771582Y-106760403D01*
X179765288Y-106773710D01*
X179757720Y-106786336D01*
X179748952Y-106798159D01*
X179739066Y-106809066D01*
X179728159Y-106818952D01*
X179716336Y-106827720D01*
X179703710Y-106835288D01*
X179690403Y-106841582D01*
X179676543Y-106846541D01*
X179662264Y-106850118D01*
X179647703Y-106852278D01*
X179633000Y-106853000D01*
X178183000Y-106853000D01*
X178168297Y-106852278D01*
X178153736Y-106850118D01*
X178139457Y-106846541D01*
X178125597Y-106841582D01*
X178112290Y-106835288D01*
X178099664Y-106827720D01*
X178087841Y-106818952D01*
X178076934Y-106809066D01*
X178067048Y-106798159D01*
X178058280Y-106786336D01*
X178050712Y-106773710D01*
X178044418Y-106760403D01*
X178039459Y-106746543D01*
X178035882Y-106732264D01*
X178033722Y-106717703D01*
X178033000Y-106703000D01*
X178033000Y-106403000D01*
X178033722Y-106388297D01*
X178035882Y-106373736D01*
X178039459Y-106359457D01*
X178044418Y-106345597D01*
X178050712Y-106332290D01*
X178058280Y-106319664D01*
X178067048Y-106307841D01*
X178076934Y-106296934D01*
X178087841Y-106287048D01*
X178099664Y-106278280D01*
X178112290Y-106270712D01*
X178125597Y-106264418D01*
X178139457Y-106259459D01*
X178153736Y-106255882D01*
X178168297Y-106253722D01*
X178183000Y-106253000D01*
X179633000Y-106253000D01*
X179647703Y-106253722D01*
G37*
G36*
X179647703Y-104983722D02*
G01*
X179662264Y-104985882D01*
X179676543Y-104989459D01*
X179690403Y-104994418D01*
X179703710Y-105000712D01*
X179716336Y-105008280D01*
X179728159Y-105017048D01*
X179739066Y-105026934D01*
X179748952Y-105037841D01*
X179757720Y-105049664D01*
X179765288Y-105062290D01*
X179771582Y-105075597D01*
X179776541Y-105089457D01*
X179780118Y-105103736D01*
X179782278Y-105118297D01*
X179783000Y-105133000D01*
X179783000Y-105433000D01*
X179782278Y-105447703D01*
X179780118Y-105462264D01*
X179776541Y-105476543D01*
X179771582Y-105490403D01*
X179765288Y-105503710D01*
X179757720Y-105516336D01*
X179748952Y-105528159D01*
X179739066Y-105539066D01*
X179728159Y-105548952D01*
X179716336Y-105557720D01*
X179703710Y-105565288D01*
X179690403Y-105571582D01*
X179676543Y-105576541D01*
X179662264Y-105580118D01*
X179647703Y-105582278D01*
X179633000Y-105583000D01*
X178183000Y-105583000D01*
X178168297Y-105582278D01*
X178153736Y-105580118D01*
X178139457Y-105576541D01*
X178125597Y-105571582D01*
X178112290Y-105565288D01*
X178099664Y-105557720D01*
X178087841Y-105548952D01*
X178076934Y-105539066D01*
X178067048Y-105528159D01*
X178058280Y-105516336D01*
X178050712Y-105503710D01*
X178044418Y-105490403D01*
X178039459Y-105476543D01*
X178035882Y-105462264D01*
X178033722Y-105447703D01*
X178033000Y-105433000D01*
X178033000Y-105133000D01*
X178033722Y-105118297D01*
X178035882Y-105103736D01*
X178039459Y-105089457D01*
X178044418Y-105075597D01*
X178050712Y-105062290D01*
X178058280Y-105049664D01*
X178067048Y-105037841D01*
X178076934Y-105026934D01*
X178087841Y-105017048D01*
X178099664Y-105008280D01*
X178112290Y-105000712D01*
X178125597Y-104994418D01*
X178139457Y-104989459D01*
X178153736Y-104985882D01*
X178168297Y-104983722D01*
X178183000Y-104983000D01*
X179633000Y-104983000D01*
X179647703Y-104983722D01*
G37*
G36*
X179647703Y-103713722D02*
G01*
X179662264Y-103715882D01*
X179676543Y-103719459D01*
X179690403Y-103724418D01*
X179703710Y-103730712D01*
X179716336Y-103738280D01*
X179728159Y-103747048D01*
X179739066Y-103756934D01*
X179748952Y-103767841D01*
X179757720Y-103779664D01*
X179765288Y-103792290D01*
X179771582Y-103805597D01*
X179776541Y-103819457D01*
X179780118Y-103833736D01*
X179782278Y-103848297D01*
X179783000Y-103863000D01*
X179783000Y-104163000D01*
X179782278Y-104177703D01*
X179780118Y-104192264D01*
X179776541Y-104206543D01*
X179771582Y-104220403D01*
X179765288Y-104233710D01*
X179757720Y-104246336D01*
X179748952Y-104258159D01*
X179739066Y-104269066D01*
X179728159Y-104278952D01*
X179716336Y-104287720D01*
X179703710Y-104295288D01*
X179690403Y-104301582D01*
X179676543Y-104306541D01*
X179662264Y-104310118D01*
X179647703Y-104312278D01*
X179633000Y-104313000D01*
X178183000Y-104313000D01*
X178168297Y-104312278D01*
X178153736Y-104310118D01*
X178139457Y-104306541D01*
X178125597Y-104301582D01*
X178112290Y-104295288D01*
X178099664Y-104287720D01*
X178087841Y-104278952D01*
X178076934Y-104269066D01*
X178067048Y-104258159D01*
X178058280Y-104246336D01*
X178050712Y-104233710D01*
X178044418Y-104220403D01*
X178039459Y-104206543D01*
X178035882Y-104192264D01*
X178033722Y-104177703D01*
X178033000Y-104163000D01*
X178033000Y-103863000D01*
X178033722Y-103848297D01*
X178035882Y-103833736D01*
X178039459Y-103819457D01*
X178044418Y-103805597D01*
X178050712Y-103792290D01*
X178058280Y-103779664D01*
X178067048Y-103767841D01*
X178076934Y-103756934D01*
X178087841Y-103747048D01*
X178099664Y-103738280D01*
X178112290Y-103730712D01*
X178125597Y-103724418D01*
X178139457Y-103719459D01*
X178153736Y-103715882D01*
X178168297Y-103713722D01*
X178183000Y-103713000D01*
X179633000Y-103713000D01*
X179647703Y-103713722D01*
G37*
G36*
X179647703Y-102443722D02*
G01*
X179662264Y-102445882D01*
X179676543Y-102449459D01*
X179690403Y-102454418D01*
X179703710Y-102460712D01*
X179716336Y-102468280D01*
X179728159Y-102477048D01*
X179739066Y-102486934D01*
X179748952Y-102497841D01*
X179757720Y-102509664D01*
X179765288Y-102522290D01*
X179771582Y-102535597D01*
X179776541Y-102549457D01*
X179780118Y-102563736D01*
X179782278Y-102578297D01*
X179783000Y-102593000D01*
X179783000Y-102893000D01*
X179782278Y-102907703D01*
X179780118Y-102922264D01*
X179776541Y-102936543D01*
X179771582Y-102950403D01*
X179765288Y-102963710D01*
X179757720Y-102976336D01*
X179748952Y-102988159D01*
X179739066Y-102999066D01*
X179728159Y-103008952D01*
X179716336Y-103017720D01*
X179703710Y-103025288D01*
X179690403Y-103031582D01*
X179676543Y-103036541D01*
X179662264Y-103040118D01*
X179647703Y-103042278D01*
X179633000Y-103043000D01*
X178183000Y-103043000D01*
X178168297Y-103042278D01*
X178153736Y-103040118D01*
X178139457Y-103036541D01*
X178125597Y-103031582D01*
X178112290Y-103025288D01*
X178099664Y-103017720D01*
X178087841Y-103008952D01*
X178076934Y-102999066D01*
X178067048Y-102988159D01*
X178058280Y-102976336D01*
X178050712Y-102963710D01*
X178044418Y-102950403D01*
X178039459Y-102936543D01*
X178035882Y-102922264D01*
X178033722Y-102907703D01*
X178033000Y-102893000D01*
X178033000Y-102593000D01*
X178033722Y-102578297D01*
X178035882Y-102563736D01*
X178039459Y-102549457D01*
X178044418Y-102535597D01*
X178050712Y-102522290D01*
X178058280Y-102509664D01*
X178067048Y-102497841D01*
X178076934Y-102486934D01*
X178087841Y-102477048D01*
X178099664Y-102468280D01*
X178112290Y-102460712D01*
X178125597Y-102454418D01*
X178139457Y-102449459D01*
X178153736Y-102445882D01*
X178168297Y-102443722D01*
X178183000Y-102443000D01*
X179633000Y-102443000D01*
X179647703Y-102443722D01*
G37*
G36*
X177488703Y-108031722D02*
G01*
X177503264Y-108033882D01*
X177517543Y-108037459D01*
X177531403Y-108042418D01*
X177544710Y-108048712D01*
X177557336Y-108056280D01*
X177569159Y-108065048D01*
X177580066Y-108074934D01*
X177589952Y-108085841D01*
X177598720Y-108097664D01*
X177606288Y-108110290D01*
X177612582Y-108123597D01*
X177617541Y-108137457D01*
X177621118Y-108151736D01*
X177623278Y-108166297D01*
X177624000Y-108181000D01*
X177624000Y-108481000D01*
X177623278Y-108495703D01*
X177621118Y-108510264D01*
X177617541Y-108524543D01*
X177612582Y-108538403D01*
X177606288Y-108551710D01*
X177598720Y-108564336D01*
X177589952Y-108576159D01*
X177580066Y-108587066D01*
X177569159Y-108596952D01*
X177557336Y-108605720D01*
X177544710Y-108613288D01*
X177531403Y-108619582D01*
X177517543Y-108624541D01*
X177503264Y-108628118D01*
X177488703Y-108630278D01*
X177474000Y-108631000D01*
X176024000Y-108631000D01*
X176009297Y-108630278D01*
X175994736Y-108628118D01*
X175980457Y-108624541D01*
X175966597Y-108619582D01*
X175953290Y-108613288D01*
X175940664Y-108605720D01*
X175928841Y-108596952D01*
X175917934Y-108587066D01*
X175908048Y-108576159D01*
X175899280Y-108564336D01*
X175891712Y-108551710D01*
X175885418Y-108538403D01*
X175880459Y-108524543D01*
X175876882Y-108510264D01*
X175874722Y-108495703D01*
X175874000Y-108481000D01*
X175874000Y-108181000D01*
X175874722Y-108166297D01*
X175876882Y-108151736D01*
X175880459Y-108137457D01*
X175885418Y-108123597D01*
X175891712Y-108110290D01*
X175899280Y-108097664D01*
X175908048Y-108085841D01*
X175917934Y-108074934D01*
X175928841Y-108065048D01*
X175940664Y-108056280D01*
X175953290Y-108048712D01*
X175966597Y-108042418D01*
X175980457Y-108037459D01*
X175994736Y-108033882D01*
X176009297Y-108031722D01*
X176024000Y-108031000D01*
X177474000Y-108031000D01*
X177488703Y-108031722D01*
G37*
G36*
X177488703Y-109301722D02*
G01*
X177503264Y-109303882D01*
X177517543Y-109307459D01*
X177531403Y-109312418D01*
X177544710Y-109318712D01*
X177557336Y-109326280D01*
X177569159Y-109335048D01*
X177580066Y-109344934D01*
X177589952Y-109355841D01*
X177598720Y-109367664D01*
X177606288Y-109380290D01*
X177612582Y-109393597D01*
X177617541Y-109407457D01*
X177621118Y-109421736D01*
X177623278Y-109436297D01*
X177624000Y-109451000D01*
X177624000Y-109751000D01*
X177623278Y-109765703D01*
X177621118Y-109780264D01*
X177617541Y-109794543D01*
X177612582Y-109808403D01*
X177606288Y-109821710D01*
X177598720Y-109834336D01*
X177589952Y-109846159D01*
X177580066Y-109857066D01*
X177569159Y-109866952D01*
X177557336Y-109875720D01*
X177544710Y-109883288D01*
X177531403Y-109889582D01*
X177517543Y-109894541D01*
X177503264Y-109898118D01*
X177488703Y-109900278D01*
X177474000Y-109901000D01*
X176024000Y-109901000D01*
X176009297Y-109900278D01*
X175994736Y-109898118D01*
X175980457Y-109894541D01*
X175966597Y-109889582D01*
X175953290Y-109883288D01*
X175940664Y-109875720D01*
X175928841Y-109866952D01*
X175917934Y-109857066D01*
X175908048Y-109846159D01*
X175899280Y-109834336D01*
X175891712Y-109821710D01*
X175885418Y-109808403D01*
X175880459Y-109794543D01*
X175876882Y-109780264D01*
X175874722Y-109765703D01*
X175874000Y-109751000D01*
X175874000Y-109451000D01*
X175874722Y-109436297D01*
X175876882Y-109421736D01*
X175880459Y-109407457D01*
X175885418Y-109393597D01*
X175891712Y-109380290D01*
X175899280Y-109367664D01*
X175908048Y-109355841D01*
X175917934Y-109344934D01*
X175928841Y-109335048D01*
X175940664Y-109326280D01*
X175953290Y-109318712D01*
X175966597Y-109312418D01*
X175980457Y-109307459D01*
X175994736Y-109303882D01*
X176009297Y-109301722D01*
X176024000Y-109301000D01*
X177474000Y-109301000D01*
X177488703Y-109301722D01*
G37*
G36*
X177488703Y-110571722D02*
G01*
X177503264Y-110573882D01*
X177517543Y-110577459D01*
X177531403Y-110582418D01*
X177544710Y-110588712D01*
X177557336Y-110596280D01*
X177569159Y-110605048D01*
X177580066Y-110614934D01*
X177589952Y-110625841D01*
X177598720Y-110637664D01*
X177606288Y-110650290D01*
X177612582Y-110663597D01*
X177617541Y-110677457D01*
X177621118Y-110691736D01*
X177623278Y-110706297D01*
X177624000Y-110721000D01*
X177624000Y-111021000D01*
X177623278Y-111035703D01*
X177621118Y-111050264D01*
X177617541Y-111064543D01*
X177612582Y-111078403D01*
X177606288Y-111091710D01*
X177598720Y-111104336D01*
X177589952Y-111116159D01*
X177580066Y-111127066D01*
X177569159Y-111136952D01*
X177557336Y-111145720D01*
X177544710Y-111153288D01*
X177531403Y-111159582D01*
X177517543Y-111164541D01*
X177503264Y-111168118D01*
X177488703Y-111170278D01*
X177474000Y-111171000D01*
X176024000Y-111171000D01*
X176009297Y-111170278D01*
X175994736Y-111168118D01*
X175980457Y-111164541D01*
X175966597Y-111159582D01*
X175953290Y-111153288D01*
X175940664Y-111145720D01*
X175928841Y-111136952D01*
X175917934Y-111127066D01*
X175908048Y-111116159D01*
X175899280Y-111104336D01*
X175891712Y-111091710D01*
X175885418Y-111078403D01*
X175880459Y-111064543D01*
X175876882Y-111050264D01*
X175874722Y-111035703D01*
X175874000Y-111021000D01*
X175874000Y-110721000D01*
X175874722Y-110706297D01*
X175876882Y-110691736D01*
X175880459Y-110677457D01*
X175885418Y-110663597D01*
X175891712Y-110650290D01*
X175899280Y-110637664D01*
X175908048Y-110625841D01*
X175917934Y-110614934D01*
X175928841Y-110605048D01*
X175940664Y-110596280D01*
X175953290Y-110588712D01*
X175966597Y-110582418D01*
X175980457Y-110577459D01*
X175994736Y-110573882D01*
X176009297Y-110571722D01*
X176024000Y-110571000D01*
X177474000Y-110571000D01*
X177488703Y-110571722D01*
G37*
G36*
X177488703Y-111841722D02*
G01*
X177503264Y-111843882D01*
X177517543Y-111847459D01*
X177531403Y-111852418D01*
X177544710Y-111858712D01*
X177557336Y-111866280D01*
X177569159Y-111875048D01*
X177580066Y-111884934D01*
X177589952Y-111895841D01*
X177598720Y-111907664D01*
X177606288Y-111920290D01*
X177612582Y-111933597D01*
X177617541Y-111947457D01*
X177621118Y-111961736D01*
X177623278Y-111976297D01*
X177624000Y-111991000D01*
X177624000Y-112291000D01*
X177623278Y-112305703D01*
X177621118Y-112320264D01*
X177617541Y-112334543D01*
X177612582Y-112348403D01*
X177606288Y-112361710D01*
X177598720Y-112374336D01*
X177589952Y-112386159D01*
X177580066Y-112397066D01*
X177569159Y-112406952D01*
X177557336Y-112415720D01*
X177544710Y-112423288D01*
X177531403Y-112429582D01*
X177517543Y-112434541D01*
X177503264Y-112438118D01*
X177488703Y-112440278D01*
X177474000Y-112441000D01*
X176024000Y-112441000D01*
X176009297Y-112440278D01*
X175994736Y-112438118D01*
X175980457Y-112434541D01*
X175966597Y-112429582D01*
X175953290Y-112423288D01*
X175940664Y-112415720D01*
X175928841Y-112406952D01*
X175917934Y-112397066D01*
X175908048Y-112386159D01*
X175899280Y-112374336D01*
X175891712Y-112361710D01*
X175885418Y-112348403D01*
X175880459Y-112334543D01*
X175876882Y-112320264D01*
X175874722Y-112305703D01*
X175874000Y-112291000D01*
X175874000Y-111991000D01*
X175874722Y-111976297D01*
X175876882Y-111961736D01*
X175880459Y-111947457D01*
X175885418Y-111933597D01*
X175891712Y-111920290D01*
X175899280Y-111907664D01*
X175908048Y-111895841D01*
X175917934Y-111884934D01*
X175928841Y-111875048D01*
X175940664Y-111866280D01*
X175953290Y-111858712D01*
X175966597Y-111852418D01*
X175980457Y-111847459D01*
X175994736Y-111843882D01*
X176009297Y-111841722D01*
X176024000Y-111841000D01*
X177474000Y-111841000D01*
X177488703Y-111841722D01*
G37*
G36*
X182638703Y-111841722D02*
G01*
X182653264Y-111843882D01*
X182667543Y-111847459D01*
X182681403Y-111852418D01*
X182694710Y-111858712D01*
X182707336Y-111866280D01*
X182719159Y-111875048D01*
X182730066Y-111884934D01*
X182739952Y-111895841D01*
X182748720Y-111907664D01*
X182756288Y-111920290D01*
X182762582Y-111933597D01*
X182767541Y-111947457D01*
X182771118Y-111961736D01*
X182773278Y-111976297D01*
X182774000Y-111991000D01*
X182774000Y-112291000D01*
X182773278Y-112305703D01*
X182771118Y-112320264D01*
X182767541Y-112334543D01*
X182762582Y-112348403D01*
X182756288Y-112361710D01*
X182748720Y-112374336D01*
X182739952Y-112386159D01*
X182730066Y-112397066D01*
X182719159Y-112406952D01*
X182707336Y-112415720D01*
X182694710Y-112423288D01*
X182681403Y-112429582D01*
X182667543Y-112434541D01*
X182653264Y-112438118D01*
X182638703Y-112440278D01*
X182624000Y-112441000D01*
X181174000Y-112441000D01*
X181159297Y-112440278D01*
X181144736Y-112438118D01*
X181130457Y-112434541D01*
X181116597Y-112429582D01*
X181103290Y-112423288D01*
X181090664Y-112415720D01*
X181078841Y-112406952D01*
X181067934Y-112397066D01*
X181058048Y-112386159D01*
X181049280Y-112374336D01*
X181041712Y-112361710D01*
X181035418Y-112348403D01*
X181030459Y-112334543D01*
X181026882Y-112320264D01*
X181024722Y-112305703D01*
X181024000Y-112291000D01*
X181024000Y-111991000D01*
X181024722Y-111976297D01*
X181026882Y-111961736D01*
X181030459Y-111947457D01*
X181035418Y-111933597D01*
X181041712Y-111920290D01*
X181049280Y-111907664D01*
X181058048Y-111895841D01*
X181067934Y-111884934D01*
X181078841Y-111875048D01*
X181090664Y-111866280D01*
X181103290Y-111858712D01*
X181116597Y-111852418D01*
X181130457Y-111847459D01*
X181144736Y-111843882D01*
X181159297Y-111841722D01*
X181174000Y-111841000D01*
X182624000Y-111841000D01*
X182638703Y-111841722D01*
G37*
G36*
X182638703Y-110571722D02*
G01*
X182653264Y-110573882D01*
X182667543Y-110577459D01*
X182681403Y-110582418D01*
X182694710Y-110588712D01*
X182707336Y-110596280D01*
X182719159Y-110605048D01*
X182730066Y-110614934D01*
X182739952Y-110625841D01*
X182748720Y-110637664D01*
X182756288Y-110650290D01*
X182762582Y-110663597D01*
X182767541Y-110677457D01*
X182771118Y-110691736D01*
X182773278Y-110706297D01*
X182774000Y-110721000D01*
X182774000Y-111021000D01*
X182773278Y-111035703D01*
X182771118Y-111050264D01*
X182767541Y-111064543D01*
X182762582Y-111078403D01*
X182756288Y-111091710D01*
X182748720Y-111104336D01*
X182739952Y-111116159D01*
X182730066Y-111127066D01*
X182719159Y-111136952D01*
X182707336Y-111145720D01*
X182694710Y-111153288D01*
X182681403Y-111159582D01*
X182667543Y-111164541D01*
X182653264Y-111168118D01*
X182638703Y-111170278D01*
X182624000Y-111171000D01*
X181174000Y-111171000D01*
X181159297Y-111170278D01*
X181144736Y-111168118D01*
X181130457Y-111164541D01*
X181116597Y-111159582D01*
X181103290Y-111153288D01*
X181090664Y-111145720D01*
X181078841Y-111136952D01*
X181067934Y-111127066D01*
X181058048Y-111116159D01*
X181049280Y-111104336D01*
X181041712Y-111091710D01*
X181035418Y-111078403D01*
X181030459Y-111064543D01*
X181026882Y-111050264D01*
X181024722Y-111035703D01*
X181024000Y-111021000D01*
X181024000Y-110721000D01*
X181024722Y-110706297D01*
X181026882Y-110691736D01*
X181030459Y-110677457D01*
X181035418Y-110663597D01*
X181041712Y-110650290D01*
X181049280Y-110637664D01*
X181058048Y-110625841D01*
X181067934Y-110614934D01*
X181078841Y-110605048D01*
X181090664Y-110596280D01*
X181103290Y-110588712D01*
X181116597Y-110582418D01*
X181130457Y-110577459D01*
X181144736Y-110573882D01*
X181159297Y-110571722D01*
X181174000Y-110571000D01*
X182624000Y-110571000D01*
X182638703Y-110571722D01*
G37*
G36*
X182638703Y-109301722D02*
G01*
X182653264Y-109303882D01*
X182667543Y-109307459D01*
X182681403Y-109312418D01*
X182694710Y-109318712D01*
X182707336Y-109326280D01*
X182719159Y-109335048D01*
X182730066Y-109344934D01*
X182739952Y-109355841D01*
X182748720Y-109367664D01*
X182756288Y-109380290D01*
X182762582Y-109393597D01*
X182767541Y-109407457D01*
X182771118Y-109421736D01*
X182773278Y-109436297D01*
X182774000Y-109451000D01*
X182774000Y-109751000D01*
X182773278Y-109765703D01*
X182771118Y-109780264D01*
X182767541Y-109794543D01*
X182762582Y-109808403D01*
X182756288Y-109821710D01*
X182748720Y-109834336D01*
X182739952Y-109846159D01*
X182730066Y-109857066D01*
X182719159Y-109866952D01*
X182707336Y-109875720D01*
X182694710Y-109883288D01*
X182681403Y-109889582D01*
X182667543Y-109894541D01*
X182653264Y-109898118D01*
X182638703Y-109900278D01*
X182624000Y-109901000D01*
X181174000Y-109901000D01*
X181159297Y-109900278D01*
X181144736Y-109898118D01*
X181130457Y-109894541D01*
X181116597Y-109889582D01*
X181103290Y-109883288D01*
X181090664Y-109875720D01*
X181078841Y-109866952D01*
X181067934Y-109857066D01*
X181058048Y-109846159D01*
X181049280Y-109834336D01*
X181041712Y-109821710D01*
X181035418Y-109808403D01*
X181030459Y-109794543D01*
X181026882Y-109780264D01*
X181024722Y-109765703D01*
X181024000Y-109751000D01*
X181024000Y-109451000D01*
X181024722Y-109436297D01*
X181026882Y-109421736D01*
X181030459Y-109407457D01*
X181035418Y-109393597D01*
X181041712Y-109380290D01*
X181049280Y-109367664D01*
X181058048Y-109355841D01*
X181067934Y-109344934D01*
X181078841Y-109335048D01*
X181090664Y-109326280D01*
X181103290Y-109318712D01*
X181116597Y-109312418D01*
X181130457Y-109307459D01*
X181144736Y-109303882D01*
X181159297Y-109301722D01*
X181174000Y-109301000D01*
X182624000Y-109301000D01*
X182638703Y-109301722D01*
G37*
G36*
X182638703Y-108031722D02*
G01*
X182653264Y-108033882D01*
X182667543Y-108037459D01*
X182681403Y-108042418D01*
X182694710Y-108048712D01*
X182707336Y-108056280D01*
X182719159Y-108065048D01*
X182730066Y-108074934D01*
X182739952Y-108085841D01*
X182748720Y-108097664D01*
X182756288Y-108110290D01*
X182762582Y-108123597D01*
X182767541Y-108137457D01*
X182771118Y-108151736D01*
X182773278Y-108166297D01*
X182774000Y-108181000D01*
X182774000Y-108481000D01*
X182773278Y-108495703D01*
X182771118Y-108510264D01*
X182767541Y-108524543D01*
X182762582Y-108538403D01*
X182756288Y-108551710D01*
X182748720Y-108564336D01*
X182739952Y-108576159D01*
X182730066Y-108587066D01*
X182719159Y-108596952D01*
X182707336Y-108605720D01*
X182694710Y-108613288D01*
X182681403Y-108619582D01*
X182667543Y-108624541D01*
X182653264Y-108628118D01*
X182638703Y-108630278D01*
X182624000Y-108631000D01*
X181174000Y-108631000D01*
X181159297Y-108630278D01*
X181144736Y-108628118D01*
X181130457Y-108624541D01*
X181116597Y-108619582D01*
X181103290Y-108613288D01*
X181090664Y-108605720D01*
X181078841Y-108596952D01*
X181067934Y-108587066D01*
X181058048Y-108576159D01*
X181049280Y-108564336D01*
X181041712Y-108551710D01*
X181035418Y-108538403D01*
X181030459Y-108524543D01*
X181026882Y-108510264D01*
X181024722Y-108495703D01*
X181024000Y-108481000D01*
X181024000Y-108181000D01*
X181024722Y-108166297D01*
X181026882Y-108151736D01*
X181030459Y-108137457D01*
X181035418Y-108123597D01*
X181041712Y-108110290D01*
X181049280Y-108097664D01*
X181058048Y-108085841D01*
X181067934Y-108074934D01*
X181078841Y-108065048D01*
X181090664Y-108056280D01*
X181103290Y-108048712D01*
X181116597Y-108042418D01*
X181130457Y-108037459D01*
X181144736Y-108033882D01*
X181159297Y-108031722D01*
X181174000Y-108031000D01*
X182624000Y-108031000D01*
X182638703Y-108031722D01*
G37*
G36*
X164733504Y-111904204D02*
G01*
X164757773Y-111907804D01*
X164781571Y-111913765D01*
X164804671Y-111922030D01*
X164826849Y-111932520D01*
X164847893Y-111945133D01*
X164867598Y-111959747D01*
X164885777Y-111976223D01*
X164902253Y-111994402D01*
X164916867Y-112014107D01*
X164929480Y-112035151D01*
X164939970Y-112057329D01*
X164948235Y-112080429D01*
X164954196Y-112104227D01*
X164957796Y-112128496D01*
X164959000Y-112153000D01*
X164959000Y-112903000D01*
X164957796Y-112927504D01*
X164954196Y-112951773D01*
X164948235Y-112975571D01*
X164939970Y-112998671D01*
X164929480Y-113020849D01*
X164916867Y-113041893D01*
X164902253Y-113061598D01*
X164885777Y-113079777D01*
X164867598Y-113096253D01*
X164847893Y-113110867D01*
X164826849Y-113123480D01*
X164804671Y-113133970D01*
X164781571Y-113142235D01*
X164757773Y-113148196D01*
X164733504Y-113151796D01*
X164709000Y-113153000D01*
X163459000Y-113153000D01*
X163434496Y-113151796D01*
X163410227Y-113148196D01*
X163386429Y-113142235D01*
X163363329Y-113133970D01*
X163341151Y-113123480D01*
X163320107Y-113110867D01*
X163300402Y-113096253D01*
X163282223Y-113079777D01*
X163265747Y-113061598D01*
X163251133Y-113041893D01*
X163238520Y-113020849D01*
X163228030Y-112998671D01*
X163219765Y-112975571D01*
X163213804Y-112951773D01*
X163210204Y-112927504D01*
X163209000Y-112903000D01*
X163209000Y-112153000D01*
X163210204Y-112128496D01*
X163213804Y-112104227D01*
X163219765Y-112080429D01*
X163228030Y-112057329D01*
X163238520Y-112035151D01*
X163251133Y-112014107D01*
X163265747Y-111994402D01*
X163282223Y-111976223D01*
X163300402Y-111959747D01*
X163320107Y-111945133D01*
X163341151Y-111932520D01*
X163363329Y-111922030D01*
X163386429Y-111913765D01*
X163410227Y-111907804D01*
X163434496Y-111904204D01*
X163459000Y-111903000D01*
X164709000Y-111903000D01*
X164733504Y-111904204D01*
G37*
G36*
X164733504Y-109104204D02*
G01*
X164757773Y-109107804D01*
X164781571Y-109113765D01*
X164804671Y-109122030D01*
X164826849Y-109132520D01*
X164847893Y-109145133D01*
X164867598Y-109159747D01*
X164885777Y-109176223D01*
X164902253Y-109194402D01*
X164916867Y-109214107D01*
X164929480Y-109235151D01*
X164939970Y-109257329D01*
X164948235Y-109280429D01*
X164954196Y-109304227D01*
X164957796Y-109328496D01*
X164959000Y-109353000D01*
X164959000Y-110103000D01*
X164957796Y-110127504D01*
X164954196Y-110151773D01*
X164948235Y-110175571D01*
X164939970Y-110198671D01*
X164929480Y-110220849D01*
X164916867Y-110241893D01*
X164902253Y-110261598D01*
X164885777Y-110279777D01*
X164867598Y-110296253D01*
X164847893Y-110310867D01*
X164826849Y-110323480D01*
X164804671Y-110333970D01*
X164781571Y-110342235D01*
X164757773Y-110348196D01*
X164733504Y-110351796D01*
X164709000Y-110353000D01*
X163459000Y-110353000D01*
X163434496Y-110351796D01*
X163410227Y-110348196D01*
X163386429Y-110342235D01*
X163363329Y-110333970D01*
X163341151Y-110323480D01*
X163320107Y-110310867D01*
X163300402Y-110296253D01*
X163282223Y-110279777D01*
X163265747Y-110261598D01*
X163251133Y-110241893D01*
X163238520Y-110220849D01*
X163228030Y-110198671D01*
X163219765Y-110175571D01*
X163213804Y-110151773D01*
X163210204Y-110127504D01*
X163209000Y-110103000D01*
X163209000Y-109353000D01*
X163210204Y-109328496D01*
X163213804Y-109304227D01*
X163219765Y-109280429D01*
X163228030Y-109257329D01*
X163238520Y-109235151D01*
X163251133Y-109214107D01*
X163265747Y-109194402D01*
X163282223Y-109176223D01*
X163300402Y-109159747D01*
X163320107Y-109145133D01*
X163341151Y-109132520D01*
X163363329Y-109122030D01*
X163386429Y-109113765D01*
X163410227Y-109107804D01*
X163434496Y-109104204D01*
X163459000Y-109103000D01*
X164709000Y-109103000D01*
X164733504Y-109104204D01*
G37*
G36*
X164733504Y-104399204D02*
G01*
X164757773Y-104402804D01*
X164781571Y-104408765D01*
X164804671Y-104417030D01*
X164826849Y-104427520D01*
X164847893Y-104440133D01*
X164867598Y-104454747D01*
X164885777Y-104471223D01*
X164902253Y-104489402D01*
X164916867Y-104509107D01*
X164929480Y-104530151D01*
X164939970Y-104552329D01*
X164948235Y-104575429D01*
X164954196Y-104599227D01*
X164957796Y-104623496D01*
X164959000Y-104648000D01*
X164959000Y-105398000D01*
X164957796Y-105422504D01*
X164954196Y-105446773D01*
X164948235Y-105470571D01*
X164939970Y-105493671D01*
X164929480Y-105515849D01*
X164916867Y-105536893D01*
X164902253Y-105556598D01*
X164885777Y-105574777D01*
X164867598Y-105591253D01*
X164847893Y-105605867D01*
X164826849Y-105618480D01*
X164804671Y-105628970D01*
X164781571Y-105637235D01*
X164757773Y-105643196D01*
X164733504Y-105646796D01*
X164709000Y-105648000D01*
X163459000Y-105648000D01*
X163434496Y-105646796D01*
X163410227Y-105643196D01*
X163386429Y-105637235D01*
X163363329Y-105628970D01*
X163341151Y-105618480D01*
X163320107Y-105605867D01*
X163300402Y-105591253D01*
X163282223Y-105574777D01*
X163265747Y-105556598D01*
X163251133Y-105536893D01*
X163238520Y-105515849D01*
X163228030Y-105493671D01*
X163219765Y-105470571D01*
X163213804Y-105446773D01*
X163210204Y-105422504D01*
X163209000Y-105398000D01*
X163209000Y-104648000D01*
X163210204Y-104623496D01*
X163213804Y-104599227D01*
X163219765Y-104575429D01*
X163228030Y-104552329D01*
X163238520Y-104530151D01*
X163251133Y-104509107D01*
X163265747Y-104489402D01*
X163282223Y-104471223D01*
X163300402Y-104454747D01*
X163320107Y-104440133D01*
X163341151Y-104427520D01*
X163363329Y-104417030D01*
X163386429Y-104408765D01*
X163410227Y-104402804D01*
X163434496Y-104399204D01*
X163459000Y-104398000D01*
X164709000Y-104398000D01*
X164733504Y-104399204D01*
G37*
G36*
X164733504Y-107199204D02*
G01*
X164757773Y-107202804D01*
X164781571Y-107208765D01*
X164804671Y-107217030D01*
X164826849Y-107227520D01*
X164847893Y-107240133D01*
X164867598Y-107254747D01*
X164885777Y-107271223D01*
X164902253Y-107289402D01*
X164916867Y-107309107D01*
X164929480Y-107330151D01*
X164939970Y-107352329D01*
X164948235Y-107375429D01*
X164954196Y-107399227D01*
X164957796Y-107423496D01*
X164959000Y-107448000D01*
X164959000Y-108198000D01*
X164957796Y-108222504D01*
X164954196Y-108246773D01*
X164948235Y-108270571D01*
X164939970Y-108293671D01*
X164929480Y-108315849D01*
X164916867Y-108336893D01*
X164902253Y-108356598D01*
X164885777Y-108374777D01*
X164867598Y-108391253D01*
X164847893Y-108405867D01*
X164826849Y-108418480D01*
X164804671Y-108428970D01*
X164781571Y-108437235D01*
X164757773Y-108443196D01*
X164733504Y-108446796D01*
X164709000Y-108448000D01*
X163459000Y-108448000D01*
X163434496Y-108446796D01*
X163410227Y-108443196D01*
X163386429Y-108437235D01*
X163363329Y-108428970D01*
X163341151Y-108418480D01*
X163320107Y-108405867D01*
X163300402Y-108391253D01*
X163282223Y-108374777D01*
X163265747Y-108356598D01*
X163251133Y-108336893D01*
X163238520Y-108315849D01*
X163228030Y-108293671D01*
X163219765Y-108270571D01*
X163213804Y-108246773D01*
X163210204Y-108222504D01*
X163209000Y-108198000D01*
X163209000Y-107448000D01*
X163210204Y-107423496D01*
X163213804Y-107399227D01*
X163219765Y-107375429D01*
X163228030Y-107352329D01*
X163238520Y-107330151D01*
X163251133Y-107309107D01*
X163265747Y-107289402D01*
X163282223Y-107271223D01*
X163300402Y-107254747D01*
X163320107Y-107240133D01*
X163341151Y-107227520D01*
X163363329Y-107217030D01*
X163386429Y-107208765D01*
X163410227Y-107202804D01*
X163434496Y-107199204D01*
X163459000Y-107198000D01*
X164709000Y-107198000D01*
X164733504Y-107199204D01*
G37*
G36*
X162584504Y-100726204D02*
G01*
X162608773Y-100729804D01*
X162632571Y-100735765D01*
X162655671Y-100744030D01*
X162677849Y-100754520D01*
X162698893Y-100767133D01*
X162718598Y-100781747D01*
X162736777Y-100798223D01*
X162753253Y-100816402D01*
X162767867Y-100836107D01*
X162780480Y-100857151D01*
X162790970Y-100879329D01*
X162799235Y-100902429D01*
X162805196Y-100926227D01*
X162808796Y-100950496D01*
X162810000Y-100975000D01*
X162810000Y-102225000D01*
X162808796Y-102249504D01*
X162805196Y-102273773D01*
X162799235Y-102297571D01*
X162790970Y-102320671D01*
X162780480Y-102342849D01*
X162767867Y-102363893D01*
X162753253Y-102383598D01*
X162736777Y-102401777D01*
X162718598Y-102418253D01*
X162698893Y-102432867D01*
X162677849Y-102445480D01*
X162655671Y-102455970D01*
X162632571Y-102464235D01*
X162608773Y-102470196D01*
X162584504Y-102473796D01*
X162560000Y-102475000D01*
X161810000Y-102475000D01*
X161785496Y-102473796D01*
X161761227Y-102470196D01*
X161737429Y-102464235D01*
X161714329Y-102455970D01*
X161692151Y-102445480D01*
X161671107Y-102432867D01*
X161651402Y-102418253D01*
X161633223Y-102401777D01*
X161616747Y-102383598D01*
X161602133Y-102363893D01*
X161589520Y-102342849D01*
X161579030Y-102320671D01*
X161570765Y-102297571D01*
X161564804Y-102273773D01*
X161561204Y-102249504D01*
X161560000Y-102225000D01*
X161560000Y-100975000D01*
X161561204Y-100950496D01*
X161564804Y-100926227D01*
X161570765Y-100902429D01*
X161579030Y-100879329D01*
X161589520Y-100857151D01*
X161602133Y-100836107D01*
X161616747Y-100816402D01*
X161633223Y-100798223D01*
X161651402Y-100781747D01*
X161671107Y-100767133D01*
X161692151Y-100754520D01*
X161714329Y-100744030D01*
X161737429Y-100735765D01*
X161761227Y-100729804D01*
X161785496Y-100726204D01*
X161810000Y-100725000D01*
X162560000Y-100725000D01*
X162584504Y-100726204D01*
G37*
G36*
X159784504Y-100726204D02*
G01*
X159808773Y-100729804D01*
X159832571Y-100735765D01*
X159855671Y-100744030D01*
X159877849Y-100754520D01*
X159898893Y-100767133D01*
X159918598Y-100781747D01*
X159936777Y-100798223D01*
X159953253Y-100816402D01*
X159967867Y-100836107D01*
X159980480Y-100857151D01*
X159990970Y-100879329D01*
X159999235Y-100902429D01*
X160005196Y-100926227D01*
X160008796Y-100950496D01*
X160010000Y-100975000D01*
X160010000Y-102225000D01*
X160008796Y-102249504D01*
X160005196Y-102273773D01*
X159999235Y-102297571D01*
X159990970Y-102320671D01*
X159980480Y-102342849D01*
X159967867Y-102363893D01*
X159953253Y-102383598D01*
X159936777Y-102401777D01*
X159918598Y-102418253D01*
X159898893Y-102432867D01*
X159877849Y-102445480D01*
X159855671Y-102455970D01*
X159832571Y-102464235D01*
X159808773Y-102470196D01*
X159784504Y-102473796D01*
X159760000Y-102475000D01*
X159010000Y-102475000D01*
X158985496Y-102473796D01*
X158961227Y-102470196D01*
X158937429Y-102464235D01*
X158914329Y-102455970D01*
X158892151Y-102445480D01*
X158871107Y-102432867D01*
X158851402Y-102418253D01*
X158833223Y-102401777D01*
X158816747Y-102383598D01*
X158802133Y-102363893D01*
X158789520Y-102342849D01*
X158779030Y-102320671D01*
X158770765Y-102297571D01*
X158764804Y-102273773D01*
X158761204Y-102249504D01*
X158760000Y-102225000D01*
X158760000Y-100975000D01*
X158761204Y-100950496D01*
X158764804Y-100926227D01*
X158770765Y-100902429D01*
X158779030Y-100879329D01*
X158789520Y-100857151D01*
X158802133Y-100836107D01*
X158816747Y-100816402D01*
X158833223Y-100798223D01*
X158851402Y-100781747D01*
X158871107Y-100767133D01*
X158892151Y-100754520D01*
X158914329Y-100744030D01*
X158937429Y-100735765D01*
X158961227Y-100729804D01*
X158985496Y-100726204D01*
X159010000Y-100725000D01*
X159760000Y-100725000D01*
X159784504Y-100726204D01*
G37*
G36*
X171462504Y-99837204D02*
G01*
X171486773Y-99840804D01*
X171510571Y-99846765D01*
X171533671Y-99855030D01*
X171555849Y-99865520D01*
X171576893Y-99878133D01*
X171596598Y-99892747D01*
X171614777Y-99909223D01*
X171631253Y-99927402D01*
X171645867Y-99947107D01*
X171658480Y-99968151D01*
X171668970Y-99990329D01*
X171677235Y-100013429D01*
X171683196Y-100037227D01*
X171686796Y-100061496D01*
X171688000Y-100086000D01*
X171688000Y-101336000D01*
X171686796Y-101360504D01*
X171683196Y-101384773D01*
X171677235Y-101408571D01*
X171668970Y-101431671D01*
X171658480Y-101453849D01*
X171645867Y-101474893D01*
X171631253Y-101494598D01*
X171614777Y-101512777D01*
X171596598Y-101529253D01*
X171576893Y-101543867D01*
X171555849Y-101556480D01*
X171533671Y-101566970D01*
X171510571Y-101575235D01*
X171486773Y-101581196D01*
X171462504Y-101584796D01*
X171438000Y-101586000D01*
X170688000Y-101586000D01*
X170663496Y-101584796D01*
X170639227Y-101581196D01*
X170615429Y-101575235D01*
X170592329Y-101566970D01*
X170570151Y-101556480D01*
X170549107Y-101543867D01*
X170529402Y-101529253D01*
X170511223Y-101512777D01*
X170494747Y-101494598D01*
X170480133Y-101474893D01*
X170467520Y-101453849D01*
X170457030Y-101431671D01*
X170448765Y-101408571D01*
X170442804Y-101384773D01*
X170439204Y-101360504D01*
X170438000Y-101336000D01*
X170438000Y-100086000D01*
X170439204Y-100061496D01*
X170442804Y-100037227D01*
X170448765Y-100013429D01*
X170457030Y-99990329D01*
X170467520Y-99968151D01*
X170480133Y-99947107D01*
X170494747Y-99927402D01*
X170511223Y-99909223D01*
X170529402Y-99892747D01*
X170549107Y-99878133D01*
X170570151Y-99865520D01*
X170592329Y-99855030D01*
X170615429Y-99846765D01*
X170639227Y-99840804D01*
X170663496Y-99837204D01*
X170688000Y-99836000D01*
X171438000Y-99836000D01*
X171462504Y-99837204D01*
G37*
G36*
X174262504Y-99837204D02*
G01*
X174286773Y-99840804D01*
X174310571Y-99846765D01*
X174333671Y-99855030D01*
X174355849Y-99865520D01*
X174376893Y-99878133D01*
X174396598Y-99892747D01*
X174414777Y-99909223D01*
X174431253Y-99927402D01*
X174445867Y-99947107D01*
X174458480Y-99968151D01*
X174468970Y-99990329D01*
X174477235Y-100013429D01*
X174483196Y-100037227D01*
X174486796Y-100061496D01*
X174488000Y-100086000D01*
X174488000Y-101336000D01*
X174486796Y-101360504D01*
X174483196Y-101384773D01*
X174477235Y-101408571D01*
X174468970Y-101431671D01*
X174458480Y-101453849D01*
X174445867Y-101474893D01*
X174431253Y-101494598D01*
X174414777Y-101512777D01*
X174396598Y-101529253D01*
X174376893Y-101543867D01*
X174355849Y-101556480D01*
X174333671Y-101566970D01*
X174310571Y-101575235D01*
X174286773Y-101581196D01*
X174262504Y-101584796D01*
X174238000Y-101586000D01*
X173488000Y-101586000D01*
X173463496Y-101584796D01*
X173439227Y-101581196D01*
X173415429Y-101575235D01*
X173392329Y-101566970D01*
X173370151Y-101556480D01*
X173349107Y-101543867D01*
X173329402Y-101529253D01*
X173311223Y-101512777D01*
X173294747Y-101494598D01*
X173280133Y-101474893D01*
X173267520Y-101453849D01*
X173257030Y-101431671D01*
X173248765Y-101408571D01*
X173242804Y-101384773D01*
X173239204Y-101360504D01*
X173238000Y-101336000D01*
X173238000Y-100086000D01*
X173239204Y-100061496D01*
X173242804Y-100037227D01*
X173248765Y-100013429D01*
X173257030Y-99990329D01*
X173267520Y-99968151D01*
X173280133Y-99947107D01*
X173294747Y-99927402D01*
X173311223Y-99909223D01*
X173329402Y-99892747D01*
X173349107Y-99878133D01*
X173370151Y-99865520D01*
X173392329Y-99855030D01*
X173415429Y-99846765D01*
X173439227Y-99840804D01*
X173463496Y-99837204D01*
X173488000Y-99836000D01*
X174238000Y-99836000D01*
X174262504Y-99837204D01*
G37*
G36*
X174766504Y-105046204D02*
G01*
X174790773Y-105049804D01*
X174814571Y-105055765D01*
X174837671Y-105064030D01*
X174859849Y-105074520D01*
X174880893Y-105087133D01*
X174900598Y-105101747D01*
X174918777Y-105118223D01*
X174935253Y-105136402D01*
X174949867Y-105156107D01*
X174962480Y-105177151D01*
X174972970Y-105199329D01*
X174981235Y-105222429D01*
X174987196Y-105246227D01*
X174990796Y-105270496D01*
X174992000Y-105295000D01*
X174992000Y-106045000D01*
X174990796Y-106069504D01*
X174987196Y-106093773D01*
X174981235Y-106117571D01*
X174972970Y-106140671D01*
X174962480Y-106162849D01*
X174949867Y-106183893D01*
X174935253Y-106203598D01*
X174918777Y-106221777D01*
X174900598Y-106238253D01*
X174880893Y-106252867D01*
X174859849Y-106265480D01*
X174837671Y-106275970D01*
X174814571Y-106284235D01*
X174790773Y-106290196D01*
X174766504Y-106293796D01*
X174742000Y-106295000D01*
X173492000Y-106295000D01*
X173467496Y-106293796D01*
X173443227Y-106290196D01*
X173419429Y-106284235D01*
X173396329Y-106275970D01*
X173374151Y-106265480D01*
X173353107Y-106252867D01*
X173333402Y-106238253D01*
X173315223Y-106221777D01*
X173298747Y-106203598D01*
X173284133Y-106183893D01*
X173271520Y-106162849D01*
X173261030Y-106140671D01*
X173252765Y-106117571D01*
X173246804Y-106093773D01*
X173243204Y-106069504D01*
X173242000Y-106045000D01*
X173242000Y-105295000D01*
X173243204Y-105270496D01*
X173246804Y-105246227D01*
X173252765Y-105222429D01*
X173261030Y-105199329D01*
X173271520Y-105177151D01*
X173284133Y-105156107D01*
X173298747Y-105136402D01*
X173315223Y-105118223D01*
X173333402Y-105101747D01*
X173353107Y-105087133D01*
X173374151Y-105074520D01*
X173396329Y-105064030D01*
X173419429Y-105055765D01*
X173443227Y-105049804D01*
X173467496Y-105046204D01*
X173492000Y-105045000D01*
X174742000Y-105045000D01*
X174766504Y-105046204D01*
G37*
G36*
X174766504Y-102246204D02*
G01*
X174790773Y-102249804D01*
X174814571Y-102255765D01*
X174837671Y-102264030D01*
X174859849Y-102274520D01*
X174880893Y-102287133D01*
X174900598Y-102301747D01*
X174918777Y-102318223D01*
X174935253Y-102336402D01*
X174949867Y-102356107D01*
X174962480Y-102377151D01*
X174972970Y-102399329D01*
X174981235Y-102422429D01*
X174987196Y-102446227D01*
X174990796Y-102470496D01*
X174992000Y-102495000D01*
X174992000Y-103245000D01*
X174990796Y-103269504D01*
X174987196Y-103293773D01*
X174981235Y-103317571D01*
X174972970Y-103340671D01*
X174962480Y-103362849D01*
X174949867Y-103383893D01*
X174935253Y-103403598D01*
X174918777Y-103421777D01*
X174900598Y-103438253D01*
X174880893Y-103452867D01*
X174859849Y-103465480D01*
X174837671Y-103475970D01*
X174814571Y-103484235D01*
X174790773Y-103490196D01*
X174766504Y-103493796D01*
X174742000Y-103495000D01*
X173492000Y-103495000D01*
X173467496Y-103493796D01*
X173443227Y-103490196D01*
X173419429Y-103484235D01*
X173396329Y-103475970D01*
X173374151Y-103465480D01*
X173353107Y-103452867D01*
X173333402Y-103438253D01*
X173315223Y-103421777D01*
X173298747Y-103403598D01*
X173284133Y-103383893D01*
X173271520Y-103362849D01*
X173261030Y-103340671D01*
X173252765Y-103317571D01*
X173246804Y-103293773D01*
X173243204Y-103269504D01*
X173242000Y-103245000D01*
X173242000Y-102495000D01*
X173243204Y-102470496D01*
X173246804Y-102446227D01*
X173252765Y-102422429D01*
X173261030Y-102399329D01*
X173271520Y-102377151D01*
X173284133Y-102356107D01*
X173298747Y-102336402D01*
X173315223Y-102318223D01*
X173333402Y-102301747D01*
X173353107Y-102287133D01*
X173374151Y-102274520D01*
X173396329Y-102264030D01*
X173419429Y-102255765D01*
X173443227Y-102249804D01*
X173467496Y-102246204D01*
X173492000Y-102245000D01*
X174742000Y-102245000D01*
X174766504Y-102246204D01*
G37*
G36*
X177179504Y-105046204D02*
G01*
X177203773Y-105049804D01*
X177227571Y-105055765D01*
X177250671Y-105064030D01*
X177272849Y-105074520D01*
X177293893Y-105087133D01*
X177313598Y-105101747D01*
X177331777Y-105118223D01*
X177348253Y-105136402D01*
X177362867Y-105156107D01*
X177375480Y-105177151D01*
X177385970Y-105199329D01*
X177394235Y-105222429D01*
X177400196Y-105246227D01*
X177403796Y-105270496D01*
X177405000Y-105295000D01*
X177405000Y-106045000D01*
X177403796Y-106069504D01*
X177400196Y-106093773D01*
X177394235Y-106117571D01*
X177385970Y-106140671D01*
X177375480Y-106162849D01*
X177362867Y-106183893D01*
X177348253Y-106203598D01*
X177331777Y-106221777D01*
X177313598Y-106238253D01*
X177293893Y-106252867D01*
X177272849Y-106265480D01*
X177250671Y-106275970D01*
X177227571Y-106284235D01*
X177203773Y-106290196D01*
X177179504Y-106293796D01*
X177155000Y-106295000D01*
X175905000Y-106295000D01*
X175880496Y-106293796D01*
X175856227Y-106290196D01*
X175832429Y-106284235D01*
X175809329Y-106275970D01*
X175787151Y-106265480D01*
X175766107Y-106252867D01*
X175746402Y-106238253D01*
X175728223Y-106221777D01*
X175711747Y-106203598D01*
X175697133Y-106183893D01*
X175684520Y-106162849D01*
X175674030Y-106140671D01*
X175665765Y-106117571D01*
X175659804Y-106093773D01*
X175656204Y-106069504D01*
X175655000Y-106045000D01*
X175655000Y-105295000D01*
X175656204Y-105270496D01*
X175659804Y-105246227D01*
X175665765Y-105222429D01*
X175674030Y-105199329D01*
X175684520Y-105177151D01*
X175697133Y-105156107D01*
X175711747Y-105136402D01*
X175728223Y-105118223D01*
X175746402Y-105101747D01*
X175766107Y-105087133D01*
X175787151Y-105074520D01*
X175809329Y-105064030D01*
X175832429Y-105055765D01*
X175856227Y-105049804D01*
X175880496Y-105046204D01*
X175905000Y-105045000D01*
X177155000Y-105045000D01*
X177179504Y-105046204D01*
G37*
G36*
X177179504Y-102246204D02*
G01*
X177203773Y-102249804D01*
X177227571Y-102255765D01*
X177250671Y-102264030D01*
X177272849Y-102274520D01*
X177293893Y-102287133D01*
X177313598Y-102301747D01*
X177331777Y-102318223D01*
X177348253Y-102336402D01*
X177362867Y-102356107D01*
X177375480Y-102377151D01*
X177385970Y-102399329D01*
X177394235Y-102422429D01*
X177400196Y-102446227D01*
X177403796Y-102470496D01*
X177405000Y-102495000D01*
X177405000Y-103245000D01*
X177403796Y-103269504D01*
X177400196Y-103293773D01*
X177394235Y-103317571D01*
X177385970Y-103340671D01*
X177375480Y-103362849D01*
X177362867Y-103383893D01*
X177348253Y-103403598D01*
X177331777Y-103421777D01*
X177313598Y-103438253D01*
X177293893Y-103452867D01*
X177272849Y-103465480D01*
X177250671Y-103475970D01*
X177227571Y-103484235D01*
X177203773Y-103490196D01*
X177179504Y-103493796D01*
X177155000Y-103495000D01*
X175905000Y-103495000D01*
X175880496Y-103493796D01*
X175856227Y-103490196D01*
X175832429Y-103484235D01*
X175809329Y-103475970D01*
X175787151Y-103465480D01*
X175766107Y-103452867D01*
X175746402Y-103438253D01*
X175728223Y-103421777D01*
X175711747Y-103403598D01*
X175697133Y-103383893D01*
X175684520Y-103362849D01*
X175674030Y-103340671D01*
X175665765Y-103317571D01*
X175659804Y-103293773D01*
X175656204Y-103269504D01*
X175655000Y-103245000D01*
X175655000Y-102495000D01*
X175656204Y-102470496D01*
X175659804Y-102446227D01*
X175665765Y-102422429D01*
X175674030Y-102399329D01*
X175684520Y-102377151D01*
X175697133Y-102356107D01*
X175711747Y-102336402D01*
X175728223Y-102318223D01*
X175746402Y-102301747D01*
X175766107Y-102287133D01*
X175787151Y-102274520D01*
X175809329Y-102264030D01*
X175832429Y-102255765D01*
X175856227Y-102249804D01*
X175880496Y-102246204D01*
X175905000Y-102245000D01*
X177155000Y-102245000D01*
X177179504Y-102246204D01*
G37*
G36*
X185180504Y-111393204D02*
G01*
X185204773Y-111396804D01*
X185228571Y-111402765D01*
X185251671Y-111411030D01*
X185273849Y-111421520D01*
X185294893Y-111434133D01*
X185314598Y-111448747D01*
X185332777Y-111465223D01*
X185349253Y-111483402D01*
X185363867Y-111503107D01*
X185376480Y-111524151D01*
X185386970Y-111546329D01*
X185395235Y-111569429D01*
X185401196Y-111593227D01*
X185404796Y-111617496D01*
X185406000Y-111642000D01*
X185406000Y-112392000D01*
X185404796Y-112416504D01*
X185401196Y-112440773D01*
X185395235Y-112464571D01*
X185386970Y-112487671D01*
X185376480Y-112509849D01*
X185363867Y-112530893D01*
X185349253Y-112550598D01*
X185332777Y-112568777D01*
X185314598Y-112585253D01*
X185294893Y-112599867D01*
X185273849Y-112612480D01*
X185251671Y-112622970D01*
X185228571Y-112631235D01*
X185204773Y-112637196D01*
X185180504Y-112640796D01*
X185156000Y-112642000D01*
X183906000Y-112642000D01*
X183881496Y-112640796D01*
X183857227Y-112637196D01*
X183833429Y-112631235D01*
X183810329Y-112622970D01*
X183788151Y-112612480D01*
X183767107Y-112599867D01*
X183747402Y-112585253D01*
X183729223Y-112568777D01*
X183712747Y-112550598D01*
X183698133Y-112530893D01*
X183685520Y-112509849D01*
X183675030Y-112487671D01*
X183666765Y-112464571D01*
X183660804Y-112440773D01*
X183657204Y-112416504D01*
X183656000Y-112392000D01*
X183656000Y-111642000D01*
X183657204Y-111617496D01*
X183660804Y-111593227D01*
X183666765Y-111569429D01*
X183675030Y-111546329D01*
X183685520Y-111524151D01*
X183698133Y-111503107D01*
X183712747Y-111483402D01*
X183729223Y-111465223D01*
X183747402Y-111448747D01*
X183767107Y-111434133D01*
X183788151Y-111421520D01*
X183810329Y-111411030D01*
X183833429Y-111402765D01*
X183857227Y-111396804D01*
X183881496Y-111393204D01*
X183906000Y-111392000D01*
X185156000Y-111392000D01*
X185180504Y-111393204D01*
G37*
G36*
X185180504Y-108593204D02*
G01*
X185204773Y-108596804D01*
X185228571Y-108602765D01*
X185251671Y-108611030D01*
X185273849Y-108621520D01*
X185294893Y-108634133D01*
X185314598Y-108648747D01*
X185332777Y-108665223D01*
X185349253Y-108683402D01*
X185363867Y-108703107D01*
X185376480Y-108724151D01*
X185386970Y-108746329D01*
X185395235Y-108769429D01*
X185401196Y-108793227D01*
X185404796Y-108817496D01*
X185406000Y-108842000D01*
X185406000Y-109592000D01*
X185404796Y-109616504D01*
X185401196Y-109640773D01*
X185395235Y-109664571D01*
X185386970Y-109687671D01*
X185376480Y-109709849D01*
X185363867Y-109730893D01*
X185349253Y-109750598D01*
X185332777Y-109768777D01*
X185314598Y-109785253D01*
X185294893Y-109799867D01*
X185273849Y-109812480D01*
X185251671Y-109822970D01*
X185228571Y-109831235D01*
X185204773Y-109837196D01*
X185180504Y-109840796D01*
X185156000Y-109842000D01*
X183906000Y-109842000D01*
X183881496Y-109840796D01*
X183857227Y-109837196D01*
X183833429Y-109831235D01*
X183810329Y-109822970D01*
X183788151Y-109812480D01*
X183767107Y-109799867D01*
X183747402Y-109785253D01*
X183729223Y-109768777D01*
X183712747Y-109750598D01*
X183698133Y-109730893D01*
X183685520Y-109709849D01*
X183675030Y-109687671D01*
X183666765Y-109664571D01*
X183660804Y-109640773D01*
X183657204Y-109616504D01*
X183656000Y-109592000D01*
X183656000Y-108842000D01*
X183657204Y-108817496D01*
X183660804Y-108793227D01*
X183666765Y-108769429D01*
X183675030Y-108746329D01*
X183685520Y-108724151D01*
X183698133Y-108703107D01*
X183712747Y-108683402D01*
X183729223Y-108665223D01*
X183747402Y-108648747D01*
X183767107Y-108634133D01*
X183788151Y-108621520D01*
X183810329Y-108611030D01*
X183833429Y-108602765D01*
X183857227Y-108596804D01*
X183881496Y-108593204D01*
X183906000Y-108592000D01*
X185156000Y-108592000D01*
X185180504Y-108593204D01*
G37*
D11*
X113836000Y-93981000D03*
X117186000Y-90931000D03*
X113836000Y-90931000D03*
X117186000Y-93981000D03*
D12*
X109211000Y-94736000D03*
X109211000Y-90176000D03*
D10*
G36*
X162089703Y-105643722D02*
G01*
X162104264Y-105645882D01*
X162118543Y-105649459D01*
X162132403Y-105654418D01*
X162145710Y-105660712D01*
X162158336Y-105668280D01*
X162170159Y-105677048D01*
X162181066Y-105686934D01*
X162190952Y-105697841D01*
X162199720Y-105709664D01*
X162207288Y-105722290D01*
X162213582Y-105735597D01*
X162218541Y-105749457D01*
X162222118Y-105763736D01*
X162224278Y-105778297D01*
X162225000Y-105793000D01*
X162225000Y-107443000D01*
X162224278Y-107457703D01*
X162222118Y-107472264D01*
X162218541Y-107486543D01*
X162213582Y-107500403D01*
X162207288Y-107513710D01*
X162199720Y-107526336D01*
X162190952Y-107538159D01*
X162181066Y-107549066D01*
X162170159Y-107558952D01*
X162158336Y-107567720D01*
X162145710Y-107575288D01*
X162132403Y-107581582D01*
X162118543Y-107586541D01*
X162104264Y-107590118D01*
X162089703Y-107592278D01*
X162075000Y-107593000D01*
X161775000Y-107593000D01*
X161760297Y-107592278D01*
X161745736Y-107590118D01*
X161731457Y-107586541D01*
X161717597Y-107581582D01*
X161704290Y-107575288D01*
X161691664Y-107567720D01*
X161679841Y-107558952D01*
X161668934Y-107549066D01*
X161659048Y-107538159D01*
X161650280Y-107526336D01*
X161642712Y-107513710D01*
X161636418Y-107500403D01*
X161631459Y-107486543D01*
X161627882Y-107472264D01*
X161625722Y-107457703D01*
X161625000Y-107443000D01*
X161625000Y-105793000D01*
X161625722Y-105778297D01*
X161627882Y-105763736D01*
X161631459Y-105749457D01*
X161636418Y-105735597D01*
X161642712Y-105722290D01*
X161650280Y-105709664D01*
X161659048Y-105697841D01*
X161668934Y-105686934D01*
X161679841Y-105677048D01*
X161691664Y-105668280D01*
X161704290Y-105660712D01*
X161717597Y-105654418D01*
X161731457Y-105649459D01*
X161745736Y-105645882D01*
X161760297Y-105643722D01*
X161775000Y-105643000D01*
X162075000Y-105643000D01*
X162089703Y-105643722D01*
G37*
G36*
X160819703Y-105643722D02*
G01*
X160834264Y-105645882D01*
X160848543Y-105649459D01*
X160862403Y-105654418D01*
X160875710Y-105660712D01*
X160888336Y-105668280D01*
X160900159Y-105677048D01*
X160911066Y-105686934D01*
X160920952Y-105697841D01*
X160929720Y-105709664D01*
X160937288Y-105722290D01*
X160943582Y-105735597D01*
X160948541Y-105749457D01*
X160952118Y-105763736D01*
X160954278Y-105778297D01*
X160955000Y-105793000D01*
X160955000Y-107443000D01*
X160954278Y-107457703D01*
X160952118Y-107472264D01*
X160948541Y-107486543D01*
X160943582Y-107500403D01*
X160937288Y-107513710D01*
X160929720Y-107526336D01*
X160920952Y-107538159D01*
X160911066Y-107549066D01*
X160900159Y-107558952D01*
X160888336Y-107567720D01*
X160875710Y-107575288D01*
X160862403Y-107581582D01*
X160848543Y-107586541D01*
X160834264Y-107590118D01*
X160819703Y-107592278D01*
X160805000Y-107593000D01*
X160505000Y-107593000D01*
X160490297Y-107592278D01*
X160475736Y-107590118D01*
X160461457Y-107586541D01*
X160447597Y-107581582D01*
X160434290Y-107575288D01*
X160421664Y-107567720D01*
X160409841Y-107558952D01*
X160398934Y-107549066D01*
X160389048Y-107538159D01*
X160380280Y-107526336D01*
X160372712Y-107513710D01*
X160366418Y-107500403D01*
X160361459Y-107486543D01*
X160357882Y-107472264D01*
X160355722Y-107457703D01*
X160355000Y-107443000D01*
X160355000Y-105793000D01*
X160355722Y-105778297D01*
X160357882Y-105763736D01*
X160361459Y-105749457D01*
X160366418Y-105735597D01*
X160372712Y-105722290D01*
X160380280Y-105709664D01*
X160389048Y-105697841D01*
X160398934Y-105686934D01*
X160409841Y-105677048D01*
X160421664Y-105668280D01*
X160434290Y-105660712D01*
X160447597Y-105654418D01*
X160461457Y-105649459D01*
X160475736Y-105645882D01*
X160490297Y-105643722D01*
X160505000Y-105643000D01*
X160805000Y-105643000D01*
X160819703Y-105643722D01*
G37*
G36*
X159549703Y-105643722D02*
G01*
X159564264Y-105645882D01*
X159578543Y-105649459D01*
X159592403Y-105654418D01*
X159605710Y-105660712D01*
X159618336Y-105668280D01*
X159630159Y-105677048D01*
X159641066Y-105686934D01*
X159650952Y-105697841D01*
X159659720Y-105709664D01*
X159667288Y-105722290D01*
X159673582Y-105735597D01*
X159678541Y-105749457D01*
X159682118Y-105763736D01*
X159684278Y-105778297D01*
X159685000Y-105793000D01*
X159685000Y-107443000D01*
X159684278Y-107457703D01*
X159682118Y-107472264D01*
X159678541Y-107486543D01*
X159673582Y-107500403D01*
X159667288Y-107513710D01*
X159659720Y-107526336D01*
X159650952Y-107538159D01*
X159641066Y-107549066D01*
X159630159Y-107558952D01*
X159618336Y-107567720D01*
X159605710Y-107575288D01*
X159592403Y-107581582D01*
X159578543Y-107586541D01*
X159564264Y-107590118D01*
X159549703Y-107592278D01*
X159535000Y-107593000D01*
X159235000Y-107593000D01*
X159220297Y-107592278D01*
X159205736Y-107590118D01*
X159191457Y-107586541D01*
X159177597Y-107581582D01*
X159164290Y-107575288D01*
X159151664Y-107567720D01*
X159139841Y-107558952D01*
X159128934Y-107549066D01*
X159119048Y-107538159D01*
X159110280Y-107526336D01*
X159102712Y-107513710D01*
X159096418Y-107500403D01*
X159091459Y-107486543D01*
X159087882Y-107472264D01*
X159085722Y-107457703D01*
X159085000Y-107443000D01*
X159085000Y-105793000D01*
X159085722Y-105778297D01*
X159087882Y-105763736D01*
X159091459Y-105749457D01*
X159096418Y-105735597D01*
X159102712Y-105722290D01*
X159110280Y-105709664D01*
X159119048Y-105697841D01*
X159128934Y-105686934D01*
X159139841Y-105677048D01*
X159151664Y-105668280D01*
X159164290Y-105660712D01*
X159177597Y-105654418D01*
X159191457Y-105649459D01*
X159205736Y-105645882D01*
X159220297Y-105643722D01*
X159235000Y-105643000D01*
X159535000Y-105643000D01*
X159549703Y-105643722D01*
G37*
G36*
X158279703Y-105643722D02*
G01*
X158294264Y-105645882D01*
X158308543Y-105649459D01*
X158322403Y-105654418D01*
X158335710Y-105660712D01*
X158348336Y-105668280D01*
X158360159Y-105677048D01*
X158371066Y-105686934D01*
X158380952Y-105697841D01*
X158389720Y-105709664D01*
X158397288Y-105722290D01*
X158403582Y-105735597D01*
X158408541Y-105749457D01*
X158412118Y-105763736D01*
X158414278Y-105778297D01*
X158415000Y-105793000D01*
X158415000Y-107443000D01*
X158414278Y-107457703D01*
X158412118Y-107472264D01*
X158408541Y-107486543D01*
X158403582Y-107500403D01*
X158397288Y-107513710D01*
X158389720Y-107526336D01*
X158380952Y-107538159D01*
X158371066Y-107549066D01*
X158360159Y-107558952D01*
X158348336Y-107567720D01*
X158335710Y-107575288D01*
X158322403Y-107581582D01*
X158308543Y-107586541D01*
X158294264Y-107590118D01*
X158279703Y-107592278D01*
X158265000Y-107593000D01*
X157965000Y-107593000D01*
X157950297Y-107592278D01*
X157935736Y-107590118D01*
X157921457Y-107586541D01*
X157907597Y-107581582D01*
X157894290Y-107575288D01*
X157881664Y-107567720D01*
X157869841Y-107558952D01*
X157858934Y-107549066D01*
X157849048Y-107538159D01*
X157840280Y-107526336D01*
X157832712Y-107513710D01*
X157826418Y-107500403D01*
X157821459Y-107486543D01*
X157817882Y-107472264D01*
X157815722Y-107457703D01*
X157815000Y-107443000D01*
X157815000Y-105793000D01*
X157815722Y-105778297D01*
X157817882Y-105763736D01*
X157821459Y-105749457D01*
X157826418Y-105735597D01*
X157832712Y-105722290D01*
X157840280Y-105709664D01*
X157849048Y-105697841D01*
X157858934Y-105686934D01*
X157869841Y-105677048D01*
X157881664Y-105668280D01*
X157894290Y-105660712D01*
X157907597Y-105654418D01*
X157921457Y-105649459D01*
X157935736Y-105645882D01*
X157950297Y-105643722D01*
X157965000Y-105643000D01*
X158265000Y-105643000D01*
X158279703Y-105643722D01*
G37*
G36*
X158279703Y-110593722D02*
G01*
X158294264Y-110595882D01*
X158308543Y-110599459D01*
X158322403Y-110604418D01*
X158335710Y-110610712D01*
X158348336Y-110618280D01*
X158360159Y-110627048D01*
X158371066Y-110636934D01*
X158380952Y-110647841D01*
X158389720Y-110659664D01*
X158397288Y-110672290D01*
X158403582Y-110685597D01*
X158408541Y-110699457D01*
X158412118Y-110713736D01*
X158414278Y-110728297D01*
X158415000Y-110743000D01*
X158415000Y-112393000D01*
X158414278Y-112407703D01*
X158412118Y-112422264D01*
X158408541Y-112436543D01*
X158403582Y-112450403D01*
X158397288Y-112463710D01*
X158389720Y-112476336D01*
X158380952Y-112488159D01*
X158371066Y-112499066D01*
X158360159Y-112508952D01*
X158348336Y-112517720D01*
X158335710Y-112525288D01*
X158322403Y-112531582D01*
X158308543Y-112536541D01*
X158294264Y-112540118D01*
X158279703Y-112542278D01*
X158265000Y-112543000D01*
X157965000Y-112543000D01*
X157950297Y-112542278D01*
X157935736Y-112540118D01*
X157921457Y-112536541D01*
X157907597Y-112531582D01*
X157894290Y-112525288D01*
X157881664Y-112517720D01*
X157869841Y-112508952D01*
X157858934Y-112499066D01*
X157849048Y-112488159D01*
X157840280Y-112476336D01*
X157832712Y-112463710D01*
X157826418Y-112450403D01*
X157821459Y-112436543D01*
X157817882Y-112422264D01*
X157815722Y-112407703D01*
X157815000Y-112393000D01*
X157815000Y-110743000D01*
X157815722Y-110728297D01*
X157817882Y-110713736D01*
X157821459Y-110699457D01*
X157826418Y-110685597D01*
X157832712Y-110672290D01*
X157840280Y-110659664D01*
X157849048Y-110647841D01*
X157858934Y-110636934D01*
X157869841Y-110627048D01*
X157881664Y-110618280D01*
X157894290Y-110610712D01*
X157907597Y-110604418D01*
X157921457Y-110599459D01*
X157935736Y-110595882D01*
X157950297Y-110593722D01*
X157965000Y-110593000D01*
X158265000Y-110593000D01*
X158279703Y-110593722D01*
G37*
G36*
X159549703Y-110593722D02*
G01*
X159564264Y-110595882D01*
X159578543Y-110599459D01*
X159592403Y-110604418D01*
X159605710Y-110610712D01*
X159618336Y-110618280D01*
X159630159Y-110627048D01*
X159641066Y-110636934D01*
X159650952Y-110647841D01*
X159659720Y-110659664D01*
X159667288Y-110672290D01*
X159673582Y-110685597D01*
X159678541Y-110699457D01*
X159682118Y-110713736D01*
X159684278Y-110728297D01*
X159685000Y-110743000D01*
X159685000Y-112393000D01*
X159684278Y-112407703D01*
X159682118Y-112422264D01*
X159678541Y-112436543D01*
X159673582Y-112450403D01*
X159667288Y-112463710D01*
X159659720Y-112476336D01*
X159650952Y-112488159D01*
X159641066Y-112499066D01*
X159630159Y-112508952D01*
X159618336Y-112517720D01*
X159605710Y-112525288D01*
X159592403Y-112531582D01*
X159578543Y-112536541D01*
X159564264Y-112540118D01*
X159549703Y-112542278D01*
X159535000Y-112543000D01*
X159235000Y-112543000D01*
X159220297Y-112542278D01*
X159205736Y-112540118D01*
X159191457Y-112536541D01*
X159177597Y-112531582D01*
X159164290Y-112525288D01*
X159151664Y-112517720D01*
X159139841Y-112508952D01*
X159128934Y-112499066D01*
X159119048Y-112488159D01*
X159110280Y-112476336D01*
X159102712Y-112463710D01*
X159096418Y-112450403D01*
X159091459Y-112436543D01*
X159087882Y-112422264D01*
X159085722Y-112407703D01*
X159085000Y-112393000D01*
X159085000Y-110743000D01*
X159085722Y-110728297D01*
X159087882Y-110713736D01*
X159091459Y-110699457D01*
X159096418Y-110685597D01*
X159102712Y-110672290D01*
X159110280Y-110659664D01*
X159119048Y-110647841D01*
X159128934Y-110636934D01*
X159139841Y-110627048D01*
X159151664Y-110618280D01*
X159164290Y-110610712D01*
X159177597Y-110604418D01*
X159191457Y-110599459D01*
X159205736Y-110595882D01*
X159220297Y-110593722D01*
X159235000Y-110593000D01*
X159535000Y-110593000D01*
X159549703Y-110593722D01*
G37*
G36*
X160819703Y-110593722D02*
G01*
X160834264Y-110595882D01*
X160848543Y-110599459D01*
X160862403Y-110604418D01*
X160875710Y-110610712D01*
X160888336Y-110618280D01*
X160900159Y-110627048D01*
X160911066Y-110636934D01*
X160920952Y-110647841D01*
X160929720Y-110659664D01*
X160937288Y-110672290D01*
X160943582Y-110685597D01*
X160948541Y-110699457D01*
X160952118Y-110713736D01*
X160954278Y-110728297D01*
X160955000Y-110743000D01*
X160955000Y-112393000D01*
X160954278Y-112407703D01*
X160952118Y-112422264D01*
X160948541Y-112436543D01*
X160943582Y-112450403D01*
X160937288Y-112463710D01*
X160929720Y-112476336D01*
X160920952Y-112488159D01*
X160911066Y-112499066D01*
X160900159Y-112508952D01*
X160888336Y-112517720D01*
X160875710Y-112525288D01*
X160862403Y-112531582D01*
X160848543Y-112536541D01*
X160834264Y-112540118D01*
X160819703Y-112542278D01*
X160805000Y-112543000D01*
X160505000Y-112543000D01*
X160490297Y-112542278D01*
X160475736Y-112540118D01*
X160461457Y-112536541D01*
X160447597Y-112531582D01*
X160434290Y-112525288D01*
X160421664Y-112517720D01*
X160409841Y-112508952D01*
X160398934Y-112499066D01*
X160389048Y-112488159D01*
X160380280Y-112476336D01*
X160372712Y-112463710D01*
X160366418Y-112450403D01*
X160361459Y-112436543D01*
X160357882Y-112422264D01*
X160355722Y-112407703D01*
X160355000Y-112393000D01*
X160355000Y-110743000D01*
X160355722Y-110728297D01*
X160357882Y-110713736D01*
X160361459Y-110699457D01*
X160366418Y-110685597D01*
X160372712Y-110672290D01*
X160380280Y-110659664D01*
X160389048Y-110647841D01*
X160398934Y-110636934D01*
X160409841Y-110627048D01*
X160421664Y-110618280D01*
X160434290Y-110610712D01*
X160447597Y-110604418D01*
X160461457Y-110599459D01*
X160475736Y-110595882D01*
X160490297Y-110593722D01*
X160505000Y-110593000D01*
X160805000Y-110593000D01*
X160819703Y-110593722D01*
G37*
G36*
X162089703Y-110593722D02*
G01*
X162104264Y-110595882D01*
X162118543Y-110599459D01*
X162132403Y-110604418D01*
X162145710Y-110610712D01*
X162158336Y-110618280D01*
X162170159Y-110627048D01*
X162181066Y-110636934D01*
X162190952Y-110647841D01*
X162199720Y-110659664D01*
X162207288Y-110672290D01*
X162213582Y-110685597D01*
X162218541Y-110699457D01*
X162222118Y-110713736D01*
X162224278Y-110728297D01*
X162225000Y-110743000D01*
X162225000Y-112393000D01*
X162224278Y-112407703D01*
X162222118Y-112422264D01*
X162218541Y-112436543D01*
X162213582Y-112450403D01*
X162207288Y-112463710D01*
X162199720Y-112476336D01*
X162190952Y-112488159D01*
X162181066Y-112499066D01*
X162170159Y-112508952D01*
X162158336Y-112517720D01*
X162145710Y-112525288D01*
X162132403Y-112531582D01*
X162118543Y-112536541D01*
X162104264Y-112540118D01*
X162089703Y-112542278D01*
X162075000Y-112543000D01*
X161775000Y-112543000D01*
X161760297Y-112542278D01*
X161745736Y-112540118D01*
X161731457Y-112536541D01*
X161717597Y-112531582D01*
X161704290Y-112525288D01*
X161691664Y-112517720D01*
X161679841Y-112508952D01*
X161668934Y-112499066D01*
X161659048Y-112488159D01*
X161650280Y-112476336D01*
X161642712Y-112463710D01*
X161636418Y-112450403D01*
X161631459Y-112436543D01*
X161627882Y-112422264D01*
X161625722Y-112407703D01*
X161625000Y-112393000D01*
X161625000Y-110743000D01*
X161625722Y-110728297D01*
X161627882Y-110713736D01*
X161631459Y-110699457D01*
X161636418Y-110685597D01*
X161642712Y-110672290D01*
X161650280Y-110659664D01*
X161659048Y-110647841D01*
X161668934Y-110636934D01*
X161679841Y-110627048D01*
X161691664Y-110618280D01*
X161704290Y-110610712D01*
X161717597Y-110604418D01*
X161731457Y-110599459D01*
X161745736Y-110595882D01*
X161760297Y-110593722D01*
X161775000Y-110593000D01*
X162075000Y-110593000D01*
X162089703Y-110593722D01*
G37*
G36*
X167528703Y-102443722D02*
G01*
X167543264Y-102445882D01*
X167557543Y-102449459D01*
X167571403Y-102454418D01*
X167584710Y-102460712D01*
X167597336Y-102468280D01*
X167609159Y-102477048D01*
X167620066Y-102486934D01*
X167629952Y-102497841D01*
X167638720Y-102509664D01*
X167646288Y-102522290D01*
X167652582Y-102535597D01*
X167657541Y-102549457D01*
X167661118Y-102563736D01*
X167663278Y-102578297D01*
X167664000Y-102593000D01*
X167664000Y-102893000D01*
X167663278Y-102907703D01*
X167661118Y-102922264D01*
X167657541Y-102936543D01*
X167652582Y-102950403D01*
X167646288Y-102963710D01*
X167638720Y-102976336D01*
X167629952Y-102988159D01*
X167620066Y-102999066D01*
X167609159Y-103008952D01*
X167597336Y-103017720D01*
X167584710Y-103025288D01*
X167571403Y-103031582D01*
X167557543Y-103036541D01*
X167543264Y-103040118D01*
X167528703Y-103042278D01*
X167514000Y-103043000D01*
X165864000Y-103043000D01*
X165849297Y-103042278D01*
X165834736Y-103040118D01*
X165820457Y-103036541D01*
X165806597Y-103031582D01*
X165793290Y-103025288D01*
X165780664Y-103017720D01*
X165768841Y-103008952D01*
X165757934Y-102999066D01*
X165748048Y-102988159D01*
X165739280Y-102976336D01*
X165731712Y-102963710D01*
X165725418Y-102950403D01*
X165720459Y-102936543D01*
X165716882Y-102922264D01*
X165714722Y-102907703D01*
X165714000Y-102893000D01*
X165714000Y-102593000D01*
X165714722Y-102578297D01*
X165716882Y-102563736D01*
X165720459Y-102549457D01*
X165725418Y-102535597D01*
X165731712Y-102522290D01*
X165739280Y-102509664D01*
X165748048Y-102497841D01*
X165757934Y-102486934D01*
X165768841Y-102477048D01*
X165780664Y-102468280D01*
X165793290Y-102460712D01*
X165806597Y-102454418D01*
X165820457Y-102449459D01*
X165834736Y-102445882D01*
X165849297Y-102443722D01*
X165864000Y-102443000D01*
X167514000Y-102443000D01*
X167528703Y-102443722D01*
G37*
G36*
X167528703Y-103713722D02*
G01*
X167543264Y-103715882D01*
X167557543Y-103719459D01*
X167571403Y-103724418D01*
X167584710Y-103730712D01*
X167597336Y-103738280D01*
X167609159Y-103747048D01*
X167620066Y-103756934D01*
X167629952Y-103767841D01*
X167638720Y-103779664D01*
X167646288Y-103792290D01*
X167652582Y-103805597D01*
X167657541Y-103819457D01*
X167661118Y-103833736D01*
X167663278Y-103848297D01*
X167664000Y-103863000D01*
X167664000Y-104163000D01*
X167663278Y-104177703D01*
X167661118Y-104192264D01*
X167657541Y-104206543D01*
X167652582Y-104220403D01*
X167646288Y-104233710D01*
X167638720Y-104246336D01*
X167629952Y-104258159D01*
X167620066Y-104269066D01*
X167609159Y-104278952D01*
X167597336Y-104287720D01*
X167584710Y-104295288D01*
X167571403Y-104301582D01*
X167557543Y-104306541D01*
X167543264Y-104310118D01*
X167528703Y-104312278D01*
X167514000Y-104313000D01*
X165864000Y-104313000D01*
X165849297Y-104312278D01*
X165834736Y-104310118D01*
X165820457Y-104306541D01*
X165806597Y-104301582D01*
X165793290Y-104295288D01*
X165780664Y-104287720D01*
X165768841Y-104278952D01*
X165757934Y-104269066D01*
X165748048Y-104258159D01*
X165739280Y-104246336D01*
X165731712Y-104233710D01*
X165725418Y-104220403D01*
X165720459Y-104206543D01*
X165716882Y-104192264D01*
X165714722Y-104177703D01*
X165714000Y-104163000D01*
X165714000Y-103863000D01*
X165714722Y-103848297D01*
X165716882Y-103833736D01*
X165720459Y-103819457D01*
X165725418Y-103805597D01*
X165731712Y-103792290D01*
X165739280Y-103779664D01*
X165748048Y-103767841D01*
X165757934Y-103756934D01*
X165768841Y-103747048D01*
X165780664Y-103738280D01*
X165793290Y-103730712D01*
X165806597Y-103724418D01*
X165820457Y-103719459D01*
X165834736Y-103715882D01*
X165849297Y-103713722D01*
X165864000Y-103713000D01*
X167514000Y-103713000D01*
X167528703Y-103713722D01*
G37*
G36*
X167528703Y-104983722D02*
G01*
X167543264Y-104985882D01*
X167557543Y-104989459D01*
X167571403Y-104994418D01*
X167584710Y-105000712D01*
X167597336Y-105008280D01*
X167609159Y-105017048D01*
X167620066Y-105026934D01*
X167629952Y-105037841D01*
X167638720Y-105049664D01*
X167646288Y-105062290D01*
X167652582Y-105075597D01*
X167657541Y-105089457D01*
X167661118Y-105103736D01*
X167663278Y-105118297D01*
X167664000Y-105133000D01*
X167664000Y-105433000D01*
X167663278Y-105447703D01*
X167661118Y-105462264D01*
X167657541Y-105476543D01*
X167652582Y-105490403D01*
X167646288Y-105503710D01*
X167638720Y-105516336D01*
X167629952Y-105528159D01*
X167620066Y-105539066D01*
X167609159Y-105548952D01*
X167597336Y-105557720D01*
X167584710Y-105565288D01*
X167571403Y-105571582D01*
X167557543Y-105576541D01*
X167543264Y-105580118D01*
X167528703Y-105582278D01*
X167514000Y-105583000D01*
X165864000Y-105583000D01*
X165849297Y-105582278D01*
X165834736Y-105580118D01*
X165820457Y-105576541D01*
X165806597Y-105571582D01*
X165793290Y-105565288D01*
X165780664Y-105557720D01*
X165768841Y-105548952D01*
X165757934Y-105539066D01*
X165748048Y-105528159D01*
X165739280Y-105516336D01*
X165731712Y-105503710D01*
X165725418Y-105490403D01*
X165720459Y-105476543D01*
X165716882Y-105462264D01*
X165714722Y-105447703D01*
X165714000Y-105433000D01*
X165714000Y-105133000D01*
X165714722Y-105118297D01*
X165716882Y-105103736D01*
X165720459Y-105089457D01*
X165725418Y-105075597D01*
X165731712Y-105062290D01*
X165739280Y-105049664D01*
X165748048Y-105037841D01*
X165757934Y-105026934D01*
X165768841Y-105017048D01*
X165780664Y-105008280D01*
X165793290Y-105000712D01*
X165806597Y-104994418D01*
X165820457Y-104989459D01*
X165834736Y-104985882D01*
X165849297Y-104983722D01*
X165864000Y-104983000D01*
X167514000Y-104983000D01*
X167528703Y-104983722D01*
G37*
G36*
X167528703Y-106253722D02*
G01*
X167543264Y-106255882D01*
X167557543Y-106259459D01*
X167571403Y-106264418D01*
X167584710Y-106270712D01*
X167597336Y-106278280D01*
X167609159Y-106287048D01*
X167620066Y-106296934D01*
X167629952Y-106307841D01*
X167638720Y-106319664D01*
X167646288Y-106332290D01*
X167652582Y-106345597D01*
X167657541Y-106359457D01*
X167661118Y-106373736D01*
X167663278Y-106388297D01*
X167664000Y-106403000D01*
X167664000Y-106703000D01*
X167663278Y-106717703D01*
X167661118Y-106732264D01*
X167657541Y-106746543D01*
X167652582Y-106760403D01*
X167646288Y-106773710D01*
X167638720Y-106786336D01*
X167629952Y-106798159D01*
X167620066Y-106809066D01*
X167609159Y-106818952D01*
X167597336Y-106827720D01*
X167584710Y-106835288D01*
X167571403Y-106841582D01*
X167557543Y-106846541D01*
X167543264Y-106850118D01*
X167528703Y-106852278D01*
X167514000Y-106853000D01*
X165864000Y-106853000D01*
X165849297Y-106852278D01*
X165834736Y-106850118D01*
X165820457Y-106846541D01*
X165806597Y-106841582D01*
X165793290Y-106835288D01*
X165780664Y-106827720D01*
X165768841Y-106818952D01*
X165757934Y-106809066D01*
X165748048Y-106798159D01*
X165739280Y-106786336D01*
X165731712Y-106773710D01*
X165725418Y-106760403D01*
X165720459Y-106746543D01*
X165716882Y-106732264D01*
X165714722Y-106717703D01*
X165714000Y-106703000D01*
X165714000Y-106403000D01*
X165714722Y-106388297D01*
X165716882Y-106373736D01*
X165720459Y-106359457D01*
X165725418Y-106345597D01*
X165731712Y-106332290D01*
X165739280Y-106319664D01*
X165748048Y-106307841D01*
X165757934Y-106296934D01*
X165768841Y-106287048D01*
X165780664Y-106278280D01*
X165793290Y-106270712D01*
X165806597Y-106264418D01*
X165820457Y-106259459D01*
X165834736Y-106255882D01*
X165849297Y-106253722D01*
X165864000Y-106253000D01*
X167514000Y-106253000D01*
X167528703Y-106253722D01*
G37*
G36*
X172478703Y-106253722D02*
G01*
X172493264Y-106255882D01*
X172507543Y-106259459D01*
X172521403Y-106264418D01*
X172534710Y-106270712D01*
X172547336Y-106278280D01*
X172559159Y-106287048D01*
X172570066Y-106296934D01*
X172579952Y-106307841D01*
X172588720Y-106319664D01*
X172596288Y-106332290D01*
X172602582Y-106345597D01*
X172607541Y-106359457D01*
X172611118Y-106373736D01*
X172613278Y-106388297D01*
X172614000Y-106403000D01*
X172614000Y-106703000D01*
X172613278Y-106717703D01*
X172611118Y-106732264D01*
X172607541Y-106746543D01*
X172602582Y-106760403D01*
X172596288Y-106773710D01*
X172588720Y-106786336D01*
X172579952Y-106798159D01*
X172570066Y-106809066D01*
X172559159Y-106818952D01*
X172547336Y-106827720D01*
X172534710Y-106835288D01*
X172521403Y-106841582D01*
X172507543Y-106846541D01*
X172493264Y-106850118D01*
X172478703Y-106852278D01*
X172464000Y-106853000D01*
X170814000Y-106853000D01*
X170799297Y-106852278D01*
X170784736Y-106850118D01*
X170770457Y-106846541D01*
X170756597Y-106841582D01*
X170743290Y-106835288D01*
X170730664Y-106827720D01*
X170718841Y-106818952D01*
X170707934Y-106809066D01*
X170698048Y-106798159D01*
X170689280Y-106786336D01*
X170681712Y-106773710D01*
X170675418Y-106760403D01*
X170670459Y-106746543D01*
X170666882Y-106732264D01*
X170664722Y-106717703D01*
X170664000Y-106703000D01*
X170664000Y-106403000D01*
X170664722Y-106388297D01*
X170666882Y-106373736D01*
X170670459Y-106359457D01*
X170675418Y-106345597D01*
X170681712Y-106332290D01*
X170689280Y-106319664D01*
X170698048Y-106307841D01*
X170707934Y-106296934D01*
X170718841Y-106287048D01*
X170730664Y-106278280D01*
X170743290Y-106270712D01*
X170756597Y-106264418D01*
X170770457Y-106259459D01*
X170784736Y-106255882D01*
X170799297Y-106253722D01*
X170814000Y-106253000D01*
X172464000Y-106253000D01*
X172478703Y-106253722D01*
G37*
G36*
X172478703Y-104983722D02*
G01*
X172493264Y-104985882D01*
X172507543Y-104989459D01*
X172521403Y-104994418D01*
X172534710Y-105000712D01*
X172547336Y-105008280D01*
X172559159Y-105017048D01*
X172570066Y-105026934D01*
X172579952Y-105037841D01*
X172588720Y-105049664D01*
X172596288Y-105062290D01*
X172602582Y-105075597D01*
X172607541Y-105089457D01*
X172611118Y-105103736D01*
X172613278Y-105118297D01*
X172614000Y-105133000D01*
X172614000Y-105433000D01*
X172613278Y-105447703D01*
X172611118Y-105462264D01*
X172607541Y-105476543D01*
X172602582Y-105490403D01*
X172596288Y-105503710D01*
X172588720Y-105516336D01*
X172579952Y-105528159D01*
X172570066Y-105539066D01*
X172559159Y-105548952D01*
X172547336Y-105557720D01*
X172534710Y-105565288D01*
X172521403Y-105571582D01*
X172507543Y-105576541D01*
X172493264Y-105580118D01*
X172478703Y-105582278D01*
X172464000Y-105583000D01*
X170814000Y-105583000D01*
X170799297Y-105582278D01*
X170784736Y-105580118D01*
X170770457Y-105576541D01*
X170756597Y-105571582D01*
X170743290Y-105565288D01*
X170730664Y-105557720D01*
X170718841Y-105548952D01*
X170707934Y-105539066D01*
X170698048Y-105528159D01*
X170689280Y-105516336D01*
X170681712Y-105503710D01*
X170675418Y-105490403D01*
X170670459Y-105476543D01*
X170666882Y-105462264D01*
X170664722Y-105447703D01*
X170664000Y-105433000D01*
X170664000Y-105133000D01*
X170664722Y-105118297D01*
X170666882Y-105103736D01*
X170670459Y-105089457D01*
X170675418Y-105075597D01*
X170681712Y-105062290D01*
X170689280Y-105049664D01*
X170698048Y-105037841D01*
X170707934Y-105026934D01*
X170718841Y-105017048D01*
X170730664Y-105008280D01*
X170743290Y-105000712D01*
X170756597Y-104994418D01*
X170770457Y-104989459D01*
X170784736Y-104985882D01*
X170799297Y-104983722D01*
X170814000Y-104983000D01*
X172464000Y-104983000D01*
X172478703Y-104983722D01*
G37*
G36*
X172478703Y-103713722D02*
G01*
X172493264Y-103715882D01*
X172507543Y-103719459D01*
X172521403Y-103724418D01*
X172534710Y-103730712D01*
X172547336Y-103738280D01*
X172559159Y-103747048D01*
X172570066Y-103756934D01*
X172579952Y-103767841D01*
X172588720Y-103779664D01*
X172596288Y-103792290D01*
X172602582Y-103805597D01*
X172607541Y-103819457D01*
X172611118Y-103833736D01*
X172613278Y-103848297D01*
X172614000Y-103863000D01*
X172614000Y-104163000D01*
X172613278Y-104177703D01*
X172611118Y-104192264D01*
X172607541Y-104206543D01*
X172602582Y-104220403D01*
X172596288Y-104233710D01*
X172588720Y-104246336D01*
X172579952Y-104258159D01*
X172570066Y-104269066D01*
X172559159Y-104278952D01*
X172547336Y-104287720D01*
X172534710Y-104295288D01*
X172521403Y-104301582D01*
X172507543Y-104306541D01*
X172493264Y-104310118D01*
X172478703Y-104312278D01*
X172464000Y-104313000D01*
X170814000Y-104313000D01*
X170799297Y-104312278D01*
X170784736Y-104310118D01*
X170770457Y-104306541D01*
X170756597Y-104301582D01*
X170743290Y-104295288D01*
X170730664Y-104287720D01*
X170718841Y-104278952D01*
X170707934Y-104269066D01*
X170698048Y-104258159D01*
X170689280Y-104246336D01*
X170681712Y-104233710D01*
X170675418Y-104220403D01*
X170670459Y-104206543D01*
X170666882Y-104192264D01*
X170664722Y-104177703D01*
X170664000Y-104163000D01*
X170664000Y-103863000D01*
X170664722Y-103848297D01*
X170666882Y-103833736D01*
X170670459Y-103819457D01*
X170675418Y-103805597D01*
X170681712Y-103792290D01*
X170689280Y-103779664D01*
X170698048Y-103767841D01*
X170707934Y-103756934D01*
X170718841Y-103747048D01*
X170730664Y-103738280D01*
X170743290Y-103730712D01*
X170756597Y-103724418D01*
X170770457Y-103719459D01*
X170784736Y-103715882D01*
X170799297Y-103713722D01*
X170814000Y-103713000D01*
X172464000Y-103713000D01*
X172478703Y-103713722D01*
G37*
G36*
X172478703Y-102443722D02*
G01*
X172493264Y-102445882D01*
X172507543Y-102449459D01*
X172521403Y-102454418D01*
X172534710Y-102460712D01*
X172547336Y-102468280D01*
X172559159Y-102477048D01*
X172570066Y-102486934D01*
X172579952Y-102497841D01*
X172588720Y-102509664D01*
X172596288Y-102522290D01*
X172602582Y-102535597D01*
X172607541Y-102549457D01*
X172611118Y-102563736D01*
X172613278Y-102578297D01*
X172614000Y-102593000D01*
X172614000Y-102893000D01*
X172613278Y-102907703D01*
X172611118Y-102922264D01*
X172607541Y-102936543D01*
X172602582Y-102950403D01*
X172596288Y-102963710D01*
X172588720Y-102976336D01*
X172579952Y-102988159D01*
X172570066Y-102999066D01*
X172559159Y-103008952D01*
X172547336Y-103017720D01*
X172534710Y-103025288D01*
X172521403Y-103031582D01*
X172507543Y-103036541D01*
X172493264Y-103040118D01*
X172478703Y-103042278D01*
X172464000Y-103043000D01*
X170814000Y-103043000D01*
X170799297Y-103042278D01*
X170784736Y-103040118D01*
X170770457Y-103036541D01*
X170756597Y-103031582D01*
X170743290Y-103025288D01*
X170730664Y-103017720D01*
X170718841Y-103008952D01*
X170707934Y-102999066D01*
X170698048Y-102988159D01*
X170689280Y-102976336D01*
X170681712Y-102963710D01*
X170675418Y-102950403D01*
X170670459Y-102936543D01*
X170666882Y-102922264D01*
X170664722Y-102907703D01*
X170664000Y-102893000D01*
X170664000Y-102593000D01*
X170664722Y-102578297D01*
X170666882Y-102563736D01*
X170670459Y-102549457D01*
X170675418Y-102535597D01*
X170681712Y-102522290D01*
X170689280Y-102509664D01*
X170698048Y-102497841D01*
X170707934Y-102486934D01*
X170718841Y-102477048D01*
X170730664Y-102468280D01*
X170743290Y-102460712D01*
X170756597Y-102454418D01*
X170770457Y-102449459D01*
X170784736Y-102445882D01*
X170799297Y-102443722D01*
X170814000Y-102443000D01*
X172464000Y-102443000D01*
X172478703Y-102443722D01*
G37*
M02*
