G04 #@! TF.GenerationSoftware,KiCad,Pcbnew,(5.1.5)-3*
G04 #@! TF.CreationDate,2020-07-16T16:27:48-04:00*
G04 #@! TF.ProjectId,AIL_TSAL,41494c5f-5453-4414-9c2e-6b696361645f,rev?*
G04 #@! TF.SameCoordinates,Original*
G04 #@! TF.FileFunction,Copper,L2,Bot*
G04 #@! TF.FilePolarity,Positive*
%FSLAX46Y46*%
G04 Gerber Fmt 4.6, Leading zero omitted, Abs format (unit mm)*
G04 Created by KiCad (PCBNEW (5.1.5)-3) date 2020-07-16 16:27:48*
%MOMM*%
%LPD*%
G04 APERTURE LIST*
%ADD10O,1.500000X2.020000*%
%ADD11C,0.100000*%
%ADD12C,2.200000*%
%ADD13C,2.000000*%
%ADD14R,2.800000X2.800000*%
%ADD15O,2.800000X2.800000*%
%ADD16O,1.500000X2.000000*%
%ADD17R,1.500000X2.000000*%
%ADD18R,1.700000X1.700000*%
%ADD19O,1.700000X1.700000*%
%ADD20C,1.600000*%
%ADD21C,0.800000*%
%ADD22C,1.000000*%
%ADD23C,0.250000*%
%ADD24C,0.254000*%
G04 APERTURE END LIST*
D10*
X166957000Y-96901000D03*
G04 #@! TA.AperFunction,ComponentPad*
D11*
G36*
X164481504Y-95892204D02*
G01*
X164505773Y-95895804D01*
X164529571Y-95901765D01*
X164552671Y-95910030D01*
X164574849Y-95920520D01*
X164595893Y-95933133D01*
X164615598Y-95947747D01*
X164633777Y-95964223D01*
X164650253Y-95982402D01*
X164664867Y-96002107D01*
X164677480Y-96023151D01*
X164687970Y-96045329D01*
X164696235Y-96068429D01*
X164702196Y-96092227D01*
X164705796Y-96116496D01*
X164707000Y-96141000D01*
X164707000Y-97661000D01*
X164705796Y-97685504D01*
X164702196Y-97709773D01*
X164696235Y-97733571D01*
X164687970Y-97756671D01*
X164677480Y-97778849D01*
X164664867Y-97799893D01*
X164650253Y-97819598D01*
X164633777Y-97837777D01*
X164615598Y-97854253D01*
X164595893Y-97868867D01*
X164574849Y-97881480D01*
X164552671Y-97891970D01*
X164529571Y-97900235D01*
X164505773Y-97906196D01*
X164481504Y-97909796D01*
X164457000Y-97911000D01*
X163457000Y-97911000D01*
X163432496Y-97909796D01*
X163408227Y-97906196D01*
X163384429Y-97900235D01*
X163361329Y-97891970D01*
X163339151Y-97881480D01*
X163318107Y-97868867D01*
X163298402Y-97854253D01*
X163280223Y-97837777D01*
X163263747Y-97819598D01*
X163249133Y-97799893D01*
X163236520Y-97778849D01*
X163226030Y-97756671D01*
X163217765Y-97733571D01*
X163211804Y-97709773D01*
X163208204Y-97685504D01*
X163207000Y-97661000D01*
X163207000Y-96141000D01*
X163208204Y-96116496D01*
X163211804Y-96092227D01*
X163217765Y-96068429D01*
X163226030Y-96045329D01*
X163236520Y-96023151D01*
X163249133Y-96002107D01*
X163263747Y-95982402D01*
X163280223Y-95964223D01*
X163298402Y-95947747D01*
X163318107Y-95933133D01*
X163339151Y-95920520D01*
X163361329Y-95910030D01*
X163384429Y-95901765D01*
X163408227Y-95895804D01*
X163432496Y-95892204D01*
X163457000Y-95891000D01*
X164457000Y-95891000D01*
X164481504Y-95892204D01*
G37*
G04 #@! TD.AperFunction*
D12*
X102235000Y-112170000D03*
X102235000Y-90170000D03*
X129794000Y-90170000D03*
X129794000Y-112170000D03*
D13*
X148590000Y-104648000D03*
X148590000Y-112148000D03*
D14*
X84963000Y-104648000D03*
D15*
X84963000Y-94488000D03*
X95123000Y-90170000D03*
D14*
X84963000Y-90170000D03*
X137541000Y-90170000D03*
D15*
X137541000Y-100330000D03*
D13*
X81280000Y-89916000D03*
X81280000Y-114300000D03*
D15*
X109601000Y-99441000D03*
D14*
X109601000Y-112141000D03*
X121793000Y-103251000D03*
D15*
X121793000Y-90551000D03*
D16*
X156210000Y-94818200D03*
X148590000Y-97358200D03*
D17*
X148590000Y-89738200D03*
D16*
X156210000Y-97358200D03*
X156210000Y-92278200D03*
D18*
X174117000Y-89281000D03*
D19*
X176657000Y-89281000D03*
X179197000Y-89281000D03*
X181737000Y-89281000D03*
D20*
X102235000Y-104648000D03*
D21*
X159385000Y-102616000D03*
X159385000Y-105283000D03*
X159385000Y-100457000D03*
X159385000Y-97790000D03*
X157480000Y-106553000D03*
X164084000Y-104140000D03*
X166624000Y-102235000D03*
X176530000Y-102108000D03*
X171704000Y-110744000D03*
X174117000Y-109855000D03*
X168021000Y-104013000D03*
X169926000Y-104013000D03*
X162179000Y-96901000D03*
X162179000Y-100330000D03*
X176530000Y-105029000D03*
X168529000Y-105029000D03*
X166751000Y-107188000D03*
X176784000Y-112649000D03*
X176784000Y-116078000D03*
X184531000Y-116078000D03*
X184531000Y-112776000D03*
X166751000Y-111633000D03*
X180848000Y-102743000D03*
X180848000Y-93853000D03*
X179197000Y-93853000D03*
X181737000Y-107823000D03*
D22*
X81280000Y-112885787D02*
X81280000Y-114300000D01*
X81280000Y-105931000D02*
X81280000Y-112885787D01*
X82563000Y-104648000D02*
X81280000Y-105931000D01*
X84963000Y-104648000D02*
X82563000Y-104648000D01*
X102235000Y-104648000D02*
X102235000Y-112170000D01*
X145465800Y-89738200D02*
X148590000Y-89738200D01*
X142748000Y-92456000D02*
X145465800Y-89738200D01*
X148590000Y-112148000D02*
X147175787Y-112148000D01*
X147175787Y-112148000D02*
X142748000Y-107720213D01*
X142748000Y-107720213D02*
X142748000Y-92456000D01*
X148590000Y-97358200D02*
X148590000Y-104648000D01*
D23*
X159385000Y-102616000D02*
X159385000Y-105283000D01*
X159385000Y-100457000D02*
X159385000Y-97790000D01*
X157480000Y-106553000D02*
X156972000Y-106553000D01*
X164084000Y-104140000D02*
X164084000Y-103632000D01*
X166624000Y-102235000D02*
X166624000Y-101727000D01*
X176530000Y-102108000D02*
X176530000Y-101600000D01*
X171704000Y-110744000D02*
X171704000Y-111252000D01*
X174117000Y-109855000D02*
X174117000Y-110363000D01*
X168021000Y-104013000D02*
X169926000Y-104013000D01*
D22*
X84963000Y-90170000D02*
X84963000Y-94488000D01*
D23*
X162179000Y-96901000D02*
X162179000Y-100330000D01*
X176530000Y-105029000D02*
X169545000Y-105029000D01*
X169545000Y-105029000D02*
X168529000Y-105029000D01*
X166751000Y-107188000D02*
X166751000Y-107753685D01*
X166751000Y-107753685D02*
X166751000Y-111633000D01*
X176784000Y-112649000D02*
X176784000Y-115189000D01*
X184531000Y-115189000D02*
X184531000Y-112776000D01*
X184531000Y-115189000D02*
X184531000Y-116078000D01*
X176784000Y-115189000D02*
X176784000Y-116078000D01*
X180848000Y-102743000D02*
X180848000Y-93853000D01*
X179197000Y-93853000D02*
X179197000Y-89281000D01*
X181737000Y-107823000D02*
X181737000Y-89281000D01*
D24*
G36*
X172736463Y-88076506D02*
G01*
X172677498Y-88186820D01*
X172641188Y-88306518D01*
X172628928Y-88431000D01*
X172628928Y-90131000D01*
X172641188Y-90255482D01*
X172677498Y-90375180D01*
X172736463Y-90485494D01*
X172815815Y-90582185D01*
X172912506Y-90661537D01*
X173022820Y-90720502D01*
X173142518Y-90756812D01*
X173267000Y-90769072D01*
X174967000Y-90769072D01*
X175091482Y-90756812D01*
X175211180Y-90720502D01*
X175321494Y-90661537D01*
X175418185Y-90582185D01*
X175497537Y-90485494D01*
X175556502Y-90375180D01*
X175580966Y-90294534D01*
X175656731Y-90378588D01*
X175890080Y-90552641D01*
X176152901Y-90677825D01*
X176300110Y-90722476D01*
X176530000Y-90601155D01*
X176530000Y-89408000D01*
X176510000Y-89408000D01*
X176510000Y-89154000D01*
X176530000Y-89154000D01*
X176530000Y-89134000D01*
X176784000Y-89134000D01*
X176784000Y-89154000D01*
X176804000Y-89154000D01*
X176804000Y-89408000D01*
X176784000Y-89408000D01*
X176784000Y-90601155D01*
X177013890Y-90722476D01*
X177161099Y-90677825D01*
X177423920Y-90552641D01*
X177657269Y-90378588D01*
X177852178Y-90162355D01*
X177921805Y-90045466D01*
X178043525Y-90227632D01*
X178250368Y-90434475D01*
X178437001Y-90559179D01*
X178437000Y-93149289D01*
X178393063Y-93193226D01*
X178279795Y-93362744D01*
X178201774Y-93551102D01*
X178162000Y-93751061D01*
X178162000Y-93954939D01*
X178201774Y-94154898D01*
X178279795Y-94343256D01*
X178393063Y-94512774D01*
X178537226Y-94656937D01*
X178706744Y-94770205D01*
X178895102Y-94848226D01*
X179095061Y-94888000D01*
X179298939Y-94888000D01*
X179498898Y-94848226D01*
X179687256Y-94770205D01*
X179856774Y-94656937D01*
X180000937Y-94512774D01*
X180022500Y-94480503D01*
X180044063Y-94512774D01*
X180088001Y-94556712D01*
X180088000Y-102039289D01*
X180044063Y-102083226D01*
X179930795Y-102252744D01*
X179852774Y-102441102D01*
X179813000Y-102641061D01*
X179813000Y-102844939D01*
X179852774Y-103044898D01*
X179930795Y-103233256D01*
X180044063Y-103402774D01*
X180188226Y-103546937D01*
X180357744Y-103660205D01*
X180546102Y-103738226D01*
X180746061Y-103778000D01*
X180949939Y-103778000D01*
X180977000Y-103772617D01*
X180977000Y-107119289D01*
X180933063Y-107163226D01*
X180819795Y-107332744D01*
X180741774Y-107521102D01*
X180702000Y-107721061D01*
X180702000Y-107924939D01*
X180741774Y-108124898D01*
X180819795Y-108313256D01*
X180933063Y-108482774D01*
X181077226Y-108626937D01*
X181246744Y-108740205D01*
X181435102Y-108818226D01*
X181635061Y-108858000D01*
X181838939Y-108858000D01*
X182038898Y-108818226D01*
X182227256Y-108740205D01*
X182396774Y-108626937D01*
X182540937Y-108482774D01*
X182654205Y-108313256D01*
X182732226Y-108124898D01*
X182772000Y-107924939D01*
X182772000Y-107721061D01*
X182732226Y-107521102D01*
X182654205Y-107332744D01*
X182540937Y-107163226D01*
X182497000Y-107119289D01*
X182497000Y-90559178D01*
X182683632Y-90434475D01*
X182890475Y-90227632D01*
X183052990Y-89984411D01*
X183164932Y-89714158D01*
X183222000Y-89427260D01*
X183222000Y-89134740D01*
X183164932Y-88847842D01*
X183052990Y-88577589D01*
X182890475Y-88334368D01*
X182683632Y-88127525D01*
X182546655Y-88036000D01*
X185649000Y-88036000D01*
X185649001Y-91407572D01*
X185649000Y-91407582D01*
X185649001Y-99027572D01*
X185649000Y-99027582D01*
X185649001Y-105631572D01*
X185649000Y-105631582D01*
X185649001Y-116180000D01*
X185565988Y-116180000D01*
X185566000Y-116179939D01*
X185566000Y-115976061D01*
X185526226Y-115776102D01*
X185448205Y-115587744D01*
X185334937Y-115418226D01*
X185291000Y-115374289D01*
X185291000Y-113479711D01*
X185334937Y-113435774D01*
X185448205Y-113266256D01*
X185526226Y-113077898D01*
X185566000Y-112877939D01*
X185566000Y-112674061D01*
X185526226Y-112474102D01*
X185448205Y-112285744D01*
X185334937Y-112116226D01*
X185190774Y-111972063D01*
X185021256Y-111858795D01*
X184832898Y-111780774D01*
X184632939Y-111741000D01*
X184429061Y-111741000D01*
X184229102Y-111780774D01*
X184040744Y-111858795D01*
X183871226Y-111972063D01*
X183727063Y-112116226D01*
X183613795Y-112285744D01*
X183535774Y-112474102D01*
X183496000Y-112674061D01*
X183496000Y-112877939D01*
X183535774Y-113077898D01*
X183613795Y-113266256D01*
X183727063Y-113435774D01*
X183771001Y-113479712D01*
X183771000Y-115151667D01*
X183771000Y-115374289D01*
X183727063Y-115418226D01*
X183613795Y-115587744D01*
X183535774Y-115776102D01*
X183496000Y-115976061D01*
X183496000Y-116179939D01*
X183496012Y-116180000D01*
X177818988Y-116180000D01*
X177819000Y-116179939D01*
X177819000Y-115976061D01*
X177779226Y-115776102D01*
X177701205Y-115587744D01*
X177587937Y-115418226D01*
X177544000Y-115374289D01*
X177544000Y-113352711D01*
X177587937Y-113308774D01*
X177701205Y-113139256D01*
X177779226Y-112950898D01*
X177819000Y-112750939D01*
X177819000Y-112547061D01*
X177779226Y-112347102D01*
X177701205Y-112158744D01*
X177587937Y-111989226D01*
X177443774Y-111845063D01*
X177274256Y-111731795D01*
X177085898Y-111653774D01*
X176885939Y-111614000D01*
X176682061Y-111614000D01*
X176482102Y-111653774D01*
X176293744Y-111731795D01*
X176124226Y-111845063D01*
X175980063Y-111989226D01*
X175866795Y-112158744D01*
X175788774Y-112347102D01*
X175749000Y-112547061D01*
X175749000Y-112750939D01*
X175788774Y-112950898D01*
X175866795Y-113139256D01*
X175980063Y-113308774D01*
X176024000Y-113352711D01*
X176024001Y-115151658D01*
X176024000Y-115151668D01*
X176024000Y-115374289D01*
X175980063Y-115418226D01*
X175866795Y-115587744D01*
X175788774Y-115776102D01*
X175749000Y-115976061D01*
X175749000Y-116179939D01*
X175749012Y-116180000D01*
X172585046Y-116180000D01*
X172698780Y-116009785D01*
X172869824Y-115596849D01*
X172957021Y-115158479D01*
X172957021Y-114711521D01*
X172869824Y-114273151D01*
X172698780Y-113860215D01*
X172450464Y-113488583D01*
X172134417Y-113172536D01*
X171762785Y-112924220D01*
X171349849Y-112753176D01*
X170911479Y-112665979D01*
X170464521Y-112665979D01*
X170026151Y-112753176D01*
X169613215Y-112924220D01*
X169241583Y-113172536D01*
X168925536Y-113488583D01*
X168677220Y-113860215D01*
X168506176Y-114273151D01*
X168418979Y-114711521D01*
X168418979Y-115158479D01*
X168506176Y-115596849D01*
X168677220Y-116009785D01*
X168790954Y-116180000D01*
X155194000Y-116180000D01*
X155194000Y-107086061D01*
X165716000Y-107086061D01*
X165716000Y-107289939D01*
X165755774Y-107489898D01*
X165833795Y-107678256D01*
X165947063Y-107847774D01*
X165991000Y-107891711D01*
X165991001Y-110929288D01*
X165947063Y-110973226D01*
X165833795Y-111142744D01*
X165755774Y-111331102D01*
X165716000Y-111531061D01*
X165716000Y-111734939D01*
X165755774Y-111934898D01*
X165833795Y-112123256D01*
X165947063Y-112292774D01*
X166091226Y-112436937D01*
X166260744Y-112550205D01*
X166449102Y-112628226D01*
X166649061Y-112668000D01*
X166852939Y-112668000D01*
X167052898Y-112628226D01*
X167241256Y-112550205D01*
X167410774Y-112436937D01*
X167554937Y-112292774D01*
X167668205Y-112123256D01*
X167746226Y-111934898D01*
X167786000Y-111734939D01*
X167786000Y-111531061D01*
X167746226Y-111331102D01*
X167668205Y-111142744D01*
X167554937Y-110973226D01*
X167511000Y-110929289D01*
X167511000Y-107891711D01*
X167554937Y-107847774D01*
X167668205Y-107678256D01*
X167746226Y-107489898D01*
X167786000Y-107289939D01*
X167786000Y-107086061D01*
X167746226Y-106886102D01*
X167668205Y-106697744D01*
X167554937Y-106528226D01*
X167410774Y-106384063D01*
X167241256Y-106270795D01*
X167052898Y-106192774D01*
X166852939Y-106153000D01*
X166649061Y-106153000D01*
X166449102Y-106192774D01*
X166260744Y-106270795D01*
X166091226Y-106384063D01*
X165947063Y-106528226D01*
X165833795Y-106697744D01*
X165755774Y-106886102D01*
X165716000Y-107086061D01*
X155194000Y-107086061D01*
X155194000Y-102514061D01*
X158350000Y-102514061D01*
X158350000Y-102717939D01*
X158389774Y-102917898D01*
X158467795Y-103106256D01*
X158581063Y-103275774D01*
X158625000Y-103319711D01*
X158625001Y-104579288D01*
X158581063Y-104623226D01*
X158467795Y-104792744D01*
X158389774Y-104981102D01*
X158350000Y-105181061D01*
X158350000Y-105384939D01*
X158389774Y-105584898D01*
X158467795Y-105773256D01*
X158581063Y-105942774D01*
X158725226Y-106086937D01*
X158894744Y-106200205D01*
X159083102Y-106278226D01*
X159283061Y-106318000D01*
X159486939Y-106318000D01*
X159686898Y-106278226D01*
X159875256Y-106200205D01*
X160044774Y-106086937D01*
X160188937Y-105942774D01*
X160302205Y-105773256D01*
X160380226Y-105584898D01*
X160420000Y-105384939D01*
X160420000Y-105181061D01*
X160380226Y-104981102D01*
X160302205Y-104792744D01*
X160188937Y-104623226D01*
X160145000Y-104579289D01*
X160145000Y-103911061D01*
X166986000Y-103911061D01*
X166986000Y-104114939D01*
X167025774Y-104314898D01*
X167103795Y-104503256D01*
X167217063Y-104672774D01*
X167361226Y-104816937D01*
X167497759Y-104908165D01*
X167494000Y-104927061D01*
X167494000Y-105130939D01*
X167533774Y-105330898D01*
X167611795Y-105519256D01*
X167725063Y-105688774D01*
X167869226Y-105832937D01*
X168038744Y-105946205D01*
X168227102Y-106024226D01*
X168427061Y-106064000D01*
X168630939Y-106064000D01*
X168830898Y-106024226D01*
X169019256Y-105946205D01*
X169188774Y-105832937D01*
X169232711Y-105789000D01*
X175826289Y-105789000D01*
X175870226Y-105832937D01*
X176039744Y-105946205D01*
X176228102Y-106024226D01*
X176428061Y-106064000D01*
X176631939Y-106064000D01*
X176831898Y-106024226D01*
X177020256Y-105946205D01*
X177189774Y-105832937D01*
X177333937Y-105688774D01*
X177447205Y-105519256D01*
X177525226Y-105330898D01*
X177565000Y-105130939D01*
X177565000Y-104927061D01*
X177525226Y-104727102D01*
X177447205Y-104538744D01*
X177333937Y-104369226D01*
X177189774Y-104225063D01*
X177020256Y-104111795D01*
X176831898Y-104033774D01*
X176631939Y-103994000D01*
X176428061Y-103994000D01*
X176228102Y-104033774D01*
X176039744Y-104111795D01*
X175870226Y-104225063D01*
X175826289Y-104269000D01*
X170930356Y-104269000D01*
X170961000Y-104114939D01*
X170961000Y-103911061D01*
X170921226Y-103711102D01*
X170843205Y-103522744D01*
X170729937Y-103353226D01*
X170585774Y-103209063D01*
X170416256Y-103095795D01*
X170227898Y-103017774D01*
X170027939Y-102978000D01*
X169824061Y-102978000D01*
X169624102Y-103017774D01*
X169435744Y-103095795D01*
X169266226Y-103209063D01*
X169222289Y-103253000D01*
X168724711Y-103253000D01*
X168680774Y-103209063D01*
X168511256Y-103095795D01*
X168322898Y-103017774D01*
X168122939Y-102978000D01*
X167919061Y-102978000D01*
X167719102Y-103017774D01*
X167530744Y-103095795D01*
X167361226Y-103209063D01*
X167217063Y-103353226D01*
X167103795Y-103522744D01*
X167025774Y-103711102D01*
X166986000Y-103911061D01*
X160145000Y-103911061D01*
X160145000Y-103319711D01*
X160188937Y-103275774D01*
X160302205Y-103106256D01*
X160380226Y-102917898D01*
X160420000Y-102717939D01*
X160420000Y-102514061D01*
X160380226Y-102314102D01*
X160302205Y-102125744D01*
X160188937Y-101956226D01*
X160044774Y-101812063D01*
X159875256Y-101698795D01*
X159686898Y-101620774D01*
X159486939Y-101581000D01*
X159283061Y-101581000D01*
X159083102Y-101620774D01*
X158894744Y-101698795D01*
X158725226Y-101812063D01*
X158581063Y-101956226D01*
X158467795Y-102125744D01*
X158389774Y-102314102D01*
X158350000Y-102514061D01*
X155194000Y-102514061D01*
X155194000Y-98553387D01*
X155225920Y-98592281D01*
X155436813Y-98765357D01*
X155677420Y-98893964D01*
X155938494Y-98973160D01*
X156210000Y-98999901D01*
X156481507Y-98973160D01*
X156742581Y-98893964D01*
X156983188Y-98765357D01*
X157194081Y-98592281D01*
X157367157Y-98381388D01*
X157495764Y-98140780D01*
X157574960Y-97879706D01*
X157593835Y-97688061D01*
X158350000Y-97688061D01*
X158350000Y-97891939D01*
X158389774Y-98091898D01*
X158467795Y-98280256D01*
X158581063Y-98449774D01*
X158625001Y-98493712D01*
X158625000Y-99753289D01*
X158581063Y-99797226D01*
X158467795Y-99966744D01*
X158389774Y-100155102D01*
X158350000Y-100355061D01*
X158350000Y-100558939D01*
X158389774Y-100758898D01*
X158467795Y-100947256D01*
X158581063Y-101116774D01*
X158725226Y-101260937D01*
X158894744Y-101374205D01*
X159083102Y-101452226D01*
X159283061Y-101492000D01*
X159486939Y-101492000D01*
X159686898Y-101452226D01*
X159875256Y-101374205D01*
X160044774Y-101260937D01*
X160188937Y-101116774D01*
X160302205Y-100947256D01*
X160380226Y-100758898D01*
X160420000Y-100558939D01*
X160420000Y-100355061D01*
X160380226Y-100155102D01*
X160302205Y-99966744D01*
X160188937Y-99797226D01*
X160145000Y-99753289D01*
X160145000Y-98493711D01*
X160188937Y-98449774D01*
X160302205Y-98280256D01*
X160380226Y-98091898D01*
X160420000Y-97891939D01*
X160420000Y-97688061D01*
X160380226Y-97488102D01*
X160302205Y-97299744D01*
X160188937Y-97130226D01*
X160044774Y-96986063D01*
X159875256Y-96872795D01*
X159697248Y-96799061D01*
X161144000Y-96799061D01*
X161144000Y-97002939D01*
X161183774Y-97202898D01*
X161261795Y-97391256D01*
X161375063Y-97560774D01*
X161419000Y-97604711D01*
X161419001Y-99626288D01*
X161375063Y-99670226D01*
X161261795Y-99839744D01*
X161183774Y-100028102D01*
X161144000Y-100228061D01*
X161144000Y-100431939D01*
X161183774Y-100631898D01*
X161261795Y-100820256D01*
X161375063Y-100989774D01*
X161519226Y-101133937D01*
X161688744Y-101247205D01*
X161877102Y-101325226D01*
X162077061Y-101365000D01*
X162280939Y-101365000D01*
X162480898Y-101325226D01*
X162669256Y-101247205D01*
X162838774Y-101133937D01*
X162982937Y-100989774D01*
X163096205Y-100820256D01*
X163174226Y-100631898D01*
X163214000Y-100431939D01*
X163214000Y-100228061D01*
X163174226Y-100028102D01*
X163096205Y-99839744D01*
X162982937Y-99670226D01*
X162939000Y-99626289D01*
X162939000Y-98379205D01*
X162963614Y-98399405D01*
X163117150Y-98481472D01*
X163283746Y-98532008D01*
X163457000Y-98549072D01*
X164457000Y-98549072D01*
X164630254Y-98532008D01*
X164796850Y-98481472D01*
X164950386Y-98399405D01*
X165084962Y-98288962D01*
X165195405Y-98154386D01*
X165277472Y-98000850D01*
X165328008Y-97834254D01*
X165345072Y-97661000D01*
X165345072Y-97028000D01*
X165572000Y-97028000D01*
X165572000Y-97288000D01*
X165623389Y-97555760D01*
X165726028Y-97808349D01*
X165875972Y-98036061D01*
X166067460Y-98230145D01*
X166293132Y-98383142D01*
X166544316Y-98489173D01*
X166615815Y-98503318D01*
X166830000Y-98380656D01*
X166830000Y-97028000D01*
X167084000Y-97028000D01*
X167084000Y-98380656D01*
X167298185Y-98503318D01*
X167369684Y-98489173D01*
X167620868Y-98383142D01*
X167846540Y-98230145D01*
X168038028Y-98036061D01*
X168187972Y-97808349D01*
X168290611Y-97555760D01*
X168342000Y-97288000D01*
X168342000Y-97028000D01*
X167084000Y-97028000D01*
X166830000Y-97028000D01*
X165572000Y-97028000D01*
X165345072Y-97028000D01*
X165345072Y-96514000D01*
X165572000Y-96514000D01*
X165572000Y-96774000D01*
X166830000Y-96774000D01*
X166830000Y-95421344D01*
X167084000Y-95421344D01*
X167084000Y-96774000D01*
X168342000Y-96774000D01*
X168342000Y-96514000D01*
X168290611Y-96246240D01*
X168187972Y-95993651D01*
X168038028Y-95765939D01*
X167846540Y-95571855D01*
X167620868Y-95418858D01*
X167369684Y-95312827D01*
X167298185Y-95298682D01*
X167084000Y-95421344D01*
X166830000Y-95421344D01*
X166615815Y-95298682D01*
X166544316Y-95312827D01*
X166293132Y-95418858D01*
X166067460Y-95571855D01*
X165875972Y-95765939D01*
X165726028Y-95993651D01*
X165623389Y-96246240D01*
X165572000Y-96514000D01*
X165345072Y-96514000D01*
X165345072Y-96141000D01*
X165328008Y-95967746D01*
X165277472Y-95801150D01*
X165195405Y-95647614D01*
X165084962Y-95513038D01*
X164950386Y-95402595D01*
X164796850Y-95320528D01*
X164630254Y-95269992D01*
X164457000Y-95252928D01*
X163457000Y-95252928D01*
X163283746Y-95269992D01*
X163117150Y-95320528D01*
X162963614Y-95402595D01*
X162829038Y-95513038D01*
X162718595Y-95647614D01*
X162636528Y-95801150D01*
X162590961Y-95951364D01*
X162480898Y-95905774D01*
X162280939Y-95866000D01*
X162077061Y-95866000D01*
X161877102Y-95905774D01*
X161688744Y-95983795D01*
X161519226Y-96097063D01*
X161375063Y-96241226D01*
X161261795Y-96410744D01*
X161183774Y-96599102D01*
X161144000Y-96799061D01*
X159697248Y-96799061D01*
X159686898Y-96794774D01*
X159486939Y-96755000D01*
X159283061Y-96755000D01*
X159083102Y-96794774D01*
X158894744Y-96872795D01*
X158725226Y-96986063D01*
X158581063Y-97130226D01*
X158467795Y-97299744D01*
X158389774Y-97488102D01*
X158350000Y-97688061D01*
X157593835Y-97688061D01*
X157595000Y-97676236D01*
X157595000Y-97040163D01*
X157574960Y-96836693D01*
X157495764Y-96575619D01*
X157367157Y-96335012D01*
X157194080Y-96124119D01*
X157150313Y-96088200D01*
X157194081Y-96052281D01*
X157367157Y-95841388D01*
X157495764Y-95600780D01*
X157574960Y-95339706D01*
X157595000Y-95136236D01*
X157595000Y-94500163D01*
X157574960Y-94296693D01*
X157495764Y-94035619D01*
X157367157Y-93795012D01*
X157194080Y-93584119D01*
X157154517Y-93551651D01*
X157314658Y-93381834D01*
X157459968Y-93149924D01*
X157557243Y-92894121D01*
X157602744Y-92624256D01*
X157441873Y-92405200D01*
X156337000Y-92405200D01*
X156337000Y-92425200D01*
X156083000Y-92425200D01*
X156083000Y-92405200D01*
X156063000Y-92405200D01*
X156063000Y-92370721D01*
X163322000Y-92370721D01*
X163322000Y-92791279D01*
X163404047Y-93203756D01*
X163564988Y-93592302D01*
X163798637Y-93941983D01*
X164096017Y-94239363D01*
X164445698Y-94473012D01*
X164834244Y-94633953D01*
X165246721Y-94716000D01*
X165667279Y-94716000D01*
X166079756Y-94633953D01*
X166468302Y-94473012D01*
X166817983Y-94239363D01*
X167115363Y-93941983D01*
X167349012Y-93592302D01*
X167509953Y-93203756D01*
X167592000Y-92791279D01*
X167592000Y-92370721D01*
X167509953Y-91958244D01*
X167349012Y-91569698D01*
X167115363Y-91220017D01*
X166817983Y-90922637D01*
X166468302Y-90688988D01*
X166079756Y-90528047D01*
X165667279Y-90446000D01*
X165246721Y-90446000D01*
X164834244Y-90528047D01*
X164445698Y-90688988D01*
X164096017Y-90922637D01*
X163798637Y-91220017D01*
X163564988Y-91569698D01*
X163404047Y-91958244D01*
X163322000Y-92370721D01*
X156063000Y-92370721D01*
X156063000Y-92151200D01*
X156083000Y-92151200D01*
X156083000Y-90808544D01*
X156337000Y-90808544D01*
X156337000Y-92151200D01*
X157441873Y-92151200D01*
X157602744Y-91932144D01*
X157557243Y-91662279D01*
X157459968Y-91406476D01*
X157314658Y-91174566D01*
X157126897Y-90975460D01*
X156903900Y-90816810D01*
X156654236Y-90704713D01*
X156551185Y-90685882D01*
X156337000Y-90808544D01*
X156083000Y-90808544D01*
X155868815Y-90685882D01*
X155765764Y-90704713D01*
X155516100Y-90816810D01*
X155293103Y-90975460D01*
X155194000Y-91080551D01*
X155194000Y-88036000D01*
X172769705Y-88036000D01*
X172736463Y-88076506D01*
G37*
X172736463Y-88076506D02*
X172677498Y-88186820D01*
X172641188Y-88306518D01*
X172628928Y-88431000D01*
X172628928Y-90131000D01*
X172641188Y-90255482D01*
X172677498Y-90375180D01*
X172736463Y-90485494D01*
X172815815Y-90582185D01*
X172912506Y-90661537D01*
X173022820Y-90720502D01*
X173142518Y-90756812D01*
X173267000Y-90769072D01*
X174967000Y-90769072D01*
X175091482Y-90756812D01*
X175211180Y-90720502D01*
X175321494Y-90661537D01*
X175418185Y-90582185D01*
X175497537Y-90485494D01*
X175556502Y-90375180D01*
X175580966Y-90294534D01*
X175656731Y-90378588D01*
X175890080Y-90552641D01*
X176152901Y-90677825D01*
X176300110Y-90722476D01*
X176530000Y-90601155D01*
X176530000Y-89408000D01*
X176510000Y-89408000D01*
X176510000Y-89154000D01*
X176530000Y-89154000D01*
X176530000Y-89134000D01*
X176784000Y-89134000D01*
X176784000Y-89154000D01*
X176804000Y-89154000D01*
X176804000Y-89408000D01*
X176784000Y-89408000D01*
X176784000Y-90601155D01*
X177013890Y-90722476D01*
X177161099Y-90677825D01*
X177423920Y-90552641D01*
X177657269Y-90378588D01*
X177852178Y-90162355D01*
X177921805Y-90045466D01*
X178043525Y-90227632D01*
X178250368Y-90434475D01*
X178437001Y-90559179D01*
X178437000Y-93149289D01*
X178393063Y-93193226D01*
X178279795Y-93362744D01*
X178201774Y-93551102D01*
X178162000Y-93751061D01*
X178162000Y-93954939D01*
X178201774Y-94154898D01*
X178279795Y-94343256D01*
X178393063Y-94512774D01*
X178537226Y-94656937D01*
X178706744Y-94770205D01*
X178895102Y-94848226D01*
X179095061Y-94888000D01*
X179298939Y-94888000D01*
X179498898Y-94848226D01*
X179687256Y-94770205D01*
X179856774Y-94656937D01*
X180000937Y-94512774D01*
X180022500Y-94480503D01*
X180044063Y-94512774D01*
X180088001Y-94556712D01*
X180088000Y-102039289D01*
X180044063Y-102083226D01*
X179930795Y-102252744D01*
X179852774Y-102441102D01*
X179813000Y-102641061D01*
X179813000Y-102844939D01*
X179852774Y-103044898D01*
X179930795Y-103233256D01*
X180044063Y-103402774D01*
X180188226Y-103546937D01*
X180357744Y-103660205D01*
X180546102Y-103738226D01*
X180746061Y-103778000D01*
X180949939Y-103778000D01*
X180977000Y-103772617D01*
X180977000Y-107119289D01*
X180933063Y-107163226D01*
X180819795Y-107332744D01*
X180741774Y-107521102D01*
X180702000Y-107721061D01*
X180702000Y-107924939D01*
X180741774Y-108124898D01*
X180819795Y-108313256D01*
X180933063Y-108482774D01*
X181077226Y-108626937D01*
X181246744Y-108740205D01*
X181435102Y-108818226D01*
X181635061Y-108858000D01*
X181838939Y-108858000D01*
X182038898Y-108818226D01*
X182227256Y-108740205D01*
X182396774Y-108626937D01*
X182540937Y-108482774D01*
X182654205Y-108313256D01*
X182732226Y-108124898D01*
X182772000Y-107924939D01*
X182772000Y-107721061D01*
X182732226Y-107521102D01*
X182654205Y-107332744D01*
X182540937Y-107163226D01*
X182497000Y-107119289D01*
X182497000Y-90559178D01*
X182683632Y-90434475D01*
X182890475Y-90227632D01*
X183052990Y-89984411D01*
X183164932Y-89714158D01*
X183222000Y-89427260D01*
X183222000Y-89134740D01*
X183164932Y-88847842D01*
X183052990Y-88577589D01*
X182890475Y-88334368D01*
X182683632Y-88127525D01*
X182546655Y-88036000D01*
X185649000Y-88036000D01*
X185649001Y-91407572D01*
X185649000Y-91407582D01*
X185649001Y-99027572D01*
X185649000Y-99027582D01*
X185649001Y-105631572D01*
X185649000Y-105631582D01*
X185649001Y-116180000D01*
X185565988Y-116180000D01*
X185566000Y-116179939D01*
X185566000Y-115976061D01*
X185526226Y-115776102D01*
X185448205Y-115587744D01*
X185334937Y-115418226D01*
X185291000Y-115374289D01*
X185291000Y-113479711D01*
X185334937Y-113435774D01*
X185448205Y-113266256D01*
X185526226Y-113077898D01*
X185566000Y-112877939D01*
X185566000Y-112674061D01*
X185526226Y-112474102D01*
X185448205Y-112285744D01*
X185334937Y-112116226D01*
X185190774Y-111972063D01*
X185021256Y-111858795D01*
X184832898Y-111780774D01*
X184632939Y-111741000D01*
X184429061Y-111741000D01*
X184229102Y-111780774D01*
X184040744Y-111858795D01*
X183871226Y-111972063D01*
X183727063Y-112116226D01*
X183613795Y-112285744D01*
X183535774Y-112474102D01*
X183496000Y-112674061D01*
X183496000Y-112877939D01*
X183535774Y-113077898D01*
X183613795Y-113266256D01*
X183727063Y-113435774D01*
X183771001Y-113479712D01*
X183771000Y-115151667D01*
X183771000Y-115374289D01*
X183727063Y-115418226D01*
X183613795Y-115587744D01*
X183535774Y-115776102D01*
X183496000Y-115976061D01*
X183496000Y-116179939D01*
X183496012Y-116180000D01*
X177818988Y-116180000D01*
X177819000Y-116179939D01*
X177819000Y-115976061D01*
X177779226Y-115776102D01*
X177701205Y-115587744D01*
X177587937Y-115418226D01*
X177544000Y-115374289D01*
X177544000Y-113352711D01*
X177587937Y-113308774D01*
X177701205Y-113139256D01*
X177779226Y-112950898D01*
X177819000Y-112750939D01*
X177819000Y-112547061D01*
X177779226Y-112347102D01*
X177701205Y-112158744D01*
X177587937Y-111989226D01*
X177443774Y-111845063D01*
X177274256Y-111731795D01*
X177085898Y-111653774D01*
X176885939Y-111614000D01*
X176682061Y-111614000D01*
X176482102Y-111653774D01*
X176293744Y-111731795D01*
X176124226Y-111845063D01*
X175980063Y-111989226D01*
X175866795Y-112158744D01*
X175788774Y-112347102D01*
X175749000Y-112547061D01*
X175749000Y-112750939D01*
X175788774Y-112950898D01*
X175866795Y-113139256D01*
X175980063Y-113308774D01*
X176024000Y-113352711D01*
X176024001Y-115151658D01*
X176024000Y-115151668D01*
X176024000Y-115374289D01*
X175980063Y-115418226D01*
X175866795Y-115587744D01*
X175788774Y-115776102D01*
X175749000Y-115976061D01*
X175749000Y-116179939D01*
X175749012Y-116180000D01*
X172585046Y-116180000D01*
X172698780Y-116009785D01*
X172869824Y-115596849D01*
X172957021Y-115158479D01*
X172957021Y-114711521D01*
X172869824Y-114273151D01*
X172698780Y-113860215D01*
X172450464Y-113488583D01*
X172134417Y-113172536D01*
X171762785Y-112924220D01*
X171349849Y-112753176D01*
X170911479Y-112665979D01*
X170464521Y-112665979D01*
X170026151Y-112753176D01*
X169613215Y-112924220D01*
X169241583Y-113172536D01*
X168925536Y-113488583D01*
X168677220Y-113860215D01*
X168506176Y-114273151D01*
X168418979Y-114711521D01*
X168418979Y-115158479D01*
X168506176Y-115596849D01*
X168677220Y-116009785D01*
X168790954Y-116180000D01*
X155194000Y-116180000D01*
X155194000Y-107086061D01*
X165716000Y-107086061D01*
X165716000Y-107289939D01*
X165755774Y-107489898D01*
X165833795Y-107678256D01*
X165947063Y-107847774D01*
X165991000Y-107891711D01*
X165991001Y-110929288D01*
X165947063Y-110973226D01*
X165833795Y-111142744D01*
X165755774Y-111331102D01*
X165716000Y-111531061D01*
X165716000Y-111734939D01*
X165755774Y-111934898D01*
X165833795Y-112123256D01*
X165947063Y-112292774D01*
X166091226Y-112436937D01*
X166260744Y-112550205D01*
X166449102Y-112628226D01*
X166649061Y-112668000D01*
X166852939Y-112668000D01*
X167052898Y-112628226D01*
X167241256Y-112550205D01*
X167410774Y-112436937D01*
X167554937Y-112292774D01*
X167668205Y-112123256D01*
X167746226Y-111934898D01*
X167786000Y-111734939D01*
X167786000Y-111531061D01*
X167746226Y-111331102D01*
X167668205Y-111142744D01*
X167554937Y-110973226D01*
X167511000Y-110929289D01*
X167511000Y-107891711D01*
X167554937Y-107847774D01*
X167668205Y-107678256D01*
X167746226Y-107489898D01*
X167786000Y-107289939D01*
X167786000Y-107086061D01*
X167746226Y-106886102D01*
X167668205Y-106697744D01*
X167554937Y-106528226D01*
X167410774Y-106384063D01*
X167241256Y-106270795D01*
X167052898Y-106192774D01*
X166852939Y-106153000D01*
X166649061Y-106153000D01*
X166449102Y-106192774D01*
X166260744Y-106270795D01*
X166091226Y-106384063D01*
X165947063Y-106528226D01*
X165833795Y-106697744D01*
X165755774Y-106886102D01*
X165716000Y-107086061D01*
X155194000Y-107086061D01*
X155194000Y-102514061D01*
X158350000Y-102514061D01*
X158350000Y-102717939D01*
X158389774Y-102917898D01*
X158467795Y-103106256D01*
X158581063Y-103275774D01*
X158625000Y-103319711D01*
X158625001Y-104579288D01*
X158581063Y-104623226D01*
X158467795Y-104792744D01*
X158389774Y-104981102D01*
X158350000Y-105181061D01*
X158350000Y-105384939D01*
X158389774Y-105584898D01*
X158467795Y-105773256D01*
X158581063Y-105942774D01*
X158725226Y-106086937D01*
X158894744Y-106200205D01*
X159083102Y-106278226D01*
X159283061Y-106318000D01*
X159486939Y-106318000D01*
X159686898Y-106278226D01*
X159875256Y-106200205D01*
X160044774Y-106086937D01*
X160188937Y-105942774D01*
X160302205Y-105773256D01*
X160380226Y-105584898D01*
X160420000Y-105384939D01*
X160420000Y-105181061D01*
X160380226Y-104981102D01*
X160302205Y-104792744D01*
X160188937Y-104623226D01*
X160145000Y-104579289D01*
X160145000Y-103911061D01*
X166986000Y-103911061D01*
X166986000Y-104114939D01*
X167025774Y-104314898D01*
X167103795Y-104503256D01*
X167217063Y-104672774D01*
X167361226Y-104816937D01*
X167497759Y-104908165D01*
X167494000Y-104927061D01*
X167494000Y-105130939D01*
X167533774Y-105330898D01*
X167611795Y-105519256D01*
X167725063Y-105688774D01*
X167869226Y-105832937D01*
X168038744Y-105946205D01*
X168227102Y-106024226D01*
X168427061Y-106064000D01*
X168630939Y-106064000D01*
X168830898Y-106024226D01*
X169019256Y-105946205D01*
X169188774Y-105832937D01*
X169232711Y-105789000D01*
X175826289Y-105789000D01*
X175870226Y-105832937D01*
X176039744Y-105946205D01*
X176228102Y-106024226D01*
X176428061Y-106064000D01*
X176631939Y-106064000D01*
X176831898Y-106024226D01*
X177020256Y-105946205D01*
X177189774Y-105832937D01*
X177333937Y-105688774D01*
X177447205Y-105519256D01*
X177525226Y-105330898D01*
X177565000Y-105130939D01*
X177565000Y-104927061D01*
X177525226Y-104727102D01*
X177447205Y-104538744D01*
X177333937Y-104369226D01*
X177189774Y-104225063D01*
X177020256Y-104111795D01*
X176831898Y-104033774D01*
X176631939Y-103994000D01*
X176428061Y-103994000D01*
X176228102Y-104033774D01*
X176039744Y-104111795D01*
X175870226Y-104225063D01*
X175826289Y-104269000D01*
X170930356Y-104269000D01*
X170961000Y-104114939D01*
X170961000Y-103911061D01*
X170921226Y-103711102D01*
X170843205Y-103522744D01*
X170729937Y-103353226D01*
X170585774Y-103209063D01*
X170416256Y-103095795D01*
X170227898Y-103017774D01*
X170027939Y-102978000D01*
X169824061Y-102978000D01*
X169624102Y-103017774D01*
X169435744Y-103095795D01*
X169266226Y-103209063D01*
X169222289Y-103253000D01*
X168724711Y-103253000D01*
X168680774Y-103209063D01*
X168511256Y-103095795D01*
X168322898Y-103017774D01*
X168122939Y-102978000D01*
X167919061Y-102978000D01*
X167719102Y-103017774D01*
X167530744Y-103095795D01*
X167361226Y-103209063D01*
X167217063Y-103353226D01*
X167103795Y-103522744D01*
X167025774Y-103711102D01*
X166986000Y-103911061D01*
X160145000Y-103911061D01*
X160145000Y-103319711D01*
X160188937Y-103275774D01*
X160302205Y-103106256D01*
X160380226Y-102917898D01*
X160420000Y-102717939D01*
X160420000Y-102514061D01*
X160380226Y-102314102D01*
X160302205Y-102125744D01*
X160188937Y-101956226D01*
X160044774Y-101812063D01*
X159875256Y-101698795D01*
X159686898Y-101620774D01*
X159486939Y-101581000D01*
X159283061Y-101581000D01*
X159083102Y-101620774D01*
X158894744Y-101698795D01*
X158725226Y-101812063D01*
X158581063Y-101956226D01*
X158467795Y-102125744D01*
X158389774Y-102314102D01*
X158350000Y-102514061D01*
X155194000Y-102514061D01*
X155194000Y-98553387D01*
X155225920Y-98592281D01*
X155436813Y-98765357D01*
X155677420Y-98893964D01*
X155938494Y-98973160D01*
X156210000Y-98999901D01*
X156481507Y-98973160D01*
X156742581Y-98893964D01*
X156983188Y-98765357D01*
X157194081Y-98592281D01*
X157367157Y-98381388D01*
X157495764Y-98140780D01*
X157574960Y-97879706D01*
X157593835Y-97688061D01*
X158350000Y-97688061D01*
X158350000Y-97891939D01*
X158389774Y-98091898D01*
X158467795Y-98280256D01*
X158581063Y-98449774D01*
X158625001Y-98493712D01*
X158625000Y-99753289D01*
X158581063Y-99797226D01*
X158467795Y-99966744D01*
X158389774Y-100155102D01*
X158350000Y-100355061D01*
X158350000Y-100558939D01*
X158389774Y-100758898D01*
X158467795Y-100947256D01*
X158581063Y-101116774D01*
X158725226Y-101260937D01*
X158894744Y-101374205D01*
X159083102Y-101452226D01*
X159283061Y-101492000D01*
X159486939Y-101492000D01*
X159686898Y-101452226D01*
X159875256Y-101374205D01*
X160044774Y-101260937D01*
X160188937Y-101116774D01*
X160302205Y-100947256D01*
X160380226Y-100758898D01*
X160420000Y-100558939D01*
X160420000Y-100355061D01*
X160380226Y-100155102D01*
X160302205Y-99966744D01*
X160188937Y-99797226D01*
X160145000Y-99753289D01*
X160145000Y-98493711D01*
X160188937Y-98449774D01*
X160302205Y-98280256D01*
X160380226Y-98091898D01*
X160420000Y-97891939D01*
X160420000Y-97688061D01*
X160380226Y-97488102D01*
X160302205Y-97299744D01*
X160188937Y-97130226D01*
X160044774Y-96986063D01*
X159875256Y-96872795D01*
X159697248Y-96799061D01*
X161144000Y-96799061D01*
X161144000Y-97002939D01*
X161183774Y-97202898D01*
X161261795Y-97391256D01*
X161375063Y-97560774D01*
X161419000Y-97604711D01*
X161419001Y-99626288D01*
X161375063Y-99670226D01*
X161261795Y-99839744D01*
X161183774Y-100028102D01*
X161144000Y-100228061D01*
X161144000Y-100431939D01*
X161183774Y-100631898D01*
X161261795Y-100820256D01*
X161375063Y-100989774D01*
X161519226Y-101133937D01*
X161688744Y-101247205D01*
X161877102Y-101325226D01*
X162077061Y-101365000D01*
X162280939Y-101365000D01*
X162480898Y-101325226D01*
X162669256Y-101247205D01*
X162838774Y-101133937D01*
X162982937Y-100989774D01*
X163096205Y-100820256D01*
X163174226Y-100631898D01*
X163214000Y-100431939D01*
X163214000Y-100228061D01*
X163174226Y-100028102D01*
X163096205Y-99839744D01*
X162982937Y-99670226D01*
X162939000Y-99626289D01*
X162939000Y-98379205D01*
X162963614Y-98399405D01*
X163117150Y-98481472D01*
X163283746Y-98532008D01*
X163457000Y-98549072D01*
X164457000Y-98549072D01*
X164630254Y-98532008D01*
X164796850Y-98481472D01*
X164950386Y-98399405D01*
X165084962Y-98288962D01*
X165195405Y-98154386D01*
X165277472Y-98000850D01*
X165328008Y-97834254D01*
X165345072Y-97661000D01*
X165345072Y-97028000D01*
X165572000Y-97028000D01*
X165572000Y-97288000D01*
X165623389Y-97555760D01*
X165726028Y-97808349D01*
X165875972Y-98036061D01*
X166067460Y-98230145D01*
X166293132Y-98383142D01*
X166544316Y-98489173D01*
X166615815Y-98503318D01*
X166830000Y-98380656D01*
X166830000Y-97028000D01*
X167084000Y-97028000D01*
X167084000Y-98380656D01*
X167298185Y-98503318D01*
X167369684Y-98489173D01*
X167620868Y-98383142D01*
X167846540Y-98230145D01*
X168038028Y-98036061D01*
X168187972Y-97808349D01*
X168290611Y-97555760D01*
X168342000Y-97288000D01*
X168342000Y-97028000D01*
X167084000Y-97028000D01*
X166830000Y-97028000D01*
X165572000Y-97028000D01*
X165345072Y-97028000D01*
X165345072Y-96514000D01*
X165572000Y-96514000D01*
X165572000Y-96774000D01*
X166830000Y-96774000D01*
X166830000Y-95421344D01*
X167084000Y-95421344D01*
X167084000Y-96774000D01*
X168342000Y-96774000D01*
X168342000Y-96514000D01*
X168290611Y-96246240D01*
X168187972Y-95993651D01*
X168038028Y-95765939D01*
X167846540Y-95571855D01*
X167620868Y-95418858D01*
X167369684Y-95312827D01*
X167298185Y-95298682D01*
X167084000Y-95421344D01*
X166830000Y-95421344D01*
X166615815Y-95298682D01*
X166544316Y-95312827D01*
X166293132Y-95418858D01*
X166067460Y-95571855D01*
X165875972Y-95765939D01*
X165726028Y-95993651D01*
X165623389Y-96246240D01*
X165572000Y-96514000D01*
X165345072Y-96514000D01*
X165345072Y-96141000D01*
X165328008Y-95967746D01*
X165277472Y-95801150D01*
X165195405Y-95647614D01*
X165084962Y-95513038D01*
X164950386Y-95402595D01*
X164796850Y-95320528D01*
X164630254Y-95269992D01*
X164457000Y-95252928D01*
X163457000Y-95252928D01*
X163283746Y-95269992D01*
X163117150Y-95320528D01*
X162963614Y-95402595D01*
X162829038Y-95513038D01*
X162718595Y-95647614D01*
X162636528Y-95801150D01*
X162590961Y-95951364D01*
X162480898Y-95905774D01*
X162280939Y-95866000D01*
X162077061Y-95866000D01*
X161877102Y-95905774D01*
X161688744Y-95983795D01*
X161519226Y-96097063D01*
X161375063Y-96241226D01*
X161261795Y-96410744D01*
X161183774Y-96599102D01*
X161144000Y-96799061D01*
X159697248Y-96799061D01*
X159686898Y-96794774D01*
X159486939Y-96755000D01*
X159283061Y-96755000D01*
X159083102Y-96794774D01*
X158894744Y-96872795D01*
X158725226Y-96986063D01*
X158581063Y-97130226D01*
X158467795Y-97299744D01*
X158389774Y-97488102D01*
X158350000Y-97688061D01*
X157593835Y-97688061D01*
X157595000Y-97676236D01*
X157595000Y-97040163D01*
X157574960Y-96836693D01*
X157495764Y-96575619D01*
X157367157Y-96335012D01*
X157194080Y-96124119D01*
X157150313Y-96088200D01*
X157194081Y-96052281D01*
X157367157Y-95841388D01*
X157495764Y-95600780D01*
X157574960Y-95339706D01*
X157595000Y-95136236D01*
X157595000Y-94500163D01*
X157574960Y-94296693D01*
X157495764Y-94035619D01*
X157367157Y-93795012D01*
X157194080Y-93584119D01*
X157154517Y-93551651D01*
X157314658Y-93381834D01*
X157459968Y-93149924D01*
X157557243Y-92894121D01*
X157602744Y-92624256D01*
X157441873Y-92405200D01*
X156337000Y-92405200D01*
X156337000Y-92425200D01*
X156083000Y-92425200D01*
X156083000Y-92405200D01*
X156063000Y-92405200D01*
X156063000Y-92370721D01*
X163322000Y-92370721D01*
X163322000Y-92791279D01*
X163404047Y-93203756D01*
X163564988Y-93592302D01*
X163798637Y-93941983D01*
X164096017Y-94239363D01*
X164445698Y-94473012D01*
X164834244Y-94633953D01*
X165246721Y-94716000D01*
X165667279Y-94716000D01*
X166079756Y-94633953D01*
X166468302Y-94473012D01*
X166817983Y-94239363D01*
X167115363Y-93941983D01*
X167349012Y-93592302D01*
X167509953Y-93203756D01*
X167592000Y-92791279D01*
X167592000Y-92370721D01*
X167509953Y-91958244D01*
X167349012Y-91569698D01*
X167115363Y-91220017D01*
X166817983Y-90922637D01*
X166468302Y-90688988D01*
X166079756Y-90528047D01*
X165667279Y-90446000D01*
X165246721Y-90446000D01*
X164834244Y-90528047D01*
X164445698Y-90688988D01*
X164096017Y-90922637D01*
X163798637Y-91220017D01*
X163564988Y-91569698D01*
X163404047Y-91958244D01*
X163322000Y-92370721D01*
X156063000Y-92370721D01*
X156063000Y-92151200D01*
X156083000Y-92151200D01*
X156083000Y-90808544D01*
X156337000Y-90808544D01*
X156337000Y-92151200D01*
X157441873Y-92151200D01*
X157602744Y-91932144D01*
X157557243Y-91662279D01*
X157459968Y-91406476D01*
X157314658Y-91174566D01*
X157126897Y-90975460D01*
X156903900Y-90816810D01*
X156654236Y-90704713D01*
X156551185Y-90685882D01*
X156337000Y-90808544D01*
X156083000Y-90808544D01*
X155868815Y-90685882D01*
X155765764Y-90704713D01*
X155516100Y-90816810D01*
X155293103Y-90975460D01*
X155194000Y-91080551D01*
X155194000Y-88036000D01*
X172769705Y-88036000D01*
X172736463Y-88076506D01*
M02*
