G04 #@! TF.GenerationSoftware,KiCad,Pcbnew,(5.1.5)-3*
G04 #@! TF.CreationDate,2020-07-16T16:27:49-04:00*
G04 #@! TF.ProjectId,AIL_TSAL,41494c5f-5453-4414-9c2e-6b696361645f,rev?*
G04 #@! TF.SameCoordinates,Original*
G04 #@! TF.FileFunction,Profile,NP*
%FSLAX46Y46*%
G04 Gerber Fmt 4.6, Leading zero omitted, Abs format (unit mm)*
G04 Created by KiCad (PCBNEW (5.1.5)-3) date 2020-07-16 16:27:49*
%MOMM*%
%LPD*%
G04 APERTURE LIST*
%ADD10C,0.050000*%
G04 APERTURE END LIST*
D10*
X116484000Y-114935000D02*
G75*
G03X116484000Y-114935000I-1600000J0D01*
G01*
X172288000Y-114935000D02*
G75*
G03X172288000Y-114935000I-1600000J0D01*
G01*
X143967000Y-89535000D02*
G75*
G03X143967000Y-89535000I-1600000J0D01*
G01*
X78740000Y-115062000D02*
X78740000Y-116840000D01*
X186309000Y-105664000D02*
X186309000Y-116840000D01*
X186309000Y-99060000D02*
X186309000Y-105664000D01*
X186309000Y-91440000D02*
X186309000Y-99060000D01*
X186309000Y-87376000D02*
X186309000Y-91440000D01*
X166878000Y-116840000D02*
X186309000Y-116840000D01*
X154051000Y-116840000D02*
X166878000Y-116840000D01*
X142240000Y-116840000D02*
X154051000Y-116840000D01*
X120904000Y-116840000D02*
X142240000Y-116840000D01*
X103505000Y-116840000D02*
X120904000Y-116840000D01*
X94869000Y-116840000D02*
X103505000Y-116840000D01*
X90424000Y-116840000D02*
X94869000Y-116840000D01*
X82931000Y-116840000D02*
X90424000Y-116840000D01*
X78740000Y-116840000D02*
X82931000Y-116840000D01*
X78740000Y-113792000D02*
X78740000Y-115062000D01*
X78740000Y-108712000D02*
X78740000Y-113792000D01*
X78740000Y-87376000D02*
X78740000Y-108712000D01*
X92456000Y-87376000D02*
X78740000Y-87376000D01*
X106172000Y-87376000D02*
X92456000Y-87376000D01*
X135255000Y-87376000D02*
X106172000Y-87376000D01*
X140208000Y-87376000D02*
X135255000Y-87376000D01*
X146177000Y-87376000D02*
X140208000Y-87376000D01*
X159893000Y-87376000D02*
X146177000Y-87376000D01*
X186309000Y-87376000D02*
X159893000Y-87376000D01*
M02*
