G04 #@! TF.GenerationSoftware,KiCad,Pcbnew,(5.1.5)-3*
G04 #@! TF.CreationDate,2020-07-16T16:27:48-04:00*
G04 #@! TF.ProjectId,AIL_TSAL,41494c5f-5453-4414-9c2e-6b696361645f,rev?*
G04 #@! TF.SameCoordinates,Original*
G04 #@! TF.FileFunction,Legend,Top*
G04 #@! TF.FilePolarity,Positive*
%FSLAX46Y46*%
G04 Gerber Fmt 4.6, Leading zero omitted, Abs format (unit mm)*
G04 Created by KiCad (PCBNEW (5.1.5)-3) date 2020-07-16 16:27:48*
%MOMM*%
%LPD*%
G04 APERTURE LIST*
%ADD10C,0.150000*%
%ADD11C,0.120000*%
G04 APERTURE END LIST*
D10*
X164727047Y-99353666D02*
X165203238Y-99353666D01*
X164631809Y-99639380D02*
X164965142Y-98639380D01*
X165298476Y-99639380D01*
X165631809Y-99639380D02*
X165631809Y-98639380D01*
X166584190Y-99639380D02*
X166108000Y-99639380D01*
X166108000Y-98639380D01*
D11*
X164967000Y-97991000D02*
X166305233Y-97991000D01*
X170392000Y-97991000D02*
X167608767Y-97991000D01*
X160522000Y-97991000D02*
X162947000Y-97991000D01*
X170392000Y-88871000D02*
X170392000Y-97991000D01*
X169392000Y-87871000D02*
X170392000Y-88871000D01*
X161522000Y-87871000D02*
X169392000Y-87871000D01*
X160522000Y-88871000D02*
X161522000Y-87871000D01*
X160522000Y-97991000D02*
X160522000Y-88871000D01*
X106855000Y-114790000D02*
X97615000Y-114790000D01*
X106855000Y-87550000D02*
X97615000Y-87550000D01*
X97615000Y-87550000D02*
X97615000Y-114790000D01*
X106855000Y-87550000D02*
X106855000Y-114790000D01*
X134414000Y-87550000D02*
X134414000Y-114790000D01*
X125174000Y-87550000D02*
X125174000Y-114790000D01*
X134414000Y-87550000D02*
X125174000Y-87550000D01*
X134414000Y-114790000D02*
X125174000Y-114790000D01*
X156710000Y-108398000D02*
G75*
G03X156710000Y-108398000I-8120000J0D01*
G01*
X158167000Y-96603078D02*
X158167000Y-96085922D01*
X159587000Y-96603078D02*
X159587000Y-96085922D01*
X170994000Y-108961422D02*
X170994000Y-109478578D01*
X172414000Y-108961422D02*
X172414000Y-109478578D01*
X174827000Y-108120922D02*
X174827000Y-108638078D01*
X173407000Y-108120922D02*
X173407000Y-108638078D01*
X83323000Y-104138000D02*
X82993000Y-104138000D01*
X82993000Y-104138000D02*
X82993000Y-94998000D01*
X82993000Y-94998000D02*
X83323000Y-94998000D01*
X86603000Y-104138000D02*
X86933000Y-104138000D01*
X86933000Y-104138000D02*
X86933000Y-94998000D01*
X86933000Y-94998000D02*
X86603000Y-94998000D01*
X82993000Y-102683000D02*
X86933000Y-102683000D01*
X82993000Y-102563000D02*
X86933000Y-102563000D01*
X82993000Y-102803000D02*
X86933000Y-102803000D01*
X86808000Y-88200000D02*
X86808000Y-92140000D01*
X87048000Y-88200000D02*
X87048000Y-92140000D01*
X86928000Y-88200000D02*
X86928000Y-92140000D01*
X94613000Y-92140000D02*
X94613000Y-91810000D01*
X85473000Y-92140000D02*
X94613000Y-92140000D01*
X85473000Y-91810000D02*
X85473000Y-92140000D01*
X94613000Y-88200000D02*
X94613000Y-88530000D01*
X85473000Y-88200000D02*
X94613000Y-88200000D01*
X85473000Y-88530000D02*
X85473000Y-88200000D01*
X139181000Y-90680000D02*
X139511000Y-90680000D01*
X139511000Y-90680000D02*
X139511000Y-99820000D01*
X139511000Y-99820000D02*
X139181000Y-99820000D01*
X135901000Y-90680000D02*
X135571000Y-90680000D01*
X135571000Y-90680000D02*
X135571000Y-99820000D01*
X135571000Y-99820000D02*
X135901000Y-99820000D01*
X139511000Y-92135000D02*
X135571000Y-92135000D01*
X139511000Y-92255000D02*
X135571000Y-92255000D01*
X139511000Y-92015000D02*
X135571000Y-92015000D01*
X136631000Y-104993064D02*
X136631000Y-103788936D01*
X138451000Y-104993064D02*
X138451000Y-103788936D01*
X181483000Y-102088000D02*
X178033000Y-102088000D01*
X181483000Y-102088000D02*
X183433000Y-102088000D01*
X181483000Y-107208000D02*
X179533000Y-107208000D01*
X181483000Y-107208000D02*
X183433000Y-107208000D01*
X179324000Y-112796000D02*
X181274000Y-112796000D01*
X179324000Y-112796000D02*
X177374000Y-112796000D01*
X179324000Y-107676000D02*
X181274000Y-107676000D01*
X179324000Y-107676000D02*
X175874000Y-107676000D01*
X107631000Y-109026000D02*
X111571000Y-109026000D01*
X107631000Y-108786000D02*
X111571000Y-108786000D01*
X107631000Y-108906000D02*
X111571000Y-108906000D01*
X109601000Y-101081000D02*
X109601000Y-101221000D01*
X109601000Y-110501000D02*
X109601000Y-110361000D01*
X107631000Y-101221000D02*
X107631000Y-110361000D01*
X111571000Y-101221000D02*
X107631000Y-101221000D01*
X111571000Y-110361000D02*
X111571000Y-101221000D01*
X107631000Y-110361000D02*
X111571000Y-110361000D01*
X119823000Y-101471000D02*
X123763000Y-101471000D01*
X123763000Y-101471000D02*
X123763000Y-92331000D01*
X123763000Y-92331000D02*
X119823000Y-92331000D01*
X119823000Y-92331000D02*
X119823000Y-101471000D01*
X121793000Y-101611000D02*
X121793000Y-101471000D01*
X121793000Y-92191000D02*
X121793000Y-92331000D01*
X119823000Y-100016000D02*
X123763000Y-100016000D01*
X119823000Y-99896000D02*
X123763000Y-99896000D01*
X119823000Y-100136000D02*
X123763000Y-100136000D01*
X163174000Y-111730064D02*
X163174000Y-110525936D01*
X164994000Y-111730064D02*
X164994000Y-110525936D01*
X164994000Y-107025064D02*
X164994000Y-105820936D01*
X163174000Y-107025064D02*
X163174000Y-105820936D01*
X161387064Y-102510000D02*
X160182936Y-102510000D01*
X161387064Y-100690000D02*
X160182936Y-100690000D01*
X171860936Y-99801000D02*
X173065064Y-99801000D01*
X171860936Y-101621000D02*
X173065064Y-101621000D01*
X173207000Y-103667936D02*
X173207000Y-104872064D01*
X175027000Y-103667936D02*
X175027000Y-104872064D01*
X175620000Y-104872064D02*
X175620000Y-103667936D01*
X177440000Y-104872064D02*
X177440000Y-103667936D01*
X183621000Y-110014936D02*
X183621000Y-111219064D01*
X185441000Y-110014936D02*
X185441000Y-111219064D01*
X110941000Y-95636000D02*
X109841000Y-95636000D01*
X110941000Y-95906000D02*
X110941000Y-95636000D01*
X112441000Y-95906000D02*
X110941000Y-95906000D01*
X110941000Y-89276000D02*
X108111000Y-89276000D01*
X110941000Y-89006000D02*
X110941000Y-89276000D01*
X112441000Y-89006000D02*
X110941000Y-89006000D01*
X147290000Y-99438200D02*
X147290000Y-87638200D01*
X147090000Y-88738200D02*
X147090000Y-87438200D01*
X157490000Y-99438200D02*
X147290000Y-99438200D01*
X148390000Y-87438200D02*
X147090000Y-87438200D01*
X157490000Y-87638200D02*
X157490000Y-99438200D01*
X147290000Y-87638200D02*
X157490000Y-87638200D01*
X157460000Y-109093000D02*
X157460000Y-111043000D01*
X157460000Y-109093000D02*
X157460000Y-107143000D01*
X162580000Y-109093000D02*
X162580000Y-111043000D01*
X162580000Y-109093000D02*
X162580000Y-105643000D01*
X169164000Y-107208000D02*
X171114000Y-107208000D01*
X169164000Y-107208000D02*
X167214000Y-107208000D01*
X169164000Y-102088000D02*
X171114000Y-102088000D01*
X169164000Y-102088000D02*
X165714000Y-102088000D01*
D10*
X165123666Y-86233380D02*
X165123666Y-86947666D01*
X165076047Y-87090523D01*
X164980809Y-87185761D01*
X164837952Y-87233380D01*
X164742714Y-87233380D01*
X165504619Y-86233380D02*
X166123666Y-86233380D01*
X165790333Y-86614333D01*
X165933190Y-86614333D01*
X166028428Y-86661952D01*
X166076047Y-86709571D01*
X166123666Y-86804809D01*
X166123666Y-87042904D01*
X166076047Y-87138142D01*
X166028428Y-87185761D01*
X165933190Y-87233380D01*
X165647476Y-87233380D01*
X165552238Y-87185761D01*
X165504619Y-87138142D01*
X108342142Y-101336666D02*
X108389761Y-101384285D01*
X108437380Y-101527142D01*
X108437380Y-101622380D01*
X108389761Y-101765238D01*
X108294523Y-101860476D01*
X108199285Y-101908095D01*
X108008809Y-101955714D01*
X107865952Y-101955714D01*
X107675476Y-101908095D01*
X107580238Y-101860476D01*
X107485000Y-101765238D01*
X107437380Y-101622380D01*
X107437380Y-101527142D01*
X107485000Y-101384285D01*
X107532619Y-101336666D01*
X108437380Y-100384285D02*
X108437380Y-100955714D01*
X108437380Y-100670000D02*
X107437380Y-100670000D01*
X107580238Y-100765238D01*
X107675476Y-100860476D01*
X107723095Y-100955714D01*
X135901142Y-101336666D02*
X135948761Y-101384285D01*
X135996380Y-101527142D01*
X135996380Y-101622380D01*
X135948761Y-101765238D01*
X135853523Y-101860476D01*
X135758285Y-101908095D01*
X135567809Y-101955714D01*
X135424952Y-101955714D01*
X135234476Y-101908095D01*
X135139238Y-101860476D01*
X135044000Y-101765238D01*
X134996380Y-101622380D01*
X134996380Y-101527142D01*
X135044000Y-101384285D01*
X135091619Y-101336666D01*
X135091619Y-100955714D02*
X135044000Y-100908095D01*
X134996380Y-100812857D01*
X134996380Y-100574761D01*
X135044000Y-100479523D01*
X135091619Y-100431904D01*
X135186857Y-100384285D01*
X135282095Y-100384285D01*
X135424952Y-100431904D01*
X135996380Y-101003333D01*
X135996380Y-100384285D01*
X158197142Y-108564666D02*
X158244761Y-108612285D01*
X158292380Y-108755142D01*
X158292380Y-108850380D01*
X158244761Y-108993238D01*
X158149523Y-109088476D01*
X158054285Y-109136095D01*
X157863809Y-109183714D01*
X157720952Y-109183714D01*
X157530476Y-109136095D01*
X157435238Y-109088476D01*
X157340000Y-108993238D01*
X157292380Y-108850380D01*
X157292380Y-108755142D01*
X157340000Y-108612285D01*
X157387619Y-108564666D01*
X157292380Y-108231333D02*
X157292380Y-107612285D01*
X157673333Y-107945619D01*
X157673333Y-107802761D01*
X157720952Y-107707523D01*
X157768571Y-107659904D01*
X157863809Y-107612285D01*
X158101904Y-107612285D01*
X158197142Y-107659904D01*
X158244761Y-107707523D01*
X158292380Y-107802761D01*
X158292380Y-108088476D01*
X158244761Y-108183714D01*
X158197142Y-108231333D01*
X157584142Y-96511166D02*
X157631761Y-96558785D01*
X157679380Y-96701642D01*
X157679380Y-96796880D01*
X157631761Y-96939738D01*
X157536523Y-97034976D01*
X157441285Y-97082595D01*
X157250809Y-97130214D01*
X157107952Y-97130214D01*
X156917476Y-97082595D01*
X156822238Y-97034976D01*
X156727000Y-96939738D01*
X156679380Y-96796880D01*
X156679380Y-96701642D01*
X156727000Y-96558785D01*
X156774619Y-96511166D01*
X157012714Y-95654023D02*
X157679380Y-95654023D01*
X156631761Y-95892119D02*
X157346047Y-96130214D01*
X157346047Y-95511166D01*
X173711142Y-109386666D02*
X173758761Y-109434285D01*
X173806380Y-109577142D01*
X173806380Y-109672380D01*
X173758761Y-109815238D01*
X173663523Y-109910476D01*
X173568285Y-109958095D01*
X173377809Y-110005714D01*
X173234952Y-110005714D01*
X173044476Y-109958095D01*
X172949238Y-109910476D01*
X172854000Y-109815238D01*
X172806380Y-109672380D01*
X172806380Y-109577142D01*
X172854000Y-109434285D01*
X172901619Y-109386666D01*
X172806380Y-108481904D02*
X172806380Y-108958095D01*
X173282571Y-109005714D01*
X173234952Y-108958095D01*
X173187333Y-108862857D01*
X173187333Y-108624761D01*
X173234952Y-108529523D01*
X173282571Y-108481904D01*
X173377809Y-108434285D01*
X173615904Y-108434285D01*
X173711142Y-108481904D01*
X173758761Y-108529523D01*
X173806380Y-108624761D01*
X173806380Y-108862857D01*
X173758761Y-108958095D01*
X173711142Y-109005714D01*
X176124142Y-108546166D02*
X176171761Y-108593785D01*
X176219380Y-108736642D01*
X176219380Y-108831880D01*
X176171761Y-108974738D01*
X176076523Y-109069976D01*
X175981285Y-109117595D01*
X175790809Y-109165214D01*
X175647952Y-109165214D01*
X175457476Y-109117595D01*
X175362238Y-109069976D01*
X175267000Y-108974738D01*
X175219380Y-108831880D01*
X175219380Y-108736642D01*
X175267000Y-108593785D01*
X175314619Y-108546166D01*
X175219380Y-107689023D02*
X175219380Y-107879500D01*
X175267000Y-107974738D01*
X175314619Y-108022357D01*
X175457476Y-108117595D01*
X175647952Y-108165214D01*
X176028904Y-108165214D01*
X176124142Y-108117595D01*
X176171761Y-108069976D01*
X176219380Y-107974738D01*
X176219380Y-107784261D01*
X176171761Y-107689023D01*
X176124142Y-107641404D01*
X176028904Y-107593785D01*
X175790809Y-107593785D01*
X175695571Y-107641404D01*
X175647952Y-107689023D01*
X175600333Y-107784261D01*
X175600333Y-107974738D01*
X175647952Y-108069976D01*
X175695571Y-108117595D01*
X175790809Y-108165214D01*
X82445380Y-100306095D02*
X81445380Y-100306095D01*
X81445380Y-100068000D01*
X81493000Y-99925142D01*
X81588238Y-99829904D01*
X81683476Y-99782285D01*
X81873952Y-99734666D01*
X82016809Y-99734666D01*
X82207285Y-99782285D01*
X82302523Y-99829904D01*
X82397761Y-99925142D01*
X82445380Y-100068000D01*
X82445380Y-100306095D01*
X82445380Y-98782285D02*
X82445380Y-99353714D01*
X82445380Y-99068000D02*
X81445380Y-99068000D01*
X81588238Y-99163238D01*
X81683476Y-99258476D01*
X81731095Y-99353714D01*
X83015380Y-104909904D02*
X82015380Y-104909904D01*
X83015380Y-104338476D02*
X82443952Y-104767047D01*
X82015380Y-104338476D02*
X82586809Y-104909904D01*
X89304904Y-87652380D02*
X89304904Y-86652380D01*
X89543000Y-86652380D01*
X89685857Y-86700000D01*
X89781095Y-86795238D01*
X89828714Y-86890476D01*
X89876333Y-87080952D01*
X89876333Y-87223809D01*
X89828714Y-87414285D01*
X89781095Y-87509523D01*
X89685857Y-87604761D01*
X89543000Y-87652380D01*
X89304904Y-87652380D01*
X90257285Y-86747619D02*
X90304904Y-86700000D01*
X90400142Y-86652380D01*
X90638238Y-86652380D01*
X90733476Y-86700000D01*
X90781095Y-86747619D01*
X90828714Y-86842857D01*
X90828714Y-86938095D01*
X90781095Y-87080952D01*
X90209666Y-87652380D01*
X90828714Y-87652380D01*
X84701095Y-88222380D02*
X84701095Y-87222380D01*
X85272523Y-88222380D02*
X84843952Y-87650952D01*
X85272523Y-87222380D02*
X84701095Y-87793809D01*
X140963380Y-95988095D02*
X139963380Y-95988095D01*
X139963380Y-95750000D01*
X140011000Y-95607142D01*
X140106238Y-95511904D01*
X140201476Y-95464285D01*
X140391952Y-95416666D01*
X140534809Y-95416666D01*
X140725285Y-95464285D01*
X140820523Y-95511904D01*
X140915761Y-95607142D01*
X140963380Y-95750000D01*
X140963380Y-95988095D01*
X139963380Y-95083333D02*
X139963380Y-94464285D01*
X140344333Y-94797619D01*
X140344333Y-94654761D01*
X140391952Y-94559523D01*
X140439571Y-94511904D01*
X140534809Y-94464285D01*
X140772904Y-94464285D01*
X140868142Y-94511904D01*
X140915761Y-94559523D01*
X140963380Y-94654761D01*
X140963380Y-94940476D01*
X140915761Y-95035714D01*
X140868142Y-95083333D01*
X140393380Y-90431904D02*
X139393380Y-90431904D01*
X140393380Y-89860476D02*
X139821952Y-90289047D01*
X139393380Y-89860476D02*
X139964809Y-90431904D01*
X135649571Y-104724333D02*
X135649571Y-105057666D01*
X136173380Y-105057666D02*
X135173380Y-105057666D01*
X135173380Y-104581476D01*
X136173380Y-103676714D02*
X136173380Y-104248142D01*
X136173380Y-103962428D02*
X135173380Y-103962428D01*
X135316238Y-104057666D01*
X135411476Y-104152904D01*
X135459095Y-104248142D01*
X181387761Y-101795619D02*
X181292523Y-101748000D01*
X181197285Y-101652761D01*
X181054428Y-101509904D01*
X180959190Y-101462285D01*
X180863952Y-101462285D01*
X180911571Y-101700380D02*
X180816333Y-101652761D01*
X180721095Y-101557523D01*
X180673476Y-101367047D01*
X180673476Y-101033714D01*
X180721095Y-100843238D01*
X180816333Y-100748000D01*
X180911571Y-100700380D01*
X181102047Y-100700380D01*
X181197285Y-100748000D01*
X181292523Y-100843238D01*
X181340142Y-101033714D01*
X181340142Y-101367047D01*
X181292523Y-101557523D01*
X181197285Y-101652761D01*
X181102047Y-101700380D01*
X180911571Y-101700380D01*
X182292523Y-101700380D02*
X181721095Y-101700380D01*
X182006809Y-101700380D02*
X182006809Y-100700380D01*
X181911571Y-100843238D01*
X181816333Y-100938476D01*
X181721095Y-100986095D01*
X179228761Y-107383619D02*
X179133523Y-107336000D01*
X179038285Y-107240761D01*
X178895428Y-107097904D01*
X178800190Y-107050285D01*
X178704952Y-107050285D01*
X178752571Y-107288380D02*
X178657333Y-107240761D01*
X178562095Y-107145523D01*
X178514476Y-106955047D01*
X178514476Y-106621714D01*
X178562095Y-106431238D01*
X178657333Y-106336000D01*
X178752571Y-106288380D01*
X178943047Y-106288380D01*
X179038285Y-106336000D01*
X179133523Y-106431238D01*
X179181142Y-106621714D01*
X179181142Y-106955047D01*
X179133523Y-107145523D01*
X179038285Y-107240761D01*
X178943047Y-107288380D01*
X178752571Y-107288380D01*
X179562095Y-106383619D02*
X179609714Y-106336000D01*
X179704952Y-106288380D01*
X179943047Y-106288380D01*
X180038285Y-106336000D01*
X180085904Y-106383619D01*
X180133523Y-106478857D01*
X180133523Y-106574095D01*
X180085904Y-106716952D01*
X179514476Y-107288380D01*
X180133523Y-107288380D01*
X107083380Y-105957666D02*
X106607190Y-106291000D01*
X107083380Y-106529095D02*
X106083380Y-106529095D01*
X106083380Y-106148142D01*
X106131000Y-106052904D01*
X106178619Y-106005285D01*
X106273857Y-105957666D01*
X106416714Y-105957666D01*
X106511952Y-106005285D01*
X106559571Y-106052904D01*
X106607190Y-106148142D01*
X106607190Y-106529095D01*
X107083380Y-105005285D02*
X107083380Y-105576714D01*
X107083380Y-105291000D02*
X106083380Y-105291000D01*
X106226238Y-105386238D01*
X106321476Y-105481476D01*
X106369095Y-105576714D01*
X107653380Y-112402904D02*
X106653380Y-112402904D01*
X107653380Y-111831476D02*
X107081952Y-112260047D01*
X106653380Y-111831476D02*
X107224809Y-112402904D01*
X119275380Y-97067666D02*
X118799190Y-97401000D01*
X119275380Y-97639095D02*
X118275380Y-97639095D01*
X118275380Y-97258142D01*
X118323000Y-97162904D01*
X118370619Y-97115285D01*
X118465857Y-97067666D01*
X118608714Y-97067666D01*
X118703952Y-97115285D01*
X118751571Y-97162904D01*
X118799190Y-97258142D01*
X118799190Y-97639095D01*
X118370619Y-96686714D02*
X118323000Y-96639095D01*
X118275380Y-96543857D01*
X118275380Y-96305761D01*
X118323000Y-96210523D01*
X118370619Y-96162904D01*
X118465857Y-96115285D01*
X118561095Y-96115285D01*
X118703952Y-96162904D01*
X119275380Y-96734333D01*
X119275380Y-96115285D01*
X119845380Y-103512904D02*
X118845380Y-103512904D01*
X119845380Y-102941476D02*
X119273952Y-103370047D01*
X118845380Y-102941476D02*
X119416809Y-103512904D01*
X162716380Y-111294666D02*
X162240190Y-111628000D01*
X162716380Y-111866095D02*
X161716380Y-111866095D01*
X161716380Y-111485142D01*
X161764000Y-111389904D01*
X161811619Y-111342285D01*
X161906857Y-111294666D01*
X162049714Y-111294666D01*
X162144952Y-111342285D01*
X162192571Y-111389904D01*
X162240190Y-111485142D01*
X162240190Y-111866095D01*
X161716380Y-110961333D02*
X161716380Y-110342285D01*
X162097333Y-110675619D01*
X162097333Y-110532761D01*
X162144952Y-110437523D01*
X162192571Y-110389904D01*
X162287809Y-110342285D01*
X162525904Y-110342285D01*
X162621142Y-110389904D01*
X162668761Y-110437523D01*
X162716380Y-110532761D01*
X162716380Y-110818476D01*
X162668761Y-110913714D01*
X162621142Y-110961333D01*
X162716380Y-106589666D02*
X162240190Y-106923000D01*
X162716380Y-107161095D02*
X161716380Y-107161095D01*
X161716380Y-106780142D01*
X161764000Y-106684904D01*
X161811619Y-106637285D01*
X161906857Y-106589666D01*
X162049714Y-106589666D01*
X162144952Y-106637285D01*
X162192571Y-106684904D01*
X162240190Y-106780142D01*
X162240190Y-107161095D01*
X162049714Y-105732523D02*
X162716380Y-105732523D01*
X161668761Y-105970619D02*
X162383047Y-106208714D01*
X162383047Y-105589666D01*
X160618333Y-103872380D02*
X160285000Y-103396190D01*
X160046904Y-103872380D02*
X160046904Y-102872380D01*
X160427857Y-102872380D01*
X160523095Y-102920000D01*
X160570714Y-102967619D01*
X160618333Y-103062857D01*
X160618333Y-103205714D01*
X160570714Y-103300952D01*
X160523095Y-103348571D01*
X160427857Y-103396190D01*
X160046904Y-103396190D01*
X161523095Y-102872380D02*
X161046904Y-102872380D01*
X160999285Y-103348571D01*
X161046904Y-103300952D01*
X161142142Y-103253333D01*
X161380238Y-103253333D01*
X161475476Y-103300952D01*
X161523095Y-103348571D01*
X161570714Y-103443809D01*
X161570714Y-103681904D01*
X161523095Y-103777142D01*
X161475476Y-103824761D01*
X161380238Y-103872380D01*
X161142142Y-103872380D01*
X161046904Y-103824761D01*
X160999285Y-103777142D01*
X172296333Y-99343380D02*
X171963000Y-98867190D01*
X171724904Y-99343380D02*
X171724904Y-98343380D01*
X172105857Y-98343380D01*
X172201095Y-98391000D01*
X172248714Y-98438619D01*
X172296333Y-98533857D01*
X172296333Y-98676714D01*
X172248714Y-98771952D01*
X172201095Y-98819571D01*
X172105857Y-98867190D01*
X171724904Y-98867190D01*
X173153476Y-98343380D02*
X172963000Y-98343380D01*
X172867761Y-98391000D01*
X172820142Y-98438619D01*
X172724904Y-98581476D01*
X172677285Y-98771952D01*
X172677285Y-99152904D01*
X172724904Y-99248142D01*
X172772523Y-99295761D01*
X172867761Y-99343380D01*
X173058238Y-99343380D01*
X173153476Y-99295761D01*
X173201095Y-99248142D01*
X173248714Y-99152904D01*
X173248714Y-98914809D01*
X173201095Y-98819571D01*
X173153476Y-98771952D01*
X173058238Y-98724333D01*
X172867761Y-98724333D01*
X172772523Y-98771952D01*
X172724904Y-98819571D01*
X172677285Y-98914809D01*
X176389380Y-104436666D02*
X175913190Y-104770000D01*
X176389380Y-105008095D02*
X175389380Y-105008095D01*
X175389380Y-104627142D01*
X175437000Y-104531904D01*
X175484619Y-104484285D01*
X175579857Y-104436666D01*
X175722714Y-104436666D01*
X175817952Y-104484285D01*
X175865571Y-104531904D01*
X175913190Y-104627142D01*
X175913190Y-105008095D01*
X175389380Y-104103333D02*
X175389380Y-103436666D01*
X176389380Y-103865238D01*
X175162380Y-104436666D02*
X174686190Y-104770000D01*
X175162380Y-105008095D02*
X174162380Y-105008095D01*
X174162380Y-104627142D01*
X174210000Y-104531904D01*
X174257619Y-104484285D01*
X174352857Y-104436666D01*
X174495714Y-104436666D01*
X174590952Y-104484285D01*
X174638571Y-104531904D01*
X174686190Y-104627142D01*
X174686190Y-105008095D01*
X174590952Y-103865238D02*
X174543333Y-103960476D01*
X174495714Y-104008095D01*
X174400476Y-104055714D01*
X174352857Y-104055714D01*
X174257619Y-104008095D01*
X174210000Y-103960476D01*
X174162380Y-103865238D01*
X174162380Y-103674761D01*
X174210000Y-103579523D01*
X174257619Y-103531904D01*
X174352857Y-103484285D01*
X174400476Y-103484285D01*
X174495714Y-103531904D01*
X174543333Y-103579523D01*
X174590952Y-103674761D01*
X174590952Y-103865238D01*
X174638571Y-103960476D01*
X174686190Y-104008095D01*
X174781428Y-104055714D01*
X174971904Y-104055714D01*
X175067142Y-104008095D01*
X175114761Y-103960476D01*
X175162380Y-103865238D01*
X175162380Y-103674761D01*
X175114761Y-103579523D01*
X175067142Y-103531904D01*
X174971904Y-103484285D01*
X174781428Y-103484285D01*
X174686190Y-103531904D01*
X174638571Y-103579523D01*
X174590952Y-103674761D01*
X186803380Y-110783666D02*
X186327190Y-111117000D01*
X186803380Y-111355095D02*
X185803380Y-111355095D01*
X185803380Y-110974142D01*
X185851000Y-110878904D01*
X185898619Y-110831285D01*
X185993857Y-110783666D01*
X186136714Y-110783666D01*
X186231952Y-110831285D01*
X186279571Y-110878904D01*
X186327190Y-110974142D01*
X186327190Y-111355095D01*
X186803380Y-110307476D02*
X186803380Y-110117000D01*
X186755761Y-110021761D01*
X186708142Y-109974142D01*
X186565285Y-109878904D01*
X186374809Y-109831285D01*
X185993857Y-109831285D01*
X185898619Y-109878904D01*
X185851000Y-109926523D01*
X185803380Y-110021761D01*
X185803380Y-110212238D01*
X185851000Y-110307476D01*
X185898619Y-110355095D01*
X185993857Y-110402714D01*
X186231952Y-110402714D01*
X186327190Y-110355095D01*
X186374809Y-110307476D01*
X186422428Y-110212238D01*
X186422428Y-110021761D01*
X186374809Y-109926523D01*
X186327190Y-109878904D01*
X186231952Y-109831285D01*
X112649095Y-87408380D02*
X112649095Y-88217904D01*
X112696714Y-88313142D01*
X112744333Y-88360761D01*
X112839571Y-88408380D01*
X113030047Y-88408380D01*
X113125285Y-88360761D01*
X113172904Y-88313142D01*
X113220523Y-88217904D01*
X113220523Y-87408380D01*
X114220523Y-88408380D02*
X113649095Y-88408380D01*
X113934809Y-88408380D02*
X113934809Y-87408380D01*
X113839571Y-87551238D01*
X113744333Y-87646476D01*
X113649095Y-87694095D01*
X152247695Y-86244180D02*
X152247695Y-87053704D01*
X152295314Y-87148942D01*
X152342933Y-87196561D01*
X152438171Y-87244180D01*
X152628647Y-87244180D01*
X152723885Y-87196561D01*
X152771504Y-87148942D01*
X152819123Y-87053704D01*
X152819123Y-86244180D01*
X153247695Y-86339419D02*
X153295314Y-86291800D01*
X153390552Y-86244180D01*
X153628647Y-86244180D01*
X153723885Y-86291800D01*
X153771504Y-86339419D01*
X153819123Y-86434657D01*
X153819123Y-86529895D01*
X153771504Y-86672752D01*
X153200076Y-87244180D01*
X153819123Y-87244180D01*
X162872380Y-109854904D02*
X163681904Y-109854904D01*
X163777142Y-109807285D01*
X163824761Y-109759666D01*
X163872380Y-109664428D01*
X163872380Y-109473952D01*
X163824761Y-109378714D01*
X163777142Y-109331095D01*
X163681904Y-109283476D01*
X162872380Y-109283476D01*
X162872380Y-108902523D02*
X162872380Y-108283476D01*
X163253333Y-108616809D01*
X163253333Y-108473952D01*
X163300952Y-108378714D01*
X163348571Y-108331095D01*
X163443809Y-108283476D01*
X163681904Y-108283476D01*
X163777142Y-108331095D01*
X163824761Y-108378714D01*
X163872380Y-108473952D01*
X163872380Y-108759666D01*
X163824761Y-108854904D01*
X163777142Y-108902523D01*
X168402095Y-100700380D02*
X168402095Y-101509904D01*
X168449714Y-101605142D01*
X168497333Y-101652761D01*
X168592571Y-101700380D01*
X168783047Y-101700380D01*
X168878285Y-101652761D01*
X168925904Y-101605142D01*
X168973523Y-101509904D01*
X168973523Y-100700380D01*
X169878285Y-101033714D02*
X169878285Y-101700380D01*
X169640190Y-100652761D02*
X169402095Y-101367047D01*
X170021142Y-101367047D01*
M02*
