G04 #@! TF.GenerationSoftware,KiCad,Pcbnew,(5.1.5)-3*
G04 #@! TF.CreationDate,2020-07-06T01:22:06-04:00*
G04 #@! TF.ProjectId,Master_slave Connector,4d617374-6572-45f7-936c-61766520436f,rev?*
G04 #@! TF.SameCoordinates,Original*
G04 #@! TF.FileFunction,Soldermask,Top*
G04 #@! TF.FilePolarity,Negative*
%FSLAX46Y46*%
G04 Gerber Fmt 4.6, Leading zero omitted, Abs format (unit mm)*
G04 Created by KiCad (PCBNEW (5.1.5)-3) date 2020-07-06 01:22:06*
%MOMM*%
%LPD*%
G04 APERTURE LIST*
%ADD10C,0.100000*%
G04 APERTURE END LIST*
D10*
G36*
X211354724Y-109386497D02*
G01*
X211581906Y-109431686D01*
X211831412Y-109535035D01*
X212055962Y-109685075D01*
X212246925Y-109876038D01*
X212396965Y-110100588D01*
X212500314Y-110350094D01*
X212553000Y-110614968D01*
X212553000Y-110885032D01*
X212500314Y-111149906D01*
X212396965Y-111399412D01*
X212246925Y-111623962D01*
X212055962Y-111814925D01*
X211831412Y-111964965D01*
X211581906Y-112068314D01*
X211354724Y-112113503D01*
X211317033Y-112121000D01*
X211046967Y-112121000D01*
X211009276Y-112113503D01*
X210782094Y-112068314D01*
X210532588Y-111964965D01*
X210308038Y-111814925D01*
X210117075Y-111623962D01*
X209967035Y-111399412D01*
X209863686Y-111149906D01*
X209811000Y-110885032D01*
X209811000Y-110614968D01*
X209863686Y-110350094D01*
X209967035Y-110100588D01*
X210117075Y-109876038D01*
X210308038Y-109685075D01*
X210532588Y-109535035D01*
X210782094Y-109431686D01*
X211009276Y-109386497D01*
X211046967Y-109379000D01*
X211317033Y-109379000D01*
X211354724Y-109386497D01*
G37*
G36*
X207214724Y-109386497D02*
G01*
X207441906Y-109431686D01*
X207691412Y-109535035D01*
X207915962Y-109685075D01*
X208106925Y-109876038D01*
X208256965Y-110100588D01*
X208360314Y-110350094D01*
X208413000Y-110614968D01*
X208413000Y-110885032D01*
X208360314Y-111149906D01*
X208256965Y-111399412D01*
X208106925Y-111623962D01*
X207915962Y-111814925D01*
X207691412Y-111964965D01*
X207441906Y-112068314D01*
X207214724Y-112113503D01*
X207177033Y-112121000D01*
X206906967Y-112121000D01*
X206869276Y-112113503D01*
X206642094Y-112068314D01*
X206392588Y-111964965D01*
X206168038Y-111814925D01*
X205977075Y-111623962D01*
X205827035Y-111399412D01*
X205723686Y-111149906D01*
X205671000Y-110885032D01*
X205671000Y-110614968D01*
X205723686Y-110350094D01*
X205827035Y-110100588D01*
X205977075Y-109876038D01*
X206168038Y-109685075D01*
X206392588Y-109535035D01*
X206642094Y-109431686D01*
X206869276Y-109386497D01*
X206906967Y-109379000D01*
X207177033Y-109379000D01*
X207214724Y-109386497D01*
G37*
G36*
X187214724Y-109386497D02*
G01*
X187441906Y-109431686D01*
X187691412Y-109535035D01*
X187915962Y-109685075D01*
X188106925Y-109876038D01*
X188256965Y-110100588D01*
X188360314Y-110350094D01*
X188413000Y-110614968D01*
X188413000Y-110885032D01*
X188360314Y-111149906D01*
X188256965Y-111399412D01*
X188106925Y-111623962D01*
X187915962Y-111814925D01*
X187691412Y-111964965D01*
X187441906Y-112068314D01*
X187214724Y-112113503D01*
X187177033Y-112121000D01*
X186906967Y-112121000D01*
X186869276Y-112113503D01*
X186642094Y-112068314D01*
X186392588Y-111964965D01*
X186168038Y-111814925D01*
X185977075Y-111623962D01*
X185827035Y-111399412D01*
X185723686Y-111149906D01*
X185671000Y-110885032D01*
X185671000Y-110614968D01*
X185723686Y-110350094D01*
X185827035Y-110100588D01*
X185977075Y-109876038D01*
X186168038Y-109685075D01*
X186392588Y-109535035D01*
X186642094Y-109431686D01*
X186869276Y-109386497D01*
X186906967Y-109379000D01*
X187177033Y-109379000D01*
X187214724Y-109386497D01*
G37*
G36*
X191354724Y-109386497D02*
G01*
X191581906Y-109431686D01*
X191831412Y-109535035D01*
X192055962Y-109685075D01*
X192246925Y-109876038D01*
X192396965Y-110100588D01*
X192500314Y-110350094D01*
X192553000Y-110614968D01*
X192553000Y-110885032D01*
X192500314Y-111149906D01*
X192396965Y-111399412D01*
X192246925Y-111623962D01*
X192055962Y-111814925D01*
X191831412Y-111964965D01*
X191581906Y-112068314D01*
X191354724Y-112113503D01*
X191317033Y-112121000D01*
X191046967Y-112121000D01*
X191009276Y-112113503D01*
X190782094Y-112068314D01*
X190532588Y-111964965D01*
X190308038Y-111814925D01*
X190117075Y-111623962D01*
X189967035Y-111399412D01*
X189863686Y-111149906D01*
X189811000Y-110885032D01*
X189811000Y-110614968D01*
X189863686Y-110350094D01*
X189967035Y-110100588D01*
X190117075Y-109876038D01*
X190308038Y-109685075D01*
X190532588Y-109535035D01*
X190782094Y-109431686D01*
X191009276Y-109386497D01*
X191046967Y-109379000D01*
X191317033Y-109379000D01*
X191354724Y-109386497D01*
G37*
G36*
X171354724Y-109386497D02*
G01*
X171581906Y-109431686D01*
X171831412Y-109535035D01*
X172055962Y-109685075D01*
X172246925Y-109876038D01*
X172396965Y-110100588D01*
X172500314Y-110350094D01*
X172553000Y-110614968D01*
X172553000Y-110885032D01*
X172500314Y-111149906D01*
X172396965Y-111399412D01*
X172246925Y-111623962D01*
X172055962Y-111814925D01*
X171831412Y-111964965D01*
X171581906Y-112068314D01*
X171354724Y-112113503D01*
X171317033Y-112121000D01*
X171046967Y-112121000D01*
X171009276Y-112113503D01*
X170782094Y-112068314D01*
X170532588Y-111964965D01*
X170308038Y-111814925D01*
X170117075Y-111623962D01*
X169967035Y-111399412D01*
X169863686Y-111149906D01*
X169811000Y-110885032D01*
X169811000Y-110614968D01*
X169863686Y-110350094D01*
X169967035Y-110100588D01*
X170117075Y-109876038D01*
X170308038Y-109685075D01*
X170532588Y-109535035D01*
X170782094Y-109431686D01*
X171009276Y-109386497D01*
X171046967Y-109379000D01*
X171317033Y-109379000D01*
X171354724Y-109386497D01*
G37*
G36*
X167214724Y-109386497D02*
G01*
X167441906Y-109431686D01*
X167691412Y-109535035D01*
X167915962Y-109685075D01*
X168106925Y-109876038D01*
X168256965Y-110100588D01*
X168360314Y-110350094D01*
X168413000Y-110614968D01*
X168413000Y-110885032D01*
X168360314Y-111149906D01*
X168256965Y-111399412D01*
X168106925Y-111623962D01*
X167915962Y-111814925D01*
X167691412Y-111964965D01*
X167441906Y-112068314D01*
X167214724Y-112113503D01*
X167177033Y-112121000D01*
X166906967Y-112121000D01*
X166869276Y-112113503D01*
X166642094Y-112068314D01*
X166392588Y-111964965D01*
X166168038Y-111814925D01*
X165977075Y-111623962D01*
X165827035Y-111399412D01*
X165723686Y-111149906D01*
X165671000Y-110885032D01*
X165671000Y-110614968D01*
X165723686Y-110350094D01*
X165827035Y-110100588D01*
X165977075Y-109876038D01*
X166168038Y-109685075D01*
X166392588Y-109535035D01*
X166642094Y-109431686D01*
X166869276Y-109386497D01*
X166906967Y-109379000D01*
X167177033Y-109379000D01*
X167214724Y-109386497D01*
G37*
G36*
X147214724Y-109386497D02*
G01*
X147441906Y-109431686D01*
X147691412Y-109535035D01*
X147915962Y-109685075D01*
X148106925Y-109876038D01*
X148256965Y-110100588D01*
X148360314Y-110350094D01*
X148413000Y-110614968D01*
X148413000Y-110885032D01*
X148360314Y-111149906D01*
X148256965Y-111399412D01*
X148106925Y-111623962D01*
X147915962Y-111814925D01*
X147691412Y-111964965D01*
X147441906Y-112068314D01*
X147214724Y-112113503D01*
X147177033Y-112121000D01*
X146906967Y-112121000D01*
X146869276Y-112113503D01*
X146642094Y-112068314D01*
X146392588Y-111964965D01*
X146168038Y-111814925D01*
X145977075Y-111623962D01*
X145827035Y-111399412D01*
X145723686Y-111149906D01*
X145671000Y-110885032D01*
X145671000Y-110614968D01*
X145723686Y-110350094D01*
X145827035Y-110100588D01*
X145977075Y-109876038D01*
X146168038Y-109685075D01*
X146392588Y-109535035D01*
X146642094Y-109431686D01*
X146869276Y-109386497D01*
X146906967Y-109379000D01*
X147177033Y-109379000D01*
X147214724Y-109386497D01*
G37*
G36*
X151354724Y-109386497D02*
G01*
X151581906Y-109431686D01*
X151831412Y-109535035D01*
X152055962Y-109685075D01*
X152246925Y-109876038D01*
X152396965Y-110100588D01*
X152500314Y-110350094D01*
X152553000Y-110614968D01*
X152553000Y-110885032D01*
X152500314Y-111149906D01*
X152396965Y-111399412D01*
X152246925Y-111623962D01*
X152055962Y-111814925D01*
X151831412Y-111964965D01*
X151581906Y-112068314D01*
X151354724Y-112113503D01*
X151317033Y-112121000D01*
X151046967Y-112121000D01*
X151009276Y-112113503D01*
X150782094Y-112068314D01*
X150532588Y-111964965D01*
X150308038Y-111814925D01*
X150117075Y-111623962D01*
X149967035Y-111399412D01*
X149863686Y-111149906D01*
X149811000Y-110885032D01*
X149811000Y-110614968D01*
X149863686Y-110350094D01*
X149967035Y-110100588D01*
X150117075Y-109876038D01*
X150308038Y-109685075D01*
X150532588Y-109535035D01*
X150782094Y-109431686D01*
X151009276Y-109386497D01*
X151046967Y-109379000D01*
X151317033Y-109379000D01*
X151354724Y-109386497D01*
G37*
G36*
X131354724Y-109386497D02*
G01*
X131581906Y-109431686D01*
X131831412Y-109535035D01*
X132055962Y-109685075D01*
X132246925Y-109876038D01*
X132396965Y-110100588D01*
X132500314Y-110350094D01*
X132553000Y-110614968D01*
X132553000Y-110885032D01*
X132500314Y-111149906D01*
X132396965Y-111399412D01*
X132246925Y-111623962D01*
X132055962Y-111814925D01*
X131831412Y-111964965D01*
X131581906Y-112068314D01*
X131354724Y-112113503D01*
X131317033Y-112121000D01*
X131046967Y-112121000D01*
X131009276Y-112113503D01*
X130782094Y-112068314D01*
X130532588Y-111964965D01*
X130308038Y-111814925D01*
X130117075Y-111623962D01*
X129967035Y-111399412D01*
X129863686Y-111149906D01*
X129811000Y-110885032D01*
X129811000Y-110614968D01*
X129863686Y-110350094D01*
X129967035Y-110100588D01*
X130117075Y-109876038D01*
X130308038Y-109685075D01*
X130532588Y-109535035D01*
X130782094Y-109431686D01*
X131009276Y-109386497D01*
X131046967Y-109379000D01*
X131317033Y-109379000D01*
X131354724Y-109386497D01*
G37*
G36*
X127214724Y-109386497D02*
G01*
X127441906Y-109431686D01*
X127691412Y-109535035D01*
X127915962Y-109685075D01*
X128106925Y-109876038D01*
X128256965Y-110100588D01*
X128360314Y-110350094D01*
X128413000Y-110614968D01*
X128413000Y-110885032D01*
X128360314Y-111149906D01*
X128256965Y-111399412D01*
X128106925Y-111623962D01*
X127915962Y-111814925D01*
X127691412Y-111964965D01*
X127441906Y-112068314D01*
X127214724Y-112113503D01*
X127177033Y-112121000D01*
X126906967Y-112121000D01*
X126869276Y-112113503D01*
X126642094Y-112068314D01*
X126392588Y-111964965D01*
X126168038Y-111814925D01*
X125977075Y-111623962D01*
X125827035Y-111399412D01*
X125723686Y-111149906D01*
X125671000Y-110885032D01*
X125671000Y-110614968D01*
X125723686Y-110350094D01*
X125827035Y-110100588D01*
X125977075Y-109876038D01*
X126168038Y-109685075D01*
X126392588Y-109535035D01*
X126642094Y-109431686D01*
X126869276Y-109386497D01*
X126906967Y-109379000D01*
X127177033Y-109379000D01*
X127214724Y-109386497D01*
G37*
G36*
X107214724Y-109386497D02*
G01*
X107441906Y-109431686D01*
X107691412Y-109535035D01*
X107915962Y-109685075D01*
X108106925Y-109876038D01*
X108256965Y-110100588D01*
X108360314Y-110350094D01*
X108413000Y-110614968D01*
X108413000Y-110885032D01*
X108360314Y-111149906D01*
X108256965Y-111399412D01*
X108106925Y-111623962D01*
X107915962Y-111814925D01*
X107691412Y-111964965D01*
X107441906Y-112068314D01*
X107214724Y-112113503D01*
X107177033Y-112121000D01*
X106906967Y-112121000D01*
X106869276Y-112113503D01*
X106642094Y-112068314D01*
X106392588Y-111964965D01*
X106168038Y-111814925D01*
X105977075Y-111623962D01*
X105827035Y-111399412D01*
X105723686Y-111149906D01*
X105671000Y-110885032D01*
X105671000Y-110614968D01*
X105723686Y-110350094D01*
X105827035Y-110100588D01*
X105977075Y-109876038D01*
X106168038Y-109685075D01*
X106392588Y-109535035D01*
X106642094Y-109431686D01*
X106869276Y-109386497D01*
X106906967Y-109379000D01*
X107177033Y-109379000D01*
X107214724Y-109386497D01*
G37*
G36*
X111354724Y-109386497D02*
G01*
X111581906Y-109431686D01*
X111831412Y-109535035D01*
X112055962Y-109685075D01*
X112246925Y-109876038D01*
X112396965Y-110100588D01*
X112500314Y-110350094D01*
X112553000Y-110614968D01*
X112553000Y-110885032D01*
X112500314Y-111149906D01*
X112396965Y-111399412D01*
X112246925Y-111623962D01*
X112055962Y-111814925D01*
X111831412Y-111964965D01*
X111581906Y-112068314D01*
X111354724Y-112113503D01*
X111317033Y-112121000D01*
X111046967Y-112121000D01*
X111009276Y-112113503D01*
X110782094Y-112068314D01*
X110532588Y-111964965D01*
X110308038Y-111814925D01*
X110117075Y-111623962D01*
X109967035Y-111399412D01*
X109863686Y-111149906D01*
X109811000Y-110885032D01*
X109811000Y-110614968D01*
X109863686Y-110350094D01*
X109967035Y-110100588D01*
X110117075Y-109876038D01*
X110308038Y-109685075D01*
X110532588Y-109535035D01*
X110782094Y-109431686D01*
X111009276Y-109386497D01*
X111046967Y-109379000D01*
X111317033Y-109379000D01*
X111354724Y-109386497D01*
G37*
G36*
X91354724Y-109386497D02*
G01*
X91581906Y-109431686D01*
X91831412Y-109535035D01*
X92055962Y-109685075D01*
X92246925Y-109876038D01*
X92396965Y-110100588D01*
X92500314Y-110350094D01*
X92553000Y-110614968D01*
X92553000Y-110885032D01*
X92500314Y-111149906D01*
X92396965Y-111399412D01*
X92246925Y-111623962D01*
X92055962Y-111814925D01*
X91831412Y-111964965D01*
X91581906Y-112068314D01*
X91354724Y-112113503D01*
X91317033Y-112121000D01*
X91046967Y-112121000D01*
X91009276Y-112113503D01*
X90782094Y-112068314D01*
X90532588Y-111964965D01*
X90308038Y-111814925D01*
X90117075Y-111623962D01*
X89967035Y-111399412D01*
X89863686Y-111149906D01*
X89811000Y-110885032D01*
X89811000Y-110614968D01*
X89863686Y-110350094D01*
X89967035Y-110100588D01*
X90117075Y-109876038D01*
X90308038Y-109685075D01*
X90532588Y-109535035D01*
X90782094Y-109431686D01*
X91009276Y-109386497D01*
X91046967Y-109379000D01*
X91317033Y-109379000D01*
X91354724Y-109386497D01*
G37*
G36*
X87214724Y-109386497D02*
G01*
X87441906Y-109431686D01*
X87691412Y-109535035D01*
X87915962Y-109685075D01*
X88106925Y-109876038D01*
X88256965Y-110100588D01*
X88360314Y-110350094D01*
X88413000Y-110614968D01*
X88413000Y-110885032D01*
X88360314Y-111149906D01*
X88256965Y-111399412D01*
X88106925Y-111623962D01*
X87915962Y-111814925D01*
X87691412Y-111964965D01*
X87441906Y-112068314D01*
X87214724Y-112113503D01*
X87177033Y-112121000D01*
X86906967Y-112121000D01*
X86869276Y-112113503D01*
X86642094Y-112068314D01*
X86392588Y-111964965D01*
X86168038Y-111814925D01*
X85977075Y-111623962D01*
X85827035Y-111399412D01*
X85723686Y-111149906D01*
X85671000Y-110885032D01*
X85671000Y-110614968D01*
X85723686Y-110350094D01*
X85827035Y-110100588D01*
X85977075Y-109876038D01*
X86168038Y-109685075D01*
X86392588Y-109535035D01*
X86642094Y-109431686D01*
X86869276Y-109386497D01*
X86906967Y-109379000D01*
X87177033Y-109379000D01*
X87214724Y-109386497D01*
G37*
G36*
X91354724Y-105246497D02*
G01*
X91581906Y-105291686D01*
X91831412Y-105395035D01*
X92055962Y-105545075D01*
X92246925Y-105736038D01*
X92396965Y-105960588D01*
X92500314Y-106210094D01*
X92553000Y-106474968D01*
X92553000Y-106745032D01*
X92500314Y-107009906D01*
X92396965Y-107259412D01*
X92246925Y-107483962D01*
X92055962Y-107674925D01*
X91831412Y-107824965D01*
X91581906Y-107928314D01*
X91354724Y-107973503D01*
X91317033Y-107981000D01*
X91046967Y-107981000D01*
X91009276Y-107973503D01*
X90782094Y-107928314D01*
X90532588Y-107824965D01*
X90308038Y-107674925D01*
X90117075Y-107483962D01*
X89967035Y-107259412D01*
X89863686Y-107009906D01*
X89811000Y-106745032D01*
X89811000Y-106474968D01*
X89863686Y-106210094D01*
X89967035Y-105960588D01*
X90117075Y-105736038D01*
X90308038Y-105545075D01*
X90532588Y-105395035D01*
X90782094Y-105291686D01*
X91009276Y-105246497D01*
X91046967Y-105239000D01*
X91317033Y-105239000D01*
X91354724Y-105246497D01*
G37*
G36*
X211354724Y-105246497D02*
G01*
X211581906Y-105291686D01*
X211831412Y-105395035D01*
X212055962Y-105545075D01*
X212246925Y-105736038D01*
X212396965Y-105960588D01*
X212500314Y-106210094D01*
X212553000Y-106474968D01*
X212553000Y-106745032D01*
X212500314Y-107009906D01*
X212396965Y-107259412D01*
X212246925Y-107483962D01*
X212055962Y-107674925D01*
X211831412Y-107824965D01*
X211581906Y-107928314D01*
X211354724Y-107973503D01*
X211317033Y-107981000D01*
X211046967Y-107981000D01*
X211009276Y-107973503D01*
X210782094Y-107928314D01*
X210532588Y-107824965D01*
X210308038Y-107674925D01*
X210117075Y-107483962D01*
X209967035Y-107259412D01*
X209863686Y-107009906D01*
X209811000Y-106745032D01*
X209811000Y-106474968D01*
X209863686Y-106210094D01*
X209967035Y-105960588D01*
X210117075Y-105736038D01*
X210308038Y-105545075D01*
X210532588Y-105395035D01*
X210782094Y-105291686D01*
X211009276Y-105246497D01*
X211046967Y-105239000D01*
X211317033Y-105239000D01*
X211354724Y-105246497D01*
G37*
G36*
X207214724Y-105246497D02*
G01*
X207441906Y-105291686D01*
X207691412Y-105395035D01*
X207915962Y-105545075D01*
X208106925Y-105736038D01*
X208256965Y-105960588D01*
X208360314Y-106210094D01*
X208413000Y-106474968D01*
X208413000Y-106745032D01*
X208360314Y-107009906D01*
X208256965Y-107259412D01*
X208106925Y-107483962D01*
X207915962Y-107674925D01*
X207691412Y-107824965D01*
X207441906Y-107928314D01*
X207214724Y-107973503D01*
X207177033Y-107981000D01*
X206906967Y-107981000D01*
X206869276Y-107973503D01*
X206642094Y-107928314D01*
X206392588Y-107824965D01*
X206168038Y-107674925D01*
X205977075Y-107483962D01*
X205827035Y-107259412D01*
X205723686Y-107009906D01*
X205671000Y-106745032D01*
X205671000Y-106474968D01*
X205723686Y-106210094D01*
X205827035Y-105960588D01*
X205977075Y-105736038D01*
X206168038Y-105545075D01*
X206392588Y-105395035D01*
X206642094Y-105291686D01*
X206869276Y-105246497D01*
X206906967Y-105239000D01*
X207177033Y-105239000D01*
X207214724Y-105246497D01*
G37*
G36*
X191354724Y-105246497D02*
G01*
X191581906Y-105291686D01*
X191831412Y-105395035D01*
X192055962Y-105545075D01*
X192246925Y-105736038D01*
X192396965Y-105960588D01*
X192500314Y-106210094D01*
X192553000Y-106474968D01*
X192553000Y-106745032D01*
X192500314Y-107009906D01*
X192396965Y-107259412D01*
X192246925Y-107483962D01*
X192055962Y-107674925D01*
X191831412Y-107824965D01*
X191581906Y-107928314D01*
X191354724Y-107973503D01*
X191317033Y-107981000D01*
X191046967Y-107981000D01*
X191009276Y-107973503D01*
X190782094Y-107928314D01*
X190532588Y-107824965D01*
X190308038Y-107674925D01*
X190117075Y-107483962D01*
X189967035Y-107259412D01*
X189863686Y-107009906D01*
X189811000Y-106745032D01*
X189811000Y-106474968D01*
X189863686Y-106210094D01*
X189967035Y-105960588D01*
X190117075Y-105736038D01*
X190308038Y-105545075D01*
X190532588Y-105395035D01*
X190782094Y-105291686D01*
X191009276Y-105246497D01*
X191046967Y-105239000D01*
X191317033Y-105239000D01*
X191354724Y-105246497D01*
G37*
G36*
X87214724Y-105246497D02*
G01*
X87441906Y-105291686D01*
X87691412Y-105395035D01*
X87915962Y-105545075D01*
X88106925Y-105736038D01*
X88256965Y-105960588D01*
X88360314Y-106210094D01*
X88413000Y-106474968D01*
X88413000Y-106745032D01*
X88360314Y-107009906D01*
X88256965Y-107259412D01*
X88106925Y-107483962D01*
X87915962Y-107674925D01*
X87691412Y-107824965D01*
X87441906Y-107928314D01*
X87214724Y-107973503D01*
X87177033Y-107981000D01*
X86906967Y-107981000D01*
X86869276Y-107973503D01*
X86642094Y-107928314D01*
X86392588Y-107824965D01*
X86168038Y-107674925D01*
X85977075Y-107483962D01*
X85827035Y-107259412D01*
X85723686Y-107009906D01*
X85671000Y-106745032D01*
X85671000Y-106474968D01*
X85723686Y-106210094D01*
X85827035Y-105960588D01*
X85977075Y-105736038D01*
X86168038Y-105545075D01*
X86392588Y-105395035D01*
X86642094Y-105291686D01*
X86869276Y-105246497D01*
X86906967Y-105239000D01*
X87177033Y-105239000D01*
X87214724Y-105246497D01*
G37*
G36*
X111354724Y-105246497D02*
G01*
X111581906Y-105291686D01*
X111831412Y-105395035D01*
X112055962Y-105545075D01*
X112246925Y-105736038D01*
X112396965Y-105960588D01*
X112500314Y-106210094D01*
X112553000Y-106474968D01*
X112553000Y-106745032D01*
X112500314Y-107009906D01*
X112396965Y-107259412D01*
X112246925Y-107483962D01*
X112055962Y-107674925D01*
X111831412Y-107824965D01*
X111581906Y-107928314D01*
X111354724Y-107973503D01*
X111317033Y-107981000D01*
X111046967Y-107981000D01*
X111009276Y-107973503D01*
X110782094Y-107928314D01*
X110532588Y-107824965D01*
X110308038Y-107674925D01*
X110117075Y-107483962D01*
X109967035Y-107259412D01*
X109863686Y-107009906D01*
X109811000Y-106745032D01*
X109811000Y-106474968D01*
X109863686Y-106210094D01*
X109967035Y-105960588D01*
X110117075Y-105736038D01*
X110308038Y-105545075D01*
X110532588Y-105395035D01*
X110782094Y-105291686D01*
X111009276Y-105246497D01*
X111046967Y-105239000D01*
X111317033Y-105239000D01*
X111354724Y-105246497D01*
G37*
G36*
X107214724Y-105246497D02*
G01*
X107441906Y-105291686D01*
X107691412Y-105395035D01*
X107915962Y-105545075D01*
X108106925Y-105736038D01*
X108256965Y-105960588D01*
X108360314Y-106210094D01*
X108413000Y-106474968D01*
X108413000Y-106745032D01*
X108360314Y-107009906D01*
X108256965Y-107259412D01*
X108106925Y-107483962D01*
X107915962Y-107674925D01*
X107691412Y-107824965D01*
X107441906Y-107928314D01*
X107214724Y-107973503D01*
X107177033Y-107981000D01*
X106906967Y-107981000D01*
X106869276Y-107973503D01*
X106642094Y-107928314D01*
X106392588Y-107824965D01*
X106168038Y-107674925D01*
X105977075Y-107483962D01*
X105827035Y-107259412D01*
X105723686Y-107009906D01*
X105671000Y-106745032D01*
X105671000Y-106474968D01*
X105723686Y-106210094D01*
X105827035Y-105960588D01*
X105977075Y-105736038D01*
X106168038Y-105545075D01*
X106392588Y-105395035D01*
X106642094Y-105291686D01*
X106869276Y-105246497D01*
X106906967Y-105239000D01*
X107177033Y-105239000D01*
X107214724Y-105246497D01*
G37*
G36*
X187214724Y-105246497D02*
G01*
X187441906Y-105291686D01*
X187691412Y-105395035D01*
X187915962Y-105545075D01*
X188106925Y-105736038D01*
X188256965Y-105960588D01*
X188360314Y-106210094D01*
X188413000Y-106474968D01*
X188413000Y-106745032D01*
X188360314Y-107009906D01*
X188256965Y-107259412D01*
X188106925Y-107483962D01*
X187915962Y-107674925D01*
X187691412Y-107824965D01*
X187441906Y-107928314D01*
X187214724Y-107973503D01*
X187177033Y-107981000D01*
X186906967Y-107981000D01*
X186869276Y-107973503D01*
X186642094Y-107928314D01*
X186392588Y-107824965D01*
X186168038Y-107674925D01*
X185977075Y-107483962D01*
X185827035Y-107259412D01*
X185723686Y-107009906D01*
X185671000Y-106745032D01*
X185671000Y-106474968D01*
X185723686Y-106210094D01*
X185827035Y-105960588D01*
X185977075Y-105736038D01*
X186168038Y-105545075D01*
X186392588Y-105395035D01*
X186642094Y-105291686D01*
X186869276Y-105246497D01*
X186906967Y-105239000D01*
X187177033Y-105239000D01*
X187214724Y-105246497D01*
G37*
G36*
X131354724Y-105246497D02*
G01*
X131581906Y-105291686D01*
X131831412Y-105395035D01*
X132055962Y-105545075D01*
X132246925Y-105736038D01*
X132396965Y-105960588D01*
X132500314Y-106210094D01*
X132553000Y-106474968D01*
X132553000Y-106745032D01*
X132500314Y-107009906D01*
X132396965Y-107259412D01*
X132246925Y-107483962D01*
X132055962Y-107674925D01*
X131831412Y-107824965D01*
X131581906Y-107928314D01*
X131354724Y-107973503D01*
X131317033Y-107981000D01*
X131046967Y-107981000D01*
X131009276Y-107973503D01*
X130782094Y-107928314D01*
X130532588Y-107824965D01*
X130308038Y-107674925D01*
X130117075Y-107483962D01*
X129967035Y-107259412D01*
X129863686Y-107009906D01*
X129811000Y-106745032D01*
X129811000Y-106474968D01*
X129863686Y-106210094D01*
X129967035Y-105960588D01*
X130117075Y-105736038D01*
X130308038Y-105545075D01*
X130532588Y-105395035D01*
X130782094Y-105291686D01*
X131009276Y-105246497D01*
X131046967Y-105239000D01*
X131317033Y-105239000D01*
X131354724Y-105246497D01*
G37*
G36*
X151354724Y-105246497D02*
G01*
X151581906Y-105291686D01*
X151831412Y-105395035D01*
X152055962Y-105545075D01*
X152246925Y-105736038D01*
X152396965Y-105960588D01*
X152500314Y-106210094D01*
X152553000Y-106474968D01*
X152553000Y-106745032D01*
X152500314Y-107009906D01*
X152396965Y-107259412D01*
X152246925Y-107483962D01*
X152055962Y-107674925D01*
X151831412Y-107824965D01*
X151581906Y-107928314D01*
X151354724Y-107973503D01*
X151317033Y-107981000D01*
X151046967Y-107981000D01*
X151009276Y-107973503D01*
X150782094Y-107928314D01*
X150532588Y-107824965D01*
X150308038Y-107674925D01*
X150117075Y-107483962D01*
X149967035Y-107259412D01*
X149863686Y-107009906D01*
X149811000Y-106745032D01*
X149811000Y-106474968D01*
X149863686Y-106210094D01*
X149967035Y-105960588D01*
X150117075Y-105736038D01*
X150308038Y-105545075D01*
X150532588Y-105395035D01*
X150782094Y-105291686D01*
X151009276Y-105246497D01*
X151046967Y-105239000D01*
X151317033Y-105239000D01*
X151354724Y-105246497D01*
G37*
G36*
X147214724Y-105246497D02*
G01*
X147441906Y-105291686D01*
X147691412Y-105395035D01*
X147915962Y-105545075D01*
X148106925Y-105736038D01*
X148256965Y-105960588D01*
X148360314Y-106210094D01*
X148413000Y-106474968D01*
X148413000Y-106745032D01*
X148360314Y-107009906D01*
X148256965Y-107259412D01*
X148106925Y-107483962D01*
X147915962Y-107674925D01*
X147691412Y-107824965D01*
X147441906Y-107928314D01*
X147214724Y-107973503D01*
X147177033Y-107981000D01*
X146906967Y-107981000D01*
X146869276Y-107973503D01*
X146642094Y-107928314D01*
X146392588Y-107824965D01*
X146168038Y-107674925D01*
X145977075Y-107483962D01*
X145827035Y-107259412D01*
X145723686Y-107009906D01*
X145671000Y-106745032D01*
X145671000Y-106474968D01*
X145723686Y-106210094D01*
X145827035Y-105960588D01*
X145977075Y-105736038D01*
X146168038Y-105545075D01*
X146392588Y-105395035D01*
X146642094Y-105291686D01*
X146869276Y-105246497D01*
X146906967Y-105239000D01*
X147177033Y-105239000D01*
X147214724Y-105246497D01*
G37*
G36*
X167214724Y-105246497D02*
G01*
X167441906Y-105291686D01*
X167691412Y-105395035D01*
X167915962Y-105545075D01*
X168106925Y-105736038D01*
X168256965Y-105960588D01*
X168360314Y-106210094D01*
X168413000Y-106474968D01*
X168413000Y-106745032D01*
X168360314Y-107009906D01*
X168256965Y-107259412D01*
X168106925Y-107483962D01*
X167915962Y-107674925D01*
X167691412Y-107824965D01*
X167441906Y-107928314D01*
X167214724Y-107973503D01*
X167177033Y-107981000D01*
X166906967Y-107981000D01*
X166869276Y-107973503D01*
X166642094Y-107928314D01*
X166392588Y-107824965D01*
X166168038Y-107674925D01*
X165977075Y-107483962D01*
X165827035Y-107259412D01*
X165723686Y-107009906D01*
X165671000Y-106745032D01*
X165671000Y-106474968D01*
X165723686Y-106210094D01*
X165827035Y-105960588D01*
X165977075Y-105736038D01*
X166168038Y-105545075D01*
X166392588Y-105395035D01*
X166642094Y-105291686D01*
X166869276Y-105246497D01*
X166906967Y-105239000D01*
X167177033Y-105239000D01*
X167214724Y-105246497D01*
G37*
G36*
X171354724Y-105246497D02*
G01*
X171581906Y-105291686D01*
X171831412Y-105395035D01*
X172055962Y-105545075D01*
X172246925Y-105736038D01*
X172396965Y-105960588D01*
X172500314Y-106210094D01*
X172553000Y-106474968D01*
X172553000Y-106745032D01*
X172500314Y-107009906D01*
X172396965Y-107259412D01*
X172246925Y-107483962D01*
X172055962Y-107674925D01*
X171831412Y-107824965D01*
X171581906Y-107928314D01*
X171354724Y-107973503D01*
X171317033Y-107981000D01*
X171046967Y-107981000D01*
X171009276Y-107973503D01*
X170782094Y-107928314D01*
X170532588Y-107824965D01*
X170308038Y-107674925D01*
X170117075Y-107483962D01*
X169967035Y-107259412D01*
X169863686Y-107009906D01*
X169811000Y-106745032D01*
X169811000Y-106474968D01*
X169863686Y-106210094D01*
X169967035Y-105960588D01*
X170117075Y-105736038D01*
X170308038Y-105545075D01*
X170532588Y-105395035D01*
X170782094Y-105291686D01*
X171009276Y-105246497D01*
X171046967Y-105239000D01*
X171317033Y-105239000D01*
X171354724Y-105246497D01*
G37*
G36*
X127214724Y-105246497D02*
G01*
X127441906Y-105291686D01*
X127691412Y-105395035D01*
X127915962Y-105545075D01*
X128106925Y-105736038D01*
X128256965Y-105960588D01*
X128360314Y-106210094D01*
X128413000Y-106474968D01*
X128413000Y-106745032D01*
X128360314Y-107009906D01*
X128256965Y-107259412D01*
X128106925Y-107483962D01*
X127915962Y-107674925D01*
X127691412Y-107824965D01*
X127441906Y-107928314D01*
X127214724Y-107973503D01*
X127177033Y-107981000D01*
X126906967Y-107981000D01*
X126869276Y-107973503D01*
X126642094Y-107928314D01*
X126392588Y-107824965D01*
X126168038Y-107674925D01*
X125977075Y-107483962D01*
X125827035Y-107259412D01*
X125723686Y-107009906D01*
X125671000Y-106745032D01*
X125671000Y-106474968D01*
X125723686Y-106210094D01*
X125827035Y-105960588D01*
X125977075Y-105736038D01*
X126168038Y-105545075D01*
X126392588Y-105395035D01*
X126642094Y-105291686D01*
X126869276Y-105246497D01*
X126906967Y-105239000D01*
X127177033Y-105239000D01*
X127214724Y-105246497D01*
G37*
G36*
X128285436Y-101102635D02*
G01*
X128315027Y-101111611D01*
X128342296Y-101126187D01*
X128366198Y-101145802D01*
X128385813Y-101169704D01*
X128400389Y-101196973D01*
X128409365Y-101226564D01*
X128413000Y-101263474D01*
X128413000Y-103676526D01*
X128409365Y-103713436D01*
X128400389Y-103743027D01*
X128385813Y-103770296D01*
X128366198Y-103794198D01*
X128342296Y-103813813D01*
X128315027Y-103828389D01*
X128285436Y-103837365D01*
X128248526Y-103841000D01*
X125835474Y-103841000D01*
X125798564Y-103837365D01*
X125768973Y-103828389D01*
X125741704Y-103813813D01*
X125717802Y-103794198D01*
X125698187Y-103770296D01*
X125683611Y-103743027D01*
X125674635Y-103713436D01*
X125671000Y-103676526D01*
X125671000Y-101263474D01*
X125674635Y-101226564D01*
X125683611Y-101196973D01*
X125698187Y-101169704D01*
X125717802Y-101145802D01*
X125741704Y-101126187D01*
X125768973Y-101111611D01*
X125798564Y-101102635D01*
X125835474Y-101099000D01*
X128248526Y-101099000D01*
X128285436Y-101102635D01*
G37*
G36*
X191335307Y-101102635D02*
G01*
X191581906Y-101151686D01*
X191831412Y-101255035D01*
X192055962Y-101405075D01*
X192246925Y-101596038D01*
X192396965Y-101820588D01*
X192500314Y-102070094D01*
X192553000Y-102334968D01*
X192553000Y-102605032D01*
X192500314Y-102869906D01*
X192396965Y-103119412D01*
X192246925Y-103343962D01*
X192055962Y-103534925D01*
X191831412Y-103684965D01*
X191581906Y-103788314D01*
X191354724Y-103833503D01*
X191317033Y-103841000D01*
X191046967Y-103841000D01*
X191009276Y-103833503D01*
X190782094Y-103788314D01*
X190532588Y-103684965D01*
X190308038Y-103534925D01*
X190117075Y-103343962D01*
X189967035Y-103119412D01*
X189863686Y-102869906D01*
X189811000Y-102605032D01*
X189811000Y-102334968D01*
X189863686Y-102070094D01*
X189967035Y-101820588D01*
X190117075Y-101596038D01*
X190308038Y-101405075D01*
X190532588Y-101255035D01*
X190782094Y-101151686D01*
X191028693Y-101102635D01*
X191046967Y-101099000D01*
X191317033Y-101099000D01*
X191335307Y-101102635D01*
G37*
G36*
X171335307Y-101102635D02*
G01*
X171581906Y-101151686D01*
X171831412Y-101255035D01*
X172055962Y-101405075D01*
X172246925Y-101596038D01*
X172396965Y-101820588D01*
X172500314Y-102070094D01*
X172553000Y-102334968D01*
X172553000Y-102605032D01*
X172500314Y-102869906D01*
X172396965Y-103119412D01*
X172246925Y-103343962D01*
X172055962Y-103534925D01*
X171831412Y-103684965D01*
X171581906Y-103788314D01*
X171354724Y-103833503D01*
X171317033Y-103841000D01*
X171046967Y-103841000D01*
X171009276Y-103833503D01*
X170782094Y-103788314D01*
X170532588Y-103684965D01*
X170308038Y-103534925D01*
X170117075Y-103343962D01*
X169967035Y-103119412D01*
X169863686Y-102869906D01*
X169811000Y-102605032D01*
X169811000Y-102334968D01*
X169863686Y-102070094D01*
X169967035Y-101820588D01*
X170117075Y-101596038D01*
X170308038Y-101405075D01*
X170532588Y-101255035D01*
X170782094Y-101151686D01*
X171028693Y-101102635D01*
X171046967Y-101099000D01*
X171317033Y-101099000D01*
X171335307Y-101102635D01*
G37*
G36*
X188285436Y-101102635D02*
G01*
X188315027Y-101111611D01*
X188342296Y-101126187D01*
X188366198Y-101145802D01*
X188385813Y-101169704D01*
X188400389Y-101196973D01*
X188409365Y-101226564D01*
X188413000Y-101263474D01*
X188413000Y-103676526D01*
X188409365Y-103713436D01*
X188400389Y-103743027D01*
X188385813Y-103770296D01*
X188366198Y-103794198D01*
X188342296Y-103813813D01*
X188315027Y-103828389D01*
X188285436Y-103837365D01*
X188248526Y-103841000D01*
X185835474Y-103841000D01*
X185798564Y-103837365D01*
X185768973Y-103828389D01*
X185741704Y-103813813D01*
X185717802Y-103794198D01*
X185698187Y-103770296D01*
X185683611Y-103743027D01*
X185674635Y-103713436D01*
X185671000Y-103676526D01*
X185671000Y-101263474D01*
X185674635Y-101226564D01*
X185683611Y-101196973D01*
X185698187Y-101169704D01*
X185717802Y-101145802D01*
X185741704Y-101126187D01*
X185768973Y-101111611D01*
X185798564Y-101102635D01*
X185835474Y-101099000D01*
X188248526Y-101099000D01*
X188285436Y-101102635D01*
G37*
G36*
X208285436Y-101102635D02*
G01*
X208315027Y-101111611D01*
X208342296Y-101126187D01*
X208366198Y-101145802D01*
X208385813Y-101169704D01*
X208400389Y-101196973D01*
X208409365Y-101226564D01*
X208413000Y-101263474D01*
X208413000Y-103676526D01*
X208409365Y-103713436D01*
X208400389Y-103743027D01*
X208385813Y-103770296D01*
X208366198Y-103794198D01*
X208342296Y-103813813D01*
X208315027Y-103828389D01*
X208285436Y-103837365D01*
X208248526Y-103841000D01*
X205835474Y-103841000D01*
X205798564Y-103837365D01*
X205768973Y-103828389D01*
X205741704Y-103813813D01*
X205717802Y-103794198D01*
X205698187Y-103770296D01*
X205683611Y-103743027D01*
X205674635Y-103713436D01*
X205671000Y-103676526D01*
X205671000Y-101263474D01*
X205674635Y-101226564D01*
X205683611Y-101196973D01*
X205698187Y-101169704D01*
X205717802Y-101145802D01*
X205741704Y-101126187D01*
X205768973Y-101111611D01*
X205798564Y-101102635D01*
X205835474Y-101099000D01*
X208248526Y-101099000D01*
X208285436Y-101102635D01*
G37*
G36*
X168285436Y-101102635D02*
G01*
X168315027Y-101111611D01*
X168342296Y-101126187D01*
X168366198Y-101145802D01*
X168385813Y-101169704D01*
X168400389Y-101196973D01*
X168409365Y-101226564D01*
X168413000Y-101263474D01*
X168413000Y-103676526D01*
X168409365Y-103713436D01*
X168400389Y-103743027D01*
X168385813Y-103770296D01*
X168366198Y-103794198D01*
X168342296Y-103813813D01*
X168315027Y-103828389D01*
X168285436Y-103837365D01*
X168248526Y-103841000D01*
X165835474Y-103841000D01*
X165798564Y-103837365D01*
X165768973Y-103828389D01*
X165741704Y-103813813D01*
X165717802Y-103794198D01*
X165698187Y-103770296D01*
X165683611Y-103743027D01*
X165674635Y-103713436D01*
X165671000Y-103676526D01*
X165671000Y-101263474D01*
X165674635Y-101226564D01*
X165683611Y-101196973D01*
X165698187Y-101169704D01*
X165717802Y-101145802D01*
X165741704Y-101126187D01*
X165768973Y-101111611D01*
X165798564Y-101102635D01*
X165835474Y-101099000D01*
X168248526Y-101099000D01*
X168285436Y-101102635D01*
G37*
G36*
X148285436Y-101102635D02*
G01*
X148315027Y-101111611D01*
X148342296Y-101126187D01*
X148366198Y-101145802D01*
X148385813Y-101169704D01*
X148400389Y-101196973D01*
X148409365Y-101226564D01*
X148413000Y-101263474D01*
X148413000Y-103676526D01*
X148409365Y-103713436D01*
X148400389Y-103743027D01*
X148385813Y-103770296D01*
X148366198Y-103794198D01*
X148342296Y-103813813D01*
X148315027Y-103828389D01*
X148285436Y-103837365D01*
X148248526Y-103841000D01*
X145835474Y-103841000D01*
X145798564Y-103837365D01*
X145768973Y-103828389D01*
X145741704Y-103813813D01*
X145717802Y-103794198D01*
X145698187Y-103770296D01*
X145683611Y-103743027D01*
X145674635Y-103713436D01*
X145671000Y-103676526D01*
X145671000Y-101263474D01*
X145674635Y-101226564D01*
X145683611Y-101196973D01*
X145698187Y-101169704D01*
X145717802Y-101145802D01*
X145741704Y-101126187D01*
X145768973Y-101111611D01*
X145798564Y-101102635D01*
X145835474Y-101099000D01*
X148248526Y-101099000D01*
X148285436Y-101102635D01*
G37*
G36*
X151335307Y-101102635D02*
G01*
X151581906Y-101151686D01*
X151831412Y-101255035D01*
X152055962Y-101405075D01*
X152246925Y-101596038D01*
X152396965Y-101820588D01*
X152500314Y-102070094D01*
X152553000Y-102334968D01*
X152553000Y-102605032D01*
X152500314Y-102869906D01*
X152396965Y-103119412D01*
X152246925Y-103343962D01*
X152055962Y-103534925D01*
X151831412Y-103684965D01*
X151581906Y-103788314D01*
X151354724Y-103833503D01*
X151317033Y-103841000D01*
X151046967Y-103841000D01*
X151009276Y-103833503D01*
X150782094Y-103788314D01*
X150532588Y-103684965D01*
X150308038Y-103534925D01*
X150117075Y-103343962D01*
X149967035Y-103119412D01*
X149863686Y-102869906D01*
X149811000Y-102605032D01*
X149811000Y-102334968D01*
X149863686Y-102070094D01*
X149967035Y-101820588D01*
X150117075Y-101596038D01*
X150308038Y-101405075D01*
X150532588Y-101255035D01*
X150782094Y-101151686D01*
X151028693Y-101102635D01*
X151046967Y-101099000D01*
X151317033Y-101099000D01*
X151335307Y-101102635D01*
G37*
G36*
X211335307Y-101102635D02*
G01*
X211581906Y-101151686D01*
X211831412Y-101255035D01*
X212055962Y-101405075D01*
X212246925Y-101596038D01*
X212396965Y-101820588D01*
X212500314Y-102070094D01*
X212553000Y-102334968D01*
X212553000Y-102605032D01*
X212500314Y-102869906D01*
X212396965Y-103119412D01*
X212246925Y-103343962D01*
X212055962Y-103534925D01*
X211831412Y-103684965D01*
X211581906Y-103788314D01*
X211354724Y-103833503D01*
X211317033Y-103841000D01*
X211046967Y-103841000D01*
X211009276Y-103833503D01*
X210782094Y-103788314D01*
X210532588Y-103684965D01*
X210308038Y-103534925D01*
X210117075Y-103343962D01*
X209967035Y-103119412D01*
X209863686Y-102869906D01*
X209811000Y-102605032D01*
X209811000Y-102334968D01*
X209863686Y-102070094D01*
X209967035Y-101820588D01*
X210117075Y-101596038D01*
X210308038Y-101405075D01*
X210532588Y-101255035D01*
X210782094Y-101151686D01*
X211028693Y-101102635D01*
X211046967Y-101099000D01*
X211317033Y-101099000D01*
X211335307Y-101102635D01*
G37*
G36*
X108285436Y-101102635D02*
G01*
X108315027Y-101111611D01*
X108342296Y-101126187D01*
X108366198Y-101145802D01*
X108385813Y-101169704D01*
X108400389Y-101196973D01*
X108409365Y-101226564D01*
X108413000Y-101263474D01*
X108413000Y-103676526D01*
X108409365Y-103713436D01*
X108400389Y-103743027D01*
X108385813Y-103770296D01*
X108366198Y-103794198D01*
X108342296Y-103813813D01*
X108315027Y-103828389D01*
X108285436Y-103837365D01*
X108248526Y-103841000D01*
X105835474Y-103841000D01*
X105798564Y-103837365D01*
X105768973Y-103828389D01*
X105741704Y-103813813D01*
X105717802Y-103794198D01*
X105698187Y-103770296D01*
X105683611Y-103743027D01*
X105674635Y-103713436D01*
X105671000Y-103676526D01*
X105671000Y-101263474D01*
X105674635Y-101226564D01*
X105683611Y-101196973D01*
X105698187Y-101169704D01*
X105717802Y-101145802D01*
X105741704Y-101126187D01*
X105768973Y-101111611D01*
X105798564Y-101102635D01*
X105835474Y-101099000D01*
X108248526Y-101099000D01*
X108285436Y-101102635D01*
G37*
G36*
X88285436Y-101102635D02*
G01*
X88315027Y-101111611D01*
X88342296Y-101126187D01*
X88366198Y-101145802D01*
X88385813Y-101169704D01*
X88400389Y-101196973D01*
X88409365Y-101226564D01*
X88413000Y-101263474D01*
X88413000Y-103676526D01*
X88409365Y-103713436D01*
X88400389Y-103743027D01*
X88385813Y-103770296D01*
X88366198Y-103794198D01*
X88342296Y-103813813D01*
X88315027Y-103828389D01*
X88285436Y-103837365D01*
X88248526Y-103841000D01*
X85835474Y-103841000D01*
X85798564Y-103837365D01*
X85768973Y-103828389D01*
X85741704Y-103813813D01*
X85717802Y-103794198D01*
X85698187Y-103770296D01*
X85683611Y-103743027D01*
X85674635Y-103713436D01*
X85671000Y-103676526D01*
X85671000Y-101263474D01*
X85674635Y-101226564D01*
X85683611Y-101196973D01*
X85698187Y-101169704D01*
X85717802Y-101145802D01*
X85741704Y-101126187D01*
X85768973Y-101111611D01*
X85798564Y-101102635D01*
X85835474Y-101099000D01*
X88248526Y-101099000D01*
X88285436Y-101102635D01*
G37*
G36*
X111335307Y-101102635D02*
G01*
X111581906Y-101151686D01*
X111831412Y-101255035D01*
X112055962Y-101405075D01*
X112246925Y-101596038D01*
X112396965Y-101820588D01*
X112500314Y-102070094D01*
X112553000Y-102334968D01*
X112553000Y-102605032D01*
X112500314Y-102869906D01*
X112396965Y-103119412D01*
X112246925Y-103343962D01*
X112055962Y-103534925D01*
X111831412Y-103684965D01*
X111581906Y-103788314D01*
X111354724Y-103833503D01*
X111317033Y-103841000D01*
X111046967Y-103841000D01*
X111009276Y-103833503D01*
X110782094Y-103788314D01*
X110532588Y-103684965D01*
X110308038Y-103534925D01*
X110117075Y-103343962D01*
X109967035Y-103119412D01*
X109863686Y-102869906D01*
X109811000Y-102605032D01*
X109811000Y-102334968D01*
X109863686Y-102070094D01*
X109967035Y-101820588D01*
X110117075Y-101596038D01*
X110308038Y-101405075D01*
X110532588Y-101255035D01*
X110782094Y-101151686D01*
X111028693Y-101102635D01*
X111046967Y-101099000D01*
X111317033Y-101099000D01*
X111335307Y-101102635D01*
G37*
G36*
X91335307Y-101102635D02*
G01*
X91581906Y-101151686D01*
X91831412Y-101255035D01*
X92055962Y-101405075D01*
X92246925Y-101596038D01*
X92396965Y-101820588D01*
X92500314Y-102070094D01*
X92553000Y-102334968D01*
X92553000Y-102605032D01*
X92500314Y-102869906D01*
X92396965Y-103119412D01*
X92246925Y-103343962D01*
X92055962Y-103534925D01*
X91831412Y-103684965D01*
X91581906Y-103788314D01*
X91354724Y-103833503D01*
X91317033Y-103841000D01*
X91046967Y-103841000D01*
X91009276Y-103833503D01*
X90782094Y-103788314D01*
X90532588Y-103684965D01*
X90308038Y-103534925D01*
X90117075Y-103343962D01*
X89967035Y-103119412D01*
X89863686Y-102869906D01*
X89811000Y-102605032D01*
X89811000Y-102334968D01*
X89863686Y-102070094D01*
X89967035Y-101820588D01*
X90117075Y-101596038D01*
X90308038Y-101405075D01*
X90532588Y-101255035D01*
X90782094Y-101151686D01*
X91028693Y-101102635D01*
X91046967Y-101099000D01*
X91317033Y-101099000D01*
X91335307Y-101102635D01*
G37*
G36*
X131335307Y-101102635D02*
G01*
X131581906Y-101151686D01*
X131831412Y-101255035D01*
X132055962Y-101405075D01*
X132246925Y-101596038D01*
X132396965Y-101820588D01*
X132500314Y-102070094D01*
X132553000Y-102334968D01*
X132553000Y-102605032D01*
X132500314Y-102869906D01*
X132396965Y-103119412D01*
X132246925Y-103343962D01*
X132055962Y-103534925D01*
X131831412Y-103684965D01*
X131581906Y-103788314D01*
X131354724Y-103833503D01*
X131317033Y-103841000D01*
X131046967Y-103841000D01*
X131009276Y-103833503D01*
X130782094Y-103788314D01*
X130532588Y-103684965D01*
X130308038Y-103534925D01*
X130117075Y-103343962D01*
X129967035Y-103119412D01*
X129863686Y-102869906D01*
X129811000Y-102605032D01*
X129811000Y-102334968D01*
X129863686Y-102070094D01*
X129967035Y-101820588D01*
X130117075Y-101596038D01*
X130308038Y-101405075D01*
X130532588Y-101255035D01*
X130782094Y-101151686D01*
X131028693Y-101102635D01*
X131046967Y-101099000D01*
X131317033Y-101099000D01*
X131335307Y-101102635D01*
G37*
G36*
X187520661Y-96452062D02*
G01*
X187819303Y-96575764D01*
X187819305Y-96575765D01*
X188088076Y-96755352D01*
X188316648Y-96983924D01*
X188496236Y-97252697D01*
X188619938Y-97551339D01*
X188683000Y-97868374D01*
X188683000Y-98191626D01*
X188619938Y-98508661D01*
X188496236Y-98807303D01*
X188496235Y-98807305D01*
X188316648Y-99076076D01*
X188088076Y-99304648D01*
X187819305Y-99484235D01*
X187819304Y-99484236D01*
X187819303Y-99484236D01*
X187520661Y-99607938D01*
X187203626Y-99671000D01*
X186880374Y-99671000D01*
X186563339Y-99607938D01*
X186264697Y-99484236D01*
X186264696Y-99484236D01*
X186264695Y-99484235D01*
X185995924Y-99304648D01*
X185767352Y-99076076D01*
X185587765Y-98807305D01*
X185587764Y-98807303D01*
X185464062Y-98508661D01*
X185401000Y-98191626D01*
X185401000Y-97868374D01*
X185464062Y-97551339D01*
X185587764Y-97252697D01*
X185767352Y-96983924D01*
X185995924Y-96755352D01*
X186264695Y-96575765D01*
X186264697Y-96575764D01*
X186563339Y-96452062D01*
X186880374Y-96389000D01*
X187203626Y-96389000D01*
X187520661Y-96452062D01*
G37*
G36*
X207520661Y-96452062D02*
G01*
X207819303Y-96575764D01*
X207819305Y-96575765D01*
X208088076Y-96755352D01*
X208316648Y-96983924D01*
X208496236Y-97252697D01*
X208619938Y-97551339D01*
X208683000Y-97868374D01*
X208683000Y-98191626D01*
X208619938Y-98508661D01*
X208496236Y-98807303D01*
X208496235Y-98807305D01*
X208316648Y-99076076D01*
X208088076Y-99304648D01*
X207819305Y-99484235D01*
X207819304Y-99484236D01*
X207819303Y-99484236D01*
X207520661Y-99607938D01*
X207203626Y-99671000D01*
X206880374Y-99671000D01*
X206563339Y-99607938D01*
X206264697Y-99484236D01*
X206264696Y-99484236D01*
X206264695Y-99484235D01*
X205995924Y-99304648D01*
X205767352Y-99076076D01*
X205587765Y-98807305D01*
X205587764Y-98807303D01*
X205464062Y-98508661D01*
X205401000Y-98191626D01*
X205401000Y-97868374D01*
X205464062Y-97551339D01*
X205587764Y-97252697D01*
X205767352Y-96983924D01*
X205995924Y-96755352D01*
X206264695Y-96575765D01*
X206264697Y-96575764D01*
X206563339Y-96452062D01*
X206880374Y-96389000D01*
X207203626Y-96389000D01*
X207520661Y-96452062D01*
G37*
G36*
X167520661Y-96452062D02*
G01*
X167819303Y-96575764D01*
X167819305Y-96575765D01*
X168088076Y-96755352D01*
X168316648Y-96983924D01*
X168496236Y-97252697D01*
X168619938Y-97551339D01*
X168683000Y-97868374D01*
X168683000Y-98191626D01*
X168619938Y-98508661D01*
X168496236Y-98807303D01*
X168496235Y-98807305D01*
X168316648Y-99076076D01*
X168088076Y-99304648D01*
X167819305Y-99484235D01*
X167819304Y-99484236D01*
X167819303Y-99484236D01*
X167520661Y-99607938D01*
X167203626Y-99671000D01*
X166880374Y-99671000D01*
X166563339Y-99607938D01*
X166264697Y-99484236D01*
X166264696Y-99484236D01*
X166264695Y-99484235D01*
X165995924Y-99304648D01*
X165767352Y-99076076D01*
X165587765Y-98807305D01*
X165587764Y-98807303D01*
X165464062Y-98508661D01*
X165401000Y-98191626D01*
X165401000Y-97868374D01*
X165464062Y-97551339D01*
X165587764Y-97252697D01*
X165767352Y-96983924D01*
X165995924Y-96755352D01*
X166264695Y-96575765D01*
X166264697Y-96575764D01*
X166563339Y-96452062D01*
X166880374Y-96389000D01*
X167203626Y-96389000D01*
X167520661Y-96452062D01*
G37*
G36*
X147520661Y-96452062D02*
G01*
X147819303Y-96575764D01*
X147819305Y-96575765D01*
X148088076Y-96755352D01*
X148316648Y-96983924D01*
X148496236Y-97252697D01*
X148619938Y-97551339D01*
X148683000Y-97868374D01*
X148683000Y-98191626D01*
X148619938Y-98508661D01*
X148496236Y-98807303D01*
X148496235Y-98807305D01*
X148316648Y-99076076D01*
X148088076Y-99304648D01*
X147819305Y-99484235D01*
X147819304Y-99484236D01*
X147819303Y-99484236D01*
X147520661Y-99607938D01*
X147203626Y-99671000D01*
X146880374Y-99671000D01*
X146563339Y-99607938D01*
X146264697Y-99484236D01*
X146264696Y-99484236D01*
X146264695Y-99484235D01*
X145995924Y-99304648D01*
X145767352Y-99076076D01*
X145587765Y-98807305D01*
X145587764Y-98807303D01*
X145464062Y-98508661D01*
X145401000Y-98191626D01*
X145401000Y-97868374D01*
X145464062Y-97551339D01*
X145587764Y-97252697D01*
X145767352Y-96983924D01*
X145995924Y-96755352D01*
X146264695Y-96575765D01*
X146264697Y-96575764D01*
X146563339Y-96452062D01*
X146880374Y-96389000D01*
X147203626Y-96389000D01*
X147520661Y-96452062D01*
G37*
G36*
X87520661Y-96452062D02*
G01*
X87819303Y-96575764D01*
X87819305Y-96575765D01*
X88088076Y-96755352D01*
X88316648Y-96983924D01*
X88496236Y-97252697D01*
X88619938Y-97551339D01*
X88683000Y-97868374D01*
X88683000Y-98191626D01*
X88619938Y-98508661D01*
X88496236Y-98807303D01*
X88496235Y-98807305D01*
X88316648Y-99076076D01*
X88088076Y-99304648D01*
X87819305Y-99484235D01*
X87819304Y-99484236D01*
X87819303Y-99484236D01*
X87520661Y-99607938D01*
X87203626Y-99671000D01*
X86880374Y-99671000D01*
X86563339Y-99607938D01*
X86264697Y-99484236D01*
X86264696Y-99484236D01*
X86264695Y-99484235D01*
X85995924Y-99304648D01*
X85767352Y-99076076D01*
X85587765Y-98807305D01*
X85587764Y-98807303D01*
X85464062Y-98508661D01*
X85401000Y-98191626D01*
X85401000Y-97868374D01*
X85464062Y-97551339D01*
X85587764Y-97252697D01*
X85767352Y-96983924D01*
X85995924Y-96755352D01*
X86264695Y-96575765D01*
X86264697Y-96575764D01*
X86563339Y-96452062D01*
X86880374Y-96389000D01*
X87203626Y-96389000D01*
X87520661Y-96452062D01*
G37*
G36*
X107520661Y-96452062D02*
G01*
X107819303Y-96575764D01*
X107819305Y-96575765D01*
X108088076Y-96755352D01*
X108316648Y-96983924D01*
X108496236Y-97252697D01*
X108619938Y-97551339D01*
X108683000Y-97868374D01*
X108683000Y-98191626D01*
X108619938Y-98508661D01*
X108496236Y-98807303D01*
X108496235Y-98807305D01*
X108316648Y-99076076D01*
X108088076Y-99304648D01*
X107819305Y-99484235D01*
X107819304Y-99484236D01*
X107819303Y-99484236D01*
X107520661Y-99607938D01*
X107203626Y-99671000D01*
X106880374Y-99671000D01*
X106563339Y-99607938D01*
X106264697Y-99484236D01*
X106264696Y-99484236D01*
X106264695Y-99484235D01*
X105995924Y-99304648D01*
X105767352Y-99076076D01*
X105587765Y-98807305D01*
X105587764Y-98807303D01*
X105464062Y-98508661D01*
X105401000Y-98191626D01*
X105401000Y-97868374D01*
X105464062Y-97551339D01*
X105587764Y-97252697D01*
X105767352Y-96983924D01*
X105995924Y-96755352D01*
X106264695Y-96575765D01*
X106264697Y-96575764D01*
X106563339Y-96452062D01*
X106880374Y-96389000D01*
X107203626Y-96389000D01*
X107520661Y-96452062D01*
G37*
G36*
X127520661Y-96452062D02*
G01*
X127819303Y-96575764D01*
X127819305Y-96575765D01*
X128088076Y-96755352D01*
X128316648Y-96983924D01*
X128496236Y-97252697D01*
X128619938Y-97551339D01*
X128683000Y-97868374D01*
X128683000Y-98191626D01*
X128619938Y-98508661D01*
X128496236Y-98807303D01*
X128496235Y-98807305D01*
X128316648Y-99076076D01*
X128088076Y-99304648D01*
X127819305Y-99484235D01*
X127819304Y-99484236D01*
X127819303Y-99484236D01*
X127520661Y-99607938D01*
X127203626Y-99671000D01*
X126880374Y-99671000D01*
X126563339Y-99607938D01*
X126264697Y-99484236D01*
X126264696Y-99484236D01*
X126264695Y-99484235D01*
X125995924Y-99304648D01*
X125767352Y-99076076D01*
X125587765Y-98807305D01*
X125587764Y-98807303D01*
X125464062Y-98508661D01*
X125401000Y-98191626D01*
X125401000Y-97868374D01*
X125464062Y-97551339D01*
X125587764Y-97252697D01*
X125767352Y-96983924D01*
X125995924Y-96755352D01*
X126264695Y-96575765D01*
X126264697Y-96575764D01*
X126563339Y-96452062D01*
X126880374Y-96389000D01*
X127203626Y-96389000D01*
X127520661Y-96452062D01*
G37*
G36*
X167214724Y-87246497D02*
G01*
X167441906Y-87291686D01*
X167691412Y-87395035D01*
X167915962Y-87545075D01*
X168106925Y-87736038D01*
X168256965Y-87960588D01*
X168360314Y-88210094D01*
X168413000Y-88474968D01*
X168413000Y-88745032D01*
X168360314Y-89009906D01*
X168256965Y-89259412D01*
X168106925Y-89483962D01*
X167915962Y-89674925D01*
X167691412Y-89824965D01*
X167441906Y-89928314D01*
X167214724Y-89973503D01*
X167177033Y-89981000D01*
X166906967Y-89981000D01*
X166869276Y-89973503D01*
X166642094Y-89928314D01*
X166392588Y-89824965D01*
X166168038Y-89674925D01*
X165977075Y-89483962D01*
X165827035Y-89259412D01*
X165723686Y-89009906D01*
X165671000Y-88745032D01*
X165671000Y-88474968D01*
X165723686Y-88210094D01*
X165827035Y-87960588D01*
X165977075Y-87736038D01*
X166168038Y-87545075D01*
X166392588Y-87395035D01*
X166642094Y-87291686D01*
X166869276Y-87246497D01*
X166906967Y-87239000D01*
X167177033Y-87239000D01*
X167214724Y-87246497D01*
G37*
G36*
X131354724Y-87246497D02*
G01*
X131581906Y-87291686D01*
X131831412Y-87395035D01*
X132055962Y-87545075D01*
X132246925Y-87736038D01*
X132396965Y-87960588D01*
X132500314Y-88210094D01*
X132553000Y-88474968D01*
X132553000Y-88745032D01*
X132500314Y-89009906D01*
X132396965Y-89259412D01*
X132246925Y-89483962D01*
X132055962Y-89674925D01*
X131831412Y-89824965D01*
X131581906Y-89928314D01*
X131354724Y-89973503D01*
X131317033Y-89981000D01*
X131046967Y-89981000D01*
X131009276Y-89973503D01*
X130782094Y-89928314D01*
X130532588Y-89824965D01*
X130308038Y-89674925D01*
X130117075Y-89483962D01*
X129967035Y-89259412D01*
X129863686Y-89009906D01*
X129811000Y-88745032D01*
X129811000Y-88474968D01*
X129863686Y-88210094D01*
X129967035Y-87960588D01*
X130117075Y-87736038D01*
X130308038Y-87545075D01*
X130532588Y-87395035D01*
X130782094Y-87291686D01*
X131009276Y-87246497D01*
X131046967Y-87239000D01*
X131317033Y-87239000D01*
X131354724Y-87246497D01*
G37*
G36*
X127214724Y-87246497D02*
G01*
X127441906Y-87291686D01*
X127691412Y-87395035D01*
X127915962Y-87545075D01*
X128106925Y-87736038D01*
X128256965Y-87960588D01*
X128360314Y-88210094D01*
X128413000Y-88474968D01*
X128413000Y-88745032D01*
X128360314Y-89009906D01*
X128256965Y-89259412D01*
X128106925Y-89483962D01*
X127915962Y-89674925D01*
X127691412Y-89824965D01*
X127441906Y-89928314D01*
X127214724Y-89973503D01*
X127177033Y-89981000D01*
X126906967Y-89981000D01*
X126869276Y-89973503D01*
X126642094Y-89928314D01*
X126392588Y-89824965D01*
X126168038Y-89674925D01*
X125977075Y-89483962D01*
X125827035Y-89259412D01*
X125723686Y-89009906D01*
X125671000Y-88745032D01*
X125671000Y-88474968D01*
X125723686Y-88210094D01*
X125827035Y-87960588D01*
X125977075Y-87736038D01*
X126168038Y-87545075D01*
X126392588Y-87395035D01*
X126642094Y-87291686D01*
X126869276Y-87246497D01*
X126906967Y-87239000D01*
X127177033Y-87239000D01*
X127214724Y-87246497D01*
G37*
G36*
X147214724Y-87246497D02*
G01*
X147441906Y-87291686D01*
X147691412Y-87395035D01*
X147915962Y-87545075D01*
X148106925Y-87736038D01*
X148256965Y-87960588D01*
X148360314Y-88210094D01*
X148413000Y-88474968D01*
X148413000Y-88745032D01*
X148360314Y-89009906D01*
X148256965Y-89259412D01*
X148106925Y-89483962D01*
X147915962Y-89674925D01*
X147691412Y-89824965D01*
X147441906Y-89928314D01*
X147214724Y-89973503D01*
X147177033Y-89981000D01*
X146906967Y-89981000D01*
X146869276Y-89973503D01*
X146642094Y-89928314D01*
X146392588Y-89824965D01*
X146168038Y-89674925D01*
X145977075Y-89483962D01*
X145827035Y-89259412D01*
X145723686Y-89009906D01*
X145671000Y-88745032D01*
X145671000Y-88474968D01*
X145723686Y-88210094D01*
X145827035Y-87960588D01*
X145977075Y-87736038D01*
X146168038Y-87545075D01*
X146392588Y-87395035D01*
X146642094Y-87291686D01*
X146869276Y-87246497D01*
X146906967Y-87239000D01*
X147177033Y-87239000D01*
X147214724Y-87246497D01*
G37*
G36*
X151354724Y-87246497D02*
G01*
X151581906Y-87291686D01*
X151831412Y-87395035D01*
X152055962Y-87545075D01*
X152246925Y-87736038D01*
X152396965Y-87960588D01*
X152500314Y-88210094D01*
X152553000Y-88474968D01*
X152553000Y-88745032D01*
X152500314Y-89009906D01*
X152396965Y-89259412D01*
X152246925Y-89483962D01*
X152055962Y-89674925D01*
X151831412Y-89824965D01*
X151581906Y-89928314D01*
X151354724Y-89973503D01*
X151317033Y-89981000D01*
X151046967Y-89981000D01*
X151009276Y-89973503D01*
X150782094Y-89928314D01*
X150532588Y-89824965D01*
X150308038Y-89674925D01*
X150117075Y-89483962D01*
X149967035Y-89259412D01*
X149863686Y-89009906D01*
X149811000Y-88745032D01*
X149811000Y-88474968D01*
X149863686Y-88210094D01*
X149967035Y-87960588D01*
X150117075Y-87736038D01*
X150308038Y-87545075D01*
X150532588Y-87395035D01*
X150782094Y-87291686D01*
X151009276Y-87246497D01*
X151046967Y-87239000D01*
X151317033Y-87239000D01*
X151354724Y-87246497D01*
G37*
G36*
X187214724Y-87246497D02*
G01*
X187441906Y-87291686D01*
X187691412Y-87395035D01*
X187915962Y-87545075D01*
X188106925Y-87736038D01*
X188256965Y-87960588D01*
X188360314Y-88210094D01*
X188413000Y-88474968D01*
X188413000Y-88745032D01*
X188360314Y-89009906D01*
X188256965Y-89259412D01*
X188106925Y-89483962D01*
X187915962Y-89674925D01*
X187691412Y-89824965D01*
X187441906Y-89928314D01*
X187214724Y-89973503D01*
X187177033Y-89981000D01*
X186906967Y-89981000D01*
X186869276Y-89973503D01*
X186642094Y-89928314D01*
X186392588Y-89824965D01*
X186168038Y-89674925D01*
X185977075Y-89483962D01*
X185827035Y-89259412D01*
X185723686Y-89009906D01*
X185671000Y-88745032D01*
X185671000Y-88474968D01*
X185723686Y-88210094D01*
X185827035Y-87960588D01*
X185977075Y-87736038D01*
X186168038Y-87545075D01*
X186392588Y-87395035D01*
X186642094Y-87291686D01*
X186869276Y-87246497D01*
X186906967Y-87239000D01*
X187177033Y-87239000D01*
X187214724Y-87246497D01*
G37*
G36*
X171354724Y-87246497D02*
G01*
X171581906Y-87291686D01*
X171831412Y-87395035D01*
X172055962Y-87545075D01*
X172246925Y-87736038D01*
X172396965Y-87960588D01*
X172500314Y-88210094D01*
X172553000Y-88474968D01*
X172553000Y-88745032D01*
X172500314Y-89009906D01*
X172396965Y-89259412D01*
X172246925Y-89483962D01*
X172055962Y-89674925D01*
X171831412Y-89824965D01*
X171581906Y-89928314D01*
X171354724Y-89973503D01*
X171317033Y-89981000D01*
X171046967Y-89981000D01*
X171009276Y-89973503D01*
X170782094Y-89928314D01*
X170532588Y-89824965D01*
X170308038Y-89674925D01*
X170117075Y-89483962D01*
X169967035Y-89259412D01*
X169863686Y-89009906D01*
X169811000Y-88745032D01*
X169811000Y-88474968D01*
X169863686Y-88210094D01*
X169967035Y-87960588D01*
X170117075Y-87736038D01*
X170308038Y-87545075D01*
X170532588Y-87395035D01*
X170782094Y-87291686D01*
X171009276Y-87246497D01*
X171046967Y-87239000D01*
X171317033Y-87239000D01*
X171354724Y-87246497D01*
G37*
G36*
X87214724Y-87246497D02*
G01*
X87441906Y-87291686D01*
X87691412Y-87395035D01*
X87915962Y-87545075D01*
X88106925Y-87736038D01*
X88256965Y-87960588D01*
X88360314Y-88210094D01*
X88413000Y-88474968D01*
X88413000Y-88745032D01*
X88360314Y-89009906D01*
X88256965Y-89259412D01*
X88106925Y-89483962D01*
X87915962Y-89674925D01*
X87691412Y-89824965D01*
X87441906Y-89928314D01*
X87214724Y-89973503D01*
X87177033Y-89981000D01*
X86906967Y-89981000D01*
X86869276Y-89973503D01*
X86642094Y-89928314D01*
X86392588Y-89824965D01*
X86168038Y-89674925D01*
X85977075Y-89483962D01*
X85827035Y-89259412D01*
X85723686Y-89009906D01*
X85671000Y-88745032D01*
X85671000Y-88474968D01*
X85723686Y-88210094D01*
X85827035Y-87960588D01*
X85977075Y-87736038D01*
X86168038Y-87545075D01*
X86392588Y-87395035D01*
X86642094Y-87291686D01*
X86869276Y-87246497D01*
X86906967Y-87239000D01*
X87177033Y-87239000D01*
X87214724Y-87246497D01*
G37*
G36*
X91354724Y-87246497D02*
G01*
X91581906Y-87291686D01*
X91831412Y-87395035D01*
X92055962Y-87545075D01*
X92246925Y-87736038D01*
X92396965Y-87960588D01*
X92500314Y-88210094D01*
X92553000Y-88474968D01*
X92553000Y-88745032D01*
X92500314Y-89009906D01*
X92396965Y-89259412D01*
X92246925Y-89483962D01*
X92055962Y-89674925D01*
X91831412Y-89824965D01*
X91581906Y-89928314D01*
X91354724Y-89973503D01*
X91317033Y-89981000D01*
X91046967Y-89981000D01*
X91009276Y-89973503D01*
X90782094Y-89928314D01*
X90532588Y-89824965D01*
X90308038Y-89674925D01*
X90117075Y-89483962D01*
X89967035Y-89259412D01*
X89863686Y-89009906D01*
X89811000Y-88745032D01*
X89811000Y-88474968D01*
X89863686Y-88210094D01*
X89967035Y-87960588D01*
X90117075Y-87736038D01*
X90308038Y-87545075D01*
X90532588Y-87395035D01*
X90782094Y-87291686D01*
X91009276Y-87246497D01*
X91046967Y-87239000D01*
X91317033Y-87239000D01*
X91354724Y-87246497D01*
G37*
G36*
X191354724Y-87246497D02*
G01*
X191581906Y-87291686D01*
X191831412Y-87395035D01*
X192055962Y-87545075D01*
X192246925Y-87736038D01*
X192396965Y-87960588D01*
X192500314Y-88210094D01*
X192553000Y-88474968D01*
X192553000Y-88745032D01*
X192500314Y-89009906D01*
X192396965Y-89259412D01*
X192246925Y-89483962D01*
X192055962Y-89674925D01*
X191831412Y-89824965D01*
X191581906Y-89928314D01*
X191354724Y-89973503D01*
X191317033Y-89981000D01*
X191046967Y-89981000D01*
X191009276Y-89973503D01*
X190782094Y-89928314D01*
X190532588Y-89824965D01*
X190308038Y-89674925D01*
X190117075Y-89483962D01*
X189967035Y-89259412D01*
X189863686Y-89009906D01*
X189811000Y-88745032D01*
X189811000Y-88474968D01*
X189863686Y-88210094D01*
X189967035Y-87960588D01*
X190117075Y-87736038D01*
X190308038Y-87545075D01*
X190532588Y-87395035D01*
X190782094Y-87291686D01*
X191009276Y-87246497D01*
X191046967Y-87239000D01*
X191317033Y-87239000D01*
X191354724Y-87246497D01*
G37*
G36*
X207214724Y-87246497D02*
G01*
X207441906Y-87291686D01*
X207691412Y-87395035D01*
X207915962Y-87545075D01*
X208106925Y-87736038D01*
X208256965Y-87960588D01*
X208360314Y-88210094D01*
X208413000Y-88474968D01*
X208413000Y-88745032D01*
X208360314Y-89009906D01*
X208256965Y-89259412D01*
X208106925Y-89483962D01*
X207915962Y-89674925D01*
X207691412Y-89824965D01*
X207441906Y-89928314D01*
X207214724Y-89973503D01*
X207177033Y-89981000D01*
X206906967Y-89981000D01*
X206869276Y-89973503D01*
X206642094Y-89928314D01*
X206392588Y-89824965D01*
X206168038Y-89674925D01*
X205977075Y-89483962D01*
X205827035Y-89259412D01*
X205723686Y-89009906D01*
X205671000Y-88745032D01*
X205671000Y-88474968D01*
X205723686Y-88210094D01*
X205827035Y-87960588D01*
X205977075Y-87736038D01*
X206168038Y-87545075D01*
X206392588Y-87395035D01*
X206642094Y-87291686D01*
X206869276Y-87246497D01*
X206906967Y-87239000D01*
X207177033Y-87239000D01*
X207214724Y-87246497D01*
G37*
G36*
X211354724Y-87246497D02*
G01*
X211581906Y-87291686D01*
X211831412Y-87395035D01*
X212055962Y-87545075D01*
X212246925Y-87736038D01*
X212396965Y-87960588D01*
X212500314Y-88210094D01*
X212553000Y-88474968D01*
X212553000Y-88745032D01*
X212500314Y-89009906D01*
X212396965Y-89259412D01*
X212246925Y-89483962D01*
X212055962Y-89674925D01*
X211831412Y-89824965D01*
X211581906Y-89928314D01*
X211354724Y-89973503D01*
X211317033Y-89981000D01*
X211046967Y-89981000D01*
X211009276Y-89973503D01*
X210782094Y-89928314D01*
X210532588Y-89824965D01*
X210308038Y-89674925D01*
X210117075Y-89483962D01*
X209967035Y-89259412D01*
X209863686Y-89009906D01*
X209811000Y-88745032D01*
X209811000Y-88474968D01*
X209863686Y-88210094D01*
X209967035Y-87960588D01*
X210117075Y-87736038D01*
X210308038Y-87545075D01*
X210532588Y-87395035D01*
X210782094Y-87291686D01*
X211009276Y-87246497D01*
X211046967Y-87239000D01*
X211317033Y-87239000D01*
X211354724Y-87246497D01*
G37*
G36*
X111354724Y-87246497D02*
G01*
X111581906Y-87291686D01*
X111831412Y-87395035D01*
X112055962Y-87545075D01*
X112246925Y-87736038D01*
X112396965Y-87960588D01*
X112500314Y-88210094D01*
X112553000Y-88474968D01*
X112553000Y-88745032D01*
X112500314Y-89009906D01*
X112396965Y-89259412D01*
X112246925Y-89483962D01*
X112055962Y-89674925D01*
X111831412Y-89824965D01*
X111581906Y-89928314D01*
X111354724Y-89973503D01*
X111317033Y-89981000D01*
X111046967Y-89981000D01*
X111009276Y-89973503D01*
X110782094Y-89928314D01*
X110532588Y-89824965D01*
X110308038Y-89674925D01*
X110117075Y-89483962D01*
X109967035Y-89259412D01*
X109863686Y-89009906D01*
X109811000Y-88745032D01*
X109811000Y-88474968D01*
X109863686Y-88210094D01*
X109967035Y-87960588D01*
X110117075Y-87736038D01*
X110308038Y-87545075D01*
X110532588Y-87395035D01*
X110782094Y-87291686D01*
X111009276Y-87246497D01*
X111046967Y-87239000D01*
X111317033Y-87239000D01*
X111354724Y-87246497D01*
G37*
G36*
X107214724Y-87246497D02*
G01*
X107441906Y-87291686D01*
X107691412Y-87395035D01*
X107915962Y-87545075D01*
X108106925Y-87736038D01*
X108256965Y-87960588D01*
X108360314Y-88210094D01*
X108413000Y-88474968D01*
X108413000Y-88745032D01*
X108360314Y-89009906D01*
X108256965Y-89259412D01*
X108106925Y-89483962D01*
X107915962Y-89674925D01*
X107691412Y-89824965D01*
X107441906Y-89928314D01*
X107214724Y-89973503D01*
X107177033Y-89981000D01*
X106906967Y-89981000D01*
X106869276Y-89973503D01*
X106642094Y-89928314D01*
X106392588Y-89824965D01*
X106168038Y-89674925D01*
X105977075Y-89483962D01*
X105827035Y-89259412D01*
X105723686Y-89009906D01*
X105671000Y-88745032D01*
X105671000Y-88474968D01*
X105723686Y-88210094D01*
X105827035Y-87960588D01*
X105977075Y-87736038D01*
X106168038Y-87545075D01*
X106392588Y-87395035D01*
X106642094Y-87291686D01*
X106869276Y-87246497D01*
X106906967Y-87239000D01*
X107177033Y-87239000D01*
X107214724Y-87246497D01*
G37*
G36*
X111335307Y-83102635D02*
G01*
X111581906Y-83151686D01*
X111831412Y-83255035D01*
X112055962Y-83405075D01*
X112246925Y-83596038D01*
X112396965Y-83820588D01*
X112500314Y-84070094D01*
X112553000Y-84334968D01*
X112553000Y-84605032D01*
X112500314Y-84869906D01*
X112396965Y-85119412D01*
X112246925Y-85343962D01*
X112055962Y-85534925D01*
X111831412Y-85684965D01*
X111581906Y-85788314D01*
X111354724Y-85833503D01*
X111317033Y-85841000D01*
X111046967Y-85841000D01*
X111009276Y-85833503D01*
X110782094Y-85788314D01*
X110532588Y-85684965D01*
X110308038Y-85534925D01*
X110117075Y-85343962D01*
X109967035Y-85119412D01*
X109863686Y-84869906D01*
X109811000Y-84605032D01*
X109811000Y-84334968D01*
X109863686Y-84070094D01*
X109967035Y-83820588D01*
X110117075Y-83596038D01*
X110308038Y-83405075D01*
X110532588Y-83255035D01*
X110782094Y-83151686D01*
X111028693Y-83102635D01*
X111046967Y-83099000D01*
X111317033Y-83099000D01*
X111335307Y-83102635D01*
G37*
G36*
X108285436Y-83102635D02*
G01*
X108315027Y-83111611D01*
X108342296Y-83126187D01*
X108366198Y-83145802D01*
X108385813Y-83169704D01*
X108400389Y-83196973D01*
X108409365Y-83226564D01*
X108413000Y-83263474D01*
X108413000Y-85676526D01*
X108409365Y-85713436D01*
X108400389Y-85743027D01*
X108385813Y-85770296D01*
X108366198Y-85794198D01*
X108342296Y-85813813D01*
X108315027Y-85828389D01*
X108285436Y-85837365D01*
X108248526Y-85841000D01*
X105835474Y-85841000D01*
X105798564Y-85837365D01*
X105768973Y-85828389D01*
X105741704Y-85813813D01*
X105717802Y-85794198D01*
X105698187Y-85770296D01*
X105683611Y-85743027D01*
X105674635Y-85713436D01*
X105671000Y-85676526D01*
X105671000Y-83263474D01*
X105674635Y-83226564D01*
X105683611Y-83196973D01*
X105698187Y-83169704D01*
X105717802Y-83145802D01*
X105741704Y-83126187D01*
X105768973Y-83111611D01*
X105798564Y-83102635D01*
X105835474Y-83099000D01*
X108248526Y-83099000D01*
X108285436Y-83102635D01*
G37*
G36*
X91335307Y-83102635D02*
G01*
X91581906Y-83151686D01*
X91831412Y-83255035D01*
X92055962Y-83405075D01*
X92246925Y-83596038D01*
X92396965Y-83820588D01*
X92500314Y-84070094D01*
X92553000Y-84334968D01*
X92553000Y-84605032D01*
X92500314Y-84869906D01*
X92396965Y-85119412D01*
X92246925Y-85343962D01*
X92055962Y-85534925D01*
X91831412Y-85684965D01*
X91581906Y-85788314D01*
X91354724Y-85833503D01*
X91317033Y-85841000D01*
X91046967Y-85841000D01*
X91009276Y-85833503D01*
X90782094Y-85788314D01*
X90532588Y-85684965D01*
X90308038Y-85534925D01*
X90117075Y-85343962D01*
X89967035Y-85119412D01*
X89863686Y-84869906D01*
X89811000Y-84605032D01*
X89811000Y-84334968D01*
X89863686Y-84070094D01*
X89967035Y-83820588D01*
X90117075Y-83596038D01*
X90308038Y-83405075D01*
X90532588Y-83255035D01*
X90782094Y-83151686D01*
X91028693Y-83102635D01*
X91046967Y-83099000D01*
X91317033Y-83099000D01*
X91335307Y-83102635D01*
G37*
G36*
X88285436Y-83102635D02*
G01*
X88315027Y-83111611D01*
X88342296Y-83126187D01*
X88366198Y-83145802D01*
X88385813Y-83169704D01*
X88400389Y-83196973D01*
X88409365Y-83226564D01*
X88413000Y-83263474D01*
X88413000Y-85676526D01*
X88409365Y-85713436D01*
X88400389Y-85743027D01*
X88385813Y-85770296D01*
X88366198Y-85794198D01*
X88342296Y-85813813D01*
X88315027Y-85828389D01*
X88285436Y-85837365D01*
X88248526Y-85841000D01*
X85835474Y-85841000D01*
X85798564Y-85837365D01*
X85768973Y-85828389D01*
X85741704Y-85813813D01*
X85717802Y-85794198D01*
X85698187Y-85770296D01*
X85683611Y-85743027D01*
X85674635Y-85713436D01*
X85671000Y-85676526D01*
X85671000Y-83263474D01*
X85674635Y-83226564D01*
X85683611Y-83196973D01*
X85698187Y-83169704D01*
X85717802Y-83145802D01*
X85741704Y-83126187D01*
X85768973Y-83111611D01*
X85798564Y-83102635D01*
X85835474Y-83099000D01*
X88248526Y-83099000D01*
X88285436Y-83102635D01*
G37*
G36*
X128285436Y-83102635D02*
G01*
X128315027Y-83111611D01*
X128342296Y-83126187D01*
X128366198Y-83145802D01*
X128385813Y-83169704D01*
X128400389Y-83196973D01*
X128409365Y-83226564D01*
X128413000Y-83263474D01*
X128413000Y-85676526D01*
X128409365Y-85713436D01*
X128400389Y-85743027D01*
X128385813Y-85770296D01*
X128366198Y-85794198D01*
X128342296Y-85813813D01*
X128315027Y-85828389D01*
X128285436Y-85837365D01*
X128248526Y-85841000D01*
X125835474Y-85841000D01*
X125798564Y-85837365D01*
X125768973Y-85828389D01*
X125741704Y-85813813D01*
X125717802Y-85794198D01*
X125698187Y-85770296D01*
X125683611Y-85743027D01*
X125674635Y-85713436D01*
X125671000Y-85676526D01*
X125671000Y-83263474D01*
X125674635Y-83226564D01*
X125683611Y-83196973D01*
X125698187Y-83169704D01*
X125717802Y-83145802D01*
X125741704Y-83126187D01*
X125768973Y-83111611D01*
X125798564Y-83102635D01*
X125835474Y-83099000D01*
X128248526Y-83099000D01*
X128285436Y-83102635D01*
G37*
G36*
X148285436Y-83102635D02*
G01*
X148315027Y-83111611D01*
X148342296Y-83126187D01*
X148366198Y-83145802D01*
X148385813Y-83169704D01*
X148400389Y-83196973D01*
X148409365Y-83226564D01*
X148413000Y-83263474D01*
X148413000Y-85676526D01*
X148409365Y-85713436D01*
X148400389Y-85743027D01*
X148385813Y-85770296D01*
X148366198Y-85794198D01*
X148342296Y-85813813D01*
X148315027Y-85828389D01*
X148285436Y-85837365D01*
X148248526Y-85841000D01*
X145835474Y-85841000D01*
X145798564Y-85837365D01*
X145768973Y-85828389D01*
X145741704Y-85813813D01*
X145717802Y-85794198D01*
X145698187Y-85770296D01*
X145683611Y-85743027D01*
X145674635Y-85713436D01*
X145671000Y-85676526D01*
X145671000Y-83263474D01*
X145674635Y-83226564D01*
X145683611Y-83196973D01*
X145698187Y-83169704D01*
X145717802Y-83145802D01*
X145741704Y-83126187D01*
X145768973Y-83111611D01*
X145798564Y-83102635D01*
X145835474Y-83099000D01*
X148248526Y-83099000D01*
X148285436Y-83102635D01*
G37*
G36*
X151335307Y-83102635D02*
G01*
X151581906Y-83151686D01*
X151831412Y-83255035D01*
X152055962Y-83405075D01*
X152246925Y-83596038D01*
X152396965Y-83820588D01*
X152500314Y-84070094D01*
X152553000Y-84334968D01*
X152553000Y-84605032D01*
X152500314Y-84869906D01*
X152396965Y-85119412D01*
X152246925Y-85343962D01*
X152055962Y-85534925D01*
X151831412Y-85684965D01*
X151581906Y-85788314D01*
X151354724Y-85833503D01*
X151317033Y-85841000D01*
X151046967Y-85841000D01*
X151009276Y-85833503D01*
X150782094Y-85788314D01*
X150532588Y-85684965D01*
X150308038Y-85534925D01*
X150117075Y-85343962D01*
X149967035Y-85119412D01*
X149863686Y-84869906D01*
X149811000Y-84605032D01*
X149811000Y-84334968D01*
X149863686Y-84070094D01*
X149967035Y-83820588D01*
X150117075Y-83596038D01*
X150308038Y-83405075D01*
X150532588Y-83255035D01*
X150782094Y-83151686D01*
X151028693Y-83102635D01*
X151046967Y-83099000D01*
X151317033Y-83099000D01*
X151335307Y-83102635D01*
G37*
G36*
X171335307Y-83102635D02*
G01*
X171581906Y-83151686D01*
X171831412Y-83255035D01*
X172055962Y-83405075D01*
X172246925Y-83596038D01*
X172396965Y-83820588D01*
X172500314Y-84070094D01*
X172553000Y-84334968D01*
X172553000Y-84605032D01*
X172500314Y-84869906D01*
X172396965Y-85119412D01*
X172246925Y-85343962D01*
X172055962Y-85534925D01*
X171831412Y-85684965D01*
X171581906Y-85788314D01*
X171354724Y-85833503D01*
X171317033Y-85841000D01*
X171046967Y-85841000D01*
X171009276Y-85833503D01*
X170782094Y-85788314D01*
X170532588Y-85684965D01*
X170308038Y-85534925D01*
X170117075Y-85343962D01*
X169967035Y-85119412D01*
X169863686Y-84869906D01*
X169811000Y-84605032D01*
X169811000Y-84334968D01*
X169863686Y-84070094D01*
X169967035Y-83820588D01*
X170117075Y-83596038D01*
X170308038Y-83405075D01*
X170532588Y-83255035D01*
X170782094Y-83151686D01*
X171028693Y-83102635D01*
X171046967Y-83099000D01*
X171317033Y-83099000D01*
X171335307Y-83102635D01*
G37*
G36*
X188285436Y-83102635D02*
G01*
X188315027Y-83111611D01*
X188342296Y-83126187D01*
X188366198Y-83145802D01*
X188385813Y-83169704D01*
X188400389Y-83196973D01*
X188409365Y-83226564D01*
X188413000Y-83263474D01*
X188413000Y-85676526D01*
X188409365Y-85713436D01*
X188400389Y-85743027D01*
X188385813Y-85770296D01*
X188366198Y-85794198D01*
X188342296Y-85813813D01*
X188315027Y-85828389D01*
X188285436Y-85837365D01*
X188248526Y-85841000D01*
X185835474Y-85841000D01*
X185798564Y-85837365D01*
X185768973Y-85828389D01*
X185741704Y-85813813D01*
X185717802Y-85794198D01*
X185698187Y-85770296D01*
X185683611Y-85743027D01*
X185674635Y-85713436D01*
X185671000Y-85676526D01*
X185671000Y-83263474D01*
X185674635Y-83226564D01*
X185683611Y-83196973D01*
X185698187Y-83169704D01*
X185717802Y-83145802D01*
X185741704Y-83126187D01*
X185768973Y-83111611D01*
X185798564Y-83102635D01*
X185835474Y-83099000D01*
X188248526Y-83099000D01*
X188285436Y-83102635D01*
G37*
G36*
X191335307Y-83102635D02*
G01*
X191581906Y-83151686D01*
X191831412Y-83255035D01*
X192055962Y-83405075D01*
X192246925Y-83596038D01*
X192396965Y-83820588D01*
X192500314Y-84070094D01*
X192553000Y-84334968D01*
X192553000Y-84605032D01*
X192500314Y-84869906D01*
X192396965Y-85119412D01*
X192246925Y-85343962D01*
X192055962Y-85534925D01*
X191831412Y-85684965D01*
X191581906Y-85788314D01*
X191354724Y-85833503D01*
X191317033Y-85841000D01*
X191046967Y-85841000D01*
X191009276Y-85833503D01*
X190782094Y-85788314D01*
X190532588Y-85684965D01*
X190308038Y-85534925D01*
X190117075Y-85343962D01*
X189967035Y-85119412D01*
X189863686Y-84869906D01*
X189811000Y-84605032D01*
X189811000Y-84334968D01*
X189863686Y-84070094D01*
X189967035Y-83820588D01*
X190117075Y-83596038D01*
X190308038Y-83405075D01*
X190532588Y-83255035D01*
X190782094Y-83151686D01*
X191028693Y-83102635D01*
X191046967Y-83099000D01*
X191317033Y-83099000D01*
X191335307Y-83102635D01*
G37*
G36*
X208285436Y-83102635D02*
G01*
X208315027Y-83111611D01*
X208342296Y-83126187D01*
X208366198Y-83145802D01*
X208385813Y-83169704D01*
X208400389Y-83196973D01*
X208409365Y-83226564D01*
X208413000Y-83263474D01*
X208413000Y-85676526D01*
X208409365Y-85713436D01*
X208400389Y-85743027D01*
X208385813Y-85770296D01*
X208366198Y-85794198D01*
X208342296Y-85813813D01*
X208315027Y-85828389D01*
X208285436Y-85837365D01*
X208248526Y-85841000D01*
X205835474Y-85841000D01*
X205798564Y-85837365D01*
X205768973Y-85828389D01*
X205741704Y-85813813D01*
X205717802Y-85794198D01*
X205698187Y-85770296D01*
X205683611Y-85743027D01*
X205674635Y-85713436D01*
X205671000Y-85676526D01*
X205671000Y-83263474D01*
X205674635Y-83226564D01*
X205683611Y-83196973D01*
X205698187Y-83169704D01*
X205717802Y-83145802D01*
X205741704Y-83126187D01*
X205768973Y-83111611D01*
X205798564Y-83102635D01*
X205835474Y-83099000D01*
X208248526Y-83099000D01*
X208285436Y-83102635D01*
G37*
G36*
X211335307Y-83102635D02*
G01*
X211581906Y-83151686D01*
X211831412Y-83255035D01*
X212055962Y-83405075D01*
X212246925Y-83596038D01*
X212396965Y-83820588D01*
X212500314Y-84070094D01*
X212553000Y-84334968D01*
X212553000Y-84605032D01*
X212500314Y-84869906D01*
X212396965Y-85119412D01*
X212246925Y-85343962D01*
X212055962Y-85534925D01*
X211831412Y-85684965D01*
X211581906Y-85788314D01*
X211354724Y-85833503D01*
X211317033Y-85841000D01*
X211046967Y-85841000D01*
X211009276Y-85833503D01*
X210782094Y-85788314D01*
X210532588Y-85684965D01*
X210308038Y-85534925D01*
X210117075Y-85343962D01*
X209967035Y-85119412D01*
X209863686Y-84869906D01*
X209811000Y-84605032D01*
X209811000Y-84334968D01*
X209863686Y-84070094D01*
X209967035Y-83820588D01*
X210117075Y-83596038D01*
X210308038Y-83405075D01*
X210532588Y-83255035D01*
X210782094Y-83151686D01*
X211028693Y-83102635D01*
X211046967Y-83099000D01*
X211317033Y-83099000D01*
X211335307Y-83102635D01*
G37*
G36*
X131335307Y-83102635D02*
G01*
X131581906Y-83151686D01*
X131831412Y-83255035D01*
X132055962Y-83405075D01*
X132246925Y-83596038D01*
X132396965Y-83820588D01*
X132500314Y-84070094D01*
X132553000Y-84334968D01*
X132553000Y-84605032D01*
X132500314Y-84869906D01*
X132396965Y-85119412D01*
X132246925Y-85343962D01*
X132055962Y-85534925D01*
X131831412Y-85684965D01*
X131581906Y-85788314D01*
X131354724Y-85833503D01*
X131317033Y-85841000D01*
X131046967Y-85841000D01*
X131009276Y-85833503D01*
X130782094Y-85788314D01*
X130532588Y-85684965D01*
X130308038Y-85534925D01*
X130117075Y-85343962D01*
X129967035Y-85119412D01*
X129863686Y-84869906D01*
X129811000Y-84605032D01*
X129811000Y-84334968D01*
X129863686Y-84070094D01*
X129967035Y-83820588D01*
X130117075Y-83596038D01*
X130308038Y-83405075D01*
X130532588Y-83255035D01*
X130782094Y-83151686D01*
X131028693Y-83102635D01*
X131046967Y-83099000D01*
X131317033Y-83099000D01*
X131335307Y-83102635D01*
G37*
G36*
X168285436Y-83102635D02*
G01*
X168315027Y-83111611D01*
X168342296Y-83126187D01*
X168366198Y-83145802D01*
X168385813Y-83169704D01*
X168400389Y-83196973D01*
X168409365Y-83226564D01*
X168413000Y-83263474D01*
X168413000Y-85676526D01*
X168409365Y-85713436D01*
X168400389Y-85743027D01*
X168385813Y-85770296D01*
X168366198Y-85794198D01*
X168342296Y-85813813D01*
X168315027Y-85828389D01*
X168285436Y-85837365D01*
X168248526Y-85841000D01*
X165835474Y-85841000D01*
X165798564Y-85837365D01*
X165768973Y-85828389D01*
X165741704Y-85813813D01*
X165717802Y-85794198D01*
X165698187Y-85770296D01*
X165683611Y-85743027D01*
X165674635Y-85713436D01*
X165671000Y-85676526D01*
X165671000Y-83263474D01*
X165674635Y-83226564D01*
X165683611Y-83196973D01*
X165698187Y-83169704D01*
X165717802Y-83145802D01*
X165741704Y-83126187D01*
X165768973Y-83111611D01*
X165798564Y-83102635D01*
X165835474Y-83099000D01*
X168248526Y-83099000D01*
X168285436Y-83102635D01*
G37*
G36*
X187520661Y-78452062D02*
G01*
X187819303Y-78575764D01*
X187819305Y-78575765D01*
X188088076Y-78755352D01*
X188316648Y-78983924D01*
X188496236Y-79252697D01*
X188619938Y-79551339D01*
X188683000Y-79868374D01*
X188683000Y-80191626D01*
X188619938Y-80508661D01*
X188496236Y-80807303D01*
X188496235Y-80807305D01*
X188316648Y-81076076D01*
X188088076Y-81304648D01*
X187819305Y-81484235D01*
X187819304Y-81484236D01*
X187819303Y-81484236D01*
X187520661Y-81607938D01*
X187203626Y-81671000D01*
X186880374Y-81671000D01*
X186563339Y-81607938D01*
X186264697Y-81484236D01*
X186264696Y-81484236D01*
X186264695Y-81484235D01*
X185995924Y-81304648D01*
X185767352Y-81076076D01*
X185587765Y-80807305D01*
X185587764Y-80807303D01*
X185464062Y-80508661D01*
X185401000Y-80191626D01*
X185401000Y-79868374D01*
X185464062Y-79551339D01*
X185587764Y-79252697D01*
X185767352Y-78983924D01*
X185995924Y-78755352D01*
X186264695Y-78575765D01*
X186264697Y-78575764D01*
X186563339Y-78452062D01*
X186880374Y-78389000D01*
X187203626Y-78389000D01*
X187520661Y-78452062D01*
G37*
G36*
X207520661Y-78452062D02*
G01*
X207819303Y-78575764D01*
X207819305Y-78575765D01*
X208088076Y-78755352D01*
X208316648Y-78983924D01*
X208496236Y-79252697D01*
X208619938Y-79551339D01*
X208683000Y-79868374D01*
X208683000Y-80191626D01*
X208619938Y-80508661D01*
X208496236Y-80807303D01*
X208496235Y-80807305D01*
X208316648Y-81076076D01*
X208088076Y-81304648D01*
X207819305Y-81484235D01*
X207819304Y-81484236D01*
X207819303Y-81484236D01*
X207520661Y-81607938D01*
X207203626Y-81671000D01*
X206880374Y-81671000D01*
X206563339Y-81607938D01*
X206264697Y-81484236D01*
X206264696Y-81484236D01*
X206264695Y-81484235D01*
X205995924Y-81304648D01*
X205767352Y-81076076D01*
X205587765Y-80807305D01*
X205587764Y-80807303D01*
X205464062Y-80508661D01*
X205401000Y-80191626D01*
X205401000Y-79868374D01*
X205464062Y-79551339D01*
X205587764Y-79252697D01*
X205767352Y-78983924D01*
X205995924Y-78755352D01*
X206264695Y-78575765D01*
X206264697Y-78575764D01*
X206563339Y-78452062D01*
X206880374Y-78389000D01*
X207203626Y-78389000D01*
X207520661Y-78452062D01*
G37*
G36*
X167520661Y-78452062D02*
G01*
X167819303Y-78575764D01*
X167819305Y-78575765D01*
X168088076Y-78755352D01*
X168316648Y-78983924D01*
X168496236Y-79252697D01*
X168619938Y-79551339D01*
X168683000Y-79868374D01*
X168683000Y-80191626D01*
X168619938Y-80508661D01*
X168496236Y-80807303D01*
X168496235Y-80807305D01*
X168316648Y-81076076D01*
X168088076Y-81304648D01*
X167819305Y-81484235D01*
X167819304Y-81484236D01*
X167819303Y-81484236D01*
X167520661Y-81607938D01*
X167203626Y-81671000D01*
X166880374Y-81671000D01*
X166563339Y-81607938D01*
X166264697Y-81484236D01*
X166264696Y-81484236D01*
X166264695Y-81484235D01*
X165995924Y-81304648D01*
X165767352Y-81076076D01*
X165587765Y-80807305D01*
X165587764Y-80807303D01*
X165464062Y-80508661D01*
X165401000Y-80191626D01*
X165401000Y-79868374D01*
X165464062Y-79551339D01*
X165587764Y-79252697D01*
X165767352Y-78983924D01*
X165995924Y-78755352D01*
X166264695Y-78575765D01*
X166264697Y-78575764D01*
X166563339Y-78452062D01*
X166880374Y-78389000D01*
X167203626Y-78389000D01*
X167520661Y-78452062D01*
G37*
G36*
X147520661Y-78452062D02*
G01*
X147819303Y-78575764D01*
X147819305Y-78575765D01*
X148088076Y-78755352D01*
X148316648Y-78983924D01*
X148496236Y-79252697D01*
X148619938Y-79551339D01*
X148683000Y-79868374D01*
X148683000Y-80191626D01*
X148619938Y-80508661D01*
X148496236Y-80807303D01*
X148496235Y-80807305D01*
X148316648Y-81076076D01*
X148088076Y-81304648D01*
X147819305Y-81484235D01*
X147819304Y-81484236D01*
X147819303Y-81484236D01*
X147520661Y-81607938D01*
X147203626Y-81671000D01*
X146880374Y-81671000D01*
X146563339Y-81607938D01*
X146264697Y-81484236D01*
X146264696Y-81484236D01*
X146264695Y-81484235D01*
X145995924Y-81304648D01*
X145767352Y-81076076D01*
X145587765Y-80807305D01*
X145587764Y-80807303D01*
X145464062Y-80508661D01*
X145401000Y-80191626D01*
X145401000Y-79868374D01*
X145464062Y-79551339D01*
X145587764Y-79252697D01*
X145767352Y-78983924D01*
X145995924Y-78755352D01*
X146264695Y-78575765D01*
X146264697Y-78575764D01*
X146563339Y-78452062D01*
X146880374Y-78389000D01*
X147203626Y-78389000D01*
X147520661Y-78452062D01*
G37*
G36*
X127520661Y-78452062D02*
G01*
X127819303Y-78575764D01*
X127819305Y-78575765D01*
X128088076Y-78755352D01*
X128316648Y-78983924D01*
X128496236Y-79252697D01*
X128619938Y-79551339D01*
X128683000Y-79868374D01*
X128683000Y-80191626D01*
X128619938Y-80508661D01*
X128496236Y-80807303D01*
X128496235Y-80807305D01*
X128316648Y-81076076D01*
X128088076Y-81304648D01*
X127819305Y-81484235D01*
X127819304Y-81484236D01*
X127819303Y-81484236D01*
X127520661Y-81607938D01*
X127203626Y-81671000D01*
X126880374Y-81671000D01*
X126563339Y-81607938D01*
X126264697Y-81484236D01*
X126264696Y-81484236D01*
X126264695Y-81484235D01*
X125995924Y-81304648D01*
X125767352Y-81076076D01*
X125587765Y-80807305D01*
X125587764Y-80807303D01*
X125464062Y-80508661D01*
X125401000Y-80191626D01*
X125401000Y-79868374D01*
X125464062Y-79551339D01*
X125587764Y-79252697D01*
X125767352Y-78983924D01*
X125995924Y-78755352D01*
X126264695Y-78575765D01*
X126264697Y-78575764D01*
X126563339Y-78452062D01*
X126880374Y-78389000D01*
X127203626Y-78389000D01*
X127520661Y-78452062D01*
G37*
G36*
X107520661Y-78452062D02*
G01*
X107819303Y-78575764D01*
X107819305Y-78575765D01*
X108088076Y-78755352D01*
X108316648Y-78983924D01*
X108496236Y-79252697D01*
X108619938Y-79551339D01*
X108683000Y-79868374D01*
X108683000Y-80191626D01*
X108619938Y-80508661D01*
X108496236Y-80807303D01*
X108496235Y-80807305D01*
X108316648Y-81076076D01*
X108088076Y-81304648D01*
X107819305Y-81484235D01*
X107819304Y-81484236D01*
X107819303Y-81484236D01*
X107520661Y-81607938D01*
X107203626Y-81671000D01*
X106880374Y-81671000D01*
X106563339Y-81607938D01*
X106264697Y-81484236D01*
X106264696Y-81484236D01*
X106264695Y-81484235D01*
X105995924Y-81304648D01*
X105767352Y-81076076D01*
X105587765Y-80807305D01*
X105587764Y-80807303D01*
X105464062Y-80508661D01*
X105401000Y-80191626D01*
X105401000Y-79868374D01*
X105464062Y-79551339D01*
X105587764Y-79252697D01*
X105767352Y-78983924D01*
X105995924Y-78755352D01*
X106264695Y-78575765D01*
X106264697Y-78575764D01*
X106563339Y-78452062D01*
X106880374Y-78389000D01*
X107203626Y-78389000D01*
X107520661Y-78452062D01*
G37*
G36*
X87520661Y-78452062D02*
G01*
X87819303Y-78575764D01*
X87819305Y-78575765D01*
X88088076Y-78755352D01*
X88316648Y-78983924D01*
X88496236Y-79252697D01*
X88619938Y-79551339D01*
X88683000Y-79868374D01*
X88683000Y-80191626D01*
X88619938Y-80508661D01*
X88496236Y-80807303D01*
X88496235Y-80807305D01*
X88316648Y-81076076D01*
X88088076Y-81304648D01*
X87819305Y-81484235D01*
X87819304Y-81484236D01*
X87819303Y-81484236D01*
X87520661Y-81607938D01*
X87203626Y-81671000D01*
X86880374Y-81671000D01*
X86563339Y-81607938D01*
X86264697Y-81484236D01*
X86264696Y-81484236D01*
X86264695Y-81484235D01*
X85995924Y-81304648D01*
X85767352Y-81076076D01*
X85587765Y-80807305D01*
X85587764Y-80807303D01*
X85464062Y-80508661D01*
X85401000Y-80191626D01*
X85401000Y-79868374D01*
X85464062Y-79551339D01*
X85587764Y-79252697D01*
X85767352Y-78983924D01*
X85995924Y-78755352D01*
X86264695Y-78575765D01*
X86264697Y-78575764D01*
X86563339Y-78452062D01*
X86880374Y-78389000D01*
X87203626Y-78389000D01*
X87520661Y-78452062D01*
G37*
M02*
