M48
; DRILL file {KiCad (5.1.5)-3} date 06/07/2020 01:22:10
; FORMAT={-:-/ absolute / inch / decimal}
; #@! TF.CreationDate,2020-07-06T01:22:10-04:00
; #@! TF.GenerationSoftware,Kicad,Pcbnew,(5.1.5)-3
; #@! TF.FileFunction,Plated,1,2,PTH
FMAT,2
INCH
T1C0.0157
T2C0.0551
%
G90
G05
T1
X3.9993Y-3.7657
X3.9993Y-4.0343
X3.9994Y-3.2406
X3.9994Y-3.3256
X4.0Y-3.49
X4.0Y-3.595
X4.0Y-4.36
X4.0Y-4.5
X4.3743Y-3.7657
X4.375Y-3.24
X4.375Y-3.595
X4.375Y-4.5
X4.7844Y-3.2406
X4.7844Y-3.3256
X4.785Y-3.49
X4.785Y-3.595
X4.7893Y-3.7657
X4.7893Y-4.0343
X4.79Y-4.36
X4.79Y-4.5
X5.16Y-3.24
X5.16Y-3.595
X5.1643Y-3.7657
X5.165Y-4.5
X5.5743Y-3.7657
X5.5743Y-4.0343
X5.5744Y-3.2406
X5.5744Y-3.3256
X5.575Y-3.49
X5.575Y-3.595
X5.575Y-4.36
X5.575Y-4.5
X5.9493Y-3.7657
X5.95Y-3.24
X5.95Y-3.595
X5.95Y-4.5
X6.36Y-3.49
X6.36Y-3.595
X6.36Y-4.36
X6.36Y-4.5
X6.3643Y-3.7657
X6.3643Y-4.0343
X6.3644Y-3.2406
X6.3644Y-3.3256
X6.735Y-3.595
X6.735Y-4.5
X6.7393Y-3.7657
X6.74Y-3.24
X7.1493Y-3.7657
X7.1493Y-4.0343
X7.1494Y-3.2406
X7.1494Y-3.3256
X7.15Y-3.49
X7.15Y-3.595
X7.15Y-4.36
X7.15Y-4.5
X7.5243Y-3.7657
X7.525Y-3.24
X7.525Y-3.595
X7.525Y-4.5
X7.935Y-4.36
X7.935Y-4.5
X7.9393Y-3.7657
X7.9393Y-4.0343
X7.9394Y-3.2406
X7.9394Y-3.3256
X7.94Y-3.49
X7.94Y-3.595
X8.31Y-4.5
X8.3143Y-3.7657
X8.315Y-3.24
X8.315Y-3.595
T2
X7.3639Y-3.3256
X7.3639Y-3.4886
X7.5269Y-3.3256
X7.5269Y-3.4886
X3.4269Y-3.3256
X3.4269Y-3.4886
X3.5898Y-3.3256
X3.5898Y-3.4886
X4.2143Y-4.0343
X4.2143Y-4.1972
X4.2143Y-4.3602
X4.3772Y-4.0343
X4.3772Y-4.1972
X4.3772Y-4.3602
X5.7891Y-4.0343
X5.7891Y-4.1972
X5.7891Y-4.3602
X5.952Y-4.0343
X5.952Y-4.1972
X5.952Y-4.3602
X3.4269Y-4.0343
X3.4269Y-4.1972
X3.4269Y-4.3602
X3.5898Y-4.0343
X3.5898Y-4.1972
X3.5898Y-4.3602
X6.5765Y-3.3256
X6.5765Y-3.4886
X6.7394Y-3.3256
X6.7394Y-3.4886
X8.1513Y-4.0343
X8.1513Y-4.1972
X8.1513Y-4.3602
X8.3143Y-4.0343
X8.3143Y-4.1972
X8.3143Y-4.3602
X5.0017Y-4.0343
X5.0017Y-4.1972
X5.0017Y-4.3602
X5.1646Y-4.0343
X5.1646Y-4.1972
X5.1646Y-4.3602
X7.3639Y-4.0343
X7.3639Y-4.1972
X7.3639Y-4.3602
X7.5269Y-4.0343
X7.5269Y-4.1972
X7.5269Y-4.3602
X8.1513Y-3.3256
X8.1513Y-3.4886
X8.3143Y-3.3256
X8.3143Y-3.4886
X5.7891Y-3.3256
X5.7891Y-3.4886
X5.952Y-3.3256
X5.952Y-3.4886
X5.0017Y-3.3256
X5.0017Y-3.4886
X5.1646Y-3.3256
X5.1646Y-3.4886
X6.5765Y-4.0343
X6.5765Y-4.1972
X6.5765Y-4.3602
X6.7394Y-4.0343
X6.7394Y-4.1972
X6.7394Y-4.3602
X4.2143Y-3.3256
X4.2143Y-3.4886
X4.3772Y-3.3256
X4.3772Y-3.4886
T0
M30
